<?xml version="1.0" standalone="no"?>
<!DOCTYPE svg PUBLIC "-//W3C//DTD SVG 1.1//EN" "http://www.w3.org/Graphics/SVG/1.1/DTD/svg11.dtd" >
<svg xmlns="http://www.w3.org/2000/svg">
<metadata></metadata>
<defs>
<font id="gbibold" horiz-adv-x="1024" >
<font-face units-per-em="2048" ascent="1638" descent="-410" />
<missing-glyph horiz-adv-x="614" />
<glyph unicode="&#xfb01;" horiz-adv-x="1460" d="M47 0l225 831h-131l72 267h129l10 43q39 164 129 254q115 115 320 114q127 0 213 -30l-68 -258q-66 27 -135 26q-121 0 -154 -119l-8 -30h264l-71 -267h-258l-226 -831h-311zM848 0l295 1098h311l-295 -1098h-311zM1167 1219l76 276h328l-76 -276h-328z" />
<glyph unicode="&#xfb02;" horiz-adv-x="1460" d="M47 0l225 831h-131l72 267h129l10 43q39 164 129 254q115 115 320 114q127 0 213 -30l-68 -258q-66 27 -135 26q-121 0 -154 -119l-8 -30h264l-71 -267h-258l-226 -831h-311zM848 0l401 1495h312l-402 -1495h-311z" />
<glyph unicode="&#xfb03;" horiz-adv-x="2301" d="M47 0l225 831h-131l72 267h129l10 43q39 164 129 254q115 115 320 114q127 0 213 -30l-68 -258q-66 27 -135 26q-121 0 -154 -119l-8 -30h264l-71 -267h-258l-226 -831h-311zM889 0l225 831h-131l72 267h129l10 43q39 164 129 254q115 115 319 114q127 0 213 -30 l-67 -258q-68 27 -135 26q-121 0 -154 -119l-8 -30h264l-72 -267h-258l-225 -831h-311zM1690 0l295 1098h311l-295 -1098h-311zM2009 1219l76 276h328l-76 -276h-328z" />
<glyph unicode="&#xfb04;" horiz-adv-x="2301" d="M47 0l225 831h-131l72 267h129l10 43q39 164 129 254q115 115 320 114q127 0 213 -30l-68 -258q-66 27 -135 26q-121 0 -154 -119l-8 -30h264l-71 -267h-258l-226 -831h-311zM889 0l225 831h-131l72 267h129l10 43q39 164 129 254q115 115 319 114q127 0 213 -30 l-67 -258q-68 27 -135 26q-121 0 -154 -119l-8 -30h264l-72 -267h-258l-225 -831h-311zM1690 0l401 1495h311l-401 -1495h-311z" />
<glyph horiz-adv-x="0" />
<glyph unicode="&#xd;" horiz-adv-x="681" />
<glyph unicode=" "  horiz-adv-x="614" />
<glyph unicode="&#x09;" horiz-adv-x="614" />
<glyph unicode="&#xa0;" horiz-adv-x="614" />
<glyph unicode="!" horiz-adv-x="665" d="M18 0l88 328h332l-88 -328h-332zM229 487l146 906l12 41h365l-13 -41l-338 -906h-172z" />
<glyph unicode="&#x22;" horiz-adv-x="1081" d="M203 780l172 654h348l-4 -11l-354 -643h-162zM698 780l172 654h349l-5 -11l-354 -643h-162z" />
<glyph unicode="#" horiz-adv-x="1415" d="M23 307l69 262h189l104 303h-190l69 263h213l105 299h270l-104 -299h296l105 299h270l-104 -299h168l-70 -263h-190l-105 -303h193l-70 -262h-215l-106 -307h-271l107 307h-297l-107 -307h-270l106 307h-165zM551 569h297l104 303h-297z" />
<glyph unicode="$" horiz-adv-x="1302" d="M-10 264l229 193q115 -131 264 -170l99 315q-168 61 -254 145t-86 236q0 193 162.5 322t402.5 129h16l37 118h213l-43 -145q180 -49 316 -186l-213 -209q-98 92 -191 125l-92 -306q164 -61 248 -147t84 -233q0 -199 -165 -325t-411 -126h-2l-61 -201h-213l67 221 q-262 53 -407 244zM565 1016q0 -37 23.5 -63.5t85.5 -53.5l78 264q-94 -6 -140.5 -47t-46.5 -100zM676 270q86 8 134 46.5t48 101.5q0 70 -100 119z" />
<glyph unicode="%" horiz-adv-x="1802" d="M123 0l688 715l690 719h266l-688 -715l-690 -719h-266zM172 1024q0 184 129 313q113 113 268 113q141 0 228.5 -87t87.5 -228q0 -184 -129 -314q-113 -112 -269 -112q-141 0 -228 87t-87 228zM373 1032q0 -68 34 -106.5t93 -38.5q61 0 108 47q76 76 76 192q0 68 -34 107 t-93 39q-61 0 -108 -47q-76 -76 -76 -193zM1006 299q0 184 129 313q113 113 268 113q141 0 228 -87t87 -228q0 -184 -129 -314q-112 -112 -268 -112q-141 0 -228 87t-87 228zM1206 307q0 -68 34 -106.5t93 -38.5q61 0 109 47q76 76 76 192q0 68 -34 107t-93 39 q-61 0 -109 -47q-76 -76 -76 -193z" />
<glyph unicode="&#x26;" horiz-adv-x="1425" d="M47 365q0 139 99.5 258.5t304.5 187.5q-74 131 -74 248q0 164 127 281.5t330 117.5q176 0 285.5 -97t109.5 -247q0 -264 -387 -399l162 -215q88 92 174 231l190 -133q-111 -166 -223 -289l141 -190l-231 -148l-115 158q-211 -150 -438 -149q-203 0 -329 103t-126 282z M344 383q0 -63 50.5 -104t142.5 -41q127 0 260 88l-219 303q-233 -90 -234 -246zM653 1055q0 -74 58 -162q137 47 187 93t50 110q0 45 -33.5 80.5t-95.5 35.5q-74 0 -120 -47t-46 -110z" />
<glyph unicode="'" horiz-adv-x="585" d="M203 780l172 654h348l-4 -11l-354 -643h-162z" />
<glyph unicode="(" horiz-adv-x="911" d="M119 428q0 408 303 711q199 199 506 321l114 -231q-213 -96 -364 -248q-244 -244 -244 -543q0 -268 254 -532l-194 -199q-375 301 -375 721z" />
<glyph unicode=")" horiz-adv-x="911" d="M-111 -53q213 96 365 248q244 244 244 542q0 268 -254 533l194 198q375 -301 375 -720q0 -408 -303 -711q-199 -199 -506 -322z" />
<glyph unicode="*" horiz-adv-x="880" d="M225 1094l248 32l-197 154l121 121l152 -199l33 246l161 -43l-94 -229l232 94l45 -164l-248 -33l196 -153l-120 -121l-152 198l-33 -245l-161 43l94 229l-232 -94z" />
<glyph unicode="+" horiz-adv-x="1310" d="M147 580l76 282h371l98 369h291l-98 -369h370l-75 -282h-371l-98 -369h-291l98 369h-371z" />
<glyph unicode="," horiz-adv-x="653" d="M-125 -203q233 20 266 203h-127l88 328h332l-74 -277q-53 -199 -165.5 -289t-298.5 -94z" />
<glyph unicode="-" horiz-adv-x="843" d="M90 485l80 299h631l-80 -299h-631z" />
<glyph unicode="." horiz-adv-x="653" d="M14 0l88 328h332l-88 -328h-332z" />
<glyph unicode="/" horiz-adv-x="1085" d="M-276 -262l1394 1896h293l-1395 -1896h-292z" />
<glyph unicode="0" horiz-adv-x="1495" d="M127 571q0 186 70.5 367.5t199.5 310.5q209 209 498 209q252 0 405.5 -162.5t153.5 -433.5q0 -186 -70.5 -367.5t-199.5 -310.5q-209 -209 -498 -209q-252 0 -405.5 163t-153.5 433zM451 569q0 -150 69.5 -229.5t190.5 -79.5q125 0 229 105q88 88 139 226t51 273 q0 150 -69.5 230t-190.5 80q-125 0 -229 -105q-88 -88 -139 -226t-51 -274z" />
<glyph unicode="1" horiz-adv-x="888" d="M195 0l297 1110l-261 -59l-4 268l451 125h215l-387 -1444h-311z" />
<glyph unicode="2" horiz-adv-x="1257" d="M-61 0l69 258l725 500q209 143 209 266q0 70 -48 108.5t-132 38.5q-158 0 -342 -178l-193 201q229 260 549 260q221 0 355.5 -110.5t134.5 -284.5q0 -135 -75 -243.5t-263 -240.5l-443 -303h602l-73 -272h-1075z" />
<glyph unicode="3" horiz-adv-x="1236" d="M-35 248l234 172q119 -162 311 -162q113 0 191.5 60.5t78.5 140.5q0 82 -73.5 126t-206.5 44h-88l-13 196l422 338h-542l73 271h969l-66 -238l-462 -352q305 -74 305 -357q0 -195 -142 -335q-175 -177 -460 -177q-373 0 -531 273z" />
<glyph unicode="4" horiz-adv-x="1349" d="M33 543l989 901h307l-235 -879h192l-69 -256h-193l-82 -309h-297l82 309h-664zM432 565h365l123 459z" />
<glyph unicode="5" horiz-adv-x="1249" d="M-18 233l221 187q145 -158 336 -158q125 0 207.5 65.5t82.5 157.5q0 82 -67.5 133.5t-198.5 51.5q-86 0 -192 -45l-160 129l223 680h869l-76 -277h-584l-82 -244q76 16 146 17q199 0 322.5 -111.5t123.5 -298.5q0 -205 -152 -356q-186 -187 -489 -187q-154 0 -305.5 74 t-224.5 182z" />
<glyph unicode="6" horiz-adv-x="1316" d="M121 510q0 209 72.5 403.5t207.5 329.5q215 215 521 215q262 0 442 -166l-182 -227q-125 111 -287 111q-166 0 -279 -113q-100 -100 -147 -252q49 49 141 85t189 36q186 0 311 -106.5t125 -293.5q0 -215 -164 -378q-178 -179 -430 -179q-242 0 -373 131 q-147 147 -147 404zM420 432q0 -76 53 -129q62 -61 168 -61q123 0 205 82q72 72 72 165q0 86 -59.5 137.5t-156.5 51.5q-133 0 -213 -80q-70 -70 -69 -166z" />
<glyph unicode="7" horiz-adv-x="1247" d="M18 0l891 1161h-659l74 273h1032l-66 -238l-901 -1196h-371z" />
<glyph unicode="8" horiz-adv-x="1355" d="M66 385q0 156 99 253t267 138q-84 43 -129 117t-45 160q0 156 143.5 278.5t395.5 122.5q223 0 365.5 -108.5t142.5 -276.5q0 -135 -83 -229.5t-231 -128.5q100 -39 159.5 -117t59.5 -188q0 -172 -164 -299t-432 -127q-227 0 -387.5 112.5t-160.5 292.5zM373 412 q-2 -78 69.5 -128.5t188.5 -50.5t193.5 52.5t78.5 136.5q2 78 -70.5 127t-189.5 49t-192.5 -53t-77.5 -133zM549 1020q-2 -72 60.5 -120t164.5 -48q100 0 167 51t69 127q2 72 -58.5 119t-169.5 47q-96 0 -163.5 -50t-69.5 -126z" />
<glyph unicode="9" horiz-adv-x="1316" d="M27 158l184 227q150 -127 303 -127q164 0 281 117q94 94 139 231q-49 -49 -139 -84t-187 -35q-188 0 -312 106.5t-124 299.5q0 227 162 389q176 176 432 176q109 0 211 -33.5t164 -95.5q147 -147 147 -434q0 -197 -74.5 -383t-212.5 -324q-212 -213 -503 -213 q-266 0 -471 183zM489 934q0 -92 61 -142.5t159 -50.5q127 0 206 80q72 72 72 174q0 84 -51 135q-61 61 -168 62q-125 0 -205 -80q-74 -74 -74 -178z" />
<glyph unicode=":" horiz-adv-x="653" d="M14 0l88 328h332l-88 -328h-332zM221 770l88 328h332l-88 -328h-332z" />
<glyph unicode=";" horiz-adv-x="653" d="M-125 -203q233 20 266 203h-127l88 328h332l-74 -277q-53 -199 -165.5 -289t-298.5 -94zM221 770l88 328h332l-88 -328h-332z" />
<glyph unicode="&#x3c;" horiz-adv-x="1310" d="M147 580l76 282l1108 434l-84 -303l-768 -284l617 -285l-74 -279z" />
<glyph unicode="=" horiz-adv-x="1310" d="M111 313l75 283h971l-76 -283h-970zM254 846l76 282h970l-75 -282h-971z" />
<glyph unicode="&#x3e;" horiz-adv-x="1310" d="M66 145l84 304l768 284l-617 285l74 278l874 -434l-75 -282z" />
<glyph unicode="?" horiz-adv-x="1114" d="M176 0l88 328h332l-88 -328h-332zM199 1251q96 98 228 149.5t271 51.5q209 0 333 -109.5t124 -263.5q0 -180 -133 -294.5t-391 -153.5l-60 -144h-209l41 332l13 10q410 29 409 209q0 127 -170 127q-152 0 -293 -121z" />
<glyph unicode="@" horiz-adv-x="2007" d="M113 477q0 260 131 487.5t362.5 363.5t503.5 136q373 0 601 -206.5t228 -497.5q0 -305 -142 -466t-343 -161q-102 0 -177 42t-108 116q-156 -160 -327 -160q-141 0 -235.5 92t-94.5 254q0 240 157.5 402.5t356.5 162.5q180 0 268 -143l39 127l228 -63l-154 -484 q-25 -78 -25 -123q0 -61 37 -94t99 -33q123 0 229 144.5t106 386.5q0 258 -204.5 440t-538.5 182q-252 0 -463 -126t-330.5 -333.5t-119.5 -445.5q0 -315 214 -515t554 -200q215 0 419 93l33 -72q-214 -100 -452 -100q-375 0 -613.5 222t-238.5 572zM772 514q0 -82 46 -129 t126 -47q106 0 194.5 97t88.5 229q0 76 -49.5 123t-128.5 47q-106 0 -191.5 -94.5t-85.5 -225.5z" />
<glyph unicode="A" horiz-adv-x="1566" d="M-117 0l1002 1444h303l227 -1444h-323l-45 322h-607l-217 -322h-340zM629 600h381l-66 473z" />
<glyph unicode="B" horiz-adv-x="1468" d="M25 0l385 1434h557q242 0 363.5 -99.5t121.5 -253.5q0 -139 -83 -231t-224 -123q201 -94 201 -290.5t-163 -316.5t-454 -120h-704zM406 276h370q119 0 187.5 48.5t68.5 132.5q0 63 -50 99t-146 36h-347zM561 854h318q258 0 258 174q0 59 -49.5 94t-149.5 35h-297z" />
<glyph unicode="C" horiz-adv-x="1486" d="M137 600q0 346 254 600q258 258 619 258q387 0 573 -305l-260 -182q-70 98 -150.5 147t-201.5 49q-188 0 -336 -147q-170 -170 -170 -408q0 -154 98.5 -250t251.5 -96q96 0 171 35t165 107l205 -213q-238 -220 -543 -220q-297 0 -486.5 171t-189.5 454z" />
<glyph unicode="D" horiz-adv-x="1591" d="M25 0l385 1434h417q377 0 562 -185q156 -156 155 -420q0 -330 -235 -565q-264 -264 -752 -264h-532zM416 285h178q305 0 479 174q143 143 144 358q0 143 -84 227q-104 104 -330 105h-154z" />
<glyph unicode="E" horiz-adv-x="1361" d="M25 0l385 1434h1071l-76 -281h-758l-78 -293h666l-76 -276h-665l-82 -303h770l-76 -281h-1081z" />
<glyph unicode="F" horiz-adv-x="1357" d="M25 0l385 1434h1091l-78 -287h-776l-82 -305h684l-75 -287h-685l-149 -555h-315z" />
<glyph unicode="G" horiz-adv-x="1597" d="M135 598q0 344 254 598q262 262 641 262q395 0 586 -248l-234 -206q-151 165 -373 165h-3q-219 0 -377 -157q-166 -166 -166 -404q0 -162 104.5 -253t261.5 -91q133 0 256 55l68 234h-317l73 272h623l-203 -714q-239 -136 -520 -136q-127 0 -245 38t-215 112 t-155.5 196.5t-58.5 276.5z" />
<glyph unicode="H" horiz-adv-x="1548" d="M25 0l385 1434h315l-152 -568h574l151 568h316l-385 -1434h-316l156 575h-573l-156 -575h-315z" />
<glyph unicode="I" horiz-adv-x="688" d="M39 0l385 1434h315l-385 -1434h-315z" />
<glyph unicode="J" horiz-adv-x="1177" d="M-80 219l223 195q113 -141 258 -142q113 0 193 80q35 35 61.5 94.5t63.5 198.5l211 789h323l-231 -865q-45 -174 -89 -267t-120 -169q-154 -153 -428 -153q-141 0 -265 61t-200 178z" />
<glyph unicode="K" horiz-adv-x="1488" d="M25 0l385 1434h315l-170 -635l709 635h426l-699 -600l338 -834h-346l-242 645l-297 -254l-104 -391h-315z" />
<glyph unicode="L" horiz-adv-x="1282" d="M25 0l385 1434h315l-307 -1147h715l-78 -287h-1030z" />
<glyph unicode="M" horiz-adv-x="1777" d="M25 0l385 1434h327l207 -607l535 607h364l-385 -1434h-319l250 936l-562 -612h-8l-229 606l-250 -930h-315z" />
<glyph unicode="N" horiz-adv-x="1609" d="M25 0l385 1434h290l418 -912l246 912h311l-385 -1434h-268l-434 940l-252 -940h-311z" />
<glyph unicode="O" horiz-adv-x="1703" d="M137 610q0 164 66.5 322t185.5 276q250 250 610 250q293 0 474.5 -180t181.5 -455q0 -164 -66.5 -321.5t-185.5 -276.5q-250 -250 -610 -250q-293 0 -474.5 180.5t-181.5 454.5zM465 631q0 -164 96 -264.5t268 -100.5q190 0 332 142q78 78 122 184t44 211q0 164 -96 264 t-268 100q-190 0 -332 -141q-78 -78 -122 -184.5t-44 -210.5z" />
<glyph unicode="P" horiz-adv-x="1390" d="M25 0l385 1434h454q305 0 451 -146q111 -111 110 -295q0 -219 -145 -364q-195 -195 -551 -195h-272l-117 -434h-315zM530 711h215q190 0 285 94q66 66 66 162q0 71 -47 118q-63 63 -197 64h-205z" />
<glyph unicode="Q" horiz-adv-x="1703" d="M137 610q0 164 66.5 322t185.5 276q250 250 610 250q293 0 474.5 -180t181.5 -455q0 -162 -64.5 -316.5t-179.5 -273.5l115 -151l-260 -172l-95 149q-174 -84 -378 -84q-293 0 -474.5 180.5t-181.5 454.5zM465 631q0 -164 96 -264.5t268 -100.5q96 0 181 37l-185 250 l260 174l146 -233q96 147 96 309q0 164 -96 264t-268 100q-190 0 -332 -141q-78 -78 -122 -184.5t-44 -210.5z" />
<glyph unicode="R" horiz-adv-x="1488" d="M25 0l385 1434h522q311 0 454 -144q111 -111 111 -289q0 -209 -131 -339q-125 -125 -332 -173l244 -489h-358l-222 459h-235l-123 -459h-315zM539 737h280q197 0 289 92q59 59 59 146q0 70 -45 115q-59 59 -209 59h-264z" />
<glyph unicode="S" horiz-adv-x="1302" d="M-20 244l237 200q172 -188 401 -188q96 0 158 41t62 109q0 53 -50.5 92t-193.5 96q-166 68 -259 156t-93 231q0 182 127 309q164 164 442 164q338 0 537 -213l-218 -217q-86 80 -164.5 117t-179.5 37q-94 0 -151 -44t-57 -102q0 -55 49 -90t202 -98q168 -68 256.5 -155 t88.5 -232q0 -184 -130 -314q-164 -163 -440 -163q-420 0 -624 264z" />
<glyph unicode="T" horiz-adv-x="1269" d="M197 1143l77 291h1188l-78 -291h-436l-307 -1143h-315l307 1143h-436z" />
<glyph unicode="U" horiz-adv-x="1564" d="M166 461q0 106 35 229l198 744h316l-207 -772q-23 -78 -23 -156q0 -109 65.5 -173.5t184.5 -64.5q139 0 234 90q94 94 139 267l217 809h315l-229 -854q-74 -279 -221 -426q-177 -177 -488 -177q-250 0 -393 128t-143 356z" />
<glyph unicode="V" horiz-adv-x="1482" d="M256 1434h338l98 -1000l635 1000h354l-960 -1444h-279z" />
<glyph unicode="W" horiz-adv-x="2269" d="M266 1434h328l37 -971l577 975h271l65 -975l557 971h357l-877 -1444h-293l-69 919l-562 -919h-288z" />
<glyph unicode="X" horiz-adv-x="1433" d="M-104 0l692 743l-307 691h354l180 -461l402 461h403l-674 -725l318 -709h-355l-192 481l-418 -481h-403z" />
<glyph unicode="Y" horiz-adv-x="1331" d="M201 1434h350l168 -594l491 594h381l-784 -897l-145 -537h-316l152 565z" />
<glyph unicode="Z" horiz-adv-x="1411" d="M-39 0l64 240l1007 917h-737l76 277h1163l-66 -240l-1007 -918h768l-74 -276h-1194z" />
<glyph unicode="[" horiz-adv-x="952" d="M-20 -266l456 1700h662l-66 -244h-362l-326 -1213h363l-66 -243h-661z" />
<glyph unicode="\" horiz-adv-x="1085" d="M242 1634h258l426 -1896h-258z" />
<glyph unicode="]" horiz-adv-x="952" d="M-127 -266l66 243h362l326 1213h-363l66 244h661l-456 -1700h-662z" />
<glyph unicode="^" d="M172 1010l418 424h213l188 -424h-203l-122 239l-250 -239h-244z" />
<glyph unicode="_" horiz-adv-x="1228" d="M-236 -328l64 238h1237l-64 -238h-1237z" />
<glyph unicode="`" d="M514 1464l274 117l134 -362h-213z" />
<glyph unicode="a" horiz-adv-x="1204" d="M14 274q0 160 105 265q131 131 368 131q152 0 310 -49l4 14q12 49 12 82q0 129 -207 129q-147 0 -293 -60l-49 246q186 78 408 78q219 0 331.5 -87t112.5 -251q0 -72 -24 -166l-162 -606h-301l33 127q-138 -147 -328 -147q-141 0 -230.5 82.5t-89.5 211.5zM324 309 q0 -51 38.5 -83.5t104.5 -32.5q94 0 172 64.5t104 156.5l9 28q-100 39 -205 39q-117 0 -178 -61q-45 -45 -45 -111z" />
<glyph unicode="b" horiz-adv-x="1380" d="M-6 0l397 1495h311l-137 -516q150 139 309 139q184 0 303 -127t119 -344q0 -293 -196 -489q-179 -178 -410 -178q-225 0 -344 180l-43 -160h-309zM479.5 306.5q65.5 -64.5 169.5 -64.5q117 0 209 92q117 117 117 293q0 106 -62.5 167.5t-167.5 61.5q-119 0 -213 -94 q-118 -118 -118 -284q0 -107 65.5 -171.5z" />
<glyph unicode="c" horiz-adv-x="1146" d="M86 471q0 266 188 455q192 192 456 192h3q311 0 451 -241l-238 -168q-47 72 -99 107.5t-138 35.5q-106 0 -197 -90q-119 -119 -119 -291q0 -104 61.5 -167.5t153.5 -63.5q121 0 248 108l160 -203q-94 -84 -190.5 -127t-227.5 -43q-225 0 -368.5 136.5t-143.5 359.5z" />
<glyph unicode="d" horiz-adv-x="1380" d="M82 451q0 293 197 489q178 178 409 178q225 0 344 -180l148 557h311l-399 -1495h-312l33 119q-150 -139 -309 -139q-184 0 -303 126.5t-119 344.5zM403 471q0 -106 63 -167.5t167 -61.5q119 0 213 94q119 119 119 287q0 104 -65.5 168.5t-170.5 64.5q-117 0 -209 -92 q-117 -117 -117 -293z" />
<glyph unicode="e" horiz-adv-x="1243" d="M84 463q0 127 52 251t147 218q186 186 452 186q209 0 329 -119.5t120 -308.5q-1 -117 -56 -250h-753q8 -100 70.5 -157.5t181 -57.5t243.5 88l144 -192q-174 -145 -422 -146q-238 0 -373 130.5t-135 357.5zM403 635h478q10 35 10 72q0 72 -45 116.5t-135 44.5 q-127 0 -219 -92q-57 -57 -89 -141z" />
<glyph unicode="f" horiz-adv-x="841" d="M47 0l225 831h-131l72 267h129l10 43q39 164 129 254q114 114 316 114h4q127 0 213 -30l-68 -258q-64 26 -130 26h-5q-121 0 -154 -119l-8 -30h264l-71 -267h-258l-226 -831h-311z" />
<glyph unicode="g" horiz-adv-x="1374" d="M-68 -178l164 213q182 -121 396 -121q150 0 237 88q61 61 100 197l11 37q-88 -78 -166 -112t-178 -34q-168 0 -288 102.5t-120 280.5q0 274 195 469q176 176 405 176q225 0 334 -190l45 170h311l-235 -883q-43 -164 -84 -246t-109 -149q-151 -152 -438 -152 q-352 0 -580 154zM410 532q0 -94 57 -144t151 -50q131 0 227.5 96t96.5 223q0 92 -59.5 146.5t-157.5 54.5q-123 0 -215 -92q-100 -100 -100 -234z" />
<glyph unicode="h" horiz-adv-x="1273" d="M-6 0l397 1495h311l-135 -512q152 135 299.5 135t235.5 -86t88 -233q0 -70 -37 -209l-158 -590h-311l162 602q14 53 14 98q0 135 -151 136q-90 0 -150.5 -58.5t-87.5 -161.5l-166 -616h-311z" />
<glyph unicode="i" horiz-adv-x="618" d="M6 0l295 1098h311l-295 -1098h-311zM326 1219l75 276h328l-76 -276h-327z" />
<glyph unicode="j" horiz-adv-x="616" d="M-264 -317l65 243q41 -10 76 -10q51 0 90 40t58 110l276 1032h311l-286 -1071q-98 -361 -420 -361q-94 0 -170 17zM326 1219l73 276h328l-74 -276h-327z" />
<glyph unicode="k" horiz-adv-x="1210" d="M-6 0l401 1495h312l-209 -774l444 377h406l-531 -428l240 -670h-348l-156 465l-158 -127l-90 -338h-311z" />
<glyph unicode="l" horiz-adv-x="618" d="M6 0l402 1495h311l-402 -1495h-311z" />
<glyph unicode="m" horiz-adv-x="1943" d="M-6 0l293 1098h311l-31 -115q152 135 291 135q219 0 291 -198q163 198 391 198h2q147 0 232.5 -85t85.5 -234q0 -70 -37 -209l-158 -590h-311l162 602q14 53 14 98q0 135 -146 136q-176 0 -233 -220l-166 -616h-311l162 602q14 53 14 98q0 135 -145 136q-176 0 -234 -220 l-166 -616h-311z" />
<glyph unicode="n" horiz-adv-x="1267" d="M-6 0l293 1098h311l-31 -115q152 135 299.5 135t235.5 -86t88 -233q0 -70 -37 -209l-158 -590h-311l162 602q14 53 14 98q0 135 -151 136q-90 0 -150.5 -58.5t-87.5 -161.5l-166 -616h-311z" />
<glyph unicode="o" horiz-adv-x="1335" d="M86 483q0 256 190 447q189 188 445 188q240 0 384 -142t144 -366q0 -256 -190 -446q-188 -188 -445 -189q-240 0 -384 142.5t-144 365.5zM391 492q0 -119 64.5 -184.5t173.5 -65.5q113 0 198 86q55 53 86 130t31 144q0 119 -64.5 184.5t-172.5 65.5q-113 0 -199 -86 q-55 -53 -86 -130t-31 -144z" />
<glyph unicode="p" horiz-adv-x="1380" d="M-94 -328l381 1426h311l-33 -119q150 139 309 139q184 0 303 -127t119 -344q0 -293 -196 -489q-179 -178 -410 -178q-225 0 -344 180l-129 -488h-311zM479.5 306.5q65.5 -64.5 169.5 -64.5q117 0 209 92q117 117 117 293q0 106 -62.5 167.5t-167.5 61.5q-119 0 -213 -94 q-118 -118 -118 -284q0 -107 65.5 -171.5z" />
<glyph unicode="q" horiz-adv-x="1380" d="M82 451q0 293 197 489q178 178 409 178q225 0 344 -180l41 160h311l-378 -1426h-312l119 447q-149 -139 -309 -139q-184 0 -303 126.5t-119 344.5zM403 471q0 -106 63 -167.5t167 -61.5q119 0 213 94q119 119 119 287q0 104 -65.5 168.5t-170.5 64.5q-117 0 -209 -92 q-117 -117 -117 -293z" />
<glyph unicode="r" horiz-adv-x="858" d="M-6 0l293 1098h311l-59 -221q166 242 385 242q16 0 32 -1l-88 -325h-16q-336 0 -442 -404l-105 -389h-311z" />
<glyph unicode="s" d="M-49 174l180 186q147 -147 336 -147q131 0 131 96q0 47 -127 103q-78 33 -124 57.5t-97 63t-74.5 88t-23.5 112.5q0 168 119.5 276.5t320.5 108.5q125 0 241.5 -46t190.5 -111l-168 -197q-147 117 -287 117q-57 0 -88.5 -25t-31.5 -68q0 -31 34.5 -55t110.5 -59 q68 -31 109.5 -53.5t92 -60.5t75 -87t24.5 -111q0 -178 -126 -282.5t-325 -104.5q-133 0 -267 51.5t-226 147.5z" />
<glyph unicode="t" horiz-adv-x="849" d="M113 197q0 55 20 137l133 497h-131l72 267h131l76 280h311l-76 -280h258l-71 -267h-258l-123 -460q-8 -33 -9 -49q0 -66 84 -66q80 0 160 35l-72 -264q-96 -45 -225 -45q-135 0 -207.5 60t-72.5 155z" />
<glyph unicode="u" horiz-adv-x="1273" d="M84 299q0 70 37 209l158 590h311l-162 -602q-14 -53 -14 -99q0 -135 151 -135q90 0 150.5 58.5t87.5 160.5l166 617h311l-293 -1098h-311l31 115q-152 -135 -299.5 -135t-235.5 86t-88 233z" />
<glyph unicode="v" horiz-adv-x="1212" d="M174 1098h320l49 -731l436 731h334l-723 -1106h-283z" />
<glyph unicode="w" horiz-adv-x="1755" d="M182 1098h316l-2 -666l385 670h268l29 -672l360 668h309l-639 -1106h-280l-31 674l-395 -674h-279z" />
<glyph unicode="x" horiz-adv-x="1183" d="M-102 0l536 573l-239 525h331l123 -307l258 307h371l-514 -555l242 -543h-332l-127 326l-279 -326h-370z" />
<glyph unicode="y" horiz-adv-x="1212" d="M-82 -258l166 225q57 -43 121 -43q68 0 121 68l-136 1106h318l51 -746l412 746h336l-680 -1125q-109 -168 -211.5 -237.5t-241.5 -69.5q-147 0 -256 76z" />
<glyph unicode="z" horiz-adv-x="1140" d="M-55 0l59 219l719 627h-533l68 252h930l-60 -219l-720 -627h559l-68 -252h-954z" />
<glyph unicode="{" horiz-adv-x="1003" d="M90 469l64 238h65q145 0 203 57q61 59 86 240q10 70 20.5 114.5t39 104t71.5 102.5q137 137 448 139l21 -209q-184 -18 -252 -86q-39 -39 -53.5 -90t-26.5 -145q-25 -201 -98 -275q-80 -80 -234 -96q84 -12 129 -61t45 -121q0 -63 -36 -158q-35 -96 -35 -143 q0 -63 37 -100t149 -78l-102 -191q-203 39 -292 115t-89 199q0 68 41 176q33 86 33 145q0 63 -31 93t-137 30h-66z" />
<glyph unicode="|" horiz-adv-x="716" d="M18 -262l508 1896h246l-510 -1896h-244z" />
<glyph unicode="}" horiz-adv-x="1003" d="M-84 -80q184 18 252 86q39 39 53.5 90t26.5 146q25 201 98 274q80 80 234 96q-84 12 -129 61.5t-45 121.5q0 63 36 157q35 96 35 144q0 63 -37 100t-149 78l102 190q203 -39 292 -114.5t89 -198.5q0 -68 -41 -176q-33 -86 -33 -146q0 -63 31 -92.5t137 -29.5h66l-64 -238 h-65q-145 0 -203 -57q-61 -59 -86 -240q-10 -70 -20.5 -115t-39 -104t-71.5 -103q-137 -137 -448 -139z" />
<glyph unicode="~" horiz-adv-x="1044" d="M113 532q55 125 137 199t176 74q82 0 162 -60q74 -53 108 -53q76 0 144 121l164 -82q-55 -125 -137.5 -198.5t-176.5 -73.5q-78 0 -162 59q-74 53 -108 53q-76 1 -144 -120z" />
<glyph unicode="&#xa1;" horiz-adv-x="665" d="M2 0l12 41l338 905h172l-145 -905l-12 -41h-365zM315 1106l88 328h332l-88 -328h-332z" />
<glyph unicode="&#xa2;" horiz-adv-x="1200" d="M135 668q0 262 180 442q188 188 469 188q10 0 26.5 -1t25.5 -1l59 150h213l-76 -193q145 -61 232 -202l-236 -164q-45 70 -106 108l-226 -573q135 2 258 100l164 -211q-174 -156 -418 -155q-49 0 -94 6l-67 -174h-213l88 225q-133 61 -206 178t-73 277zM440 672 q0 -123 86 -195l217 553q-113 -12 -194 -94q-109 -108 -109 -264z" />
<glyph unicode="&#xa3;" horiz-adv-x="1318" d="M-27 0l56 207l170 51l77 289h-155l69 260h156l51 192q53 199 164 310q145 145 383 145q303 0 438 -246l-252 -172q-78 127 -208 127q-82 0 -140 -57q-55 -55 -84 -160l-39 -139h474l-70 -260h-471l-74 -275h627l-74 -272h-1098z" />
<glyph unicode="&#xa5;" horiz-adv-x="1456" d="M102 188l60 222h377l32 127h-376l59 221h293l-256 676h340l172 -531l461 531h374l-624 -676h297l-60 -221h-377l-32 -127h377l-60 -222h-377l-51 -188h-303l51 188h-377z" />
<glyph unicode="&#xa7;" horiz-adv-x="1294" d="M98 172l195 172q129 -129 303 -129q66 0 104.5 21.5t38.5 56.5q0 33 -43 55.5t-166 54.5q-92 25 -150 46.5t-117.5 55.5t-88.5 81t-29 110q0 117 84 182.5t195 86.5q-74 68 -74 172q0 139 130 230t327 91q156 0 281.5 -50t199.5 -140l-194 -172q-129 129 -303 129 q-66 0 -105 -21.5t-39 -56.5q0 -33 43 -55.5t166 -55.5q92 -25 150.5 -46t118 -55t88 -81.5t28.5 -110.5q0 -119 -84 -184t-194 -86q74 -72 73 -170q0 -139 -130 -230t-326 -91q-156 0 -282 50t-200 140zM436 750q0 -39 41 -63.5t135 -53.5q141 -43 205 -43q53 0 93 28.5 t40 71.5q0 39 -41 63.5t-135 53.5q-141 43 -205 43q-53 0 -93 -28.5t-40 -71.5z" />
<glyph unicode="&#xa8;" d="M322 1219l75 276h299l-75 -276h-299zM760 1219l76 276h299l-76 -276h-299z" />
<glyph unicode="&#xa9;" horiz-adv-x="1699" d="M156 625q0 166 63.5 322.5t179.5 273.5q238 238 572 237q295 0 476 -185t181 -464q0 -166 -63.5 -322.5t-180.5 -273.5q-238 -238 -571 -238q-295 0 -476 185.5t-181 464.5zM242 631q0 -246 154.5 -410t418.5 -164q297 0 502 205q225 225 225 545q0 244 -154.5 406.5 t-418.5 162.5q-297 0 -502 -205q-225 -225 -225 -540zM485 662q0 193 140 331q141 141 338 142q215 0 317 -168l-145 -105q-78 109 -191 109q-106 0 -186 -80q-88 -88 -88 -221q0 -88 50 -137.5t134 -49.5q90 0 188 78l113 -121q-129 -121 -305 -121q-162 0 -263.5 93.5 t-101.5 249.5z" />
<glyph unicode="&#xaa;" horiz-adv-x="798" d="M104 567l37 135h545l-37 -135h-545zM209 981q0 102 73.5 160.5t186.5 58.5q86 0 172 -29l4 15q6 18 6 35q0 76 -116 75q-84 0 -160 -32l-29 135q102 43 225 43q244 0 244 -187q0 -47 -12 -90l-90 -334h-166l18 70q-78 -82 -180 -82q-78 0 -127 45t-49 117zM379 1001 q0 -29 21.5 -47t58.5 -18q51 0 95 36t56 87l4 16q-57 20 -112.5 20.5t-89 -25.5t-33.5 -69z" />
<glyph unicode="&#xab;" horiz-adv-x="1316" d="M94 522l4 17l506 473l158 -156l-340 -354l143 -332l-229 -102zM647 522l4 17l506 473l158 -156l-340 -354l143 -332l-229 -102z" />
<glyph unicode="&#xad;" horiz-adv-x="843" d="M90 485l80 299h631l-80 -299h-631z" />
<glyph unicode="&#xae;" horiz-adv-x="753" d="M168 1051q0 170 116.5 286.5t276.5 116.5q141 0 229.5 -90t88.5 -223q0 -170 -117 -287t-277 -117q-141 0 -229 90.5t-88 223.5zM209 1055q0 -119 75.5 -199t204.5 -80q139 0 240 101q109 109 109 260q0 119 -76 198.5t-205 79.5q-139 0 -240 -100q-109 -109 -108 -260z M319 913l101 377h149q152 0 152 -116q0 -100 -111 -136l54 -125h-109l-47 113h-53l-29 -113h-107zM477 1110h60q45 0 65 20q12 12 12 31q0 39 -55 39h-57z" />
<glyph unicode="&#xaf;" d="M326 1229l57 215h737l-57 -215h-737z" />
<glyph unicode="&#xb0;" horiz-adv-x="911" d="M188 1063q0 156 117 272q110 111 266 111q147 0 234.5 -87t87.5 -222q0 -156 -117 -273q-111 -111 -266 -110q-147 0 -234.5 87t-87.5 222zM354 1069q0 -74 45 -118t119 -44q82 0 139 58q70 70 70 165q0 74 -45 118t-119 44q-82 0 -139 -57q-70 -70 -70 -166z" />
<glyph unicode="&#xb1;" horiz-adv-x="1310" d="M4 0l68 258h1011l-69 -258h-1010zM211 776l72 271l368 -3l92 353h279l-96 -353l368 3l-71 -271l-369 2l-92 -352h-279l97 352z" />
<glyph unicode="&#xb2;" horiz-adv-x="819" d="M190 860l41 154l410 286q104 74 104 134q0 35 -27.5 57t-72.5 22q-94 0 -201 -102l-108 119q137 150 315 149q129 0 205 -63.5t76 -165.5q0 -76 -42 -137.5t-163 -138.5l-248 -158h352l-40 -156h-601z" />
<glyph unicode="&#xb3;" horiz-adv-x="819" d="M211 969l115 121q94 -88 194 -89q66 0 111 34t45 79q0 92 -162 92h-55l-10 109l258 184h-316l43 160h553l-37 -135l-286 -199q197 -33 196 -197q0 -125 -97.5 -206.5t-244.5 -81.5q-201 0 -307 129z" />
<glyph unicode="&#xb4;" d="M426 1219l330 362l262 -117l-330 -245h-262z" />
<glyph unicode="&#xb6;" horiz-adv-x="1226" d="M178 868q0 227 150 377q188 188 573 189h391l-385 -1434h-313l115 434q-289 6 -422 139q-109 109 -109 295z" />
<glyph unicode="&#xb7;" horiz-adv-x="653" d="M131 471l88 328h332l-88 -328h-332z" />
<glyph unicode="&#xb8;" d="M90 -246l254 266h229l-251 -374z" />
<glyph unicode="&#xb9;" horiz-adv-x="665" d="M358 1569l279 100h131l-215 -809h-176l164 613l-166 -58z" />
<glyph unicode="&#xba;" horiz-adv-x="823" d="M104 567l37 135h570l-37 -135h-570zM213 1096q0 141 106 247q100 100 242 101q131 0 211 -78t80 -201q0 -141 -107 -247q-100 -100 -241 -101q-131 0 -211 78t-80 201zM381 1102q0 -61 36 -100t93 -39q66 0 115 49q59 59 59 147q0 61 -36 100t-93 39q-66 0 -115 -49 q-59 -59 -59 -147z" />
<glyph unicode="&#xbb;" horiz-adv-x="1316" d="M-2 223l340 355l-143 331l229 103l242 -455l-4 -16l-506 -473zM551 223l340 355l-143 331l229 103l242 -455l-5 -16l-505 -473z" />
<glyph unicode="&#xbc;" horiz-adv-x="1689" d="M51 0l717 752l635 682h184l-717 -752l-634 -682h-185zM254 1343l278 101h132l-215 -809h-177l164 612l-166 -57zM817 168l31 170l506 473h186l-135 -502h106l-38 -141h-107l-45 -168h-164l45 168h-385zM1004 307h237l80 299z" />
<glyph unicode="&#xbd;" horiz-adv-x="1689" d="M31 0l717 752l634 682h185l-717 -752l-635 -682h-184zM254 1343l278 101h132l-215 -809h-177l164 612l-166 -57zM805 0l41 154l409 286q104 74 105 133q0 35 -27.5 57.5t-72.5 22.5q-94 0 -201 -102l-109 119q137 150 316 149q129 0 204.5 -63.5t75.5 -165.5 q0 -76 -42 -137.5t-163 -139.5l-247 -157h352l-41 -156h-600z" />
<glyph unicode="&#xbe;" horiz-adv-x="1843" d="M104 743l115 121q94 -88 195 -88q66 0 110.5 34t44.5 79q0 92 -161 92h-56l-10 109l258 184h-315l43 160h553l-37 -136l-287 -198q197 -33 197 -197q0 -125 -97.5 -207t-244.5 -82q-201 0 -308 129zM195 0l716 752l635 682h185l-717 -752l-635 -682h-184zM971 168l30 170 l506 473h187l-135 -502h106l-39 -141h-106l-45 -168h-164l45 168h-385zM1157 307h238l80 299z" />
<glyph unicode="&#xbf;" horiz-adv-x="1114" d="M49 354q0 180 133 295t391 154l60 143h209l-41 -332l-13 -10q-410 -29 -409 -209q0 -127 170 -127q152 0 293 121l164 -207q-96 -98 -228.5 -149t-271.5 -51q-209 0 -333 109.5t-124 262.5zM608 1106l88 328h332l-88 -328h-332z" />
<glyph unicode="&#xc0;" horiz-adv-x="1566" d="M-117 0l1002 1444h303l227 -1444h-323l-45 322h-607l-217 -322h-340zM629 600h381l-66 473zM723 1772l276 116l160 -321h-213z" />
<glyph unicode="&#xc1;" horiz-adv-x="1566" d="M-117 0l1002 1444h303l227 -1444h-323l-45 322h-607l-217 -322h-340zM629 600h381l-66 473zM936 1567l336 321l260 -116l-334 -205h-262z" />
<glyph unicode="&#xc2;" horiz-adv-x="1566" d="M-117 0l1002 1444h303l227 -1444h-323l-45 322h-607l-217 -322h-340zM629 600h381l-66 473zM641 1556l342 302h295l182 -302h-229l-131 115l-193 -115h-266z" />
<glyph unicode="&#xc3;" horiz-adv-x="1566" d="M-117 0l1002 1444h303l227 -1444h-323l-45 322h-607l-217 -322h-340zM629 600h381l-66 473zM651 1604q61 141 128 208.5t167 67.5q72 0 187 -45q86 -35 118 -35q45 0 75 23.5t63 77.5l165 -58q-61 -141 -127.5 -208.5t-166.5 -67.5q-72 0 -187 45q-86 35 -119 35 q-45 0 -74.5 -24t-62.5 -77z" />
<glyph unicode="&#xc4;" horiz-adv-x="1566" d="M-117 0l1002 1444h303l227 -1444h-323l-45 322h-607l-217 -322h-340zM629 600h381l-66 473zM698 1567l72 260h299l-72 -260h-299zM1145 1567l72 260h299l-72 -260h-299z" />
<glyph unicode="&#xc5;" horiz-adv-x="1566" d="M-117 0l957 1380q-37 53 -37 111q0 106 74.5 180t205.5 74q98 0 165 -58.5t67 -140.5q0 -137 -111 -209l211 -1337h-323l-45 322h-607l-217 -322h-340zM629 600h381l-66 473zM928 1503q0 -45 31.5 -73.5t82.5 -28.5q66 0 107 41t41 92q0 45 -32 73.5t-83 28.5 q-66 0 -106.5 -41t-40.5 -92z" />
<glyph unicode="&#xc6;" horiz-adv-x="2166" d="M-125 0l1157 1434h1254l-76 -281h-717l-78 -293h625l-76 -276h-625l-82 -303h730l-76 -281h-1041l86 322h-483l-256 -322h-342zM696 600h336l150 561h-39z" />
<glyph unicode="&#xc7;" horiz-adv-x="1486" d="M137 600q0 346 254 600q258 258 619 258q387 0 573 -305l-260 -182q-70 98 -150.5 147t-201.5 49q-188 0 -336 -147q-170 -170 -170 -408q0 -154 98.5 -250t251.5 -96q96 0 171 35t165 107l205 -213q-238 -219 -543 -220h-18l-222 -329l-231 108l240 252 q-205 59 -325 215t-120 379z" />
<glyph unicode="&#xc8;" horiz-adv-x="1361" d="M25 0l385 1434h1071l-76 -281h-758l-78 -293h666l-76 -276h-665l-82 -303h770l-76 -281h-1081zM625 1751l276 117l160 -322h-213z" />
<glyph unicode="&#xc9;" horiz-adv-x="1361" d="M25 0l385 1434h1071l-76 -281h-758l-78 -293h666l-76 -276h-665l-82 -303h770l-76 -281h-1081zM838 1546l336 322l260 -117l-334 -205h-262z" />
<glyph unicode="&#xca;" horiz-adv-x="1361" d="M25 0l385 1434h1071l-76 -281h-758l-78 -293h666l-76 -276h-665l-82 -303h770l-76 -281h-1081zM547 1546l342 301h295l182 -301h-229l-131 115l-193 -115h-266z" />
<glyph unicode="&#xcb;" horiz-adv-x="1361" d="M25 0l385 1434h1071l-76 -281h-758l-78 -293h666l-76 -276h-665l-82 -303h770l-76 -281h-1081zM600 1546l72 260h299l-72 -260h-299zM1047 1546l71 260h299l-71 -260h-299z" />
<glyph unicode="&#xcc;" horiz-adv-x="688" d="M39 0l385 1434h315l-385 -1434h-315zM262 1751l277 117l159 -322h-213z" />
<glyph unicode="&#xcd;" horiz-adv-x="688" d="M39 0l385 1434h315l-385 -1434h-315zM475 1546l336 322l260 -117l-334 -205h-262z" />
<glyph unicode="&#xce;" horiz-adv-x="688" d="M39 0l385 1434h315l-385 -1434h-315zM184 1546l342 301h295l183 -301h-230l-131 115l-192 -115h-267z" />
<glyph unicode="&#xcf;" horiz-adv-x="688" d="M39 0l385 1434h315l-385 -1434h-315zM238 1546l71 260h299l-71 -260h-299zM684 1546l72 260h299l-72 -260h-299z" />
<glyph unicode="&#xd0;" horiz-adv-x="1632" d="M51 582l76 278h170l154 574h417q377 0 562 -185q156 -156 155 -420q0 -330 -235 -565q-264 -264 -752 -264h-532l155 582h-170zM457 285h178q305 0 479 174q143 143 143 358q1 143 -83 227q-104 104 -330 105h-154l-78 -289h291l-76 -278h-290z" />
<glyph unicode="&#xd1;" horiz-adv-x="1609" d="M25 0l385 1434h290l418 -912l246 912h311l-385 -1434h-268l-434 940l-252 -940h-311zM653 1583q61 141 128 209t167 68q72 0 187 -45q86 -35 118 -35q45 0 75 23.5t63 76.5l165 -57q-61 -141 -127.5 -209t-166.5 -68q-72 0 -187 45q-86 35 -119 35q-45 0 -74.5 -23.5 t-62.5 -76.5z" />
<glyph unicode="&#xd2;" horiz-adv-x="1703" d="M137 610q0 164 66.5 322t185.5 276q250 250 610 250q293 0 474.5 -180t181.5 -455q0 -164 -66.5 -321.5t-185.5 -276.5q-250 -250 -610 -250q-293 0 -474.5 180.5t-181.5 454.5zM465 631q0 -164 96 -264.5t268 -100.5q190 0 332 142q78 78 122 184t44 211q0 164 -96 264 t-268 100q-190 0 -332 -141q-78 -78 -122 -184.5t-44 -210.5zM760 1772l276 116l160 -321h-213z" />
<glyph unicode="&#xd3;" horiz-adv-x="1703" d="M137 610q0 164 66.5 322t185.5 276q250 250 610 250q293 0 474.5 -180t181.5 -455q0 -164 -66.5 -321.5t-185.5 -276.5q-250 -250 -610 -250q-293 0 -474.5 180.5t-181.5 454.5zM465 631q0 -164 96 -264.5t268 -100.5q190 0 332 142q78 78 122 184t44 211q0 164 -96 264 t-268 100q-190 0 -332 -141q-78 -78 -122 -184.5t-44 -210.5zM956 1567l336 321l260 -116l-333 -205h-263z" />
<glyph unicode="&#xd4;" horiz-adv-x="1703" d="M137 610q0 164 66.5 322t185.5 276q250 250 610 250q293 0 474.5 -180t181.5 -455q0 -164 -66.5 -321.5t-185.5 -276.5q-250 -250 -610 -250q-293 0 -474.5 180.5t-181.5 454.5zM465 631q0 -164 96 -264.5t268 -100.5q190 0 332 142q78 78 122 184t44 211q0 164 -96 264 t-268 100q-190 0 -332 -141q-78 -78 -122 -184.5t-44 -210.5zM682 1567l342 301h295l182 -301h-229l-131 114l-193 -114h-266z" />
<glyph unicode="&#xd5;" horiz-adv-x="1703" d="M137 610q0 164 66.5 322t185.5 276q250 250 610 250q293 0 474.5 -180t181.5 -455q0 -164 -66.5 -321.5t-185.5 -276.5q-250 -250 -610 -250q-293 0 -474.5 180.5t-181.5 454.5zM465 631q0 -164 96 -264.5t268 -100.5q190 0 332 142q78 78 122 184t44 211q0 164 -96 264 t-268 100q-190 0 -332 -141q-78 -78 -122 -184.5t-44 -210.5zM690 1604q61 141 128 208.5t167 67.5q72 0 186 -45q86 -35 119 -35q45 0 75 23.5t62 77.5l166 -58q-61 -141 -127.5 -208.5t-167.5 -67.5q-72 0 -186 45q-86 35 -119 35q-45 0 -74.5 -24t-62.5 -77z" />
<glyph unicode="&#xd6;" horiz-adv-x="1703" d="M137 610q0 164 66.5 322t185.5 276q250 250 610 250q293 0 474.5 -180t181.5 -455q0 -164 -66.5 -321.5t-185.5 -276.5q-250 -250 -610 -250q-293 0 -474.5 180.5t-181.5 454.5zM465 631q0 -164 96 -264.5t268 -100.5q190 0 332 142q78 78 122 184t44 211q0 164 -96 264 t-268 100q-190 0 -332 -141q-78 -78 -122 -184.5t-44 -210.5zM735 1567l72 260h299l-72 -260h-299zM1182 1567l71 260h299l-71 -260h-299z" />
<glyph unicode="&#xd7;" horiz-adv-x="1310" d="M111 422l405 313l-233 312l237 186l223 -320l404 322l160 -215l-406 -311l234 -310l-238 -188l-223 317l-404 -321z" />
<glyph unicode="&#xd8;" horiz-adv-x="1703" d="M-68 -10l299 274q-94 152 -94 346q0 164 66.5 322t185.5 276q250 250 610 250q250 0 424 -137l136 123h301l-299 -277q94 -156 94 -344q0 -164 -66.5 -321.5t-185.5 -276.5q-250 -250 -610 -250q-254 0 -426 138l-134 -123h-301zM453 629q0 -90 26 -158l709 651 q-88 59 -223 60q-195 0 -340 -146q-80 -80 -126 -190.5t-46 -216.5zM604 311q90 -59 223 -59q197 0 340 147q80 80 126 189.5t46 218.5q0 78 -26 154z" />
<glyph unicode="&#xd9;" horiz-adv-x="1564" d="M166 461q0 106 35 229l198 744h316l-207 -772q-23 -78 -23 -156q0 -109 65.5 -173.5t184.5 -64.5q139 0 234 90q94 94 139 267l217 809h315l-229 -854q-74 -279 -221 -426q-177 -177 -488 -177q-250 0 -393 128t-143 356zM688 1751l277 117l159 -322h-213z" />
<glyph unicode="&#xda;" horiz-adv-x="1564" d="M166 461q0 106 35 229l198 744h316l-207 -772q-23 -78 -23 -156q0 -109 65.5 -173.5t184.5 -64.5q139 0 234 90q94 94 139 267l217 809h315l-229 -854q-74 -279 -221 -426q-177 -177 -488 -177q-250 0 -393 128t-143 356zM901 1546l336 322l260 -117l-334 -205h-262z" />
<glyph unicode="&#xdb;" horiz-adv-x="1564" d="M166 461q0 106 35 229l198 744h316l-207 -772q-23 -78 -23 -156q0 -109 65.5 -173.5t184.5 -64.5q139 0 234 90q94 94 139 267l217 809h315l-229 -854q-74 -279 -221 -426q-177 -177 -488 -177q-250 0 -393 128t-143 356zM610 1546l342 301h295l183 -301h-230l-131 115 l-192 -115h-267z" />
<glyph unicode="&#xdc;" horiz-adv-x="1564" d="M166 461q0 106 35 229l198 744h316l-207 -772q-23 -78 -23 -156q0 -109 65.5 -173.5t184.5 -64.5q139 0 234 90q94 94 139 267l217 809h315l-229 -854q-74 -279 -221 -426q-177 -177 -488 -177q-250 0 -393 128t-143 356zM664 1546l71 260h299l-71 -260h-299zM1110 1546 l72 260h299l-72 -260h-299z" />
<glyph unicode="&#xdd;" horiz-adv-x="1331" d="M201 1434h350l168 -594l491 594h381l-784 -897l-145 -537h-316l152 565zM768 1546l336 322l260 -117l-334 -205h-262z" />
<glyph unicode="&#xde;" horiz-adv-x="1411" d="M25 0l385 1434h315l-55 -209h139q305 0 451 -146q111 -111 110 -295q0 -219 -145 -364q-195 -195 -551 -195h-273l-61 -225h-315zM475 502h215q190 0 285 94q66 66 65 162q0 72 -47 119q-63 63 -196 63h-205z" />
<glyph unicode="&#xdf;" horiz-adv-x="1294" d="M-6 0l276 1030q59 219 179 338q141 141 370 141q207 0 326 -108.5t119 -278.5q0 -145 -83 -244.5t-233 -146.5q213 -92 213 -285q0 -211 -174 -335.5t-522 -114.5l65 242q178 -6 258 55t80 162q0 147 -235 172l55 204q283 63 283 261q0 74 -46 114.5t-116 40.5 q-172 0 -236 -233l-270 -1014h-309z" />
<glyph unicode="&#xe0;" horiz-adv-x="1204" d="M14 274q0 160 105 265q131 131 368 131q152 0 310 -49l4 14q12 49 12 82q0 129 -207 129q-147 0 -293 -60l-49 246q186 78 408 78q219 0 331.5 -87t112.5 -251q0 -72 -24 -166l-162 -606h-301l33 127q-138 -147 -328 -147q-141 0 -230.5 82.5t-89.5 211.5zM324 309 q0 -51 38.5 -83.5t104.5 -32.5q94 0 172 64.5t104 156.5l9 28q-100 39 -205 39q-117 0 -178 -61q-45 -45 -45 -111zM451 1464l274 117l133 -362h-213z" />
<glyph unicode="&#xe1;" horiz-adv-x="1204" d="M14 274q0 160 105 265q131 131 368 131q152 0 310 -49l4 14q12 49 12 82q0 129 -207 129q-147 0 -293 -60l-49 246q186 78 408 78q219 0 331.5 -87t112.5 -251q0 -72 -24 -166l-162 -606h-301l33 127q-138 -147 -328 -147q-141 0 -230.5 82.5t-89.5 211.5zM324 309 q0 -51 38.5 -83.5t104.5 -32.5q94 0 172 64.5t104 156.5l9 28q-100 39 -205 39q-117 0 -178 -61q-45 -45 -45 -111zM639 1219l330 362l262 -117l-330 -245h-262z" />
<glyph unicode="&#xe2;" horiz-adv-x="1204" d="M14 274q0 160 105 265q131 131 368 131q152 0 310 -49l4 14q12 49 12 82q0 129 -207 129q-147 0 -293 -60l-49 246q186 78 408 78q219 0 331.5 -87t112.5 -251q0 -72 -24 -166l-162 -606h-301l33 127q-138 -147 -328 -147q-141 0 -230.5 82.5t-89.5 211.5zM324 309 q0 -51 38.5 -83.5t104.5 -32.5q94 0 172 64.5t104 156.5l9 28q-100 39 -205 39q-117 0 -178 -61q-45 -45 -45 -111zM354 1219l338 321h295l166 -321h-225l-125 135l-199 -135h-250z" />
<glyph unicode="&#xe3;" horiz-adv-x="1204" d="M14 274q0 160 105 265q131 131 368 131q152 0 310 -49l4 14q12 49 12 82q0 129 -207 129q-147 0 -293 -60l-49 246q186 78 408 78q219 0 331.5 -87t112.5 -251q0 -72 -24 -166l-162 -606h-301l33 127q-138 -147 -328 -147q-141 0 -230.5 82.5t-89.5 211.5zM324 309 q0 -51 38.5 -83.5t104.5 -32.5q94 0 172 64.5t104 156.5l9 28q-100 39 -205 39q-117 0 -178 -61q-45 -45 -45 -111zM356 1253q63 143 128 211t165 68q72 0 178 -45q86 -35 115 -35q45 0 72.5 23.5t62.5 76.5l166 -55q-63 -143 -127.5 -210.5t-165.5 -67.5q-72 0 -178 45 q-86 35 -115 34q-45 0 -72.5 -23.5t-62.5 -76.5z" />
<glyph unicode="&#xe4;" horiz-adv-x="1204" d="M14 274q0 160 105 265q131 131 368 131q152 0 310 -49l4 14q12 49 12 82q0 129 -207 129q-147 0 -293 -60l-49 246q186 78 408 78q219 0 331.5 -87t112.5 -251q0 -72 -24 -166l-162 -606h-301l33 127q-138 -147 -328 -147q-141 0 -230.5 82.5t-89.5 211.5zM324 309 q0 -51 38.5 -83.5t104.5 -32.5q94 0 172 64.5t104 156.5l9 28q-100 39 -205 39q-117 0 -178 -61q-45 -45 -45 -111zM397 1219l76 276h299l-76 -276h-299zM836 1219l75 276h299l-75 -276h-299z" />
<glyph unicode="&#xe5;" horiz-adv-x="1204" d="M14 274q0 160 105 265q131 131 368 131q152 0 310 -49l4 14q12 49 12 82q0 129 -207 129q-147 0 -293 -60l-49 246q186 78 408 78q219 0 331.5 -87t112.5 -251q0 -72 -24 -166l-162 -606h-301l33 127q-138 -147 -328 -147q-141 0 -230.5 82.5t-89.5 211.5zM324 309 q0 -51 38.5 -83.5t104.5 -32.5q94 0 172 64.5t104 156.5l9 28q-100 39 -205 39q-117 0 -178 -61q-45 -45 -45 -111zM586 1423q0 109 75.5 190t188.5 81q100 0 162.5 -59.5t62.5 -149.5q0 -109 -75.5 -190t-188.5 -81q-100 0 -162.5 59.5t-62.5 149.5zM705 1434 q0 -53 30.5 -84t79.5 -31q61 0 101 48t40 108q0 53 -30.5 83.5t-79.5 30.5q-61 0 -101 -48t-40 -107z" />
<glyph unicode="&#xe6;" horiz-adv-x="1925" d="M14 274q0 160 105 265q131 131 368 131q152 0 310 -49l4 14q12 49 12 82q0 129 -207 129q-147 0 -293 -60l-49 246q186 78 408 78q268 0 360 -162q170 170 395 170q201 0 320 -120.5t119 -307.5q0 -117 -56 -250h-753q8 -100 70.5 -157.5t181 -57.5t243.5 88l144 -192 q-160 -146 -422 -146q-295 0 -418 211q-201 -207 -491 -206q-166 0 -258.5 79.5t-92.5 214.5zM324 309q0 -53 41.5 -84.5t121.5 -31.5q76 0 163 36.5t153 102.5q-8 43 -12 94q-125 55 -244 55q-117 0 -178 -61q-45 -45 -45 -111zM1085 635h478q10 35 10 72q0 72 -45 116.5 t-135 44.5q-127 0 -219 -92q-57 -57 -89 -141z" />
<glyph unicode="&#xe7;" horiz-adv-x="1146" d="M86 471q0 266 188 455q193 193 459 192q311 0 451 -241l-238 -168q-47 72 -99 107.5t-138 35.5q-106 0 -197 -90q-119 -119 -119 -291q0 -104 61.5 -167.5t153.5 -63.5q121 0 248 108l160 -203q-184 -168 -410 -170l-221 -329l-231 108l243 254q-145 53 -228 174t-83 289 z" />
<glyph unicode="&#xe8;" horiz-adv-x="1243" d="M84 463q0 127 52 251t147 218q186 186 452 186q209 0 329 -119.5t120 -308.5q-1 -117 -56 -250h-753q8 -100 70.5 -157.5t181 -57.5t243.5 88l144 -192q-174 -145 -422 -146q-238 0 -373 130.5t-135 357.5zM403 635h478q10 35 10 72q0 72 -45 116.5t-135 44.5 q-127 0 -219 -92q-57 -57 -89 -141zM496 1464l274 117l133 -362h-213z" />
<glyph unicode="&#xe9;" horiz-adv-x="1243" d="M84 463q0 127 52 251t147 218q186 186 452 186q209 0 329 -119.5t120 -308.5q-1 -117 -56 -250h-753q8 -100 70.5 -157.5t181 -57.5t243.5 88l144 -192q-174 -145 -422 -146q-238 0 -373 130.5t-135 357.5zM403 635h478q10 35 10 72q0 72 -45 116.5t-135 44.5 q-127 0 -219 -92q-57 -57 -89 -141zM684 1219l330 362l262 -117l-330 -245h-262z" />
<glyph unicode="&#xea;" horiz-adv-x="1243" d="M84 463q0 127 52 251t147 218q186 186 452 186q209 0 329 -119.5t120 -308.5q-1 -117 -56 -250h-753q8 -100 70.5 -157.5t181 -57.5t243.5 88l144 -192q-174 -145 -422 -146q-238 0 -373 130.5t-135 357.5zM401 1219l338 321h295l166 -321h-225l-125 135l-199 -135h-250z M403 635h478q10 35 10 72q0 72 -45 116.5t-135 44.5q-127 0 -219 -92q-57 -57 -89 -141z" />
<glyph unicode="&#xeb;" horiz-adv-x="1243" d="M84 463q0 127 52 251t147 218q186 186 452 186q209 0 329 -119.5t120 -308.5q-1 -117 -56 -250h-753q8 -100 70.5 -157.5t181 -57.5t243.5 88l144 -192q-174 -145 -422 -146q-238 0 -373 130.5t-135 357.5zM403 635h478q10 35 10 72q0 72 -45 116.5t-135 44.5 q-127 0 -219 -92q-57 -57 -89 -141zM444 1219l76 276h299l-76 -276h-299zM883 1219l75 276h299l-75 -276h-299z" />
<glyph unicode="&#xec;" horiz-adv-x="618" d="M6 0l295 1098h311l-295 -1098h-311zM172 1464l274 117l134 -362h-213z" />
<glyph unicode="&#xed;" horiz-adv-x="618" d="M6 0l295 1098h311l-295 -1098h-311zM360 1219l330 362l262 -117l-329 -245h-263z" />
<glyph unicode="&#xee;" horiz-adv-x="618" d="M6 0l295 1098h311l-295 -1098h-311zM78 1219l338 321h295l166 -321h-226l-125 135l-198 -135h-250z" />
<glyph unicode="&#xef;" horiz-adv-x="618" d="M6 0l295 1098h311l-295 -1098h-311zM121 1219l76 276h299l-76 -276h-299zM559 1219l76 276h299l-76 -276h-299z" />
<glyph unicode="&#xf0;" horiz-adv-x="1339" d="M86 471q0 274 184 459q164 164 383 164q166 0 285 -123q-43 117 -154 256l-268 -72l-49 160l199 51q-63 68 -129 129h383l43 -49l245 65l52 -157l-191 -51q184 -276 184 -570q0 -354 -221 -575q-182 -182 -444 -183q-227 0 -364.5 133.5t-137.5 362.5zM387 483 q0 -115 58 -180t167 -65q119 0 209 90q117 117 117 280q0 113 -62.5 178.5t-166.5 65.5q-121 0 -211 -90q-111 -111 -111 -279z" />
<glyph unicode="&#xf1;" horiz-adv-x="1267" d="M-6 0l293 1098h311l-31 -115q152 135 299.5 135t235.5 -86t88 -233q0 -70 -37 -209l-158 -590h-311l162 602q14 53 14 98q0 135 -151 136q-90 0 -150.5 -58.5t-87.5 -161.5l-166 -616h-311zM387 1253q63 143 128 211t165 68q72 0 178 -45q86 -35 115 -35q45 0 72.5 23.5 t62.5 76.5l166 -55q-63 -143 -128 -210.5t-165 -67.5q-72 0 -178 45q-86 35 -115 34q-45 0 -72.5 -23.5t-62.5 -76.5z" />
<glyph unicode="&#xf2;" horiz-adv-x="1335" d="M86 483q0 256 190 447q189 188 445 188q240 0 384 -142t144 -366q0 -256 -190 -446q-188 -188 -445 -189q-240 0 -384 142.5t-144 365.5zM391 492q0 -119 64.5 -184.5t173.5 -65.5q113 0 198 86q55 53 86 130t31 144q0 119 -64.5 184.5t-172.5 65.5q-113 0 -199 -86 q-55 -53 -86 -130t-31 -144zM522 1464l275 117l133 -362h-213z" />
<glyph unicode="&#xf3;" horiz-adv-x="1335" d="M86 483q0 256 190 447q189 188 445 188q240 0 384 -142t144 -366q0 -256 -190 -446q-188 -188 -445 -189q-240 0 -384 142.5t-144 365.5zM391 492q0 -119 64.5 -184.5t173.5 -65.5q113 0 198 86q55 53 86 130t31 144q0 119 -64.5 184.5t-172.5 65.5q-113 0 -199 -86 q-55 -53 -86 -130t-31 -144zM694 1219l330 362l262 -117l-330 -245h-262z" />
<glyph unicode="&#xf4;" horiz-adv-x="1335" d="M86 483q0 256 190 447q189 188 445 188q240 0 384 -142t144 -366q0 -256 -190 -446q-188 -188 -445 -189q-240 0 -384 142.5t-144 365.5zM391 492q0 -119 64.5 -184.5t173.5 -65.5q113 0 198 86q55 53 86 130t31 144q0 119 -64.5 184.5t-172.5 65.5q-113 0 -199 -86 q-55 -53 -86 -130t-31 -144zM428 1219l338 321h295l166 -321h-226l-124 135l-199 -135h-250z" />
<glyph unicode="&#xf5;" horiz-adv-x="1335" d="M86 483q0 256 190 447q189 188 445 188q240 0 384 -142t144 -366q0 -256 -190 -446q-188 -188 -445 -189q-240 0 -384 142.5t-144 365.5zM391 492q0 -119 64.5 -184.5t173.5 -65.5q113 0 198 86q55 53 86 130t31 144q0 119 -64.5 184.5t-172.5 65.5q-113 0 -199 -86 q-55 -53 -86 -130t-31 -144zM430 1253q63 143 128 211t165 68q72 0 178 -45q86 -35 115 -35q45 0 72.5 23.5t62.5 76.5l166 -55q-63 -143 -128 -210.5t-165 -67.5q-72 0 -178 45q-86 35 -115 34q-45 0 -72.5 -23.5t-62.5 -76.5z" />
<glyph unicode="&#xf6;" horiz-adv-x="1335" d="M86 483q0 256 190 447q189 188 445 188q240 0 384 -142t144 -366q0 -256 -190 -446q-188 -188 -445 -189q-240 0 -384 142.5t-144 365.5zM391 492q0 -119 64.5 -184.5t173.5 -65.5q113 0 198 86q55 53 86 130t31 144q0 119 -64.5 184.5t-172.5 65.5q-113 0 -199 -86 q-55 -53 -86 -130t-31 -144zM471 1219l76 276h299l-76 -276h-299zM909 1219l76 276h299l-76 -276h-299z" />
<glyph unicode="&#xf7;" horiz-adv-x="1310" d="M150 590l71 262h1032l-71 -262h-1032zM385 133l78 295h319l-77 -295h-320zM621 1014l77 295h320l-78 -295h-319z" />
<glyph unicode="&#xf8;" horiz-adv-x="1335" d="M-100 -12l252 229q-66 115 -66 266q0 256 190 447q189 188 445 188q203 0 342 -106l100 94h273l-254 -229q68 -115 67 -267q0 -256 -190 -446q-188 -188 -445 -189q-201 0 -342 105l-100 -92h-272zM381 492q0 -43 6 -80l459 419q-51 31 -131 31q-123 0 -215 -92 q-119 -119 -119 -278zM487 260q51 -29 134 -29q123 0 215 93q118 118 118 278q0 47 -8 80z" />
<glyph unicode="&#xf9;" horiz-adv-x="1273" d="M84 299q0 70 37 209l158 590h311l-162 -602q-14 -53 -14 -99q0 -135 151 -135q90 0 150.5 58.5t87.5 160.5l166 617h311l-293 -1098h-311l31 115q-152 -135 -299.5 -135t-235.5 86t-88 233zM494 1464l274 117l133 -362h-213z" />
<glyph unicode="&#xfa;" horiz-adv-x="1273" d="M84 299q0 70 37 209l158 590h311l-162 -602q-14 -53 -14 -99q0 -135 151 -135q90 0 150.5 58.5t87.5 160.5l166 617h311l-293 -1098h-311l31 115q-152 -135 -299.5 -135t-235.5 86t-88 233zM682 1219l330 362l262 -117l-330 -245h-262z" />
<glyph unicode="&#xfb;" horiz-adv-x="1273" d="M84 299q0 70 37 209l158 590h311l-162 -602q-14 -53 -14 -99q0 -135 151 -135q90 0 150.5 58.5t87.5 160.5l166 617h311l-293 -1098h-311l31 115q-152 -135 -299.5 -135t-235.5 86t-88 233zM397 1219l338 321h295l166 -321h-225l-125 135l-199 -135h-250z" />
<glyph unicode="&#xfc;" horiz-adv-x="1273" d="M84 299q0 70 37 209l158 590h311l-162 -602q-14 -53 -14 -99q0 -135 151 -135q90 0 150.5 58.5t87.5 160.5l166 617h311l-293 -1098h-311l31 115q-152 -135 -299.5 -135t-235.5 86t-88 233zM440 1219l76 276h299l-76 -276h-299zM879 1219l75 276h299l-75 -276h-299z" />
<glyph unicode="&#xfd;" horiz-adv-x="1212" d="M-82 -258l166 225q57 -43 121 -43q68 0 121 68l-136 1106h318l51 -746l412 746h336l-680 -1125q-109 -168 -211.5 -237.5t-241.5 -69.5q-147 0 -256 76zM639 1219l330 362l262 -117l-330 -245h-262z" />
<glyph unicode="&#xfe;" horiz-adv-x="1380" d="M-94 -328l487 1823h312l-140 -516q150 139 309 139q184 0 303 -127t119 -344q0 -293 -196 -489q-178 -178 -410 -178q-225 0 -344 180l-129 -488h-311zM414 475q0 -104 65.5 -168.5t169.5 -64.5q117 0 209 92q117 117 117 293q0 106 -62.5 167.5t-167.5 61.5 q-119 0 -213 -94q-119 -119 -118 -287z" />
<glyph unicode="&#xff;" horiz-adv-x="1212" d="M-82 -258l166 225q57 -43 121 -43q68 0 121 68l-136 1106h318l51 -746l412 746h336l-680 -1125q-109 -168 -211.5 -237.5t-241.5 -69.5q-147 0 -256 76zM399 1219l76 276h299l-76 -276h-299zM838 1219l75 276h299l-75 -276h-299z" />
<glyph unicode="&#x152;" horiz-adv-x="2193" d="M137 604q0 330 236 565q264 264 751 265h1188l-76 -281h-716l-78 -293h624l-75 -276h-625l-82 -303h729l-76 -281h-1083q-377 0 -571 195q-145 145 -146 409zM465 616q0 -143 84 -227q104 -104 330 -104h92l233 864h-117q-305 0 -479 -174q-143 -143 -143 -359z" />
<glyph unicode="&#x153;" horiz-adv-x="2105" d="M86 483q0 256 190 447q188 188 445 188q301 0 422 -217q176 217 454 217q209 0 329 -119.5t120 -308.5q0 -117 -55 -250h-754q8 -100 70.5 -157.5t181.5 -57.5t244 88l143 -192q-160 -145 -422 -146q-293 0 -407 201q-170 -201 -433 -201q-240 0 -384 142.5t-144 365.5z M391 492q0 -119 64.5 -184.5t173.5 -65.5q113 0 198 86q55 53 86 130t31 144q0 119 -64.5 184.5t-172.5 65.5q-113 0 -199 -86q-55 -53 -86 -130t-31 -144zM1266 635h477q10 35 10 72q0 72 -45 116.5t-135 44.5q-127 0 -219 -92q-57 -57 -88 -141z" />
<glyph unicode="&#x178;" horiz-adv-x="1331" d="M201 1434h350l168 -594l491 594h381l-784 -897l-145 -537h-316l152 565zM530 1546l72 260h299l-72 -260h-299zM977 1546l72 260h299l-72 -260h-299z" />
<glyph unicode="&#x2c6;" d="M293 1219l338 321h295l166 -321h-226l-125 135l-198 -135h-250z" />
<glyph unicode="&#x2dc;" d="M285 1253q63 143 127.5 211t165.5 68q72 0 178 -45q86 -35 114 -35q45 0 73 23.5t63 76.5l165 -55q-63 -143 -127.5 -210.5t-164.5 -67.5q-72 0 -179 45q-86 35 -114 34q-45 0 -73 -23.5t-62 -76.5z" />
<glyph unicode="&#x2000;" horiz-adv-x="950" />
<glyph unicode="&#x2001;" horiz-adv-x="1901" />
<glyph unicode="&#x2002;" horiz-adv-x="950" />
<glyph unicode="&#x2003;" horiz-adv-x="1901" />
<glyph unicode="&#x2004;" horiz-adv-x="633" />
<glyph unicode="&#x2005;" horiz-adv-x="475" />
<glyph unicode="&#x2006;" horiz-adv-x="316" />
<glyph unicode="&#x2007;" horiz-adv-x="316" />
<glyph unicode="&#x2008;" horiz-adv-x="237" />
<glyph unicode="&#x2009;" horiz-adv-x="380" />
<glyph unicode="&#x200a;" horiz-adv-x="105" />
<glyph unicode="&#x2010;" horiz-adv-x="843" d="M90 485l80 299h631l-80 -299h-631z" />
<glyph unicode="&#x2011;" horiz-adv-x="843" d="M90 485l80 299h631l-80 -299h-631z" />
<glyph unicode="&#x2012;" horiz-adv-x="843" d="M90 485l80 299h631l-80 -299h-631z" />
<glyph unicode="&#x2013;" horiz-adv-x="1087" d="M90 489l78 291h876l-77 -291h-877z" />
<glyph unicode="&#x2014;" horiz-adv-x="1845" d="M90 489l78 291h1634l-78 -291h-1634z" />
<glyph unicode="&#x2018;" horiz-adv-x="653" d="M190 786l74 277q53 199 166 289t299 94l21 -129q-233 -20 -267 -203h127l-88 -328h-332z" />
<glyph unicode="&#x2019;" horiz-adv-x="653" d="M158 903q233 20 266 203h-127l88 328h332l-74 -277q-53 -199 -166 -289t-299 -94z" />
<glyph unicode="&#x201a;" horiz-adv-x="653" d="M-125 -203q233 20 266 203h-127l88 328h332l-74 -277q-53 -199 -165.5 -289t-298.5 -94z" />
<glyph unicode="&#x201c;" horiz-adv-x="1173" d="M193 784l73 277q53 199 166 289t299 94l21 -129q-233 -20 -267 -203h127l-88 -328h-331zM713 784l73 277q53 199 166 289t299 94l21 -129q-233 -20 -266 -203h127l-89 -328h-331z" />
<glyph unicode="&#x201d;" horiz-adv-x="1173" d="M160 903q233 20 266 203h-127l88 328h332l-74 -277q-53 -199 -166 -289t-299 -94zM680 903q233 20 266 203h-127l88 328h332l-74 -277q-53 -199 -166 -289t-299 -94z" />
<glyph unicode="&#x201e;" horiz-adv-x="1173" d="M-125 -203q233 20 266 203h-127l88 328h332l-74 -277q-53 -199 -165.5 -289t-298.5 -94zM395 -203q233 20 267 203h-127l88 328h331l-73 -277q-53 -199 -166 -289t-299 -94z" />
<glyph unicode="&#x2022;" d="M266 647q0 172 121 293q96 96 223 96q111 0 174.5 -64.5t63.5 -172.5q0 -172 -121 -293q-96 -96 -223 -96q-111 0 -174.5 64.5t-63.5 172.5z" />
<glyph unicode="&#x2026;" horiz-adv-x="1785" d="M14 0l86 319h324l-86 -319h-324zM586 0l86 319h323l-86 -319h-323zM1157 0l86 319h324l-86 -319h-324z" />
<glyph unicode="&#x202f;" horiz-adv-x="380" />
<glyph unicode="&#x2039;" horiz-adv-x="763" d="M94 522l4 17l506 473l158 -156l-340 -354l143 -332l-229 -102z" />
<glyph unicode="&#x203a;" horiz-adv-x="763" d="M-2 223l340 355l-143 331l229 103l242 -455l-4 -16l-506 -473z" />
<glyph unicode="&#x205f;" horiz-adv-x="475" />
<glyph unicode="&#x20ac;" horiz-adv-x="1474" d="M49 444l55 207h154q10 80 27 140h-144l56 206h147q66 147 174 256q205 205 498 205q399 0 518 -334l-268 -133q-47 96 -105.5 139.5t-163.5 43.5q-139 0 -235 -97q-37 -37 -64 -80h396l-56 -206h-420q-25 -78 -32 -140h415l-55 -207h-362q18 -90 80.5 -137t152.5 -47 q86 0 151.5 34t137.5 109l213 -184q-203 -244 -508 -244q-233 0 -380.5 126t-176.5 343h-205z" />
<glyph unicode="&#x2122;" horiz-adv-x="1433" d="M229 1307l35 127h520l-34 -127h-189l-135 -504h-143l135 504h-189zM748 803l170 631h143l94 -267l238 267h155l-170 -631h-135l115 426l-248 -277h-12l-101 277l-114 -426h-135z" />
<glyph unicode="&#x25fc;" horiz-adv-x="1095" d="M0 0v1096h1096v-1096h-1096z" />
</font>
</defs>
</svg>
