<?xml version="1.0" standalone="no"?>
<!DOCTYPE svg PUBLIC "-//W3C//DTD SVG 1.1//EN" "http://www.w3.org/Graphics/SVG/1.1/DTD/svg11.dtd" >
<svg xmlns="http://www.w3.org/2000/svg">
<metadata></metadata>
<defs>
<font id="gbkbook" horiz-adv-x="1617" >
<font-face units-per-em="2048" ascent="1638" descent="-410" />
<missing-glyph horiz-adv-x="614" />
<glyph unicode="&#xfb01;" horiz-adv-x="1292" d="M90 920v137h146v92q0 180 92 272q82 82 227 82q100 0 174 -26v-138q-94 27 -154 27q-184 0 -184 -225v-86h336v-135h-334v-920h-157v920h-146zM932 1290v174h180v-174h-180zM944 0v1059h156v-1059h-156z" />
<glyph unicode="&#xfb02;" horiz-adv-x="1292" d="M90 920v137h146v92q0 180 92 272q82 82 227 82q100 0 174 -26v-138q-94 27 -154 27q-184 0 -184 -225v-86h336v-135h-334v-920h-157v920h-146zM944 0v1495h156v-1495h-156z" />
<glyph unicode="&#xfb03;" horiz-adv-x="2043" d="M90 920v137h146v92q0 180 92 272q82 82 227 82q100 0 174 -26v-138q-94 27 -154 27q-184 0 -184 -225v-86h336v-135h-334v-920h-157v920h-146zM844 920v137h145v92q0 182 90 272q86 82 228 82q102 0 174 -26v-138q-90 27 -152 27q-184 0 -184 -225v-86h334v-135h-334 v-920h-156v920h-145zM1686 1290v174h178v-174h-178zM1696 0v1059h157v-1059h-157z" />
<glyph unicode="&#xfb04;" horiz-adv-x="2043" d="M90 920v137h146v92q0 180 92 272q82 82 227 82q100 0 174 -26v-138q-94 27 -154 27q-184 0 -184 -225v-86h336v-135h-334v-920h-157v920h-146zM844 920v137h145v92q0 182 90 272q86 82 228 82q102 0 174 -26v-138q-90 27 -152 27q-184 0 -184 -225v-86h334v-135h-334 v-920h-156v920h-145zM1696 0v1495h157v-1495h-157z" />
<glyph horiz-adv-x="0" />
<glyph unicode="&#xd;" horiz-adv-x="681" />
<glyph unicode=" "  horiz-adv-x="614" />
<glyph unicode="&#x09;" horiz-adv-x="614" />
<glyph unicode="&#xa0;" horiz-adv-x="614" />
<glyph unicode="!" horiz-adv-x="555" d="M184 0v215h189v-215h-189zM186 1319v115h185v-115l-49 -913h-89z" />
<glyph unicode="&#x22;" horiz-adv-x="901" d="M133 877l62 557h190v-11l-166 -546h-86zM532 877l64 557h188v-11l-166 -546h-86z" />
<glyph unicode="#" horiz-adv-x="1433" d="M92 362v142h248l74 434h-242v141h266l62 355h143l-61 -355h391l61 355h144l-62 -355h223v-141h-247l-74 -434h242v-142h-267l-61 -362h-144l62 362h-391l-62 -362h-143l61 362h-223zM483 502h391l74 438h-389z" />
<glyph unicode="$" horiz-adv-x="1302" d="M115 215l92 123q190 -172 397 -197v514q-231 55 -333.5 146.5t-102.5 251.5v2q0 158 121 263t309 116v118h131v-122q205 -23 391 -164l-88 -123q-152 123 -309 147v-506q233 -51 337.5 -145t104.5 -252q0 -164 -120.5 -269.5t-315.5 -117.5v-201h-131v205 q-264 25 -483 211zM326 1065q0 -94 58 -151.5t220 -100.5v483q-127 -6 -202.5 -70.5t-75.5 -160.5zM723 135q131 8 208 73.5t77 166.5v2q0 94 -60.5 151.5t-224.5 100.5v-494z" />
<glyph unicode="%" horiz-adv-x="1708" d="M106 1079v4q0 150 92.5 258.5t235.5 108.5q141 0 231.5 -106.5t90.5 -256.5v-4q0 -150 -92.5 -258t-233.5 -108t-232.5 106.5t-91.5 255.5zM244 1083q0 -106 55 -179t135 -73q82 0 134.5 72t52.5 176v4q0 106 -55.5 179t-135.5 73q-82 0 -134 -71.5t-52 -176.5v-4zM254 0 l553 748l500 686h145l-553 -752l-498 -682h-147zM952 346v4q0 150 92.5 258.5t233.5 108.5t231 -106.5t90 -256.5v-4q0 -152 -91 -259t-234 -107q-141 0 -231.5 106.5t-90.5 255.5zM1087 350q0 -106 55.5 -179t135.5 -73q82 0 134 72t52 176v4q0 106 -55 179t-135 73 q-82 0 -134.5 -71.5t-52.5 -176.5v-4z" />
<glyph unicode="&#x26;" horiz-adv-x="1425" d="M92 381v4q0 279 346 414q-143 168 -143 315v4q0 143 105.5 241.5t273.5 98.5q150 0 249 -94t99 -229v-5q0 -254 -338 -372l328 -334q92 133 172 319l133 -61q-109 -231 -207 -360l250 -256l-123 -95l-225 232q-207 -223 -469 -223q-195 0 -323 111.5t-128 289.5zM256 387 q0 -117 84 -193.5t215 -76.5q188 0 358 186l-383 395q-137 -51 -205.5 -132t-68.5 -175v-4zM451 1114q0 -63 30.5 -119.5t112.5 -144.5q276 94 276 272v4q0 86 -57 142.5t-145 56.5q-96 0 -156.5 -59.5t-60.5 -147.5v-4z" />
<glyph unicode="'" horiz-adv-x="501" d="M133 877l62 557h192v-11l-166 -546h-88z" />
<glyph unicode="(" horiz-adv-x="888" d="M139.5 587.5q-0.5 557.5 567.5 876.5l67 -104q-475 -303 -475 -772t475 -772l-67 -105q-567 319 -567.5 876.5z" />
<glyph unicode=")" horiz-adv-x="888" d="M115 -184q475 303 475 772t-475 772l67 104q567 -319 567 -876.5t-567 -876.5z" />
<glyph unicode="*" horiz-adv-x="880" d="M141 1016l238 108l-238 111l56 94l211 -147l-21 256h107l-21 -256l211 147l55 -94l-237 -111l237 -108l-55 -96l-211 149l21 -256h-107l21 256l-211 -149z" />
<glyph unicode="+" horiz-adv-x="1280" d="M139 647v148h424v422h154v-422h424v-148h-424v-422h-154v422h-424z" />
<glyph unicode="," horiz-adv-x="501" d="M94 -178q150 53 137 178h-73v215h188v-184q0 -123 -54 -188.5t-173 -92.5z" />
<glyph unicode="-" horiz-adv-x="835" d="M133 532v166h569v-166h-569z" />
<glyph unicode="." horiz-adv-x="501" d="M158 0v215h188v-215h-188z" />
<glyph unicode="/" horiz-adv-x="1040" d="M-43 -262l950 1896h146l-951 -1896h-145z" />
<glyph unicode="0" horiz-adv-x="1464" d="M127 713v4q0 309 169 525t439.5 216t436 -214t165.5 -523v-4q0 -309 -168 -525.5t-438 -216.5t-437 214t-167 524zM295 717q0 -244 123 -419t317.5 -175t314 173t119.5 417v4q0 244 -121.5 419t-316 175t-315.5 -172t-121 -418v-4z" />
<glyph unicode="1" horiz-adv-x="733" d="M57 1323l351 121h118v-1444h-159v1276l-271 -84z" />
<glyph unicode="2" horiz-adv-x="1226" d="M98 0v125l520 459q168 150 234 247t66 203q0 123 -84 199t-205 76q-117 0 -206 -59.5t-179 -186.5l-119 86q104 156 221 230.5t295 74.5q193 0 318.5 -114.5t125.5 -290.5v-5q0 -150 -79.5 -265t-282.5 -292l-383 -340h760v-147h-1002z" />
<glyph unicode="3" horiz-adv-x="1255" d="M102 231l119 105q172 -213 418 -213q133 0 223 78t90 200v5q0 131 -110.5 203.5t-290.5 72.5h-92l-33 96l453 510h-701v146h916v-119l-451 -500q205 -16 339 -117.5t134 -285.5v-4q0 -188 -138 -310.5t-341 -122.5q-338 0 -535 256z" />
<glyph unicode="4" horiz-adv-x="1374" d="M88 459l811 985h143v-969h222v-135h-222v-340h-157v340h-756zM283 475h602v739z" />
<glyph unicode="5" horiz-adv-x="1253" d="M109 203l106 116q203 -197 408 -196q152 0 249 90t97 227v4q0 133 -99.5 217t-257.5 84q-147 0 -301 -81l-108 71l41 699h825v-150h-684l-31 -459q145 63 283 64q215 0 355.5 -119t140.5 -319v-5q0 -209 -143.5 -340t-368.5 -131q-285 0 -512 228z" />
<glyph unicode="6" horiz-adv-x="1325" d="M125 676v4q0 336 160.5 557t435.5 221q223 0 424 -164l-94 -125q-168 141 -338 142q-199 0 -310.5 -178.5t-111.5 -436.5v-20q152 221 409 221q207 0 351.5 -122t144.5 -318v-4q0 -207 -147.5 -342.5t-366.5 -135.5q-231 0 -377 146q-92 92 -136 219t-44 336zM322 440 q0 -137 102 -229t260 -92q156 0 251 94t95 233v5q0 133 -98 220t-252 87q-156 0 -257 -94.5t-101 -219.5v-4z" />
<glyph unicode="7" horiz-adv-x="1220" d="M139 1286v148h973v-121l-651 -1313h-180l647 1286h-789z" />
<glyph unicode="8" horiz-adv-x="1290" d="M106 385v4q0 123 80 213t215 139q-246 113 -245 330v4q0 162 144 270.5t345 108.5t345.5 -108.5t144.5 -270.5v-4q0 -217 -246 -330q135 -51 215 -139t80 -211v-4q0 -180 -153.5 -293.5t-385 -113.5t-385.5 113.5t-154 291.5zM270 389q0 -113 102.5 -190.5t272.5 -77.5 q172 0 273.5 77.5t101.5 190.5v4q0 119 -108.5 196t-266.5 77t-266.5 -77t-108.5 -196v-4zM317 1061q0 -115 94.5 -188.5t233.5 -73.5t233.5 73.5t94.5 188.5v4q0 106 -94.5 177t-233.5 71q-141 0 -234.5 -71t-93.5 -177v-4z" />
<glyph unicode="9" horiz-adv-x="1325" d="M129 967v4q0 207 145.5 347t370.5 140q229 0 377 -147q178 -178 178 -555v-4q0 -342 -166 -559.5t-430 -217.5q-229 0 -442 177l94 124q174 -153 352 -153q199 0 312.5 176t113.5 422v29q-147 -227 -405 -228q-221 0 -360.5 125t-139.5 320zM295 975q0 -137 98 -225 t254 -88q158 0 257.5 97t99.5 226v4q0 139 -102.5 232.5t-262.5 93.5q-156 0 -250 -98.5t-94 -237.5v-4z" />
<glyph unicode=":" horiz-adv-x="522" d="M168 0v215h188v-215h-188zM168 844v215h188v-215h-188z" />
<glyph unicode=";" horiz-adv-x="522" d="M104 -178q150 53 138 178h-74v215h188v-184q0 -123 -54 -188.5t-173 -92.5zM168 844v215h188v-215h-188z" />
<glyph unicode="&#x3c;" horiz-adv-x="1280" d="M131 653v135l963 478v-158l-791 -385l791 -387v-160z" />
<glyph unicode="=" horiz-adv-x="1280" d="M164 406v151h952v-151h-952zM164 885v151h952v-151h-952z" />
<glyph unicode="&#x3e;" horiz-adv-x="1280" d="M188 176v158l789 385l-789 387v160l961 -478v-135z" />
<glyph unicode="?" horiz-adv-x="1099" d="M61 1214q197 238 482 238q205 0 331.5 -114.5t126.5 -290.5v-5q0 -182 -118.5 -285.5t-307.5 -129.5l-20 -221h-104l-31 331l10 11q197 4 302.5 80.5t105.5 207.5v4q0 113 -82 190t-217 77q-207 0 -373 -193zM408 0v215h188v-215h-188z" />
<glyph unicode="@" horiz-adv-x="2007" d="M109 561q0 369 261 633t636 264q371 0 631.5 -242.5t260.5 -568.5q0 -244 -113.5 -373t-268.5 -129q-109 0 -182.5 46.5t-104.5 125.5q-145 -172 -338 -172q-154 0 -260.5 103.5t-106.5 269.5q0 211 146.5 360.5t326.5 149.5q203 0 299 -170l27 141l137 -18l-82 -465 q-14 -80 -14 -125q0 -78 46 -122t128 -44q119 0 203 108.5t84 313.5q0 291 -238.5 516.5t-580.5 225.5q-350 0 -587 -242t-237 -586q0 -346 237.5 -584.5t602.5 -238.5q272 0 510 139l33 -55q-252 -154 -543 -154q-389 0 -651 261t-262 632zM672 528q0 -119 69.5 -187.5 t180.5 -68.5q123 0 221 99q115 115 114 270q0 113 -70.5 186.5t-178.5 73.5q-125 0 -226 -100q-111 -115 -110 -273z" />
<glyph unicode="A" d="M80 0l653 1444h152l653 -1444h-174l-168 379h-780l-170 -379h-166zM479 526h654l-326 729z" />
<glyph unicode="B" horiz-adv-x="1478" d="M203 0v1434h610q244 0 375 -127q92 -96 92 -230v-4q0 -233 -227 -332q307 -92 307 -346v-4q0 -182 -141.5 -286.5t-378.5 -104.5h-637zM362 145h482q164 0 258 69t94 187v5q0 119 -97.5 182t-283.5 63h-453v-506zM362 795h424q150 0 240 66.5t90 189.5v4q0 109 -83 171 t-234 62h-437v-493z" />
<glyph unicode="C" horiz-adv-x="1511" d="M139 713v4q0 309 207 525t518 216q182 0 311.5 -57.5t247.5 -169.5l-110 -119q-207 197 -451 197q-238 0 -396.5 -170t-158.5 -418v-4q0 -250 160 -421t395 -171q139 0 245.5 51t217.5 156l107 -105q-123 -125 -256.5 -188.5t-317.5 -63.5q-307 0 -513 213t-206 525z" />
<glyph unicode="D" horiz-adv-x="1601" d="M203 0v1434h497q334 0 548 -204t214 -509v-4q0 -307 -214 -512t-548 -205h-497zM365 150h335q266 0 430 159.5t164 403.5v4q0 244 -164 405.5t-430 161.5h-335v-1134z" />
<glyph unicode="E" horiz-adv-x="1372" d="M203 0v1434h1036v-148h-874v-489h782v-148h-782v-502h884v-147h-1046z" />
<glyph unicode="F" horiz-adv-x="1343" d="M203 0v1434h1030v-150h-868v-512h776v-147h-776v-625h-162z" />
<glyph unicode="G" horiz-adv-x="1605" d="M139 713v4q0 303 203 522t516 219q172 0 296 -47t239 -143l-105 -123q-188 164 -436 164q-233 0 -389 -172t-156 -416v-4q0 -260 154.5 -428t412.5 -168q238 0 414 143v357h-436v145h592v-571q-246 -220 -575.5 -220t-529.5 211t-200 527z" />
<glyph unicode="H" horiz-adv-x="1556" d="M203 0v1434h162v-637h827v637h162v-1434h-162v645h-827v-645h-162z" />
<glyph unicode="I" horiz-adv-x="595" d="M217 0v1434h162v-1434h-162z" />
<glyph unicode="J" horiz-adv-x="1132" d="M63 233l117 101q70 -104 144.5 -154.5t183.5 -50.5q125 0 202.5 89t77.5 255v961h164v-959q0 -246 -131 -377q-122 -118 -315 -118q-287 0 -443 253z" />
<glyph unicode="K" horiz-adv-x="1472" d="M203 0v1434h162v-856l823 856h209l-615 -627l641 -807h-202l-551 694l-305 -309v-385h-162z" />
<glyph unicode="L" horiz-adv-x="1267" d="M203 0v1434h162v-1284h806v-150h-968z" />
<glyph unicode="M" horiz-adv-x="1777" d="M203 0v1434h164l522 -783l522 783h164v-1434h-162v1161l-522 -768h-8l-523 766v-1159h-157z" />
<glyph unicode="N" d="M203 0v1434h151l903 -1149v1149h158v-1434h-129l-926 1176v-1176h-157z" />
<glyph unicode="O" horiz-adv-x="1740" d="M139 713v4q0 305 207 523t526.5 218t524.5 -216t205 -521v-4q0 -305 -207 -523.5t-526.5 -218.5t-524.5 216.5t-205 521.5zM307 717q0 -248 161 -420t404.5 -172t402.5 170t159 418v4q0 248 -161 420t-404.5 172t-402.5 -170t-159 -418v-4z" />
<glyph unicode="P" horiz-adv-x="1368" d="M203 0v1434h536q244 0 390.5 -122t146.5 -333v-4q0 -223 -161 -346t-402 -123h-348v-506h-162zM365 653h354q178 0 285.5 87t107.5 229v4q0 150 -103.5 230.5t-281.5 80.5h-362v-631z" />
<glyph unicode="Q" horiz-adv-x="1740" d="M139 713v4q0 305 207 523t526.5 218t524.5 -216t205 -521v-4q0 -270 -170 -479l188 -160l-111 -121l-190 170q-195 -152 -451 -152q-319 0 -524 216.5t-205 521.5zM307 717q0 -248 160.5 -420t404.5 -172q190 0 332 106l-268 230l108 121l269 -244q121 160 121 375v4 q0 248 -161 420t-404.5 172t-402.5 -170t-159 -418v-4z" />
<glyph unicode="R" horiz-adv-x="1480" d="M203 0v1434h616q264 0 408 -144q111 -111 110 -282v-4q0 -172 -106.5 -279t-282.5 -139l441 -586h-199l-416 557h-409v-557h-162zM365 702h440q164 0 266.5 80t102.5 215v4q0 133 -97.5 208t-269.5 75h-442v-582z" />
<glyph unicode="S" horiz-adv-x="1310" d="M109 209l100 119q115 -104 230.5 -153.5t260.5 -49.5q143 0 231.5 68.5t88.5 175.5v4q0 104 -78 165.5t-295 106.5q-254 55 -367.5 148.5t-113.5 265.5v4q0 170 133 280.5t338 110.5q285 0 504 -176l-94 -125q-190 156 -414 156q-137 0 -221 -66.5t-84 -165.5v-4 q0 -106 80.5 -167.5t308.5 -110.5q244 -53 355.5 -148.5t111.5 -257.5v-4q0 -182 -137.5 -293.5t-352.5 -111.5q-330 0 -585 229z" />
<glyph unicode="T" horiz-adv-x="1327" d="M100 1284v150h1127v-150h-482v-1284h-163v1284h-482z" />
<glyph unicode="U" horiz-adv-x="1554" d="M180 600v834h162v-824q0 -229 116.5 -356t321.5 -127q203 0 317.5 121t114.5 352v834h162v-822q0 -307 -162 -471t-436 -164q-272 0 -434 163t-162 460z" />
<glyph unicode="V" horiz-adv-x="1536" d="M80 1434h180l510 -1235l512 1235h174l-616 -1444h-144z" />
<glyph unicode="W" horiz-adv-x="2267" d="M92 1434h176l410 -1194l393 1198h133l393 -1198l410 1194h170l-512 -1444h-137l-393 1163l-396 -1163h-135z" />
<glyph unicode="X" horiz-adv-x="1484" d="M94 0l549 731l-528 703h190l438 -590l439 590h188l-528 -703l549 -731h-193l-459 618l-458 -618h-187z" />
<glyph unicode="Y" horiz-adv-x="1466" d="M55 1434h197l483 -717l488 717h188l-596 -865v-569h-164v567z" />
<glyph unicode="Z" horiz-adv-x="1419" d="M137 0v109l928 1179h-897v146h1118v-109l-930 -1180h930v-145h-1149z" />
<glyph unicode="[" horiz-adv-x="899" d="M193 -266v1700h585v-123h-436v-1454h436v-123h-585z" />
<glyph unicode="\" horiz-adv-x="1040" d="M-12 1634h145l950 -1896h-145z" />
<glyph unicode="]" horiz-adv-x="899" d="M121 -143h438v1454h-438v123h588v-1700h-588v123z" />
<glyph unicode="^" horiz-adv-x="1024" d="M133 1010l318 428h122l318 -428h-139l-242 315l-242 -315h-135z" />
<glyph unicode="_" horiz-adv-x="1228" d="M-4 -199h1237v-129h-1237v129z" />
<glyph unicode="`" horiz-adv-x="1024" d="M295 1440l164 76l192 -297h-123z" />
<glyph unicode="a" horiz-adv-x="1185" d="M96 307v4q0 164 123 253t330 89q166 0 325 -45v37q0 141 -81.5 215t-233 74t-321.5 -78l-48 129q193 88 385 88q225 0 343 -117q109 -109 108 -309v-647h-152v160q-138 -183 -382 -183q-160 0 -278 88.5t-118 241.5zM256 313q0 -96 76.5 -153.5t189.5 -57.5q147 0 251 81 t104 206v103q-156 45 -312 45q-147 0 -228 -59.5t-81 -160.5v-4z" />
<glyph unicode="b" horiz-adv-x="1359" d="M176 0v1495h158v-649q159 235 403 235h2q203 0 354.5 -149.5t151.5 -399.5v-4q0 -248 -151.5 -399.5t-354.5 -151.5q-250 0 -405 226v-203h-158zM328 528q0 -178 114.5 -293.5t268.5 -115.5q160 0 266 110.5t106 296.5v4q0 182 -108.5 296t-263.5 114 q-154 0 -268.5 -115.5t-114.5 -292.5v-4z" />
<glyph unicode="c" horiz-adv-x="1169" d="M111 524v4q0 227 156.5 390t385.5 163q246 0 424 -188l-104 -111q-152 160 -322 160q-160 0 -269.5 -118.5t-109.5 -291.5v-4q0 -172 112 -291.5t278 -119.5q176 0 323 157l100 -94q-184 -205 -432 -205q-229 0 -385.5 162t-156.5 387z" />
<glyph unicode="d" horiz-adv-x="1359" d="M115 526v4q0 248 151.5 399.5t354.5 151.5q250 0 405 -225v639h158v-1495h-158v213q-159 -236 -405 -236q-203 0 -354.5 149.5t-151.5 399.5zM276 528q0 -182 110 -295.5t263.5 -113.5t268 115.5t114.5 293.5v4q0 176 -114.5 292t-268.5 116q-160 0 -266.5 -110.5 t-106.5 -297.5v-4z" />
<glyph unicode="e" horiz-adv-x="1212" d="M111 526v4q0 231 145 391t362 160q227 0 360.5 -159.5t133.5 -399.5q0 -33 -2 -51h-840q16 -168 122 -263t251 -95q190 0 334 149l98 -88q-178 -199 -436 -199q-223 0 -375.5 155t-152.5 396zM270 588h682q-12 156 -100 258t-238 102q-137 0 -232.5 -102t-111.5 -258z " />
<glyph unicode="f" horiz-adv-x="751" d="M90 920v137h146v92q0 180 92 272q82 82 227 82q100 0 174 -26v-138q-94 27 -154 27q-184 0 -184 -225v-86h336v-135h-334v-920h-157v920h-146z" />
<glyph unicode="g" horiz-adv-x="1359" d="M115 578v4q0 223 149.5 361t347.5 138q254 0 414 -213v191h158v-875q0 -240 -135 -374q-142 -142 -404 -142q-268 0 -481 148l72 123q186 -135 407 -136q178 0 281.5 97.5t103.5 279.5v125q-168 -223 -416 -223q-201 0 -349 138t-148 358zM276 582q0 -156 107.5 -258.5 t259.5 -102.5q156 0 272.5 101.5t116.5 257.5v4q0 158 -115.5 258t-273.5 100q-154 0 -260.5 -98.5t-106.5 -257.5v-4z" />
<glyph unicode="h" horiz-adv-x="1261" d="M176 0v1495h158v-621q125 207 362 207q188 0 297 -115.5t109 -308.5v-657h-158v618q0 150 -76.5 235t-216.5 85q-137 0 -227 -92t-90 -240v-606h-158z" />
<glyph unicode="i" horiz-adv-x="538" d="M180 1290v174h180v-174h-180zM190 0v1059h158v-1059h-158z" />
<glyph unicode="j" horiz-adv-x="538" d="M-8 -195q37 -6 78 -6q121 0 120 142v1118h158v-1120q0 -137 -67.5 -205t-190.5 -68q-55 0 -98 10v129zM180 1290v174h180v-174h-180z" />
<glyph unicode="k" horiz-adv-x="1165" d="M176 0v1495h158v-1032l571 596h197l-445 -455l459 -604h-188l-379 494l-215 -218v-276h-158z" />
<glyph unicode="l" horiz-adv-x="538" d="M190 0v1495h158v-1495h-158z" />
<glyph unicode="m" horiz-adv-x="1947" d="M176 0v1059h158v-178q132 200 340 200h2q238 0 340 -211q137 211 373 211q182 0 287.5 -114.5t105.5 -311.5v-655h-158v618q0 154 -72.5 237t-201.5 83q-125 0 -208 -88t-83 -240v-610h-158v623q0 147 -72.5 231t-199.5 84t-211 -94t-84 -240v-604h-158z" />
<glyph unicode="n" horiz-adv-x="1261" d="M176 0v1059h158v-185q125 207 362 207q188 0 297 -115.5t109 -308.5v-657h-158v618q0 150 -76.5 235t-216.5 85q-137 0 -227 -92t-90 -240v-606h-158z" />
<glyph unicode="o" horiz-adv-x="1323" d="M111 524v4q0 227 158.5 390t394 163t393 -160.5t157.5 -388.5v-4q0 -227 -159.5 -390t-395 -163t-392 161t-156.5 388zM272 528q0 -172 113 -291.5t279 -119.5q170 0 279.5 118.5t109.5 288.5v4q0 172 -114 293t-280 121q-168 0 -277.5 -120t-109.5 -290v-4z" />
<glyph unicode="p" horiz-adv-x="1359" d="M176 -328v1387h158v-213q159 235 403 235h2q203 0 354.5 -149.5t151.5 -399.5v-4q0 -248 -151.5 -399.5t-354.5 -151.5q-250 0 -405 226v-531h-158zM328 528q0 -178 114.5 -293.5t268.5 -115.5q160 0 266 110.5t106 296.5v4q0 182 -108.5 296t-263.5 114 q-154 0 -268.5 -115.5t-114.5 -292.5v-4z" />
<glyph unicode="q" horiz-adv-x="1359" d="M115 526v4q0 248 151.5 399.5t354.5 151.5q250 0 405 -225v203h158v-1387h-158v541q-160 -236 -405 -236q-203 0 -354.5 149.5t-151.5 399.5zM276 528q0 -182 110 -295.5t263.5 -113.5t268 115.5t114.5 293.5v4q0 176 -114.5 292t-268.5 116q-160 0 -266.5 -110.5 t-106.5 -297.5v-4z" />
<glyph unicode="r" horiz-adv-x="829" d="M176 0v1059h158v-277q61 137 174 219q105 76 238 76h20v-170h-12q-182 0 -301 -127t-119 -358v-422h-158z" />
<glyph unicode="s" horiz-adv-x="1019" d="M88 135l80 113q180 -135 367 -135q96 0 157.5 46t61.5 122v4q0 72 -66.5 110.5t-198.5 75.5q-80 23 -127 41t-106 52t-88 85t-29 121v4q0 135 101.5 219t259.5 84q205 0 381 -116l-72 -119q-158 102 -313 102q-92 0 -148.5 -43t-56.5 -110v-5q0 -29 16.5 -53t37 -40.5 t64.5 -35t70.5 -26.5t83.5 -27q59 -18 99 -32.5t90.5 -40t80 -55.5t50 -75t20.5 -100v-4q0 -147 -106.5 -232t-270.5 -85q-115 0 -232.5 41.5t-205.5 113.5z" />
<glyph unicode="t" horiz-adv-x="827" d="M84 920v139h147v319h158v-319h336v-139h-336v-619q0 -176 178 -176q78 0 154 37v-135q-87 -45 -191 -45q-137 0 -218 72.5t-81 226.5v639h-147z" />
<glyph unicode="u" horiz-adv-x="1261" d="M160 401v658h157v-619q0 -150 77 -234.5t216 -84.5q137 0 227.5 92t90.5 240v606h155v-1059h-155v184q-130 -207 -363 -207q-188 0 -296.5 116t-108.5 308z" />
<glyph unicode="v" horiz-adv-x="1202" d="M72 1059h174l356 -879l359 879h169l-460 -1067h-140z" />
<glyph unicode="w" horiz-adv-x="1763" d="M86 1059h168l278 -850l285 854h131l287 -854l278 850h164l-372 -1067h-138l-284 835l-287 -835h-139z" />
<glyph unicode="x" horiz-adv-x="1175" d="M80 0l414 539l-398 520h180l312 -414l315 414h176l-401 -518l418 -541h-183l-327 436l-330 -436h-176z" />
<glyph unicode="y" horiz-adv-x="1210" d="M70 1059h174l385 -883l340 883h168l-445 -1094q-68 -162 -149.5 -230.5t-202.5 -68.5q-115 0 -225 53l53 125q76 -39 166 -39q72 0 121 44.5t96 154.5z" />
<glyph unicode="z" horiz-adv-x="1138" d="M115 0v100l702 826h-678v133h893v-101l-704 -825h704v-133h-917z" />
<glyph unicode="{" horiz-adv-x="989" d="M115 526v123h53q133 0 187.5 60.5t54.5 185.5q0 18 -1 79.5t-1 76.5q0 174 92 270t352 143l25 -104q-205 -53 -262.5 -117.5t-57.5 -212.5q0 -20 1 -75.5t1 -77.5q0 -123 -54 -189.5t-159 -99.5q109 -35 161 -100.5t52 -188.5q0 -23 -1 -78t-1 -76q0 -147 57.5 -211.5 t262.5 -117.5l-25 -105q-260 47 -352 143.5t-92 270.5q0 14 1 75.5t1 80.5q0 125 -54.5 185t-187.5 60h-53z" />
<glyph unicode="|" horiz-adv-x="620" d="M244 -262v1896h133v-1896h-133z" />
<glyph unicode="}" horiz-adv-x="989" d="M111 -184q207 53 264 117.5t57 211.5q0 20 -1 75.5t-1 78.5q0 123 54.5 189.5t158.5 99.5q-109 35 -161 100.5t-52 188.5q0 23 1 78t1 75q0 147 -57.5 212t-263.5 118l26 104q260 -47 352.5 -143t92.5 -270q0 -14 -1 -76t-1 -80q0 -125 54 -185.5t185 -60.5h53v-123h-53 q-131 0 -185 -60t-54 -185q0 -18 1 -80t1 -76q0 -174 -92.5 -270.5t-352.5 -143.5z" />
<glyph unicode="~" horiz-adv-x="970" d="M150 512q31 117 75.5 167t118.5 50q49 0 148 -43q90 -41 126 -41q39 0 60.5 22.5t46.5 80.5l94 -27q-31 -117 -74.5 -167t-117.5 -50q-49 0 -148 43q-94 41 -127 41q-39 0 -60.5 -21.5t-45.5 -81.5z" />
<glyph unicode="&#xa1;" horiz-adv-x="555" d="M184 1219v215h189v-215h-189zM186 0v117l47 911h89l49 -911v-117h-185z" />
<glyph unicode="&#xa2;" horiz-adv-x="1189" d="M119 723v4q0 227 157.5 390t385.5 163h24l33 166h133l-37 -186q143 -37 270 -170l-102 -107q-104 104 -201 137l-157 -803q14 -2 43 -2q178 0 325 158l99 -92q-182 -207 -433 -207q-37 0 -55 2l-37 -188h-133l43 217q-160 57 -259 199.5t-99 318.5zM279 727 q0 -127 63.5 -229.5t167.5 -149.5l156 791h-9q-160 0 -269 -119t-109 -289v-4z" />
<glyph unicode="&#xa3;" horiz-adv-x="1318" d="M137 0v94l172 43v467h-172v141h172v222q0 236 129 364q123 123 324 123q268 0 438 -221l-125 -98q-68 84 -139.5 127t-175.5 43q-121 0 -201 -76q-88 -92 -88 -262v-222h571v-141h-571v-461h727v-143h-1061z" />
<glyph unicode="&#xa5;" horiz-adv-x="1404" d="M55 1434h193l457 -701l460 701h185l-523 -762h373v-127h-420v-180h420v-127h-420v-238h-155v238h-420v127h420v180h-420v127h368z" />
<glyph unicode="&#xa7;" horiz-adv-x="1294" d="M127 733v4q0 92 73.5 152.5t196.5 81.5q-152 78 -151 207v4q0 123 102.5 197.5t274.5 74.5q279 0 469 -194l-103 -99q-162 158 -371 158q-102 0 -156 -37t-54 -98v-4q0 -57 72.5 -100.5t260.5 -88.5q236 -55 331 -119.5t95 -171.5v-4q0 -90 -73.5 -151.5t-196.5 -81.5 q152 -74 152 -207v-4q0 -123 -102.5 -197.5t-274.5 -74.5q-279 0 -469 194l102 98q162 -158 371 -157q102 0 156.5 37.5t54.5 97.5v4q0 57 -75 101t-259 87q-233 55 -329.5 121t-96.5 170zM279 750q0 -53 64.5 -96.5t225.5 -82.5q132 -32 224 -32q98 0 160.5 42t62.5 99v4 q0 53 -64.5 96t-226.5 82q-133 33 -223 33q-98 0 -160.5 -42t-62.5 -99v-4z" />
<glyph unicode="&#xa8;" horiz-adv-x="1024" d="M242 1219v194h182v-194h-182zM600 1219v194h182v-194h-182z" />
<glyph unicode="&#xa9;" horiz-adv-x="1699" d="M109 713v4q0 305 217 523t526 218t524 -216t215 -521v-4q0 -305 -217 -523.5t-526 -218.5t-524 216.5t-215 521.5zM176 713q0 -281 193.5 -477.5t478.5 -196.5q287 0 481.5 198.5t194.5 479.5v4q0 281 -193.5 477.5t-478.5 196.5q-287 0 -481.5 -199t-194.5 -479v-4z M477 725v4q0 162 110.5 276.5t274.5 114.5q166 0 295 -123l-76 -82q-106 102 -221 102.5t-191.5 -83.5t-76.5 -203v-4q0 -119 79 -204t191 -85q117 0 225 103l74 -72q-131 -135 -303 -135q-162 0 -271.5 114.5t-109.5 276.5z" />
<glyph unicode="&#xaa;" horiz-adv-x="798" d="M119 592v96h532v-96h-532zM125 1020v4q0 90 69.5 140t182.5 50q82 0 164 -22v10q0 70 -42 108t-118 38t-176 -45l-31 86q117 51 217 51q121 0 191 -66q59 -59 59 -172v-354h-100v78q-74 -90 -197 -90q-88 0 -153.5 49t-65.5 135zM231 1024q0 -47 38 -74.5t93 -27.5 q74 0 126.5 39.5t52.5 103.5v49q-76 23 -156 23q-72 0 -113 -30t-41 -79v-4z" />
<glyph unicode="&#xab;" horiz-adv-x="1126" d="M98 522v17l338 434l115 -66l-272 -375l272 -380l-115 -66zM555 522v17l338 434l113 -66l-271 -375l271 -380l-113 -66z" />
<glyph unicode="&#xad;" horiz-adv-x="835" d="M133 532v166h569v-166h-569z" />
<glyph unicode="&#xae;" horiz-adv-x="825" d="M57 1094v2q0 147 104.5 252.5t252.5 105.5q150 0 253 -104.5t103 -251.5v-2q0 -147 -104.5 -253t-251.5 -106q-150 0 -253.5 104.5t-103.5 252.5zM98 1094q0 -131 91.5 -224.5t224.5 -93.5t224 94.5t91 225.5v2q0 131 -91 224t-224 93t-224.5 -94t-91.5 -225v-2zM274 922 v362h164q61 0 100.5 -29.5t39.5 -85.5q0 -86 -84 -110l96 -137h-84l-86 125h-76v-125h-70zM344 1104h88q74 0 74 59.5t-74 59.5h-88v-119z" />
<glyph unicode="&#xaf;" horiz-adv-x="1024" d="M193 1260v129h638v-129h-638z" />
<glyph unicode="&#xb0;" horiz-adv-x="937" d="M147 1130v5q0 125 97.5 218t224.5 93t224.5 -93t97.5 -218v-5q0 -123 -97.5 -217t-224.5 -94t-224.5 94.5t-97.5 216.5zM266 1130q0 -82 58.5 -143t144.5 -61t144.5 61.5t58.5 142.5v5q0 82 -58.5 143t-144.5 61t-144.5 -61t-58.5 -143v-5z" />
<glyph unicode="&#xb1;" horiz-adv-x="1280" d="M158 0v141h966v-141h-966zM158 745v144h407v401h150v-401h409v-144h-409v-401h-150v401h-407z" />
<glyph unicode="&#xb2;" horiz-adv-x="819" d="M121 868v90l295 259q86 72 121.5 123t35.5 106q0 61 -43 100t-108 39q-119 0 -213 -137l-78 55q117 178 297 178q111 0 183.5 -65.5t72.5 -161.5q0 -80 -42 -141.5t-144 -149.5l-232 -196h424v-99h-569z" />
<glyph unicode="&#xb3;" horiz-adv-x="819" d="M104 991l72 72q100 -119 230 -119q70 0 117.5 41t47.5 107q0 70 -57 107.5t-149 37.5h-68l-21 68l259 258h-385v98h520v-86l-254 -252q119 -10 191.5 -67.5t72.5 -161.5q0 -109 -79 -177.5t-198 -68.5q-180 0 -299 143z" />
<glyph unicode="&#xb4;" horiz-adv-x="1024" d="M373 1219l192 297l164 -76l-233 -221h-123z" />
<glyph unicode="&#xb6;" horiz-adv-x="1044" d="M98 985v4q0 205 149.5 325t391.5 120h217v-1434h-164v541h-22q-252 0 -412 117.5t-160 326.5z" />
<glyph unicode="&#xb7;" horiz-adv-x="501" d="M158 508v217h188v-217h-188z" />
<glyph unicode="&#xb8;" horiz-adv-x="1024" d="M307 -248l189 275h125l-160 -344z" />
<glyph unicode="&#xb9;" horiz-adv-x="665" d="M123 1587l225 88h84v-807h-106v695l-176 -68z" />
<glyph unicode="&#xba;" horiz-adv-x="798" d="M98 1135v4q0 127 87 216t216 89q127 0 213 -88t86 -213v-4q0 -127 -87 -216t-216 -89q-127 0 -213 88t-86 213zM104 592v96h590v-96h-590zM209 1139q0 -86 55 -146.5t137 -60.5t135.5 59.5t53.5 143.5v4q0 86 -55.5 146.5t-137.5 60.5t-135 -59.5t-53 -143.5v-4z" />
<glyph unicode="&#xbb;" horiz-adv-x="1126" d="M121 152l270 376l-270 379l115 66l335 -434v-17l-335 -436zM575 152l273 376l-273 379l115 66l338 -434v-17l-338 -436z" />
<glyph unicode="&#xbc;" horiz-adv-x="1689" d="M117 1360l225 86h84v-805h-107v694l-176 -67zM276 0l508 735l467 699h111l-508 -736l-467 -698h-111zM975 270l395 535h115v-539h110v-88h-110v-182h-99v182h-389zM1083 266h303v412z" />
<glyph unicode="&#xbd;" horiz-adv-x="1689" d="M117 1360l225 86h84v-805h-107v694l-176 -67zM256 0l508 735l467 699h110l-507 -736l-467 -698h-111zM1012 0v90l295 258q86 72 121.5 123t35.5 107q0 61 -43 100t-108 39q-119 0 -213 -137l-78 55q117 178 297 178q111 0 183.5 -65.5t72.5 -161.5q0 -80 -42 -141.5 t-144 -149.5l-232 -197h424v-98h-569z" />
<glyph unicode="&#xbe;" horiz-adv-x="1843" d="M104 764l72 72q100 -119 230 -119q70 0 117.5 41t47.5 106q0 70 -57 108t-149 38h-68l-21 67l259 258h-385v99h520v-86l-254 -252q119 -10 191.5 -67.5t72.5 -162.5q0 -109 -79 -177t-198 -68q-180 0 -299 143zM420 0l508 735l467 699h110l-508 -736l-467 -698h-110z M1128 270l396 535h114v-539h111v-88h-111v-182h-98v182h-389zM1237 266h303v412z" />
<glyph unicode="&#xbf;" horiz-adv-x="1099" d="M98 387v4q0 182 119 285.5t307 130.5l19 221h104l33 -332l-10 -10q-197 -4 -302.5 -81t-105.5 -208v-4q0 -113 82 -189.5t217 -76.5q207 0 371 192l104 -100q-196 -237 -479 -237q-207 0 -333 113.5t-126 291.5zM504 1219v215h188v-215h-188z" />
<glyph unicode="&#xc0;" d="M80 0l653 1444h152l653 -1444h-174l-168 379h-780l-170 -379h-166zM479 526h654l-326 729zM508 1772l160 73l206 -264h-131z" />
<glyph unicode="&#xc1;" d="M80 0l653 1444h152l653 -1444h-174l-168 379h-780l-170 -379h-166zM479 526h654l-326 729zM743 1581l205 264l162 -73l-236 -191h-131z" />
<glyph unicode="&#xc2;" d="M80 0l653 1444h152l653 -1444h-174l-168 379h-780l-170 -379h-166zM479 526h654l-326 729zM510 1577l225 242h148l225 -242h-147l-154 123l-154 -123h-143z" />
<glyph unicode="&#xc3;" d="M80 0l653 1444h152l653 -1444h-174l-168 379h-780l-170 -379h-166zM477 1591q31 109 76 159t117 50q47 0 157 -45q92 -35 117 -35q39 0 60.5 21.5t46.5 75.5l100 -29q-31 -109 -76 -158t-117 -49q-47 0 -157 45q-88 35 -117 35q-39 0 -60.5 -21.5t-45.5 -76.5zM479 526 h654l-326 729z" />
<glyph unicode="&#xc4;" d="M80 0l653 1444h152l653 -1444h-174l-168 379h-780l-170 -379h-166zM479 526h654l-326 729zM522 1581v184h191v-184h-191zM905 1581v184h191v-184h-191z" />
<glyph unicode="&#xc5;" d="M80 0l614 1360q-113 57 -112 176q0 86 66.5 144.5t160.5 58.5t160.5 -58.5t66.5 -144.5q0 -117 -112 -176l614 -1360h-174l-168 379h-780l-170 -379h-166zM479 526h654l-326 729zM672 1536q0 -53 39 -89t98 -36t98 36t39 89t-39 89t-98 36t-98 -36t-39 -89z" />
<glyph unicode="&#xc6;" horiz-adv-x="2140" d="M35 0l842 1434h1130v-148h-838v-489h746v-148h-746v-502h848v-147h-1011v379h-578l-223 -379h-170zM510 526h496v764h-50z" />
<glyph unicode="&#xc7;" horiz-adv-x="1511" d="M139 713v4q0 309 207 525t518 216q182 0 311.5 -57.5t247.5 -169.5l-110 -119q-207 197 -451 197q-238 0 -396.5 -170t-158.5 -418v-4q0 -250 160 -421t395 -171q139 0 245.5 51t217.5 156l107 -105q-117 -119 -243 -181t-298 -69l-135 -294l-154 69l158 230 q-272 35 -446.5 240.5t-174.5 490.5z" />
<glyph unicode="&#xc8;" horiz-adv-x="1372" d="M203 0v1434h1036v-148h-874v-489h782v-148h-782v-502h884v-147h-1046zM424 1751l160 74l207 -264h-132z" />
<glyph unicode="&#xc9;" horiz-adv-x="1372" d="M203 0v1434h1036v-148h-874v-489h782v-148h-782v-502h884v-147h-1046zM657 1561l205 264l162 -74l-236 -190h-131z" />
<glyph unicode="&#xca;" horiz-adv-x="1372" d="M203 0v1434h1036v-148h-874v-489h782v-148h-782v-502h884v-147h-1046zM424 1561l225 241h148l225 -241h-148l-153 122l-154 -122h-143z" />
<glyph unicode="&#xcb;" horiz-adv-x="1372" d="M203 0v1434h1036v-148h-874v-489h782v-148h-782v-502h884v-147h-1046zM438 1561v184h191v-184h-191zM821 1561v184h191v-184h-191z" />
<glyph unicode="&#xcc;" horiz-adv-x="595" d="M-2 1751l160 74l207 -264h-132zM217 0v1434h162v-1434h-162z" />
<glyph unicode="&#xcd;" horiz-adv-x="595" d="M217 0v1434h162v-1434h-162zM233 1561l205 264l162 -74l-235 -190h-132z" />
<glyph unicode="&#xce;" horiz-adv-x="595" d="M0 1561l225 241h148l225 -241h-147l-154 122l-154 -122h-143zM217 0v1434h162v-1434h-162z" />
<glyph unicode="&#xcf;" horiz-adv-x="595" d="M14 1561v184h191v-184h-191zM217 0v1434h162v-1434h-162zM397 1561v184h191v-184h-191z" />
<glyph unicode="&#xd0;" horiz-adv-x="1662" d="M111 647v148h153v639h498q334 0 548 -204t214 -509v-4q0 -307 -214 -512t-548 -205h-498v647h-153zM426 150h336q266 0 430 159.5t164 403.5v4q0 244 -164 405.5t-430 161.5h-336v-489h430v-148h-430v-497z" />
<glyph unicode="&#xd1;" d="M203 0v1434h151l903 -1149v1149h158v-1434h-129l-926 1176v-1176h-157zM477 1565q31 109 76 159t117 50q47 0 157 -45q92 -35 117 -35q39 0 60.5 21.5t46.5 74.5l100 -29q-31 -109 -76 -158t-117 -49q-47 0 -157 45q-88 35 -117 35q-39 0 -60.5 -21.5t-45.5 -76.5z" />
<glyph unicode="&#xd2;" horiz-adv-x="1740" d="M139 713v4q0 305 207 523t526.5 218t524.5 -216t205 -521v-4q0 -305 -207 -523.5t-526.5 -218.5t-524.5 216.5t-205 521.5zM307 717q0 -248 161 -420t404.5 -172t402.5 170t159 418v4q0 248 -161 420t-404.5 172t-402.5 -170t-159 -418v-4zM569 1772l160 73l207 -264 h-131z" />
<glyph unicode="&#xd3;" horiz-adv-x="1740" d="M139 713v4q0 305 207 523t526.5 218t524.5 -216t205 -521v-4q0 -305 -207 -523.5t-526.5 -218.5t-524.5 216.5t-205 521.5zM307 717q0 -248 161 -420t404.5 -172t402.5 170t159 418v4q0 248 -161 420t-404.5 172t-402.5 -170t-159 -418v-4zM805 1581l205 264l161 -73 l-235 -191h-131z" />
<glyph unicode="&#xd4;" horiz-adv-x="1740" d="M139 713v4q0 305 207 523t526.5 218t524.5 -216t205 -521v-4q0 -305 -207 -523.5t-526.5 -218.5t-524.5 216.5t-205 521.5zM307 717q0 -248 161 -420t404.5 -172t402.5 170t159 418v4q0 248 -161 420t-404.5 172t-402.5 -170t-159 -418v-4zM571 1581l226 242h147 l225 -242h-147l-154 123l-153 -123h-144z" />
<glyph unicode="&#xd5;" horiz-adv-x="1740" d="M139 713v4q0 305 207 523t526.5 218t524.5 -216t205 -521v-4q0 -305 -207 -523.5t-526.5 -218.5t-524.5 216.5t-205 521.5zM307 717q0 -248 161 -420t404.5 -172t402.5 170t159 418v4q0 248 -161 420t-404.5 172t-402.5 -170t-159 -418v-4zM539 1591q31 109 75.5 159 t116.5 50q47 0 158 -45q92 -35 117 -35q39 0 60 21.5t46 75.5l100 -29q-31 -109 -75.5 -158t-116.5 -49q-47 0 -158 45q-88 35 -117 35q-39 0 -60 -21.5t-46 -76.5z" />
<glyph unicode="&#xd6;" horiz-adv-x="1740" d="M139 713v4q0 305 207 523t526.5 218t524.5 -216t205 -521v-4q0 -305 -207 -523.5t-526.5 -218.5t-524.5 216.5t-205 521.5zM307 717q0 -248 161 -420t404.5 -172t402.5 170t159 418v4q0 248 -161 420t-404.5 172t-402.5 -170t-159 -418v-4zM584 1581v184h190v-184h-190z M967 1581v184h190v-184h-190z" />
<glyph unicode="&#xd7;" horiz-adv-x="1280" d="M180 362l361 357l-361 356l107 107l356 -363l356 363l103 -103l-363 -356l363 -356l-107 -107l-356 363l-356 -363z" />
<glyph unicode="&#xd8;" horiz-adv-x="1740" d="M123 -10l201 221q-184 211 -185 502v4q0 305 207 523t526 218q256 0 449 -149l127 135h170l-203 -223q186 -209 187 -500v-4q0 -305 -207 -523.5t-527 -218.5q-258 0 -450 150l-125 -135h-170zM305 719q0 -225 129 -389l785 860q-154 123 -351 123q-244 0 -403.5 -171 t-159.5 -421v-2zM520 244q149 -123 352 -123q244 0 404 171t160 421v2q0 219 -131 387z" />
<glyph unicode="&#xd9;" horiz-adv-x="1554" d="M180 600v834h162v-824q0 -229 116.5 -356t321.5 -127q203 0 317.5 121t114.5 352v834h162v-822q0 -307 -162 -471t-436 -164q-272 0 -434 163t-162 460zM475 1745l160 74l207 -265h-131z" />
<glyph unicode="&#xda;" horiz-adv-x="1554" d="M180 600v834h162v-824q0 -229 116.5 -356t321.5 -127q203 0 317.5 121t114.5 352v834h162v-822q0 -307 -162 -471t-436 -164q-272 0 -434 163t-162 460zM711 1554l204 265l162 -74l-235 -191h-131z" />
<glyph unicode="&#xdb;" horiz-adv-x="1554" d="M180 600v834h162v-824q0 -229 116.5 -356t321.5 -127q203 0 317.5 121t114.5 352v834h162v-822q0 -307 -162 -471t-436 -164q-272 0 -434 163t-162 460zM477 1554l225 242h148l225 -242h-147l-154 123l-153 -123h-144z" />
<glyph unicode="&#xdc;" horiz-adv-x="1554" d="M180 600v834h162v-824q0 -229 116.5 -356t321.5 -127q203 0 317.5 121t114.5 352v834h162v-822q0 -307 -162 -471t-436 -164q-272 0 -434 163t-162 460zM492 1554v185h190v-185h-190zM874 1554v185h191v-185h-191z" />
<glyph unicode="&#xdd;" horiz-adv-x="1466" d="M55 1434h197l483 -717l488 717h188l-596 -865v-569h-164v567zM668 1554l204 265l162 -74l-235 -191h-131z" />
<glyph unicode="&#xde;" horiz-adv-x="1378" d="M203 0v1434h162v-246h374q244 0 390.5 -123t146.5 -332v-4q0 -223 -161 -347t-402 -124h-348v-258h-162zM365 406h354q178 0 285.5 88t107.5 229v4q0 150 -103.5 230.5t-281.5 80.5h-362v-632z" />
<glyph unicode="&#xdf;" horiz-adv-x="1269" d="M176 0v1026q0 217 126 350t339 133q190 0 306 -105.5t116 -262.5v-4q0 -133 -81 -227.5t-204 -147.5q162 -37 267.5 -127t105.5 -238v-4q0 -190 -148.5 -295.5t-404.5 -101.5v127q184 4 287.5 73.5t103.5 196.5v4q0 119 -103.5 190.5t-287.5 90.5v117q303 113 303 331v4 q0 106 -74.5 173t-193.5 67q-133 0 -216 -93t-83 -249v-1028h-158z" />
<glyph unicode="&#xe0;" horiz-adv-x="1185" d="M96 307v4q0 164 123 253t330 89q166 0 325 -45v37q0 141 -81.5 215t-233 74t-321.5 -78l-48 129q193 88 385 88q225 0 343 -117q109 -109 108 -309v-647h-152v160q-138 -183 -382 -183q-160 0 -278 88.5t-118 241.5zM256 313q0 -96 76.5 -153.5t189.5 -57.5q147 0 251 81 t104 206v103q-156 45 -312 45q-147 0 -228 -59.5t-81 -160.5v-4zM301 1440l164 76l192 -297h-122z" />
<glyph unicode="&#xe1;" horiz-adv-x="1185" d="M96 307v4q0 164 123 253t330 89q166 0 325 -45v37q0 141 -81.5 215t-233 74t-321.5 -78l-48 129q193 88 385 88q225 0 343 -117q109 -109 108 -309v-647h-152v160q-138 -183 -382 -183q-160 0 -278 88.5t-118 241.5zM256 313q0 -96 76.5 -153.5t189.5 -57.5q147 0 251 81 t104 206v103q-156 45 -312 45q-147 0 -228 -59.5t-81 -160.5v-4zM528 1219l193 297l164 -76l-234 -221h-123z" />
<glyph unicode="&#xe2;" horiz-adv-x="1185" d="M96 307v4q0 164 123 253t330 89q166 0 325 -45v37q0 141 -81.5 215t-233 74t-321.5 -78l-48 129q193 88 385 88q225 0 343 -117q109 -109 108 -309v-647h-152v160q-138 -183 -382 -183q-160 0 -278 88.5t-118 241.5zM256 313q0 -96 76.5 -153.5t189.5 -57.5q147 0 251 81 t104 206v103q-156 45 -312 45q-147 0 -228 -59.5t-81 -160.5v-4zM305 1219l217 268h140l217 -268h-136l-153 137l-154 -137h-131z" />
<glyph unicode="&#xe3;" horiz-adv-x="1185" d="M96 307v4q0 164 123 253t330 89q166 0 325 -45v37q0 141 -81.5 215t-233 74t-321.5 -78l-48 129q193 88 385 88q225 0 343 -117q109 -109 108 -309v-647h-152v160q-138 -183 -382 -183q-160 0 -278 88.5t-118 241.5zM256 313q0 -96 76.5 -153.5t189.5 -57.5q147 0 251 81 t104 206v103q-156 45 -312 45q-147 0 -228 -59.5t-81 -160.5v-4zM264 1227q31 115 76 165t119 50q45 0 147 -41q90 -41 127 -41q39 0 60.5 21.5t46.5 78.5l96 -26q-31 -115 -76 -165t-119 -50q-49 0 -147 43q-94 39 -127 38q-39 0 -60.5 -21.5t-46.5 -78.5z" />
<glyph unicode="&#xe4;" horiz-adv-x="1185" d="M96 307v4q0 164 123 253t330 89q166 0 325 -45v37q0 141 -81.5 215t-233 74t-321.5 -78l-48 129q193 88 385 88q225 0 343 -117q109 -109 108 -309v-647h-152v160q-138 -183 -382 -183q-160 0 -278 88.5t-118 241.5zM256 313q0 -96 76.5 -153.5t189.5 -57.5q147 0 251 81 t104 206v103q-156 45 -312 45q-147 0 -228 -59.5t-81 -160.5v-4zM322 1219v194h182v-194h-182zM680 1219v194h182v-194h-182z" />
<glyph unicode="&#xe5;" horiz-adv-x="1185" d="M96 307v4q0 164 123 253t330 89q166 0 325 -45v37q0 141 -81.5 215t-233 74t-321.5 -78l-48 129q193 88 385 88q225 0 343 -117q109 -109 108 -309v-647h-152v160q-138 -183 -382 -183q-160 0 -278 88.5t-118 241.5zM256 313q0 -96 76.5 -153.5t189.5 -57.5q147 0 251 81 t104 206v103q-156 45 -312 45q-147 0 -228 -59.5t-81 -160.5v-4zM369 1429.5q0 88.5 65.5 150.5t157.5 62t157.5 -62t65.5 -150.5t-65.5 -152t-157.5 -63.5t-157.5 63.5t-65.5 152zM451 1429.5q0 -57.5 42 -99.5t99 -42t99 42t42 99.5t-42 99.5t-99 42t-99 -42t-42 -99.5z " />
<glyph unicode="&#xe6;" horiz-adv-x="1951" d="M96 307v4q0 164 122 253t323 89q154 0 313 -45v37q0 141 -79 215t-226 74q-141 0 -311 -78l-48 129q193 88 375 88q309 0 389 -227q63 109 170 172t236 63q227 0 360 -159.5t133 -399.5q0 -14 -4 -51h-837q14 -166 119.5 -262t250.5 -96q190 0 334 149l99 -88 q-174 -199 -437 -199q-127 0 -237.5 56.5t-182.5 156.5q-202 -211 -462 -211q-164 0 -282 87.5t-118 242.5zM256 313q0 -96 73.5 -152.5t184.5 -56.5q213 0 381 189q-37 92 -43 201q-164 43 -295 43q-143 0 -222 -59.5t-79 -160.5v-4zM1010 588h682q-12 156 -99.5 258 t-236.5 102q-139 0 -234.5 -101t-111.5 -259z" />
<glyph unicode="&#xe7;" horiz-adv-x="1169" d="M111 524v4q0 227 156.5 390t385.5 163q246 0 424 -188l-104 -111q-152 160 -322 160q-160 0 -269.5 -118.5t-109.5 -291.5v-4q0 -172 112 -291.5t278 -119.5q176 0 323 157l100 -94q-172 -193 -401 -203l-135 -294l-154 69l160 234q-195 33 -319.5 186.5t-124.5 351.5z " />
<glyph unicode="&#xe8;" horiz-adv-x="1212" d="M111 526v4q0 231 145 391t362 160q227 0 360.5 -159.5t133.5 -399.5q0 -33 -2 -51h-840q16 -168 122 -263t251 -95q190 0 334 149l98 -88q-178 -199 -436 -199q-223 0 -375.5 155t-152.5 396zM270 588h682q-12 156 -100 258t-238 102q-137 0 -232.5 -102t-111.5 -258z M324 1440l163 76l193 -297h-123z" />
<glyph unicode="&#xe9;" horiz-adv-x="1212" d="M111 526v4q0 231 145 391t362 160q227 0 360.5 -159.5t133.5 -399.5q0 -33 -2 -51h-840q16 -168 122 -263t251 -95q190 0 334 149l98 -88q-178 -199 -436 -199q-223 0 -375.5 155t-152.5 396zM270 588h682q-12 156 -100 258t-238 102q-137 0 -232.5 -102t-111.5 -258z M553 1219l192 297l164 -76l-233 -221h-123z" />
<glyph unicode="&#xea;" horiz-adv-x="1212" d="M111 526v4q0 231 145 391t362 160q227 0 360.5 -159.5t133.5 -399.5q0 -33 -2 -51h-840q16 -168 122 -263t251 -95q190 0 334 149l98 -88q-178 -199 -436 -199q-223 0 -375.5 155t-152.5 396zM270 588h682q-12 156 -100 258t-238 102q-137 0 -232.5 -102t-111.5 -258z M330 1219l217 268h139l217 -268h-135l-154 137l-153 -137h-131z" />
<glyph unicode="&#xeb;" horiz-adv-x="1212" d="M111 526v4q0 231 145 391t362 160q227 0 360.5 -159.5t133.5 -399.5q0 -33 -2 -51h-840q16 -168 122 -263t251 -95q190 0 334 149l98 -88q-178 -199 -436 -199q-223 0 -375.5 155t-152.5 396zM270 588h682q-12 156 -100 258t-238 102q-137 0 -232.5 -102t-111.5 -258z M346 1219v194h182v-194h-182zM705 1219v194h182v-194h-182z" />
<glyph unicode="&#xec;" horiz-adv-x="538" d="M-23 1440l164 76l193 -297h-123zM190 0v1059h158v-1059h-158z" />
<glyph unicode="&#xed;" horiz-adv-x="538" d="M190 0v1059h158v-1059h-158zM207 1219l192 297l164 -76l-233 -221h-123z" />
<glyph unicode="&#xee;" horiz-adv-x="538" d="M-16 1219l217 268h139l217 -268h-135l-154 137l-153 -137h-131zM190 0v1059h158v-1059h-158z" />
<glyph unicode="&#xef;" horiz-adv-x="538" d="M0 1219v194h182v-194h-182zM190 0v1059h158v-1059h-158zM358 1219v194h183v-194h-183z" />
<glyph unicode="&#xf0;" horiz-adv-x="1323" d="M111 532v5q0 225 148.5 372.5t350.5 147.5q205 0 367 -148q-86 174 -285 361l-235 -96l-47 96l194 80q-88 76 -182 145h227l99 -84l215 90l47 -98l-176 -74q377 -367 376 -747v-4q0 -264 -153.5 -433.5t-403.5 -169.5q-229 0 -385.5 163t-156.5 394zM272 524 q0 -170 113 -288.5t279 -118.5q168 0 276.5 116.5t108.5 290.5v4q0 170 -113 283t-289 113q-168 0 -271.5 -113t-103.5 -283v-4z" />
<glyph unicode="&#xf1;" horiz-adv-x="1261" d="M176 0v1059h158v-185q125 207 362 207q188 0 297 -115.5t109 -308.5v-657h-158v618q0 150 -76.5 235t-216.5 85q-137 0 -227 -92t-90 -240v-606h-158zM309 1227q31 115 76 165t119 50q45 0 147 -41q90 -41 127 -41q39 0 60.5 21.5t46.5 78.5l96 -26q-31 -115 -76 -165 t-119 -50q-49 0 -147 43q-94 39 -127 38q-39 0 -60.5 -21.5t-45.5 -78.5z" />
<glyph unicode="&#xf2;" horiz-adv-x="1323" d="M111 524v4q0 227 158.5 390t394 163t393 -160.5t157.5 -388.5v-4q0 -227 -159.5 -390t-395 -163t-392 161t-156.5 388zM272 528q0 -172 113 -291.5t279 -119.5q170 0 279.5 118.5t109.5 288.5v4q0 172 -114 293t-280 121q-168 0 -277.5 -120t-109.5 -290v-4zM369 1440 l163 76l193 -297h-123z" />
<glyph unicode="&#xf3;" horiz-adv-x="1323" d="M111 524v4q0 227 158.5 390t394 163t393 -160.5t157.5 -388.5v-4q0 -227 -159.5 -390t-395 -163t-392 161t-156.5 388zM272 528q0 -172 113 -291.5t279 -119.5q170 0 279.5 118.5t109.5 288.5v4q0 172 -114 293t-280 121q-168 0 -277.5 -120t-109.5 -290v-4zM598 1219 l193 297l163 -76l-233 -221h-123z" />
<glyph unicode="&#xf4;" horiz-adv-x="1323" d="M111 524v4q0 227 158.5 390t394 163t393 -160.5t157.5 -388.5v-4q0 -227 -159.5 -390t-395 -163t-392 161t-156.5 388zM272 528q0 -172 113 -291.5t279 -119.5q170 0 279.5 118.5t109.5 288.5v4q0 172 -114 293t-280 121q-168 0 -277.5 -120t-109.5 -290v-4zM375 1219 l217 268h139l217 -268h-135l-154 137l-153 -137h-131z" />
<glyph unicode="&#xf5;" horiz-adv-x="1323" d="M111 524v4q0 227 158.5 390t394 163t393 -160.5t157.5 -388.5v-4q0 -227 -159.5 -390t-395 -163t-392 161t-156.5 388zM272 528q0 -172 113 -291.5t279 -119.5q170 0 279.5 118.5t109.5 288.5v4q0 172 -114 293t-280 121q-168 0 -277.5 -120t-109.5 -290v-4zM332 1227 q31 115 76 165t118 50q45 0 148 -41q90 -41 127 -41q39 0 60.5 21.5t45.5 78.5l97 -26q-31 -115 -76 -165t-119 -50q-49 0 -147 43q-94 39 -127 38q-39 0 -60.5 -21.5t-46.5 -78.5z" />
<glyph unicode="&#xf6;" horiz-adv-x="1323" d="M111 524v4q0 227 158.5 390t394 163t393 -160.5t157.5 -388.5v-4q0 -227 -159.5 -390t-395 -163t-392 161t-156.5 388zM272 528q0 -172 113 -291.5t279 -119.5q170 0 279.5 118.5t109.5 288.5v4q0 172 -114 293t-280 121q-168 0 -277.5 -120t-109.5 -290v-4zM391 1219 v194h182v-194h-182zM750 1219v194h182v-194h-182z" />
<glyph unicode="&#xf7;" horiz-adv-x="1280" d="M139 649v144h1002v-144h-1002zM537 209v211h206v-211h-206zM537 1022v213h206v-213h-206z" />
<glyph unicode="&#xf8;" horiz-adv-x="1323" d="M80 -10l162 174q-131 150 -131 360v4q0 227 158.5 390t394.5 163q184 0 329 -108l92 98h160l-166 -176q135 -154 135 -363v-4q0 -227 -159.5 -390t-395.5 -163q-186 0 -331 109l-90 -94h-158zM268 532q0 -145 80 -258l549 588q-104 82 -238 82q-170 0 -280.5 -120 t-110.5 -292zM426 195q105 -82 238 -82q172 0 281.5 119.5t109.5 291.5v2q0 147 -80 256z" />
<glyph unicode="&#xf9;" horiz-adv-x="1261" d="M160 401v658h157v-619q0 -150 77 -234.5t216 -84.5q137 0 227.5 92t90.5 240v606h155v-1059h-155v184q-130 -207 -363 -207q-188 0 -296.5 116t-108.5 308zM328 1440l164 76l192 -297h-123z" />
<glyph unicode="&#xfa;" horiz-adv-x="1261" d="M160 401v658h157v-619q0 -150 77 -234.5t216 -84.5q137 0 227.5 92t90.5 240v606h155v-1059h-155v184q-130 -207 -363 -207q-188 0 -296.5 116t-108.5 308zM557 1219l193 297l163 -76l-233 -221h-123z" />
<glyph unicode="&#xfb;" horiz-adv-x="1261" d="M160 401v658h157v-619q0 -150 77 -234.5t216 -84.5q137 0 227.5 92t90.5 240v606h155v-1059h-155v184q-130 -207 -363 -207q-188 0 -296.5 116t-108.5 308zM334 1219l217 268h139l217 -268h-135l-154 137l-153 -137h-131z" />
<glyph unicode="&#xfc;" horiz-adv-x="1261" d="M160 401v658h157v-619q0 -150 77 -234.5t216 -84.5q137 0 227.5 92t90.5 240v606h155v-1059h-155v184q-130 -207 -363 -207q-188 0 -296.5 116t-108.5 308zM350 1219v194h182v-194h-182zM709 1219v194h182v-194h-182z" />
<glyph unicode="&#xfd;" horiz-adv-x="1210" d="M70 1059h174l385 -883l340 883h168l-445 -1094q-68 -162 -149.5 -230.5t-202.5 -68.5q-115 0 -225 53l53 125q76 -39 166 -39q72 0 121 44.5t96 154.5zM547 1219l192 297l164 -76l-233 -221h-123z" />
<glyph unicode="&#xfe;" horiz-adv-x="1359" d="M176 -328v1823h158v-649q160 236 405 235q203 0 354.5 -149.5t151.5 -399.5v-4q0 -248 -151.5 -399.5t-354.5 -151.5q-250 0 -405 226v-531h-158zM328 528q0 -178 114.5 -293.5t268.5 -115.5q160 0 266 110.5t106 296.5v4q0 182 -108.5 296t-263.5 114 q-154 0 -268.5 -115.5t-114.5 -292.5v-4z" />
<glyph unicode="&#xff;" horiz-adv-x="1210" d="M70 1059h174l385 -883l340 883h168l-445 -1094q-68 -162 -149.5 -230.5t-202.5 -68.5q-115 0 -225 53l53 125q76 -39 166 -39q72 0 121 44.5t96 154.5zM340 1219v194h182v-194h-182zM698 1219v194h183v-194h-183z" />
<glyph unicode="&#x152;" horiz-adv-x="2316" d="M139 713v4q0 307 214 512t548 205h1282v-148h-837v-489h745v-148h-745v-502h847v-147h-1292q-334 0 -548 204t-214 509zM307 717q0 -244 164 -405.5t430 -161.5h283v1134h-283q-266 0 -430 -159.5t-164 -403.5v-4z" />
<glyph unicode="&#x153;" horiz-adv-x="2148" d="M111 524v4q0 227 158.5 390t389.5 163q152 0 275 -76.5t188 -203.5q61 129 176 204.5t258 75.5q227 0 359.5 -159.5t132.5 -399.5q0 -33 -2 -51h-838q14 -166 120 -262t251 -96q190 0 334 149l98 -88q-174 -199 -434 -199q-147 0 -269 76t-188 209q-66 -129 -189.5 -207 t-277.5 -78q-229 0 -385.5 162t-156.5 387zM272 528q0 -172 113 -291.5t277 -119.5q168 0 276.5 118.5t108.5 288.5v4q0 172 -113 293t-277 121q-168 0 -276.5 -120t-108.5 -290v-4zM1206 588h682q-12 156 -99 258t-237 102q-139 0 -234.5 -101t-111.5 -259z" />
<glyph unicode="&#x178;" horiz-adv-x="1466" d="M55 1434h197l483 -717l488 717h188l-596 -865v-569h-164v567zM446 1554v185h191v-185h-191zM829 1554v185h191v-185h-191z" />
<glyph unicode="&#x2c6;" horiz-adv-x="1024" d="M225 1219l217 268h140l217 -268h-135l-154 137l-154 -137h-131z" />
<glyph unicode="&#x2dc;" horiz-adv-x="1024" d="M176 1227q31 115 76 165t119 50q45 0 147 -41q90 -41 127 -41q39 0 60.5 21.5t46.5 78.5l96 -26q-31 -115 -76 -165t-119 -50q-49 0 -147 43q-94 39 -127 38q-39 0 -60.5 -21.5t-46.5 -78.5z" />
<glyph unicode="&#x2000;" horiz-adv-x="922" />
<glyph unicode="&#x2001;" horiz-adv-x="1845" />
<glyph unicode="&#x2002;" horiz-adv-x="922" />
<glyph unicode="&#x2003;" horiz-adv-x="1845" />
<glyph unicode="&#x2004;" horiz-adv-x="615" />
<glyph unicode="&#x2005;" horiz-adv-x="461" />
<glyph unicode="&#x2006;" horiz-adv-x="307" />
<glyph unicode="&#x2007;" horiz-adv-x="307" />
<glyph unicode="&#x2008;" horiz-adv-x="230" />
<glyph unicode="&#x2009;" horiz-adv-x="369" />
<glyph unicode="&#x200a;" horiz-adv-x="102" />
<glyph unicode="&#x2010;" horiz-adv-x="835" d="M133 532v166h569v-166h-569z" />
<glyph unicode="&#x2011;" horiz-adv-x="835" d="M133 532v166h569v-166h-569z" />
<glyph unicode="&#x2012;" horiz-adv-x="835" d="M133 532v166h569v-166h-569z" />
<glyph unicode="&#x2013;" horiz-adv-x="1081" d="M133 537v157h815v-157h-815z" />
<glyph unicode="&#x2014;" horiz-adv-x="1839" d="M133 537v157h1573v-157h-1573z" />
<glyph unicode="&#x2018;" horiz-adv-x="501" d="M147 979v184q0 123 53.5 188.5t172.5 92.5l24 -72q-76 -27 -108.5 -69.5t-28.5 -108.5h76v-215h-189z" />
<glyph unicode="&#x2019;" horiz-adv-x="501" d="M104 1040q150 53 138 179h-74v215h188v-185q0 -123 -54 -188t-173 -92z" />
<glyph unicode="&#x201a;" horiz-adv-x="501" d="M94 -178q150 53 137 178h-73v215h188v-184q0 -123 -54 -188.5t-173 -92.5z" />
<glyph unicode="&#x201c;" horiz-adv-x="911" d="M147 979v184q0 123 53.5 188.5t172.5 92.5l24 -72q-76 -27 -108.5 -69.5t-28.5 -108.5h76v-215h-189zM557 979v184q0 123 53.5 188.5t171.5 92.5l25 -72q-76 -27 -108.5 -69.5t-28.5 -108.5h75v-215h-188z" />
<glyph unicode="&#x201d;" horiz-adv-x="911" d="M104 1040q150 53 138 179h-74v215h188v-185q0 -123 -54 -188t-173 -92zM514 1040q150 53 137 179h-73v215h188v-185q0 -123 -54 -188t-173 -92z" />
<glyph unicode="&#x201e;" horiz-adv-x="911" d="M94 -178q150 53 137 178h-73v215h188v-184q0 -123 -54 -188.5t-173 -92.5zM504 -178q150 53 137 178h-74v215h189v-184q0 -123 -54.5 -188.5t-173.5 -92.5z" />
<glyph unicode="&#x2022;" horiz-adv-x="978" d="M221 719v4q0 111 80 188.5t188 77.5q106 0 187.5 -79t81.5 -187v-4q0 -111 -79 -188.5t-189.5 -77.5t-189.5 77.5t-79 188.5z" />
<glyph unicode="&#x2026;" horiz-adv-x="1480" d="M158 0v211h182v-211h-182zM649 0v211h182v-211h-182zM1141 0v211h184v-211h-184z" />
<glyph unicode="&#x202f;" horiz-adv-x="369" />
<glyph unicode="&#x2039;" horiz-adv-x="671" d="M98 522v17l338 434l115 -66l-272 -375l272 -380l-115 -66z" />
<glyph unicode="&#x203a;" horiz-adv-x="671" d="M121 152l270 376l-270 379l115 66l335 -434v-17l-335 -436z" />
<glyph unicode="&#x205f;" horiz-adv-x="461" />
<glyph unicode="&#x20ac;" horiz-adv-x="1474" d="M115 485v129h166q-4 31 -5 101q0 63 7 121h-168v127h192q57 221 209 358t354 137q306 1 494 -280l-123 -88q-82 115 -167 169t-210 54q-135 0 -238.5 -95.5t-152.5 -254.5h526v-127h-555q-6 -57 -6 -117q0 -72 4 -105h557v-129h-532q47 -168 158.5 -266t261.5 -98 q115 0 199.5 59.5t164.5 175.5l117 -82q-94 -141 -210 -220t-277 -79q-215 0 -370 139.5t-210 370.5h-186z" />
<glyph unicode="&#x2122;" horiz-adv-x="1413" d="M53 1348v86h496v-86h-203v-545h-90v545h-203zM688 803v631h96l226 -347l223 347h94v-631h-88v483l-225 -342h-13l-223 342v-483h-90z" />
<glyph unicode="&#x25fc;" horiz-adv-x="1054" d="M0 0v1055h1055v-1055h-1055z" />
</font>
</defs>
</svg>
