<?xml version="1.0" standalone="no"?>
<!DOCTYPE svg PUBLIC "-//W3C//DTD SVG 1.1//EN" "http://www.w3.org/Graphics/SVG/1.1/DTD/svg11.dtd" >
<svg xmlns="http://www.w3.org/2000/svg">
<metadata></metadata>
<defs>
<font id="gblblack" horiz-adv-x="1024" >
<font-face units-per-em="2048" ascent="1638" descent="-410" />
<missing-glyph horiz-adv-x="567" />
<glyph unicode="&#xfb01;" horiz-adv-x="1443" d="M45 797v307h129v22q0 193 94 287q96 96 291 96q154 0 252 -30v-275q-72 23 -145 23q-111 0 -111 -105v-26h256v-299h-248v-797h-389v797h-129zM934 1208v287h403v-287h-403zM942 0v1108h387v-1108h-387z" />
<glyph unicode="&#xfb02;" horiz-adv-x="1443" d="M45 797v307h129v22q0 193 94 287q96 96 291 96q154 0 252 -30v-275q-72 23 -145 23q-111 0 -111 -105v-26h256v-299h-248v-797h-389v797h-129zM942 0v1495h387v-1495h-387z" />
<glyph unicode="&#xfb03;" horiz-adv-x="2271" d="M45 797v307h129v22q0 193 94 287q96 96 291 96q154 0 252 -30v-275q-72 23 -145 23q-111 0 -111 -105v-26h256v-299h-248v-797h-389v797h-129zM872 797v301h129v28q0 193 95 287q96 96 290 96q154 0 252 -30v-275q-72 23 -145 23q-111 0 -111 -105v-26h256v-299h-247 v-797h-390v797h-129zM1761 1208v287h404v-287h-404zM1769 0v1108h388v-1108h-388z" />
<glyph unicode="&#xfb04;" horiz-adv-x="2271" d="M45 797v307h129v22q0 193 94 287q96 96 291 96q154 0 252 -30v-275q-72 23 -145 23q-111 0 -111 -105v-26h256v-299h-248v-797h-389v797h-129zM872 797v301h129v28q0 193 95 287q96 96 290 96q154 0 252 -30v-275q-72 23 -145 23q-111 0 -111 -105v-26h256v-299h-247 v-797h-390v797h-129zM1769 0v1495h388v-1495h-388z" />
<glyph horiz-adv-x="0" />
<glyph unicode="&#xd;" horiz-adv-x="681" />
<glyph unicode=" "  horiz-adv-x="567" />
<glyph unicode="&#x09;" horiz-adv-x="567" />
<glyph unicode="&#xa0;" horiz-adv-x="567" />
<glyph unicode="!" horiz-adv-x="663" d="M111 1260v174h442v-174l-119 -793h-203zM131 0v348h404v-348h-404z" />
<glyph unicode="&#x22;" horiz-adv-x="1099" d="M70 698l47 736h415v-11l-258 -725h-204zM596 698l45 736h418v-11l-260 -725h-203z" />
<glyph unicode="#" horiz-adv-x="1445" d="M61 276v330h213l41 232h-186v327h242l47 269h297l-47 -269h260l47 269h295l-47 -269h161v-327h-217l-41 -232h191v-330h-246l-47 -276h-295l47 276h-260l-47 -276h-297l47 276h-158zM561 594h279l45 256h-281z" />
<glyph unicode="$" horiz-adv-x="1363" d="M51 207l185 272q205 -139 380 -170v248q-258 59 -377.5 159.5t-119.5 284.5v5q0 182 129 296.5t360 131.5v118h213v-122q235 -29 432 -158l-168 -277q-125 88 -274 125v-243q254 -57 371.5 -158t117.5 -285v-4q0 -184 -130 -297t-353 -133v-201h-213v203 q-313 31 -553 205zM479 1032q0 -43 30 -68.5t109 -48.5v222q-139 -8 -139 -101v-4zM809 299q137 12 137 104v5q0 43 -29.5 69.5t-107.5 46.5v-225z" />
<glyph unicode="%" horiz-adv-x="1841" d="M72 1065v4q0 162 103.5 273.5t267 111.5t266 -110.5t102.5 -272.5v-4q0 -160 -104.5 -271.5t-266 -111.5t-265 110.5t-103.5 270.5zM229 0l605 772l501 662h277l-611 -781l-495 -653h-277zM322 1067q0 -68 34.5 -114t86 -46t85 45t33.5 113v4q0 70 -35 116t-86 46 q-53 0 -85.5 -45t-32.5 -115v-4zM1030 362v5q0 162 102.5 273.5t268.5 111.5q164 0 266 -111t102 -272v-4q0 -160 -104 -272.5t-266 -112.5t-265.5 111.5t-103.5 270.5zM1280 365q0 -68 35 -114t86 -46t85 45t34 112v5q0 70 -35 115.5t-86 45.5q-55 0 -87 -45t-32 -114v-4z " />
<glyph unicode="&#x26;" horiz-adv-x="1429" d="M45 391v4q0 268 291 400q-94 131 -94 276v4q0 162 122.5 274.5t325.5 112.5q193 0 309.5 -104.5t116.5 -261.5v-4q0 -246 -280 -373l159 -158q63 92 135 227l263 -131q-100 -182 -189 -303l193 -190l-269 -193l-147 150q-195 -145 -426 -146q-223 0 -366.5 113 t-143.5 303zM440 410q0 -63 47 -102.5t121 -39.5q80 0 172 62l-237 241q-102 -61 -103 -157v-4zM575 1059q0 -72 74 -164q152 68 152 176v4q0 53 -31 84t-80 31q-51 0 -83 -35t-32 -92v-4z" />
<glyph unicode="'" horiz-adv-x="581" d="M70 698l47 736h424v-11l-260 -725h-211z" />
<glyph unicode="(" horiz-adv-x="911" d="M92 588q0 301 148.5 511t447.5 365l162 -239q-201 -137 -290 -287t-89 -350q0 -199 89 -348.5t290 -288.5l-162 -240q-297 156 -446.5 366t-149.5 511z" />
<glyph unicode=")" horiz-adv-x="911" d="M63 -49q199 139 288 288.5t89 348.5q0 201 -89 350t-288 287l160 239q299 -156 448.5 -365.5t149.5 -510.5t-149.5 -511t-448.5 -366z" />
<glyph unicode="*" horiz-adv-x="870" d="M57 975l262 92l-262 92l113 189l209 -181l-51 271h215l-51 -271l210 181l111 -189l-260 -92l260 -92l-111 -191l-210 181l51 -271h-215l51 271l-209 -181z" />
<glyph unicode="+" horiz-adv-x="1310" d="M117 549v344h360v356h357v-356h360v-344h-360v-356h-357v356h-360z" />
<glyph unicode="," horiz-adv-x="581" d="M41 -188q102 10 155.5 60t49.5 132h-156v399h404v-325q0 -217 -108.5 -313.5t-311.5 -102.5z" />
<glyph unicode="-" horiz-adv-x="835" d="M82 471v340h672v-340h-672z" />
<glyph unicode="." horiz-adv-x="581" d="M90 0v399h404v-399h-404z" />
<glyph unicode="/" horiz-adv-x="1095" d="M-78 -262l907 1896h316l-907 -1896h-316z" />
<glyph unicode="0" horiz-adv-x="1495" d="M84 713v4q0 313 184.5 529t481.5 216t479 -214t182 -527v-4q0 -313 -183.5 -529.5t-482.5 -216.5q-297 0 -479 214t-182 528zM483 717q0 -174 74 -283.5t192.5 -109.5t190.5 108.5t72 280.5v4q0 174 -74 284.5t-193 110.5q-117 0 -189.5 -108.5t-72.5 -282.5v-4z" />
<glyph unicode="1" horiz-adv-x="864" d="M16 1325l420 119h289v-1444h-391v1075l-242 -57z" />
<glyph unicode="2" horiz-adv-x="1277" d="M68 0v299l536 410q102 80 144.5 137t42.5 121q0 70 -44.5 108.5t-117.5 38.5q-70 0 -133.5 -43t-151.5 -143l-268 223q123 158 254 232.5t329 74.5q236 0 382.5 -127t146.5 -330v-4q0 -162 -78 -268t-254 -233l-246 -172h592v-324h-1134z" />
<glyph unicode="3" horiz-adv-x="1271" d="M37 225l252 250q160 -164 342 -164q84 0 133 40t49 106v4q0 70 -60.5 108.5t-172.5 38.5h-168l-56 207l328 297h-547v322h1034v-283l-342 -295q371 -82 371 -403v-4q0 -215 -154.5 -346.5t-398.5 -131.5q-377 0 -610 254z" />
<glyph unicode="4" horiz-adv-x="1411" d="M29 559l743 885h399v-869h183v-296h-183v-279h-383v279h-696zM444 573h344v414z" />
<glyph unicode="5" horiz-adv-x="1290" d="M41 199l227 266q182 -156 348 -156q98 0 153.5 45t55.5 123v4q0 78 -58 122t-153 44q-111 0 -229 -72l-235 134l40 725h959v-328h-645l-12 -217q109 51 229 51q209 0 350 -116.5t141 -338.5v-4q0 -236 -163.5 -373t-427.5 -137q-336 0 -580 228z" />
<glyph unicode="6" horiz-adv-x="1355" d="M84 672v4q0 350 171 568t495 218q266 0 477 -157l-187 -279q-145 109 -284 109q-74 0 -128.5 -31t-82 -81t-42 -97t-18.5 -99q141 111 310 111q199 0 336 -120t137 -326v-5q0 -233 -164 -374.5t-406 -141.5q-270 0 -438 164q-176 176 -176 537zM479 467q0 -80 55.5 -133 t147.5 -53t146.5 52t54.5 132v4q0 80 -56.5 132t-148.5 52t-145.5 -51t-53.5 -131v-4z" />
<glyph unicode="7" horiz-adv-x="1257" d="M94 1100v334h1104v-299l-633 -1135h-438l631 1100h-664z" />
<glyph unicode="8" horiz-adv-x="1290" d="M57 395v4q0 240 244 344q-195 111 -195 314v4q0 172 150 284.5t389.5 112.5t390 -112.5t150.5 -284.5v-4q0 -205 -197 -314q246 -115 246 -340v-4q0 -193 -165 -308.5t-425 -115.5q-258 0 -423 117t-165 303zM438 434q0 -68 55.5 -115t151.5 -47t151.5 47.5t55.5 114.5v4 q0 70 -57.5 114t-149.5 44q-90 0 -148.5 -44t-58.5 -114v-4zM469 1010q0 -68 48 -113t128 -45t129 45t49 113v4q0 63 -49 107t-129 44q-78 0 -127 -45t-49 -106v-4z" />
<glyph unicode="9" horiz-adv-x="1355" d="M88 938v4q0 233 161 376.5t410 143.5q152 0 254.5 -41t186.5 -125q172 -172 172 -532v-4q0 -358 -173 -573.5t-489 -215.5q-281 0 -501 170l186 275q147 -115 307 -115q74 0 128 29.5t83 78t43 94.5t18 97q-125 -117 -305 -117q-211 0 -346 124t-135 331zM473 956 q0 -82 56.5 -135t148.5 -53t146.5 53t54.5 133v4q0 84 -56.5 140.5t-148.5 56.5t-146.5 -55.5t-54.5 -138.5v-5z" />
<glyph unicode=":" horiz-adv-x="602" d="M100 0v399h404v-399h-404zM100 709v399h404v-399h-404z" />
<glyph unicode=";" horiz-adv-x="602" d="M51 -193q102 10 155.5 60.5t49.5 132.5h-156v399h404v-325q0 -217 -108.5 -313.5t-311.5 -102.5zM100 709v399h404v-399h-404z" />
<glyph unicode="&#x3c;" horiz-adv-x="1310" d="M129 541v360l1018 406v-361l-670 -225l670 -223v-363z" />
<glyph unicode="=" horiz-adv-x="1310" d="M129 281v335h1053v-335h-1053zM129 825v338h1053v-338h-1053z" />
<glyph unicode="&#x3e;" horiz-adv-x="1310" d="M164 135v361l670 223l-670 225v363l1018 -406v-360z" />
<glyph unicode="?" horiz-adv-x="1107" d="M20 1241q215 215 531 215q229 0 370.5 -115.5t141.5 -314.5v-4q0 -180 -104.5 -278.5t-294.5 -145.5l-25 -131h-246l-53 344l18 16q322 29 322 164v4q0 53 -41 83t-115 30q-145 0 -299 -135zM307 0v348h404v-348h-404z" />
<glyph unicode="@" horiz-adv-x="1976" d="M94 563q0 373 261 636t646 263q373 0 628 -237.5t255 -558.5q0 -262 -128 -405.5t-308 -143.5q-227 0 -318 155q-129 -150 -301 -149q-162 0 -268 112.5t-106 296.5q0 219 135 376t319 157q174 0 275 -152l24 125l316 -49l-94 -528q-8 -61 -9 -90q0 -53 36 -87t97 -34 q106 0 175 109.5t69 306.5q0 291 -227.5 502.5t-569.5 211.5q-354 0 -587.5 -236.5t-233.5 -580.5q0 -346 232.5 -579.5t595.5 -233.5q268 0 501 137l41 -65q-251 -154 -542 -154q-393 0 -653.5 259t-260.5 636zM782 557q0 -76 42 -118t108 -42q74 0 127 54q72 72 71 182 q0 72 -41.5 115t-107.5 43q-74 0 -129 -56q-70 -70 -70 -178z" />
<glyph unicode="A" horiz-adv-x="1628" d="M14 0l609 1444h383l610 -1444h-426l-103 258h-555l-102 -258h-416zM649 567h322l-160 406z" />
<glyph unicode="B" horiz-adv-x="1464" d="M127 0v1434h735q260 0 391 -127q92 -96 93 -234v-4q0 -223 -222 -319q139 -45 212 -128t73 -223v-4q0 -184 -143.5 -289.5t-399.5 -105.5h-739zM514 319h307q190 0 191 132v4q0 129 -195 129h-303v-265zM514 862h250q190 0 190 125v4q0 123 -180 123h-260v-252z" />
<glyph unicode="C" horiz-adv-x="1497" d="M80 713v4q0 315 215 530t539 215q391 0 608 -297l-299 -231q-137 168 -314 168q-147 0 -244.5 -110.5t-97.5 -270.5v-4q0 -164 96.5 -273.5t245.5 -109.5q104 0 178 44t146 130l299 -213q-113 -154 -262.5 -239t-370.5 -85q-309 0 -524 212t-215 530z" />
<glyph unicode="D" horiz-adv-x="1568" d="M127 0v1434h555q375 0 591 -196t216 -513v-4q0 -317 -219 -519t-596 -202h-547zM524 352h162q182 0 289.5 95.5t107.5 267.5v4q0 170 -107.5 267t-289.5 97h-162v-731z" />
<glyph unicode="E" horiz-adv-x="1368" d="M127 0v1434h1153v-336h-760v-219h688v-314h-688v-227h770v-338h-1163z" />
<glyph unicode="F" horiz-adv-x="1329" d="M127 0v1434h1147v-349h-750v-243h678v-330h-678v-512h-397z" />
<glyph unicode="G" horiz-adv-x="1574" d="M80 713v4q0 315 220 530t550 215q342 0 582 -207l-234 -282q-162 135 -346 135q-156 0 -261.5 -113.5t-105.5 -277.5v-4q0 -174 110 -287t279 -113q141 0 230 60v174h-281v291h658v-643q-267 -224 -623 -224q-336 0 -557 209t-221 533z" />
<glyph unicode="H" horiz-adv-x="1558" d="M127 0v1434h397v-537h510v537h398v-1434h-398v545h-510v-545h-397z" />
<glyph unicode="I" horiz-adv-x="669" d="M137 0v1434h398v-1434h-398z" />
<glyph unicode="J" horiz-adv-x="1155" d="M8 217l256 242q111 -133 225 -133q76 0 119 51t43 149v908h396v-910q0 -262 -142 -403q-145 -146 -393 -146q-324 0 -504 242z" />
<glyph unicode="K" horiz-adv-x="1495" d="M127 0v1434h397v-582l496 582h469l-543 -615l561 -819h-475l-362 532l-146 -159v-373h-397z" />
<glyph unicode="L" horiz-adv-x="1263" d="M127 0v1434h397v-1086h695v-348h-1092z" />
<glyph unicode="M" horiz-adv-x="1777" d="M127 0v1434h420l342 -555l342 555h420v-1434h-396v823l-366 -561h-8l-365 559v-821h-389z" />
<glyph unicode="N" horiz-adv-x="1607" d="M127 0v1434h371l589 -758v758h394v-1434h-346l-615 786v-786h-393z" />
<glyph unicode="O" horiz-adv-x="1701" d="M80 713v4q0 311 222 528t552 217t550 -215t220 -526v-4q0 -311 -222 -528.5t-552 -217.5t-550 215t-220 527zM485 717q0 -160 104.5 -273.5t264.5 -113.5t261.5 111.5t101.5 271.5v4q0 160 -103.5 273.5t-263.5 113.5t-262.5 -111.5t-102.5 -271.5v-4z" />
<glyph unicode="P" horiz-adv-x="1378" d="M127 0v1434h616q272 0 433 -133.5t161 -368.5v-4q0 -248 -170 -383t-444 -135h-199v-410h-397zM524 721h191q104 0 165.5 52t61.5 136v4q0 90 -60.5 138.5t-168.5 48.5h-189v-379z" />
<glyph unicode="Q" horiz-adv-x="1701" d="M80 713v4q0 311 222 528t552 217t550 -215t220 -526v-4q0 -223 -127 -412l148 -125l-201 -223l-158 141q-190 -127 -436 -127q-330 0 -550 215t-220 527zM485 713q0 -160 103.5 -274.5t265.5 -114.5q74 0 143 26l-198 170l200 225l195 -178q25 68 25 144v4 q0 160 -104.5 274.5t-264.5 114.5t-262.5 -113.5t-102.5 -273.5v-4z" />
<glyph unicode="R" horiz-adv-x="1472" d="M127 0v1434h678q313 0 467 -154q127 -127 127 -334v-4q0 -317 -295 -442l342 -500h-457l-289 434h-176v-434h-397zM524 745h264q100 0 156.5 46.5t56.5 123.5v5q0 84 -57 128t-158 44h-262v-347z" />
<glyph unicode="S" horiz-adv-x="1335" d="M18 213l222 264q219 -172 465 -172q166 0 165 98v5q0 47 -49 75.5t-194 63.5q-102 25 -174 46t-147 57t-119 81t-72.5 111.5t-28.5 152.5v4q0 203 150.5 331t404.5 128q352 0 590 -190l-199 -281q-197 141 -401 141q-70 0 -107 -25.5t-37 -66.5v-4q0 -49 50.5 -77.5 t199.5 -61.5q268 -59 400.5 -158.5t132.5 -288.5v-4q0 -217 -158 -342t-422 -125q-403 0 -672 238z" />
<glyph unicode="T" horiz-adv-x="1351" d="M49 1085v349h1256v-349h-431v-1085h-397v1085h-428z" />
<glyph unicode="U" horiz-adv-x="1552" d="M111 629v805h401v-797q0 -152 70.5 -228.5t193.5 -76.5q125 0 195.5 73.5t70.5 221.5v807h402v-795q0 -336 -177.5 -501t-494.5 -165q-313 0 -487 164t-174 492z" />
<glyph unicode="V" horiz-adv-x="1556" d="M14 1434h443l325 -908l328 908h434l-581 -1444h-369z" />
<glyph unicode="W" horiz-adv-x="2287" d="M31 1434h420l249 -830l277 834h342l276 -834l250 830h412l-479 -1444h-346l-287 825l-289 -825h-346z" />
<glyph unicode="X" horiz-adv-x="1499" d="M23 0l491 729l-471 705h457l252 -404l258 404h446l-471 -699l492 -735h-457l-275 434l-276 -434h-446z" />
<glyph unicode="Y" horiz-adv-x="1480" d="M-4 1434h453l294 -523l297 523h445l-545 -891v-543h-397v537z" />
<glyph unicode="Z" horiz-adv-x="1429" d="M84 0v289l719 811h-694v334h1241v-287l-719 -811h719v-336h-1266z" />
<glyph unicode="[" horiz-adv-x="937" d="M137 -266v1700h707v-265h-361v-1171h361v-264h-707z" />
<glyph unicode="\" horiz-adv-x="1095" d="M-49 1634h315l908 -1896h-316z" />
<glyph unicode="]" horiz-adv-x="937" d="M94 -2h361v1171h-361v265h707v-1700h-707v264z" />
<glyph unicode="^" d="M86 1010l295 422h262l295 -422h-272l-156 198l-156 -198h-268z" />
<glyph unicode="_" horiz-adv-x="1228" d="M-4 -90h1237v-238h-1237v238z" />
<glyph unicode="`" d="M182 1464l361 117l211 -377h-271z" />
<glyph unicode="a" horiz-adv-x="1226" d="M51 317v5q0 170 117 259t317 89q156 0 267 -43v18q0 182 -222 182q-139 0 -307 -61l-80 272q209 86 449 86q287 0 422 -135q119 -117 119 -352v-637h-383v117q-131 -142 -328 -142q-164 0 -267.5 91.5t-103.5 250.5zM424 340q0 -55 38 -88t99 -33q86 0 140.5 50t54.5 132 v52q-70 28 -149 28h-5q-84 0 -131 -36.5t-47 -100.5v-4z" />
<glyph unicode="b" horiz-adv-x="1384" d="M104 0v1495h390v-534q141 172 335 172q205 0 348.5 -158t143.5 -416v-4q0 -262 -142.5 -421t-347.5 -159q-201 0 -337 160v-135h-390zM485 553q0 -109 65.5 -180.5t162 -71.5t162 70.5t65.5 181.5v4q0 109 -66.5 180.5t-160.5 71.5q-96 0 -162 -71.5t-66 -180.5v-4z" />
<glyph unicode="c" horiz-adv-x="1165" d="M61 549v4q0 240 167 408.5t425 168.5q315 0 473 -245l-262 -197q-90 117 -207 117q-94 0 -156.5 -73t-62.5 -175v-4q0 -109 61.5 -180.5t159.5 -71.5q119 0 213 115l261 -189q-173 -254 -492 -254q-248 0 -414 169t-166 407z" />
<glyph unicode="d" horiz-adv-x="1384" d="M63 549v4q0 262 142.5 421t347.5 159q201 0 338 -160v522h389v-1495h-389v147q-141 -172 -336 -172q-205 0 -348.5 158t-143.5 416zM444 553q0 -109 67 -180.5t161 -71.5q96 0 161.5 71.5t65.5 180.5v4q0 109 -65.5 180.5t-161.5 71.5q-94 0 -161 -71.5t-67 -180.5v-4z " />
<glyph unicode="e" horiz-adv-x="1241" d="M61 549v4q0 246 158 413t402 167q272 0 414.5 -173.5t142.5 -433.5q0 -53 -2 -80h-742q47 -182 240 -182q131 0 246 113l215 -178q-179 -226 -480 -226q-262 0 -428 160t-166 416zM428 645h387q-10 92 -62.5 146.5t-131.5 54.5q-76 0 -126.5 -53.5t-66.5 -147.5z" />
<glyph unicode="f" horiz-adv-x="827" d="M45 797v307h129v22q0 193 94 287q96 96 291 96q154 0 252 -30v-275q-72 23 -145 23q-111 0 -111 -105v-26h256v-299h-248v-797h-389v797h-129z" />
<glyph unicode="g" horiz-adv-x="1384" d="M63 612v4q0 231 140.5 374t339.5 143q203 0 348 -156v131h389v-842q0 -301 -143 -442q-152 -156 -488 -156q-305 0 -553 127l125 258q188 -104 387 -104q289 0 289 272v43q-143 -166 -340 -166q-211 0 -352.5 141.5t-141.5 372.5zM444 610q0 -92 64 -152.5t164 -60.5 q98 0 162.5 61.5t64.5 153.5v4q0 92 -64.5 153.5t-162.5 61.5q-100 0 -164 -61t-64 -156v-4z" />
<glyph unicode="h" horiz-adv-x="1298" d="M104 0v1495h390v-539q137 176 331 177q176 0 276.5 -110t100.5 -298v-725h-387v600q0 90 -43 139t-115 49q-74 0 -118.5 -49t-44.5 -139v-600h-390z" />
<glyph unicode="i" horiz-adv-x="616" d="M106 1208v287h404v-287h-404zM115 0v1108h387v-1108h-387z" />
<glyph unicode="j" horiz-adv-x="618" d="M-53 -61q33 -4 51 -5q117 0 117 132v1042h387v-1059q0 -203 -99 -293t-294 -90q-80 0 -162 15v258zM106 1208v287h404v-287h-404z" />
<glyph unicode="k" horiz-adv-x="1234" d="M104 0v1495h390v-758l301 371h440l-385 -442l395 -666h-430l-221 379l-100 -117v-262h-390z" />
<glyph unicode="l" horiz-adv-x="616" d="M115 0v1495h387v-1495h-387z" />
<glyph unicode="m" horiz-adv-x="1988" d="M104 0v1108h390v-152q137 176 329 177q225 0 320 -181q158 180 370 181q178 0 278.5 -106.5t100.5 -299.5v-727h-389v602q0 90 -41 138t-110 48q-72 0 -116 -49t-44 -137v-602h-387v602q0 88 -42 137t-112 49q-72 0 -114.5 -49t-42.5 -137v-602h-390z" />
<glyph unicode="n" horiz-adv-x="1298" d="M104 0v1108h390v-156q139 180 331 181q176 0 276.5 -110t100.5 -298v-725h-387v600q0 90 -43 139t-115 49q-74 0 -118.5 -49t-44.5 -139v-600h-390z" />
<glyph unicode="o" horiz-adv-x="1343" d="M61 549v4q0 240 175.5 410t437.5 170t436 -168t174 -408v-4q0 -240 -175 -410t-439 -170q-260 0 -434.5 168t-174.5 408zM438 553q0 -102 68 -176t168 -74q104 0 168.5 71.5t64.5 174.5v4q0 104 -67.5 178t-170 74t-167 -71.5t-64.5 -176.5v-4z" />
<glyph unicode="p" horiz-adv-x="1384" d="M104 -328v1436h390v-147q141 172 335 172q205 0 348.5 -158t143.5 -416v-4q0 -262 -142.5 -421t-347.5 -159q-201 0 -337 160v-463h-390zM485 553q0 -109 65.5 -180.5t162 -71.5t162 70.5t65.5 181.5v4q0 109 -66.5 180.5t-160.5 71.5q-96 0 -162 -71.5t-66 -180.5v-4z " />
<glyph unicode="q" horiz-adv-x="1384" d="M63 549v4q0 262 142.5 421t347.5 159q201 0 338 -160v135h389v-1436h-389v475q-141 -172 -336 -172q-205 0 -348.5 158t-143.5 416zM444 553q0 -109 67 -180.5t161 -71.5q96 0 161.5 71.5t65.5 180.5v4q0 109 -65.5 180.5t-161.5 71.5q-94 0 -161 -71.5t-67 -180.5v-4z " />
<glyph unicode="r" horiz-adv-x="876" d="M104 0v1108h390v-223q102 241 330 241h20v-409h-33q-317 0 -317 -371v-346h-390z" />
<glyph unicode="s" horiz-adv-x="1052" d="M23 141l145 234q193 -127 379 -127q100 0 100 59v4q0 31 -39 49.5t-141 47.5q-193 51 -293 125.5t-100 226.5v4q0 172 124 269t320 97q256 0 457 -129l-133 -245q-182 104 -328 104q-90 0 -90 -55v-4q0 -29 39 -48.5t141 -50.5q195 -55 294 -129.5t99 -222.5v-4 q0 -178 -122.5 -274.5t-329.5 -96.5q-295 0 -522 166z" />
<glyph unicode="t" horiz-adv-x="882" d="M43 797v311h131v281h387v-281h258v-311h-258v-377q0 -111 107 -111q70 0 147 37v-303q-116 -66 -270 -66q-371 0 -371 367v453h-131z" />
<glyph unicode="u" horiz-adv-x="1298" d="M96 385v723h389v-600q0 -88 43 -137t115 -49q74 0 119 49t45 137v600h387v-1108h-387v154q-139 -179 -332 -179q-176 0 -277.5 111t-101.5 299z" />
<glyph unicode="v" horiz-adv-x="1280" d="M20 1108h410l213 -647l215 647h402l-443 -1116h-354z" />
<glyph unicode="w" horiz-adv-x="1763" d="M27 1108h379l145 -557l172 561h319l172 -565l150 561h375l-342 -1116h-336l-180 577l-185 -577h-331z" />
<glyph unicode="x" horiz-adv-x="1206" d="M16 0l373 557l-364 551h417l164 -277l166 277h410l-365 -547l373 -561h-418l-172 289l-174 -289h-410z" />
<glyph unicode="y" horiz-adv-x="1282" d="M25 1108h405l221 -668l209 668h400l-406 -1081q-74 -199 -166 -280t-256 -81q-188 0 -354 96l119 273q102 -59 170 -60q57 0 92 45z" />
<glyph unicode="z" horiz-adv-x="1153" d="M68 0v256l510 545h-492v307h1008v-254l-514 -545h514v-309h-1026z" />
<glyph unicode="{" horiz-adv-x="1003" d="M70 459v258h32q125 0 184.5 44t59.5 157q0 18 -3 77.5t-3 73.5q0 174 120 266t419 129l59 -227q-158 -35 -206 -82t-48 -147q0 -16 3 -69.5t3 -76.5q0 -209 -229 -274q229 -63 229 -275q0 -23 -3 -75t-3 -68q0 -100 48 -148.5t206 -82.5l-59 -228q-299 37 -419 129 t-120 266q0 14 3 74t3 78q0 113 -59.5 157t-184.5 44h-32z" />
<glyph unicode="|" horiz-adv-x="727" d="M215 -262v1896h297v-1896h-297z" />
<glyph unicode="}" horiz-adv-x="1003" d="M66 -61q158 35 207 83t49 148q0 16 -3.5 68.5t-3.5 74.5q0 211 228 275q-227 66 -228 274q0 23 3.5 76t3.5 70q0 100 -49.5 147t-206.5 82l61 227q299 -37 419 -129t120 -266q0 -14 -3.5 -73.5t-3.5 -77.5q0 -113 58.5 -157t183.5 -44h33v-258h-33q-125 0 -183.5 -44 t-58.5 -157q0 -18 3.5 -77.5t3.5 -74.5q0 -174 -120 -266t-419 -129z" />
<glyph unicode="~" horiz-adv-x="1034" d="M86 502q33 158 92.5 231.5t161.5 73.5q70 0 190 -45q104 -35 129 -35q41 0 61.5 21.5t43.5 72.5l186 -51q-35 -158 -93.5 -230.5t-160.5 -72.5q-76 0 -192 43q-96 37 -127 37q-41 0 -61.5 -21.5t-43.5 -74.5z" />
<glyph unicode="&#xa1;" horiz-adv-x="663" d="M111 0v174l120 793h203l119 -793v-174h-442zM131 1085v349h404v-349h-404z" />
<glyph unicode="&#xa2;" horiz-adv-x="1177" d="M66 725v4q0 242 161.5 405.5t419.5 170.5l25 141h235l-30 -178q168 -61 260 -199l-240 -182q-47 55 -94 82l-92 -514q111 18 190 116l238 -174q-162 -236 -461 -243l-29 -166h-235l35 198q-172 61 -277.5 207t-105.5 332zM406 729q0 -176 114 -244l92 521 q-92 -14 -149 -92t-57 -181v-4z" />
<glyph unicode="&#xa3;" horiz-adv-x="1308" d="M90 0v238l154 57v244h-154v280h154v103q0 254 141 395q139 141 393 141q293 0 475 -207l-239 -264q-100 117 -209 117q-72 0 -117 -45q-49 -49 -49 -137v-103h442v-280h-442v-224h600v-315h-1149z" />
<glyph unicode="&#xa5;" horiz-adv-x="1449" d="M8 1434h451l268 -471l274 471h441l-428 -650h284v-245h-376v-103h376v-246h-376v-190h-392v190h-376v246h376v103h-376v245h280z" />
<glyph unicode="&#xa7;" horiz-adv-x="1282" d="M88 696v4q0 160 184 224q-96 78 -96 202v4q0 145 123 237.5t350 92.5q147 0 275.5 -45t210.5 -117l-158 -221q-166 119 -336 119q-111 0 -111 -59v-4q0 -29 44 -49.5t155 -45t184.5 -47t144 -57.5t104.5 -83t34 -112v-4q0 -157 -186 -225q96 -74 96 -201v-4 q0 -143 -123 -237.5t-350 -94.5q-145 0 -273.5 45t-212.5 117l158 223q168 -121 336 -120q113 0 113 61v4q0 51 -199 94q-229 51 -348 116t-119 183zM385 750q0 -55 207 -105q146 -37 203 -37q104 0 104 72v4q0 57 -207 107q-152 35 -203 34q-104 0 -104 -71v-4z" />
<glyph unicode="&#xa8;" d="M133 1204v291h330v-291h-330zM561 1204v291h332v-291h-332z" />
<glyph unicode="&#xa9;" horiz-adv-x="1699" d="M109 713v4q0 305 217 525t526 220t524 -218t215 -523v-4q0 -305 -217 -525.5t-526 -220.5t-524 218.5t-215 523.5zM195 713q0 -274 188.5 -466t464.5 -192q279 0 468 193.5t189 468.5v4q0 274 -188.5 466.5t-464.5 192.5q-279 0 -468 -194.5t-189 -468.5v-4zM449 723v4 q0 170 117.5 289t299.5 119q213 0 332 -162l-166 -129q-72 92 -170 92q-82 0 -134 -59.5t-52 -147.5v-4q0 -88 52 -146.5t134 -58.5q96 0 176 94l166 -118q-131 -177 -344 -177q-178 0 -294.5 116t-116.5 288z" />
<glyph unicode="&#xaa;" horiz-adv-x="798" d="M86 555v156h610v-156h-610zM90 1001v5q0 92 64.5 141t175.5 49q78 0 147 -25v9q0 100 -123 100q-80 0 -168 -33l-45 150q115 47 248 47q154 0 232 -74q66 -63 65 -194v-349h-211v66q-71 -78 -180 -78q-90 0 -147.5 49t-57.5 137zM297 1014q0 -31 20.5 -48.5t53.5 -17.5 q49 0 78.5 28t29.5 73v26q-45 16 -86 17q-45 0 -70.5 -19.5t-25.5 -54.5v-4z" />
<glyph unicode="&#xab;" horiz-adv-x="1294" d="M61 500v98l357 434l252 -125l-242 -356l242 -356l-252 -127zM590 539v20l389 473l252 -125l-240 -356l240 -356l-252 -127z" />
<glyph unicode="&#xad;" horiz-adv-x="835" d="M82 471v340h672v-340h-672z" />
<glyph unicode="&#xae;" horiz-adv-x="753" d="M20 1094v2q0 147 104.5 252.5t252.5 105.5q150 0 253 -104.5t103 -251.5v-2q0 -147 -104.5 -253t-251.5 -106q-150 0 -253.5 104.5t-103.5 252.5zM61 1094q0 -131 91.5 -224.5t224.5 -93.5t224 94.5t91 225.5v2q0 131 -91 224t-224 93t-224.5 -94t-91.5 -225v-2zM217 915 v377h182q76 0 120 -32.5t44 -96.5q0 -86 -76 -119l88 -129h-133l-73 109h-35v-109h-117zM334 1112h59q53 0 53 41t-51 41h-61v-82z" />
<glyph unicode="&#xaf;" d="M129 1219v233h768v-233h-768z" />
<glyph unicode="&#xb0;" horiz-adv-x="966" d="M111 1083v4q0 147 111.5 255t261 108t261 -107.5t111.5 -255.5v-4q0 -147 -110.5 -254.5t-262 -107.5t-262 107.5t-110.5 254.5zM311 1083q0 -74 49.5 -124t123 -50t122.5 50.5t49 123.5v4q0 72 -50 123.5t-121.5 51.5t-122 -51.5t-50.5 -123.5v-4z" />
<glyph unicode="&#xb1;" horiz-adv-x="1310" d="M125 0v287h1061v-287h-1061zM125 770v309l369 -2l-2 344h327l-2 -344l369 2v-309l-369 2l2 -344h-327l2 344z" />
<glyph unicode="&#xb2;" horiz-adv-x="819" d="M88 1509q129 170 330 170q135 0 218 -69.5t83 -179.5q0 -84 -40 -143.5t-130 -127.5l-158 -119h334v-186h-633v178l299 234q55 43 78 73.5t23 65.5t-25 56.5t-64 21.5q-78 0 -167 -103z" />
<glyph unicode="&#xb3;" horiz-adv-x="819" d="M61 961l123 147q102 -88 209 -88q47 0 78 23.5t31 62.5q0 84 -137 84h-97l-30 117l204 168h-323v184h588v-164l-215 -170q104 -12 167.5 -67.5t63.5 -155.5q0 -123 -89.5 -197t-230.5 -74q-203 0 -342 130z" />
<glyph unicode="&#xb4;" d="M270 1204l213 377l361 -117l-303 -260h-271z" />
<glyph unicode="&#xb6;" horiz-adv-x="1220" d="M47 938v4q0 233 162 362.5t436 129.5h449v-1434h-398v451h-43q-272 0 -439 128t-167 359z" />
<glyph unicode="&#xb7;" horiz-adv-x="581" d="M90 440v400h404v-400h-404z" />
<glyph unicode="&#xb8;" d="M225 -223l195 264h252l-140 -395z" />
<glyph unicode="&#xb9;" horiz-adv-x="665" d="M63 1581l269 90h166v-817h-226v600l-155 -49z" />
<glyph unicode="&#xba;" horiz-adv-x="798" d="M70 1124v4q0 131 95 223.5t236.5 92.5t235.5 -91t94 -223v-4q0 -131 -95.5 -223t-238.5 -92q-141 0 -234 91t-93 222zM104 555v156h590v-156h-590zM276 1126q0 -57 35 -96t90.5 -39t89 38t33.5 95v4q0 57 -35.5 96.5t-91 39.5t-88.5 -38t-33 -96v-4z" />
<glyph unicode="&#xbb;" horiz-adv-x="1294" d="M63 193l240 356l-240 356l252 127l390 -473v-20l-390 -471zM625 193l241 356l-241 356l252 127l356 -434v-98l-356 -432z" />
<glyph unicode="&#xbc;" horiz-adv-x="1689" d="M59 1356l269 90h166v-817h-226v600l-155 -49zM248 0l524 750l449 684h170l-523 -750l-450 -684h-170zM932 332l354 481h250v-502h98v-164h-98v-151h-215v151h-365zM1118 307h209v287z" />
<glyph unicode="&#xbd;" horiz-adv-x="1689" d="M59 1356l269 90h166v-817h-226v600l-155 -49zM227 0l525 750l448 684h170l-522 -750l-451 -684h-170zM979 655q129 170 330 170q135 0 218 -69.5t83 -180.5q0 -84 -40 -143t-130 -127l-158 -119h334v-186h-633v178l299 234q55 43 77.5 73.5t22.5 65.5t-24.5 56.5 t-63.5 21.5q-78 0 -168 -103z" />
<glyph unicode="&#xbe;" horiz-adv-x="1843" d="M61 735l123 148q102 -88 209 -88q47 0 78 23.5t31 62.5q0 84 -137 84h-97l-30 116l204 168h-323v185h588v-164l-215 -170q104 -12 167.5 -67.5t63.5 -155.5q0 -123 -89.5 -197t-230.5 -74q-203 0 -342 129zM391 0l524 750l449 684h170l-522 -750l-451 -684h-170z M1085 332l355 481h250v-502h98v-164h-98v-151h-215v151h-365zM1272 307h209v287z" />
<glyph unicode="&#xbf;" horiz-adv-x="1107" d="M45 408v4q0 180 105.5 279.5t293.5 144.5l25 131h246l53 -342l-18 -19q-322 -25 -322 -164v-2q0 -53 41 -82.5t115 -29.5q145 0 299 135l204 -270q-219 -216 -530 -216q-229 0 -370.5 117t-141.5 314zM397 1085v349h404v-349h-404z" />
<glyph unicode="&#xc0;" horiz-adv-x="1628" d="M14 0l609 1444h383l610 -1444h-426l-103 258h-555l-102 -258h-416zM375 1772l370 112l224 -332h-291zM649 567h322l-160 406z" />
<glyph unicode="&#xc1;" horiz-adv-x="1628" d="M14 0l609 1444h383l610 -1444h-426l-103 258h-555l-102 -258h-416zM649 567h322l-160 406zM662 1552l221 332l370 -112l-303 -220h-288z" />
<glyph unicode="&#xc2;" horiz-adv-x="1628" d="M14 0l609 1444h383l610 -1444h-426l-103 258h-555l-102 -258h-416zM389 1546l252 305h346l252 -305h-266l-162 109l-162 -109h-260zM649 567h322l-160 406z" />
<glyph unicode="&#xc3;" horiz-adv-x="1628" d="M14 0l609 1444h383l610 -1444h-426l-103 258h-555l-102 -258h-416zM377 1587q35 158 95 231.5t163 73.5q70 0 207 -47q98 -33 131 -33q41 0 62.5 21.5t43.5 73.5l187 -52q-33 -156 -93.5 -229.5t-162.5 -73.5q-74 0 -209 45q-104 35 -129 35q-41 0 -64.5 -22.5 t-44.5 -73.5zM649 567h322l-160 406z" />
<glyph unicode="&#xc4;" horiz-adv-x="1628" d="M14 0l609 1444h383l610 -1444h-426l-103 258h-555l-102 -258h-416zM418 1552v283h338v-283h-338zM649 567h322l-160 406zM870 1552v283h338v-283h-338z" />
<glyph unicode="&#xc5;" horiz-adv-x="1628" d="M14 0l572 1358q-59 70 -60 160q0 111 84 183.5t205 72.5t205 -73t84 -183q0 -94 -62 -162l574 -1356h-426l-103 258h-555l-102 -258h-416zM649 567h322l-160 406zM668 1517.5q0 -57.5 41 -95.5t106.5 -38t106.5 38t41 95.5t-41 95.5t-106.5 38t-106.5 -38t-41 -95.5z" />
<glyph unicode="&#xc6;" horiz-adv-x="2177" d="M-10 0l758 1434h1341v-336h-715v-219h643v-314h-643v-227h725v-338h-1112v258h-463l-133 -258h-401zM684 567h303v541h-24z" />
<glyph unicode="&#xc7;" horiz-adv-x="1497" d="M80 713v4q0 315 215 530t539 215q391 0 608 -297l-299 -231q-137 168 -314 168q-147 0 -244.5 -110.5t-97.5 -270.5v-4q0 -164 96.5 -273.5t245.5 -109.5q104 0 178 44t146 130l299 -213q-213 -293 -559 -320l-115 -329l-307 131l160 217q-242 61 -396.5 256.5 t-154.5 462.5z" />
<glyph unicode="&#xc8;" horiz-adv-x="1368" d="M127 0v1434h1153v-336h-760v-219h688v-314h-688v-227h770v-338h-1163zM268 1751l371 113l223 -332h-291z" />
<glyph unicode="&#xc9;" horiz-adv-x="1368" d="M127 0v1434h1153v-336h-760v-219h688v-314h-688v-227h770v-338h-1163zM555 1532l221 332l371 -113l-303 -219h-289z" />
<glyph unicode="&#xca;" horiz-adv-x="1368" d="M127 0v1434h1153v-336h-760v-219h688v-314h-688v-227h770v-338h-1163zM283 1532l252 305h346l252 -305h-267l-161 108l-162 -108h-260z" />
<glyph unicode="&#xcb;" horiz-adv-x="1368" d="M127 0v1434h1153v-336h-760v-219h688v-314h-688v-227h770v-338h-1163zM311 1532v283h338v-283h-338zM764 1532v283h338v-283h-338z" />
<glyph unicode="&#xcc;" horiz-adv-x="669" d="M-104 1751l370 113l223 -332h-290zM137 0v1434h398v-1434h-398z" />
<glyph unicode="&#xcd;" horiz-adv-x="669" d="M137 0v1434h398v-1434h-398zM182 1532l221 332l371 -113l-303 -219h-289z" />
<glyph unicode="&#xce;" horiz-adv-x="669" d="M-88 1532l252 305h346l252 -305h-266l-162 108l-162 -108h-260zM137 0v1434h398v-1434h-398z" />
<glyph unicode="&#xcf;" horiz-adv-x="669" d="M-59 1532v283h338v-283h-338zM137 0v1434h398v-1434h-398zM393 1532v283h338v-283h-338z" />
<glyph unicode="&#xd0;" horiz-adv-x="1669" d="M63 565v314h164v555h555q375 0 591 -196t216 -513v-4q0 -317 -219 -519t-596 -202h-547v565h-164zM614 342h172q184 0 291 98.5t107 274.5v4q0 176 -106.5 275.5t-291.5 99.5h-172v-220h242v-305h-242v-227z" />
<glyph unicode="&#xd1;" horiz-adv-x="1607" d="M127 0v1434h371l589 -758v758h394v-1434h-346l-615 786v-786h-393zM367 1567q35 158 95 231.5t163 73.5q70 0 206 -47q98 -33 132 -33q41 0 62.5 21.5t43.5 72.5l186 -51q-33 -156 -93.5 -229.5t-162.5 -73.5q-74 0 -208 45q-104 35 -129 35q-41 0 -65 -22.5t-44 -73.5z " />
<glyph unicode="&#xd2;" horiz-adv-x="1701" d="M80 713v4q0 311 222 528t552 217t550 -215t220 -526v-4q0 -311 -222 -528.5t-552 -217.5t-550 215t-220 527zM412 1772l370 112l224 -332h-291zM485 717q0 -160 104.5 -273.5t264.5 -113.5t261.5 111.5t101.5 271.5v4q0 160 -103.5 273.5t-263.5 113.5t-262.5 -111.5 t-102.5 -271.5v-4z" />
<glyph unicode="&#xd3;" horiz-adv-x="1701" d="M80 713v4q0 311 222 528t552 217t550 -215t220 -526v-4q0 -311 -222 -528.5t-552 -217.5t-550 215t-220 527zM485 717q0 -160 104.5 -273.5t264.5 -113.5t261.5 111.5t101.5 271.5v4q0 160 -103.5 273.5t-263.5 113.5t-262.5 -111.5t-102.5 -271.5v-4zM698 1552l222 332 l370 -112l-303 -220h-289z" />
<glyph unicode="&#xd4;" horiz-adv-x="1701" d="M80 713v4q0 311 222 528t552 217t550 -215t220 -526v-4q0 -311 -222 -528.5t-552 -217.5t-550 215t-220 527zM426 1552l252 306h346l252 -306h-266l-162 109l-162 -109h-260zM485 717q0 -160 104.5 -273.5t264.5 -113.5t261.5 111.5t101.5 271.5v4q0 160 -103.5 273.5 t-263.5 113.5t-262.5 -111.5t-102.5 -271.5v-4z" />
<glyph unicode="&#xd5;" horiz-adv-x="1701" d="M80 713v4q0 311 222 528t552 217t550 -215t220 -526v-4q0 -311 -222 -528.5t-552 -217.5t-550 215t-220 527zM414 1587q35 158 95 231.5t163 73.5q70 0 207 -47q98 -33 131 -33q41 0 62.5 21.5t43.5 73.5l187 -52q-33 -156 -93.5 -229.5t-162.5 -73.5q-74 0 -209 45 q-104 35 -129 35q-41 0 -64.5 -22.5t-44.5 -73.5zM485 717q0 -160 104.5 -273.5t264.5 -113.5t261.5 111.5t101.5 271.5v4q0 160 -103.5 273.5t-263.5 113.5t-262.5 -111.5t-102.5 -271.5v-4z" />
<glyph unicode="&#xd6;" horiz-adv-x="1701" d="M80 713v4q0 311 222 528t552 217t550 -215t220 -526v-4q0 -311 -222 -528.5t-552 -217.5t-550 215t-220 527zM455 1552v283h338v-283h-338zM485 717q0 -160 104.5 -273.5t264.5 -113.5t261.5 111.5t101.5 271.5v4q0 160 -103.5 273.5t-263.5 113.5t-262.5 -111.5 t-102.5 -271.5v-4zM907 1552v283h338v-283h-338z" />
<glyph unicode="&#xd7;" horiz-adv-x="1310" d="M115 1024l237 238l307 -314l306 314l231 -232l-313 -305l313 -305l-238 -238l-305 314l-305 -314l-231 232l313 305z" />
<glyph unicode="&#xd8;" horiz-adv-x="1701" d="M63 -10l203 231q-186 203 -186 492v4q0 311 222 528t552 217q221 0 406 -106l79 88h301l-204 -232q188 -209 188 -491v-4q0 -311 -222 -528.5t-552 -217.5q-225 0 -406 107l-79 -88h-302zM479 717q0 -111 49 -199l488 555q-78 39 -166 39q-164 0 -267.5 -114.5 t-103.5 -276.5v-4zM686 360q72 -38 168 -38q162 0 266.5 114.5t104.5 276.5v4q0 109 -51 201z" />
<glyph unicode="&#xd9;" horiz-adv-x="1552" d="M111 629v805h401v-797q0 -152 70.5 -228.5t193.5 -76.5q125 0 195.5 73.5t70.5 221.5v807h402v-795q0 -336 -177.5 -501t-494.5 -165q-313 0 -487 164t-174 492zM336 1751l371 113l223 -332h-291z" />
<glyph unicode="&#xda;" horiz-adv-x="1552" d="M111 629v805h401v-797q0 -152 70.5 -228.5t193.5 -76.5q125 0 195.5 73.5t70.5 221.5v807h402v-795q0 -336 -177.5 -501t-494.5 -165q-313 0 -487 164t-174 492zM623 1532l221 332l370 -113l-303 -219h-288z" />
<glyph unicode="&#xdb;" horiz-adv-x="1552" d="M111 629v805h401v-797q0 -152 70.5 -228.5t193.5 -76.5q125 0 195.5 73.5t70.5 221.5v807h402v-795q0 -336 -177.5 -501t-494.5 -165q-313 0 -487 164t-174 492zM352 1532l252 305h346l252 -305h-266l-162 108l-162 -108h-260z" />
<glyph unicode="&#xdc;" horiz-adv-x="1552" d="M111 629v805h401v-797q0 -152 70.5 -228.5t193.5 -76.5q125 0 195.5 73.5t70.5 221.5v807h402v-795q0 -336 -177.5 -501t-494.5 -165q-313 0 -487 164t-174 492zM381 1532v283h338v-283h-338zM834 1532v283h337v-283h-337z" />
<glyph unicode="&#xdd;" horiz-adv-x="1480" d="M-4 1434h453l294 -523l297 523h445l-545 -891v-543h-397v537zM588 1532l221 332l371 -113l-303 -219h-289z" />
<glyph unicode="&#xde;" horiz-adv-x="1396" d="M127 0v1434h397v-205h219q274 0 434 -131t160 -367v-4q0 -246 -170 -379t-444 -133h-199v-215h-397zM524 532h191q104 0 165.5 51.5t61.5 135.5v4q0 90 -61.5 139t-167.5 49h-189v-379z" />
<glyph unicode="&#xdf;" horiz-adv-x="1300" d="M104 0v981q0 246 145.5 389t412.5 143q233 0 372.5 -120.5t139.5 -305.5v-4q0 -227 -213 -335q119 -39 201.5 -126t82.5 -223v-4q0 -201 -171 -309t-445 -92v278q111 6 171 49.5t60 116.5v4q0 72 -62.5 114t-168.5 52v207q168 88 168 221v4q0 68 -40 109t-102 41 q-74 0 -118.5 -52.5t-44.5 -146.5v-991h-388z" />
<glyph unicode="&#xe0;" horiz-adv-x="1226" d="M51 317v5q0 170 117 259t317 89q156 0 267 -43v18q0 182 -222 182q-139 0 -307 -61l-80 272q209 86 449 86q287 0 422 -135q119 -117 119 -352v-637h-383v117q-131 -142 -328 -142q-164 0 -267.5 91.5t-103.5 250.5zM199 1473l360 116l211 -377h-270zM424 340 q0 -55 38 -88t99 -33q86 0 140.5 50t54.5 132v52q-72 29 -154 28q-84 0 -131 -36.5t-47 -100.5v-4z" />
<glyph unicode="&#xe1;" horiz-adv-x="1226" d="M51 317v5q0 170 117 259t317 89q156 0 267 -43v18q0 182 -222 182q-139 0 -307 -61l-80 272q209 86 449 86q287 0 422 -135q119 -117 119 -352v-637h-383v117q-131 -142 -328 -142q-164 0 -267.5 91.5t-103.5 250.5zM424 340q0 -55 38 -88t99 -33q86 0 140.5 50t54.5 132 v52q-72 29 -154 28q-84 0 -131 -36.5t-47 -100.5v-4zM473 1212l213 377l361 -116l-304 -261h-270z" />
<glyph unicode="&#xe2;" horiz-adv-x="1226" d="M51 317v5q0 170 117 259t317 89q156 0 267 -43v18q0 182 -222 182q-139 0 -307 -61l-80 272q209 86 449 86q287 0 422 -135q119 -117 119 -352v-637h-383v117q-131 -142 -328 -142q-164 0 -267.5 91.5t-103.5 250.5zM201 1212l262 336h315l262 -336h-249l-173 125 l-172 -125h-245zM424 340q0 -55 38 -88t99 -33q86 0 140.5 50t54.5 132v52q-72 29 -154 28q-84 0 -131 -36.5t-47 -100.5v-4z" />
<glyph unicode="&#xe3;" horiz-adv-x="1226" d="M51 317v5q0 170 117 259t317 89q156 0 267 -43v18q0 182 -222 182q-139 0 -307 -61l-80 272q209 86 449 86q287 0 422 -135q119 -117 119 -352v-637h-383v117q-131 -142 -328 -142q-164 0 -267.5 91.5t-103.5 250.5zM197 1247q35 158 93 231.5t161 73.5q72 0 192 -45 q100 -35 127 -34q41 0 61.5 21.5t42.5 72.5l187 -51q-33 -156 -92.5 -230t-161.5 -74q-74 0 -191 43q-100 37 -129 37q-41 0 -61 -21.5t-43 -74.5zM424 340q0 -55 38 -88t99 -33q86 0 140.5 50t54.5 132v52q-72 29 -154 28q-84 0 -131 -36.5t-47 -100.5v-4z" />
<glyph unicode="&#xe4;" horiz-adv-x="1226" d="M51 317v5q0 170 117 259t317 89q156 0 267 -43v18q0 182 -222 182q-139 0 -307 -61l-80 272q209 86 449 86q287 0 422 -135q119 -117 119 -352v-637h-383v117q-131 -142 -328 -142q-164 0 -267.5 91.5t-103.5 250.5zM242 1212v291h329v-291h-329zM424 340q0 -55 38 -88 t99 -33q86 0 140.5 50t54.5 132v52q-72 29 -154 28q-84 0 -131 -36.5t-47 -100.5v-4zM670 1212v291h331v-291h-331z" />
<glyph unicode="&#xe5;" horiz-adv-x="1226" d="M51 317v5q0 170 117 259t317 89q156 0 267 -43v18q0 182 -222 182q-139 0 -307 -61l-80 272q209 86 449 86q287 0 422 -135q119 -117 119 -352v-637h-383v117q-131 -142 -328 -142q-164 0 -267.5 91.5t-103.5 250.5zM350 1474.5q0 108.5 79 184.5t192 76q115 0 193.5 -76 t78.5 -184.5t-78.5 -184.5t-193.5 -76q-113 0 -192 76t-79 184.5zM424 340q0 -55 38 -88t99 -33q86 0 140.5 50t54.5 132v52q-72 29 -154 28q-84 0 -131 -36.5t-47 -100.5v-4zM481 1474.5q0 -59.5 41.5 -100.5t98.5 -41q59 0 100 42t41 100q0 59 -41 101t-100 42 q-57 0 -98.5 -42t-41.5 -101.5z" />
<glyph unicode="&#xe6;" horiz-adv-x="1925" d="M51 317v5q0 170 117 259t317 89q156 0 267 -43v18q0 182 -222 182q-139 0 -307 -61l-80 272q209 86 449 86q254 0 375 -125q143 133 348 134q264 0 406.5 -173.5t142.5 -433.5q0 -27 -4 -80h-742q49 -182 240 -182q133 0 248 113l213 -178q-178 -225 -480 -226 q-270 0 -434 168q-217 -166 -444 -166q-178 0 -294 90.5t-116 251.5zM424 340q0 -53 40 -85t103 -32q111 0 224 90q-27 63 -37 140q-72 29 -152 28q-84 0 -131 -36.5t-47 -100.5v-4zM1114 645h385q-10 92 -61.5 146.5t-130.5 54.5q-78 0 -128.5 -53.5t-64.5 -147.5z" />
<glyph unicode="&#xe7;" horiz-adv-x="1165" d="M61 549v4q0 240 167 408.5t425 168.5q315 0 473 -245l-262 -197q-90 117 -207 117q-94 0 -156.5 -73t-62.5 -175v-4q0 -109 61.5 -180.5t159.5 -71.5q119 0 213 115l261 -189q-154 -225 -418 -250l-117 -331l-307 131l166 225q-178 57 -287 207.5t-109 339.5z" />
<glyph unicode="&#xe8;" horiz-adv-x="1241" d="M61 549v4q0 246 158 413t402 167q272 0 414.5 -173.5t142.5 -433.5q0 -53 -2 -80h-742q47 -182 240 -182q131 0 246 113l215 -178q-179 -226 -480 -226q-262 0 -428 160t-166 416zM201 1473l360 116l211 -377h-270zM428 645h387q-10 92 -62.5 146.5t-131.5 54.5 q-76 0 -126.5 -53.5t-66.5 -147.5z" />
<glyph unicode="&#xe9;" horiz-adv-x="1241" d="M61 549v4q0 246 158 413t402 167q272 0 414.5 -173.5t142.5 -433.5q0 -53 -2 -80h-742q47 -182 240 -182q131 0 246 113l215 -178q-179 -226 -480 -226q-262 0 -428 160t-166 416zM428 645h387q-10 92 -62.5 146.5t-131.5 54.5q-76 0 -126.5 -53.5t-66.5 -147.5z M475 1212l213 377l361 -116l-304 -261h-270z" />
<glyph unicode="&#xea;" horiz-adv-x="1241" d="M61 549v4q0 246 158 413t402 167q272 0 414.5 -173.5t142.5 -433.5q0 -53 -2 -80h-742q47 -182 240 -182q131 0 246 113l215 -178q-179 -226 -480 -226q-262 0 -428 160t-166 416zM203 1212l262 336h315l262 -336h-249l-172 125l-172 -125h-246zM428 645h387 q-10 92 -62.5 146.5t-131.5 54.5q-76 0 -126.5 -53.5t-66.5 -147.5z" />
<glyph unicode="&#xeb;" horiz-adv-x="1241" d="M61 549v4q0 246 158 413t402 167q272 0 414.5 -173.5t142.5 -433.5q0 -53 -2 -80h-742q47 -182 240 -182q131 0 246 113l215 -178q-179 -226 -480 -226q-262 0 -428 160t-166 416zM244 1212v291h329v-291h-329zM428 645h387q-10 92 -62.5 146.5t-131.5 54.5 q-76 0 -126.5 -53.5t-66.5 -147.5zM672 1212v291h332v-291h-332z" />
<glyph unicode="&#xec;" horiz-adv-x="616" d="M-115 1464l361 117l211 -377h-271zM115 0v1108h387v-1108h-387z" />
<glyph unicode="&#xed;" horiz-adv-x="616" d="M115 0v1108h387v-1108h-387zM160 1204l213 377l360 -117l-303 -260h-270z" />
<glyph unicode="&#xee;" horiz-adv-x="616" d="M-113 1204l263 336h315l262 -336h-250l-172 125l-172 -125h-246zM115 0v1108h387v-1108h-387z" />
<glyph unicode="&#xef;" horiz-adv-x="616" d="M-72 1204v291h330v-291h-330zM115 0v1108h387v-1108h-387zM356 1204v291h332v-291h-332z" />
<glyph unicode="&#xf0;" horiz-adv-x="1345" d="M61 571v4q0 231 134.5 381t336.5 150q133 0 259 -76q-61 94 -156 189l-246 -58l-59 170l143 33q-84 68 -182 131h489l62 -49l229 53l57 -168l-131 -31q285 -309 285 -673v-4q0 -283 -168 -466.5t-444 -183.5q-266 0 -437.5 168t-171.5 430zM438 551q0 -102 67 -175 t169 -73q104 0 168.5 70.5t64.5 173.5v4q0 104 -67.5 177t-169.5 73q-104 0 -168 -71t-64 -175v-4z" />
<glyph unicode="&#xf1;" horiz-adv-x="1298" d="M104 0v1108h390v-156q139 180 331 181q176 0 276.5 -110t100.5 -298v-725h-387v600q0 90 -43 139t-115 49q-74 0 -118.5 -49t-44.5 -139v-600h-390zM227 1247q35 158 93.5 231.5t160.5 73.5q72 0 193 -45q100 -35 127 -34q41 0 61.5 21.5t42.5 72.5l187 -51 q-33 -156 -92.5 -230t-161.5 -74q-74 0 -191 43q-100 37 -129 37q-41 0 -61.5 -21.5t-42.5 -74.5z" />
<glyph unicode="&#xf2;" horiz-adv-x="1343" d="M61 549v4q0 240 175.5 410t437.5 170t436 -168t174 -408v-4q0 -240 -175 -410t-439 -170q-260 0 -434.5 168t-174.5 408zM248 1473l360 116l211 -377h-270zM438 553q0 -102 68 -176t168 -74q104 0 168.5 71.5t64.5 174.5v4q0 104 -67.5 178t-170 74t-167 -71.5 t-64.5 -176.5v-4z" />
<glyph unicode="&#xf3;" horiz-adv-x="1343" d="M61 549v4q0 240 175.5 410t437.5 170t436 -168t174 -408v-4q0 -240 -175 -410t-439 -170q-260 0 -434.5 168t-174.5 408zM438 553q0 -102 68 -176t168 -74q104 0 168.5 71.5t64.5 174.5v4q0 104 -67.5 178t-170 74t-167 -71.5t-64.5 -176.5v-4zM522 1212l213 377 l361 -116l-303 -261h-271z" />
<glyph unicode="&#xf4;" horiz-adv-x="1343" d="M61 549v4q0 240 175.5 410t437.5 170t436 -168t174 -408v-4q0 -240 -175 -410t-439 -170q-260 0 -434.5 168t-174.5 408zM252 1212l262 336h315l263 -336h-250l-172 125l-172 -125h-246zM438 553q0 -102 68 -176t168 -74q104 0 168.5 71.5t64.5 174.5v4q0 104 -67.5 178 t-170 74t-167 -71.5t-64.5 -176.5v-4z" />
<glyph unicode="&#xf5;" horiz-adv-x="1343" d="M61 549v4q0 240 175.5 410t437.5 170t436 -168t174 -408v-4q0 -240 -175 -410t-439 -170q-260 0 -434.5 168t-174.5 408zM246 1247q35 158 93 231.5t161 73.5q72 0 192 -45q100 -35 127 -34q41 0 61.5 21.5t43.5 72.5l186 -51q-33 -156 -92.5 -230t-161.5 -74 q-74 0 -190 43q-100 37 -129 37q-41 0 -61.5 -21.5t-43.5 -74.5zM438 553q0 -102 68 -176t168 -74q104 0 168.5 71.5t64.5 174.5v4q0 104 -67.5 178t-170 74t-167 -71.5t-64.5 -176.5v-4z" />
<glyph unicode="&#xf6;" horiz-adv-x="1343" d="M61 549v4q0 240 175.5 410t437.5 170t436 -168t174 -408v-4q0 -240 -175 -410t-439 -170q-260 0 -434.5 168t-174.5 408zM293 1212v291h330v-291h-330zM438 553q0 -102 68 -176t168 -74q104 0 168.5 71.5t64.5 174.5v4q0 104 -67.5 178t-170 74t-167 -71.5t-64.5 -176.5 v-4zM721 1212v291h332v-291h-332z" />
<glyph unicode="&#xf7;" horiz-adv-x="1310" d="M117 565v312h1077v-312h-1077zM473 104v330h365v-330h-365zM473 1008v329h365v-329h-365z" />
<glyph unicode="&#xf8;" horiz-adv-x="1343" d="M31 -10l170 186q-139 158 -140 373v4q0 240 175.5 410t437.5 170q168 0 311 -78l57 63h273l-172 -190q141 -162 141 -371v-4q0 -240 -175 -410t-439 -170q-168 0 -310 76l-57 -59h-272zM422 553q0 -63 20 -111l322 359q-43 18 -94 18q-111 0 -179.5 -75.5t-68.5 -186.5 v-4zM582 301q41 -14 92 -14q111 0 179.5 76.5t68.5 185.5v4q0 51 -21 106z" />
<glyph unicode="&#xf9;" horiz-adv-x="1298" d="M96 385v723h389v-600q0 -88 43 -137t115 -49q74 0 119 49t45 137v600h387v-1108h-387v154q-139 -179 -332 -179q-176 0 -277.5 111t-101.5 299zM221 1464l361 117l211 -377h-271z" />
<glyph unicode="&#xfa;" horiz-adv-x="1298" d="M96 385v723h389v-600q0 -88 43 -137t115 -49q74 0 119 49t45 137v600h387v-1108h-387v154q-139 -179 -332 -179q-176 0 -277.5 111t-101.5 299zM496 1204l213 377l360 -117l-303 -260h-270z" />
<glyph unicode="&#xfb;" horiz-adv-x="1298" d="M96 385v723h389v-600q0 -88 43 -137t115 -49q74 0 119 49t45 137v600h387v-1108h-387v154q-139 -179 -332 -179q-176 0 -277.5 111t-101.5 299zM223 1204l262 336h316l262 -336h-250l-172 125l-172 -125h-246z" />
<glyph unicode="&#xfc;" horiz-adv-x="1298" d="M96 385v723h389v-600q0 -88 43 -137t115 -49q74 0 119 49t45 137v600h387v-1108h-387v154q-139 -179 -332 -179q-176 0 -277.5 111t-101.5 299zM264 1204v291h330v-291h-330zM692 1204v291h332v-291h-332z" />
<glyph unicode="&#xfd;" horiz-adv-x="1282" d="M25 1108h405l221 -668l209 668h400l-406 -1081q-74 -199 -166 -280t-256 -81q-188 0 -354 96l119 273q102 -59 170 -60q57 0 92 45zM498 1204l213 377l360 -117l-303 -260h-270z" />
<glyph unicode="&#xfe;" horiz-adv-x="1384" d="M104 -328v1823h390v-534q141 172 335 172q205 0 348.5 -158t143.5 -416v-4q0 -262 -142.5 -421t-347.5 -159q-201 0 -337 160v-463h-390zM485 553q0 -109 65.5 -180.5t162 -71.5t162 70.5t65.5 181.5v4q0 109 -66.5 180.5t-160.5 71.5q-96 0 -162 -71.5t-66 -180.5v-4z " />
<glyph unicode="&#xff;" horiz-adv-x="1282" d="M25 1108h405l221 -668l209 668h400l-406 -1081q-74 -199 -166 -280t-256 -81q-188 0 -354 96l119 273q102 -59 170 -60q57 0 92 45zM268 1204v291h330v-291h-330zM696 1204v291h332v-291h-332z" />
<glyph unicode="&#x152;" horiz-adv-x="2207" d="M80 709v4q0 319 219 520t596 201h1225v-336h-715v-219h643v-314h-643v-227h725v-338h-1243q-375 0 -591 195.5t-216 513.5zM485 717q0 -170 108 -270.5t284 -100.5h137v744h-137q-178 0 -285 -98.5t-107 -270.5v-4z" />
<glyph unicode="&#x153;" horiz-adv-x="2076" d="M61 549v4q0 240 174.5 410t428.5 170q250 0 411 -166q150 166 385 166q268 0 410.5 -173.5t142.5 -433.5q0 -53 -2 -80h-741q47 -182 239 -182q131 0 246 113l215 -178q-178 -225 -475 -226q-264 0 -426 168q-164 -168 -413.5 -168t-422 169t-172.5 407zM438 553 q0 -102 65.5 -176t166 -74t164 71.5t63.5 174.5v4q0 104 -66.5 178t-164.5 74q-102 0 -165 -73t-63 -175v-4zM1264 645h387q-10 92 -62.5 146.5t-132.5 54.5q-76 0 -126 -53.5t-66 -147.5z" />
<glyph unicode="&#x178;" horiz-adv-x="1480" d="M-4 1434h453l294 -523l297 523h445l-545 -891v-543h-397v537zM344 1532v283h338v-283h-338zM797 1532v283h338v-283h-338z" />
<glyph unicode="&#x2c6;" d="M92 1204l262 336h316l262 -336h-250l-172 125l-172 -125h-246z" />
<glyph unicode="&#x2dc;" d="M80 1239q35 158 93 231.5t161 73.5q72 0 192 -45q100 -35 127 -35q41 0 61.5 21.5t43.5 73.5l186 -52q-33 -156 -92.5 -229.5t-161.5 -73.5q-74 0 -190 43q-100 37 -129 37q-41 0 -61.5 -21.5t-43.5 -74.5z" />
<glyph unicode="&#x2000;" horiz-adv-x="953" />
<glyph unicode="&#x2001;" horiz-adv-x="1907" />
<glyph unicode="&#x2002;" horiz-adv-x="953" />
<glyph unicode="&#x2003;" horiz-adv-x="1907" />
<glyph unicode="&#x2004;" horiz-adv-x="635" />
<glyph unicode="&#x2005;" horiz-adv-x="476" />
<glyph unicode="&#x2006;" horiz-adv-x="317" />
<glyph unicode="&#x2007;" horiz-adv-x="317" />
<glyph unicode="&#x2008;" horiz-adv-x="238" />
<glyph unicode="&#x2009;" horiz-adv-x="381" />
<glyph unicode="&#x200a;" horiz-adv-x="105" />
<glyph unicode="&#x2010;" horiz-adv-x="835" d="M82 471v340h672v-340h-672z" />
<glyph unicode="&#x2011;" horiz-adv-x="835" d="M82 471v340h672v-340h-672z" />
<glyph unicode="&#x2012;" horiz-adv-x="835" d="M82 471v340h672v-340h-672z" />
<glyph unicode="&#x2013;" horiz-adv-x="1081" d="M82 475v332h917v-332h-917z" />
<glyph unicode="&#x2014;" horiz-adv-x="1839" d="M82 475v332h1675v-332h-1675z" />
<glyph unicode="&#x2018;" horiz-adv-x="581" d="M82 702v326q0 217 108.5 313.5t311.5 102.5l33 -150q-102 -10 -155.5 -60t-49.5 -132h155v-400h-403z" />
<glyph unicode="&#x2019;" horiz-adv-x="581" d="M49 842q211 25 205 192h-158v400h404v-326q0 -217 -107.5 -313.5t-312.5 -102.5z" />
<glyph unicode="&#x201a;" horiz-adv-x="581" d="M41 -193q102 10 155.5 60.5t49.5 132.5h-156v399h404v-325q0 -217 -108.5 -313.5t-311.5 -102.5z" />
<glyph unicode="&#x201c;" horiz-adv-x="1120" d="M82 702v326q0 215 106.5 312.5t309.5 103.5l30 -150q-102 -10 -152 -59t-46 -133h151v-400h-399zM627 702v326q0 215 106.5 312.5t306.5 103.5l33 -150q-207 -23 -201 -192h152v-400h-397z" />
<glyph unicode="&#x201d;" horiz-adv-x="1120" d="M49 842q102 12 152.5 60t46.5 132h-152v400h400v-326q0 -213 -106.5 -311.5t-309.5 -104.5zM592 842q207 25 201 192h-152v400h397v-326q0 -213 -106 -311.5t-307 -104.5z" />
<glyph unicode="&#x201e;" horiz-adv-x="1118" d="M41 -193q207 23 201 193h-152v399h397v-325q0 -215 -106 -312.5t-307 -103.5zM586 -193q102 10 152 59.5t46 133.5h-151v399h399v-325q0 -215 -106.5 -312.5t-309.5 -103.5z" />
<glyph unicode="&#x2022;" d="M166 719v4q0 143 101.5 243.5t244.5 100.5t244.5 -100.5t101.5 -243.5v-4q0 -141 -101.5 -242.5t-244.5 -101.5t-244.5 101.5t-101.5 242.5z" />
<glyph unicode="&#x2026;" horiz-adv-x="1720" d="M90 0v393h395v-393h-395zM664 0v393h395v-393h-395zM1237 0v393h395v-393h-395z" />
<glyph unicode="&#x202f;" horiz-adv-x="381" />
<glyph unicode="&#x2039;" horiz-adv-x="731" d="M61 500v98l357 434l252 -125l-242 -356l242 -356l-252 -127z" />
<glyph unicode="&#x203a;" horiz-adv-x="731" d="M63 193l240 356l-240 354l252 127l355 -432v-98l-355 -432z" />
<glyph unicode="&#x205f;" horiz-adv-x="476" />
<glyph unicode="&#x20ac;" horiz-adv-x="1396" d="M78 457v213h137v45q0 39 2 59h-139v211h172q55 211 217 344t399 133q312 0 492 -231l-254 -236q-96 127 -238 127q-154 0 -223 -141h322v-209h-367q-2 -18 -2 -53q0 -33 2 -49h367v-207h-324q66 -152 236 -152q131 0 241 135l244 -229q-188 -246 -500 -246 q-242 0 -404.5 132.5t-215.5 353.5h-164z" />
<glyph unicode="&#x2122;" horiz-adv-x="1423" d="M35 1280v154h551v-154h-189v-477h-176v477h-186zM686 803v631h184l152 -244l149 244h185v-631h-172v371l-160 -252h-8l-160 252v-371h-170z" />
<glyph unicode="&#x25fc;" horiz-adv-x="1105" d="M0 0v1106h1106v-1106h-1106z" />
</font>
</defs>
</svg>
