<?xml version="1.0" standalone="no"?>
<!DOCTYPE svg PUBLIC "-//W3C//DTD SVG 1.1//EN" "http://www.w3.org/Graphics/SVG/1.1/DTD/svg11.dtd" >
<svg xmlns="http://www.w3.org/2000/svg">
<metadata></metadata>
<defs>
<font id="glilight" horiz-adv-x="1024" >
<font-face units-per-em="2048" ascent="1638" descent="-410" />
<missing-glyph horiz-adv-x="614" />
<glyph unicode="&#xfb01;" horiz-adv-x="1253" d="M113 0l256 952h-152l25 92h151l41 152q35 135 113 213q86 86 221 86q117 0 209 -49l-25 -90q-104 49 -188 49q-176 0 -236 -231l-34 -130h376l-24 -92h-377l-256 -952h-100zM807 0l280 1044h101l-281 -1044h-100zM1149 1317l37 137h125l-37 -137h-125z" />
<glyph unicode="&#xfb02;" horiz-adv-x="1253" d="M113 0l256 952h-152l25 92h151l41 152q35 135 113 213q86 86 221 86q117 0 209 -49l-25 -90q-104 49 -188 49q-176 0 -236 -231l-34 -130h376l-24 -92h-377l-256 -952h-100zM807 0l401 1495h101l-402 -1495h-100z" />
<glyph unicode="&#xfb03;" horiz-adv-x="1994" d="M113 0l256 952h-152l25 92h151l41 152q35 135 113 213q86 86 221 86q117 0 209 -49l-25 -90q-104 49 -188 49q-176 0 -236 -231l-34 -130h376l-24 -92h-377l-256 -952h-100zM854 0l256 952h-152l25 92h152l41 152q35 135 112 213q86 86 221 86q117 0 209 -49l-24 -90 q-104 49 -189 49q-176 0 -235 -231l-35 -130h377l-25 -92h-377l-256 -952h-100zM1548 0l281 1044h100l-280 -1044h-101zM1890 1317l37 137h125l-37 -137h-125z" />
<glyph unicode="&#xfb04;" horiz-adv-x="1994" d="M113 0l256 952h-152l25 92h151l41 152q35 135 113 213q86 86 221 86q117 0 209 -49l-25 -90q-104 49 -188 49q-176 0 -236 -231l-34 -130h376l-24 -92h-377l-256 -952h-100zM854 0l256 952h-152l25 92h152l41 152q35 135 112 213q86 86 221 86q117 0 209 -49l-24 -90 q-104 49 -189 49q-176 0 -235 -231l-35 -130h377l-25 -92h-377l-256 -952h-100zM1548 0l402 1495h100l-401 -1495h-101z" />
<glyph horiz-adv-x="0" />
<glyph unicode="&#xd;" horiz-adv-x="681" />
<glyph unicode=" "  horiz-adv-x="614" />
<glyph unicode="&#x09;" horiz-adv-x="614" />
<glyph unicode="&#xa0;" horiz-adv-x="614" />
<glyph unicode="!" horiz-adv-x="514" d="M49 0l47 174h135l-47 -174h-135zM188 375l215 915l39 144h119l-39 -144l-276 -915h-58z" />
<glyph unicode="&#x22;" horiz-adv-x="839" d="M207 913l190 521h129v-11l-260 -510h-59zM575 913l191 521h129v-11l-260 -510h-60z" />
<glyph unicode="#" horiz-adv-x="1388" d="M72 383l24 96h256l170 484h-272l24 96h281l131 375h98l-131 -375h424l131 375h99l-131 -375h247l-24 -96h-256l-170 -484h272l-24 -96h-281l-133 -383h-98l133 383h-424l-133 -383h-99l133 383h-247zM453 479h421l170 484h-423z" />
<glyph unicode="$" horiz-adv-x="1265" d="M-2 250l78 67q152 -176 405 -213l158 590q-199 74 -283 154t-84 203q0 164 136.5 273.5t339.5 109.5q33 0 90 -4l32 122h101l-37 -137q207 -39 352 -182l-74 -74q-125 125 -313 164l-149 -557q188 -70 271 -153t83 -207q0 -176 -145.5 -291t-376.5 -115h-39l-54 -201 h-100l57 211q-285 43 -448 240zM381 1061q0 -90 64.5 -148.5t220.5 -115.5l145 536q-49 4 -74 4q-156 0 -256 -79.5t-100 -196.5zM569 96h33q176 0 284.5 85t108.5 214q0 86 -61.5 149.5t-210.5 121.5z" />
<glyph unicode="%" horiz-adv-x="1681" d="M133 0l1397 1434h123l-1397 -1434h-123zM190 1001q0 199 140 338q111 111 252 111q123 0 201.5 -85t78.5 -208q0 -199 -139 -338q-111 -110 -252 -110q-123 0 -202 85t-79 207zM291 1012q0 -98 49 -156.5t139 -58.5q92 0 170 77q113 113 113 273q0 98 -49 156.5 t-140 58.5q-92 0 -170 -78q-113 -113 -112 -272zM924 276q0 199 139 338q111 111 252 111q123 0 201.5 -85t78.5 -208q0 -199 -139 -338q-111 -110 -252 -110q-123 0 -201.5 85t-78.5 207zM1024 287q0 -98 49 -156.5t139 -58.5q92 0 170 78q113 113 113 272q0 98 -49 156.5 t-139 58.5q-92 0 -170 -78q-113 -113 -113 -272z" />
<glyph unicode="&#x26;" horiz-adv-x="1413" d="M63 338q0 174 127 299t375 188q-96 156 -96 273q0 154 111.5 257t265.5 103q152 0 244 -82t92 -215q0 -125 -105.5 -224t-357.5 -169l291 -414q124 145 237 344l80 -47q-143 -238 -260 -364l184 -262l-80 -54l-174 248q-127 -125 -246.5 -182t-277.5 -57q-176 0 -293 96 t-117 262zM172 350q0 -127 85 -201.5t228 -74.5q238 0 457 215l-326 461q-223 -53 -333.5 -160t-110.5 -240zM573 1100q0 -119 95 -258q410 106 409 315q0 94 -64.5 152.5t-170.5 58.5q-109 0 -189 -78.5t-80 -189.5z" />
<glyph unicode="'" horiz-adv-x="471" d="M207 913l190 521h129v-11l-260 -510h-59z" />
<glyph unicode="(" horiz-adv-x="880" d="M203 446q0 399 303 703q199 199 508 324l35 -76q-283 -121 -461 -299q-279 -279 -279 -649q0 -211 80 -368t227 -308l-57 -60q-356 317 -356 733z" />
<glyph unicode=")" horiz-adv-x="880" d="M-131 -209q283 121 461 299q279 279 278 649q0 211 -79.5 368t-227.5 308l57 60q356 -317 357 -734q0 -399 -303 -702q-199 -199 -508 -324z" />
<glyph unicode="*" horiz-adv-x="880" d="M283 1098l264 49l-205 172l64 61l172 -198l49 256l84 -21l-86 -248l247 86l25 -84l-264 -49l205 -172l-64 -61l-172 198l-49 -256l-84 21l86 248l-248 -86z" />
<glyph unicode="+" horiz-adv-x="1269" d="M180 672l27 98h444l119 440h102l-118 -440h444l-27 -98h-444l-119 -441h-102l119 441h-445z" />
<glyph unicode="," horiz-adv-x="473" d="M-80 -168q141 49 164 168h-55l47 174h135l-41 -151q-31 -106 -82.5 -158.5t-153.5 -81.5z" />
<glyph unicode="-" horiz-adv-x="837" d="M152 551l30 115h549l-31 -115h-548z" />
<glyph unicode="." horiz-adv-x="473" d="M29 0l47 174h135l-47 -174h-135z" />
<glyph unicode="/" d="M-248 -262l1467 1896h110l-1466 -1896h-111z" />
<glyph unicode="0" horiz-adv-x="1452" d="M168 512q0 211 80 411.5t217 338.5q196 196 440 196q229 0 355 -148.5t126 -387.5q0 -211 -79.5 -412t-216.5 -338q-197 -197 -441 -197q-229 0 -355 148.5t-126 388.5zM279 512q0 -193 98 -316.5t278 -123.5q186 0 349 161q125 125 198.5 310.5t73.5 378t-98.5 316.5 t-278.5 124q-186 0 -348 -162q-125 -125 -198.5 -310t-73.5 -378z" />
<glyph unicode="1" horiz-adv-x="684" d="M190 0l355 1321l-301 -94l-4 96l360 121h84l-387 -1444h-107z" />
<glyph unicode="2" horiz-adv-x="1204" d="M-39 0l19 80l839 665q131 104 191.5 187.5t60.5 177.5q0 109 -82 178.5t-225 69.5q-217 0 -410 -205l-75 66q227 236 489 235q182 0 298 -95t116 -247q0 -119 -73 -217t-224 -219l-725 -574h827l-26 -102h-1000z" />
<glyph unicode="3" horiz-adv-x="1241" d="M20 256l89 49q121 -233 409 -233q190 0 315 101t125 259q0 135 -107.5 204t-293.5 69h-59l-23 53l639 575h-768l29 101h921l-20 -76l-629 -567q182 -8 303 -99.5t121 -251.5q0 -172 -125 -297q-168 -168 -434 -168q-178 0 -304 75t-188 206z" />
<glyph unicode="4" horiz-adv-x="1320" d="M57 430l1092 1014h98l-268 -1002h233l-24 -92h-234l-94 -350h-104l94 350h-776zM203 442h671l224 832z" />
<glyph unicode="5" horiz-adv-x="1230" d="M33 231l88 56q147 -219 401 -219q203 0 333 118.5t130 282.5q0 143 -96 225t-248 82q-168 0 -330 -90l-67 53l227 695h774l-28 -103h-680l-177 -526q47 27 132.5 47t148.5 20q209 0 332 -107.5t123 -291.5q0 -190 -140 -330q-168 -168 -440 -168q-313 0 -483 256z" />
<glyph unicode="6" horiz-adv-x="1310" d="M170 502q0 229 79 425.5t208 325.5q205 205 458 205q258 0 418 -190l-78 -68q-143 162 -345.5 162t-370.5 -168q-100 -100 -170 -248.5t-80 -296.5q72 106 185.5 174t260.5 68q209 0 334 -123t125 -295q0 -195 -141 -336q-162 -162 -404 -162q-209 0 -340 131 q-139 139 -139 396zM291 412q0 -147 94 -242q100 -100 270 -100q186 0 312 125q117 117 116 278q0 127 -92 223.5t-262 96.5q-199 0 -328 -129q-111 -111 -110 -252z" />
<glyph unicode="7" horiz-adv-x="1183" d="M164 0l964 1331h-825l29 103h950l-22 -78l-973 -1356h-123z" />
<glyph unicode="8" horiz-adv-x="1312" d="M82 354q0 166 123 271.5t315 134.5q-94 35 -156.5 114.5t-62.5 190.5q0 166 147.5 277.5t362.5 111.5q207 0 341 -102.5t134 -264.5q0 -145 -106.5 -244.5t-264.5 -127.5q104 -37 178 -123t74 -201q0 -178 -160.5 -294.5t-402.5 -116.5q-231 0 -376.5 108.5t-145.5 265.5 zM193 367q0 -129 114.5 -210t302.5 -81q201 0 324 89t123 230q0 121 -114 208t-300 87q-203 0 -326.5 -94t-123.5 -229zM412 1057q0 -119 100 -199t256 -80q190 0 299 91.5t109 212t-101.5 198.5t-263.5 78q-178 0 -288.5 -86t-110.5 -215z" />
<glyph unicode="9" horiz-adv-x="1310" d="M68 178l77 68q154 -174 359 -174q201 0 368 168q100 98 169 243.5t81 294.5q-170 -252 -450 -252q-209 0 -334 125t-123 301q0 197 147 344q162 162 402 162q207 0 338 -131q139 -139 139 -395q0 -229 -79 -426t-208 -326q-204 -205 -456 -205q-262 0 -430 203zM326 952 q-2 -131 90 -229t270 -98q188 0 318 129q117 117 116 272q0 141 -94 236q-102 102 -270 102q-184 0 -307 -123q-119 -119 -123 -289z" />
<glyph unicode=":" horiz-adv-x="493" d="M39 0l47 174h135l-47 -174h-135zM272 870l47 174h136l-47 -174h-136z" />
<glyph unicode=";" horiz-adv-x="493" d="M-70 -168q141 49 164 168h-55l47 174h135l-41 -151q-31 -106 -82 -158.5t-153 -81.5zM272 870l47 174h136l-47 -174h-136z" />
<glyph unicode="&#x3c;" horiz-adv-x="1269" d="M168 680l22 82l1084 493l-31 -120l-938 -422l711 -426l-29 -101z" />
<glyph unicode="=" horiz-adv-x="1269" d="M145 438l29 105h930l-29 -105h-930zM270 899l27 105h930l-27 -105h-930z" />
<glyph unicode="&#x3e;" horiz-adv-x="1269" d="M100 186l31 121l938 422l-711 426l29 100l819 -493l-22 -82z" />
<glyph unicode="?" horiz-adv-x="1093" d="M207 1245q207 207 475 207q188 0 300 -100.5t112 -257.5q0 -193 -154 -311.5t-389 -151.5l-88 -256h-66l62 332l14 10q231 16 371.5 115.5t140.5 259.5q0 125 -88 194.5t-223 69.5q-221 0 -402 -180zM262 0l47 174h135l-47 -174h-135z" />
<glyph unicode="@" horiz-adv-x="2007" d="M135 473q0 260 135.5 487.5t367.5 362.5t503 135q371 0 586 -204.5t215 -518.5q0 -270 -133.5 -427.5t-288.5 -157.5q-106 0 -170 54t-78 150q-162 -209 -381 -209q-137 0 -229.5 93.5t-92.5 246.5q0 219 154 381t344 162q123 0 202 -62.5t113 -158.5l62 201l96 -27 l-154 -496q-16 -55 -16 -98q0 -72 41 -117t119 -45q121 0 230.5 135.5t109.5 374.5q0 283 -196.5 470.5t-532.5 187.5q-381 0 -657.5 -274.5t-276.5 -645.5q0 -332 216 -534.5t572 -202.5q221 0 424 92l29 -59q-215 -99 -453 -99q-391 0 -625.5 220.5t-234.5 582.5zM684 489 q0 -115 63.5 -181t163.5 -66q156 0 289 132t133 292q0 117 -71.5 191.5t-190.5 74.5q-160 0 -273.5 -131t-113.5 -312z" />
<glyph unicode="A" horiz-adv-x="1554" d="M-70 0l1055 1444h102l281 -1444h-108l-74 401h-846l-291 -401h-119zM410 498h755l-153 829z" />
<glyph unicode="B" horiz-adv-x="1468" d="M74 0l385 1434h530q197 0 313.5 -87t116.5 -239t-106.5 -253t-272.5 -134q123 -33 199 -106.5t76 -192.5q0 -186 -162 -304t-434 -118h-645zM207 98h518q223 0 352 86t129 238q0 121 -104.5 186.5t-274.5 65.5h-467zM387 772h442q217 0 348.5 90t131.5 236q0 117 -87 177 t-243 60h-440z" />
<glyph unicode="C" horiz-adv-x="1511" d="M188 555q0 182 74 353t203 300q250 250 579 250q188 0 322.5 -85t204.5 -224l-92 -49q-74 129 -177.5 195.5t-263.5 66.5q-279 0 -489 -211q-117 -117 -183.5 -273.5t-66.5 -318.5q0 -223 136 -355t349 -132q152 0 265.5 54t220.5 161l71 -66q-237 -248 -567 -248 q-246 0 -416 159t-170 423z" />
<glyph unicode="D" horiz-adv-x="1579" d="M74 0l385 1434h321q365 0 557 -193q158 -158 158 -410q0 -332 -223 -555q-131 -131 -320.5 -203.5t-408.5 -72.5h-469zM207 98h350q389 0 635 246q192 192 192 476q0 225 -133 354q-161 161 -473 161h-4h-235z" />
<glyph unicode="E" horiz-adv-x="1329" d="M74 0l385 1434h1009l-26 -99h-903l-152 -563h811l-27 -98h-811l-153 -576h913l-26 -98h-1020z" />
<glyph unicode="F" horiz-adv-x="1343" d="M74 0l385 1434h1009l-26 -99h-903l-158 -587h811l-27 -99h-811l-174 -649h-106z" />
<glyph unicode="G" horiz-adv-x="1609" d="M193 578q0 170 70.5 333.5t197.5 290.5q256 256 606 256q354 0 524 -266l-84 -55q-72 109 -174 167t-276 58q-295 0 -514 -219q-113 -113 -176.5 -260.5t-63.5 -300.5q0 -238 141.5 -375t372.5 -137q238 0 414 116l131 459h-477l26 98h582l-176 -616q-236 -154 -506 -154 t-444 166t-174 439z" />
<glyph unicode="H" horiz-adv-x="1548" d="M74 0l385 1434h106l-178 -664h907l179 664h106l-385 -1434h-107l181 672h-908l-180 -672h-106z" />
<glyph unicode="I" horiz-adv-x="561" d="M88 0l385 1434h107l-385 -1434h-107z" />
<glyph unicode="J" horiz-adv-x="1122" d="M-10 309l94 33q82 -266 313 -266q154 0 260 106q102 102 160 314l252 938h107l-256 -953q-63 -240 -191 -366q-135 -135 -328 -135q-170 0 -271 90t-140 239z" />
<glyph unicode="K" horiz-adv-x="1462" d="M74 0l385 1434h106l-250 -932l1147 932h158l-797 -641l434 -793h-122l-400 731l-459 -373l-96 -358h-106z" />
<glyph unicode="L" horiz-adv-x="1228" d="M74 0l385 1434h106l-358 -1336h842l-27 -98h-948z" />
<glyph unicode="M" horiz-adv-x="1779" d="M74 0l385 1434h88l348 -848l803 848h112l-385 -1434h-106l334 1245l-789 -825h-8l-346 825l-334 -1245h-102z" />
<glyph unicode="N" horiz-adv-x="1609" d="M74 0l385 1434h98l645 -1256l338 1256h102l-385 -1434h-77l-660 1282l-344 -1282h-102z" />
<glyph unicode="O" horiz-adv-x="1732" d="M197 590q0 174 70.5 339t193.5 288q242 241 561 241q268 0 443 -177t175 -439q0 -174 -70.5 -339t-193.5 -288q-242 -242 -561 -242q-268 0 -443 177.5t-175 439.5zM307 590q0 -223 141.5 -371.5t366.5 -148.5q272 0 479 206q111 111 173.5 259.5t62.5 306.5 q0 223 -141.5 371.5t-366.5 148.5q-272 0 -479 -207q-111 -111 -173.5 -259t-62.5 -306z" />
<glyph unicode="P" horiz-adv-x="1357" d="M74 0l385 1434h446q266 0 395 -129q98 -98 99 -256q0 -197 -129 -326q-186 -186 -580 -186h-364l-146 -537h-106zM350 633h344q346 0 498 151q100 100 100 260q1 117 -73 191q-100 100 -316 100h-364z" />
<glyph unicode="Q" horiz-adv-x="1732" d="M197 590q0 174 70.5 339t193.5 288q242 241 561 241q268 0 443 -177t175 -439q0 -174 -71.5 -339t-194.5 -288l-33 -33l154 -166l-78 -65l-147 174q-207 -152 -455 -152q-268 0 -443 177.5t-175 439.5zM307 590q0 -223 141.5 -371.5t366.5 -148.5q211 0 389 129l-239 266 l77 67l234 -274l18 18q111 111 173.5 259.5t62.5 306.5q0 223 -141.5 371.5t-366.5 148.5q-272 0 -479 -207q-111 -111 -173.5 -259t-62.5 -306z" />
<glyph unicode="R" horiz-adv-x="1460" d="M74 0l385 1434h514q258 0 385 -127q90 -90 90 -234q0 -172 -127 -299q-137 -137 -422 -170l315 -604h-122l-308 594h-59h-385l-160 -594h-106zM365 690h430q305 0 450 146q96 96 96 231q0 106 -63 170q-98 98 -309 98h-430z" />
<glyph unicode="S" horiz-adv-x="1306" d="M41 254l82 59q94 -121 213 -179t287 -58q176 0 294.5 89t118.5 224q0 94 -69.5 157.5t-243.5 131.5q-227 88 -318.5 170t-91.5 211q0 141 105 246q149 149 406 149h3q156 0 286 -60.5t212 -158.5l-82 -66q-164 188 -426 189q-178 0 -286.5 -86t-108.5 -205 q0 -96 78 -158.5t264 -134.5q205 -78 293 -163t88 -214q0 -150 -113 -262q-156 -155 -420 -155q-377 0 -571 274z" />
<glyph unicode="T" horiz-adv-x="1259" d="M287 1335l26 99h1106l-26 -99h-500l-358 -1335h-107l358 1335h-499z" />
<glyph unicode="U" horiz-adv-x="1548" d="M197 428q0 111 28 221l209 785h107l-222 -834q-18 -74 -18 -164q0 -162 106.5 -262t313.5 -100q203 0 350 147q133 133 201 381l223 832h107l-230 -854q-72 -266 -227 -422q-180 -181 -432 -181q-250 0 -383 125t-133 326z" />
<glyph unicode="V" horiz-adv-x="1462" d="M291 1434h110l203 -1319l914 1319h120l-1013 -1444h-95z" />
<glyph unicode="W" horiz-adv-x="2199" d="M307 1434h111l108 -1276l762 1280h82l78 -1280l793 1276h118l-907 -1444h-86l-86 1245l-754 -1245h-86z" />
<glyph unicode="X" horiz-adv-x="1417" d="M-47 0l749 741l-380 693h114l342 -631l635 631h137l-721 -711l394 -723h-115l-354 662l-664 -662h-137z" />
<glyph unicode="Y" horiz-adv-x="1368" d="M260 1434h117l330 -770l745 770h143l-862 -879l-147 -555h-107l156 582z" />
<glyph unicode="Z" horiz-adv-x="1355" d="M-39 0l16 59l1303 1278h-926l27 97h1092l-17 -60l-1302 -1278h966l-26 -96h-1133z" />
<glyph unicode="[" horiz-adv-x="880" d="M33 -266l456 1700h560l-23 -78h-465l-414 -1544h465l-20 -78h-559z" />
<glyph unicode="\" d="M301 1634h90l453 -1896h-90z" />
<glyph unicode="]" horiz-adv-x="880" d="M-137 -266l22 78h465l414 1544h-465l20 78h560l-457 -1700h-559z" />
<glyph unicode="^" d="M264 1010l438 430h91l208 -430h-96l-170 342l-354 -342h-117z" />
<glyph unicode="_" horiz-adv-x="1228" d="M-233 -328l24 90h1239l-24 -90h-1239z" />
<glyph unicode="`" d="M592 1430l127 61l106 -272h-71z" />
<glyph unicode="a" horiz-adv-x="1169" d="M47 268q0 147 100 248q131 131 371 131q184 0 402 -59l8 28q14 53 14 105q0 119 -81 182.5t-234 63.5q-143 0 -303 -56l-19 90q166 59 330 60q190 0 297.5 -87t107.5 -239q0 -59 -20 -137l-160 -598h-98l47 180q-172 -205 -420 -205q-141 0 -241.5 77t-100.5 216z M222.5 126.5q68.5 -58.5 185.5 -58.5q154 0 290 97t176 251l25 92q-197 49 -395 49q-178 0 -277 -98q-73 -73 -73 -175q0 -99 68.5 -157.5z" />
<glyph unicode="b" horiz-adv-x="1339" d="M51 0l402 1495h100l-178 -655q193 229 434 229q182 0 301 -124t119 -316q0 -289 -197 -486q-170 -170 -393 -170q-162 0 -266.5 83t-149.5 210l-71 -266h-101zM274 432q0 -154 101.5 -259t259.5 -105q186 0 321 135q164 164 164 413q0 160 -90 259.5t-233 99.5 q-193 0 -353 -160q-170 -170 -170 -383z" />
<glyph unicode="c" horiz-adv-x="1153" d="M102 426q0 266 195 461q182 182 420 182q150 0 253 -71.5t156 -180.5l-84 -47q-117 205 -331 205q-186 0 -334 -148q-166 -166 -166 -395q0 -168 103.5 -265t248.5 -97q178 0 338 149l68 -65q-185 -179 -412 -179q-182 0 -318.5 123t-136.5 328z" />
<glyph unicode="d" horiz-adv-x="1339" d="M111 414q0 289 196 485q170 170 393 170q162 0 266.5 -83t149.5 -210l193 719h100l-399 -1495h-101l56 203q-193 -229 -435 -230q-182 0 -300.5 124t-118.5 317zM219 426q0 -160 90.5 -259t233.5 -99q193 0 352 159q170 170 170 383q0 154 -101.5 259.5t-258.5 105.5 q-186 0 -322 -135q-164 -164 -164 -414z" />
<glyph unicode="e" horiz-adv-x="1193" d="M102 414q0 131 54.5 258t148.5 221q176 176 402 176q188 0 291.5 -114.5t103.5 -284.5q0 -101 -29 -183h-858q-4 -25 -4 -69q0 -158 96 -253t250 -95q186 0 356 139l60 -72q-195 -162 -416 -162q-201 0 -328 123t-127 316zM233 578h758q8 37 8 86q0 135 -74.5 224 t-219.5 89q-183 0 -322 -139q-109 -109 -150 -260z" />
<glyph unicode="f" horiz-adv-x="741" d="M113 0l256 952h-152l25 92h151l41 152q35 135 113 213q86 86 221 86q117 0 209 -49l-25 -90q-104 49 -188 49q-176 0 -236 -231l-34 -130h376l-24 -92h-377l-256 -952h-100z" />
<glyph unicode="g" horiz-adv-x="1339" d="M-10 -137l73 74q184 -174 424 -175q205 0 322 117q92 92 143 275l37 131q-195 -207 -430 -207q-176 0 -306 111.5t-130 293.5q0 238 170 408q178 178 422 178q287 0 407 -278l68 253h100l-243 -915q-55 -203 -164 -311q-150 -150 -400 -150q-137 0 -268 52.5t-225 142.5z M231 489q0 -150 103 -233.5t244 -83.5q203 0 358 156q141 141 141 311q0 133 -101.5 233.5t-264.5 100.5q-197 0 -338.5 -141.5t-141.5 -342.5z" />
<glyph unicode="h" horiz-adv-x="1247" d="M51 0l402 1495h100l-174 -645q182 219 395 219q156 0 249 -91t93 -241q0 -57 -22 -147l-156 -590h-100l159 598q16 61 17 129q0 117 -72 184.5t-197 67.5q-137 0 -264 -110.5t-172 -278.5l-157 -590h-101z" />
<glyph unicode="i" horiz-adv-x="512" d="M66 0l280 1044h100l-280 -1044h-100zM408 1317l36 137h125l-37 -137h-124z" />
<glyph unicode="j" horiz-adv-x="509" d="M-236 -313l25 90q57 -16 96 -17q115 0 154 142l307 1142h100l-309 -1150q-29 -109 -92 -168.5t-151 -59.5q-68 0 -130 21zM408 1317l36 137h125l-37 -137h-124z" />
<glyph unicode="k" horiz-adv-x="1146" d="M51 0l402 1495h100l-297 -1108l811 657h145l-581 -466l311 -578h-117l-278 516l-328 -262l-67 -254h-101z" />
<glyph unicode="l" horiz-adv-x="512" d="M66 0l401 1495h100l-401 -1495h-100z" />
<glyph unicode="m" horiz-adv-x="1947" d="M51 0l279 1044h100l-51 -194q88 109 173 164t202 55q131 0 208.5 -74.5t96.5 -181.5q156 256 438 256q141 0 233.5 -93t92.5 -239q0 -41 -27 -147l-156 -590h-100l160 598q16 61 16 129q0 115 -67.5 183.5t-180.5 68.5q-127 0 -249.5 -111.5t-165.5 -277.5l-156 -590 h-100l159 598q16 61 17 129q0 115 -67.5 183.5t-180.5 68.5q-127 0 -250 -111.5t-166 -277.5l-157 -590h-101z" />
<glyph unicode="n" horiz-adv-x="1251" d="M51 0l279 1044h100l-51 -194q182 219 395 219q156 0 249 -91t93 -241q0 -57 -22 -147l-156 -590h-100l159 598q16 61 17 129q0 117 -72 184.5t-197 67.5q-137 0 -264 -110.5t-172 -278.5l-157 -590h-101z" />
<glyph unicode="o" horiz-adv-x="1296" d="M104 438q0 254 191 445q186 186 430 186q207 0 336 -130t129 -333q0 -254 -191 -444q-186 -186 -430 -187q-207 0 -336 130.5t-129 332.5zM213 442q0 -174 100.5 -273t266.5 -99q188 0 338 149q163 163 163 380q0 177 -100 277t-266 99q-188 0 -338 -150 q-164 -164 -164 -383z" />
<glyph unicode="p" horiz-adv-x="1339" d="M-37 -328l367 1372h100l-55 -204q193 229 434 229q182 0 301 -124t119 -316q0 -289 -197 -486q-170 -170 -393 -170q-162 0 -266.5 83t-149.5 210l-160 -594h-100zM274 432q0 -154 101.5 -259t259.5 -105q186 0 321 135q164 164 164 413q0 160 -90 259.5t-233 99.5 q-193 0 -353 -160q-170 -170 -170 -383z" />
<glyph unicode="q" horiz-adv-x="1339" d="M111 414q0 289 196 485q170 170 393 170q162 0 266.5 -83t149.5 -210l72 268h100l-366 -1372h-101l144 531q-193 -230 -435 -230q-182 0 -300.5 124t-118.5 317zM219 426q0 -160 90.5 -259t233.5 -99q193 0 352 159q170 170 170 383q0 154 -101.5 259.5t-258.5 105.5 q-186 0 -322 -135q-164 -164 -164 -414z" />
<glyph unicode="r" horiz-adv-x="811" d="M51 0l279 1044h100l-78 -296q224 314 508 314q15 0 29 -1l-29 -111h-8q-188 0 -355 -141t-231 -381l-114 -428h-101z" />
<glyph unicode="s" horiz-adv-x="1013" d="M2 158l72 71q165 -159 380 -159h3q104 0 187 58t83 148q0 63 -48 110.5t-179 96.5q-156 57 -224.5 120t-68.5 161q0 127 107.5 215t279.5 88q211 0 377 -139l-66 -76q-150 123 -321 123q-125 0 -198 -57.5t-73 -137.5q0 -63 47.5 -106t188.5 -99q156 -61 220.5 -124.5 t64.5 -157.5q0 -135 -115 -225.5t-275 -90.5q-262 0 -442 181z" />
<glyph unicode="t" horiz-adv-x="811" d="M172 188q0 47 12 101l178 663h-151l25 92h151l90 334h101l-91 -334h361l-25 -92h-360l-178 -665q-10 -45 -11 -88q0 -125 170 -125q66 0 152 32l-27 -98q-71 -26 -147 -26q-111 0 -180.5 52t-69.5 154z" />
<glyph unicode="u" horiz-adv-x="1247" d="M131 307q0 57 23 148l155 589h101l-160 -598q-16 -61 -17 -129q0 -117 72 -184t197 -67q137 0 264 110.5t172 278.5l158 589h100l-278 -1044h-101l51 195q-182 -220 -395 -220q-156 0 -249 91.5t-93 240.5z" />
<glyph unicode="v" horiz-adv-x="1140" d="M182 1044h109l145 -931l641 931h121l-745 -1052h-86z" />
<glyph unicode="w" horiz-adv-x="1730" d="M203 1044h102l76 -909l559 914h80l72 -914l563 909h110l-665 -1052h-88l-72 895l-553 -895h-84z" />
<glyph unicode="x" horiz-adv-x="1144" d="M-59 0l581 541l-276 503h114l230 -440l459 440h135l-549 -512l289 -532h-115l-242 469l-491 -469h-135z" />
<glyph unicode="y" horiz-adv-x="1163" d="M-180 -262l55 82q74 -59 178 -60q82 0 161 56.5t173 189.5l-213 1038h107l182 -933l629 933h120l-743 -1081q-111 -160 -212 -228.5t-216 -68.5q-119 0 -221 72z" />
<glyph unicode="z" horiz-adv-x="1118" d="M-35 0l17 57l972 897h-704l24 90h869l-17 -57l-972 -897h739l-25 -90h-903z" />
<glyph unicode="{" horiz-adv-x="983" d="M133 549l21 78h53q147 0 223 75q78 78 125 312q45 205 141 305q127 127 412 145l-6 -75q-221 -12 -328 -119q-80 -80 -117 -248q-20 -94 -29.5 -135t-40 -110.5t-69.5 -108.5q-66 -66 -180 -84q141 -43 141 -170q0 -55 -18 -117q-45 -154 -45 -236q0 -217 252 -286 l-29 -64q-168 37 -246 129t-78 213q0 74 47 246q18 66 19 113q0 137 -195 137h-53z" />
<glyph unicode="|" horiz-adv-x="585" d="M39 -262l508 1896h90l-510 -1896h-88z" />
<glyph unicode="}" horiz-adv-x="983" d="M-90 -289l6 76q221 12 328 119q80 80 116 248q20 94 29.5 135t40.5 110.5t70 108.5q66 66 180 84q-141 43 -141 170q0 55 18 117q45 154 45 235q0 217 -252 287l29 63q168 -37 245.5 -129t77.5 -213q0 -74 -47 -245q-18 -66 -18 -113q0 -137 194 -137h54l-21 -78h-53 q-147 0 -223 -76q-78 -78 -125 -311q-45 -205 -141 -305q-127 -127 -412 -146z" />
<glyph unicode="~" horiz-adv-x="942" d="M178 532q51 102 100.5 149.5t112.5 47.5q41 0 68.5 -16.5t68.5 -55.5q63 -61 99 -61q31 0 56.5 27.5t64.5 95.5l77 -31q-51 -102 -100 -149t-113 -47q-41 0 -68.5 16t-68.5 55q-63 61 -98 62q-31 0 -56.5 -27.5t-64.5 -95.5z" />
<glyph unicode="&#xa1;" horiz-adv-x="514" d="M57 0l39 143l277 916h57l-215 -916l-39 -143h-119zM387 1260l47 174h135l-47 -174h-135z" />
<glyph unicode="&#xa2;" horiz-adv-x="1142" d="M154 621q0 274 194 469q182 182 430 182q8 0 26.5 -1t29.5 -1l69 176h103l-78 -193q197 -53 276 -231l-84 -47q-86 156 -233 190l-348 -886q35 -6 73 -7q201 0 367 150l68 -66q-193 -178 -441 -178q-57 0 -98 8l-78 -198h-102l90 227q-121 51 -192.5 159.5t-71.5 246.5z M262 623q0 -111 51.5 -196t143.5 -124l344 873q-6 0 -14.5 1t-14.5 1q-197 0 -344 -148q-166 -165 -166 -407z" />
<glyph unicode="&#xa3;" horiz-adv-x="1277" d="M-4 0l14 51l187 41l143 533h-176l26 98h177l71 268q55 209 164 318q139 139 334 139q258 0 381 -225l-88 -54q-113 182 -299 183q-145 0 -248 -103q-94 -94 -143 -276l-68 -250h610l-26 -98h-611l-141 -529h766l-27 -96h-1046z" />
<glyph unicode="&#xa5;" horiz-adv-x="1433" d="M152 256l24 92h430l53 201h-430l25 92h389l-348 793h121l329 -770l746 770h139l-778 -793h377l-25 -92h-438l-53 -201h438l-25 -92h-438l-67 -256h-107l68 256h-430z" />
<glyph unicode="&#xa7;" horiz-adv-x="1294" d="M137 147l68 76q68 -63 174 -107t225 -44q106 0 178 44t72 115q0 63 -65.5 110.5t-219.5 100.5q-205 72 -295 137.5t-90 161.5q0 121 118 192t286 71h2q-158 72 -158 196q0 117 106.5 185.5t264.5 68.5q135 0 258 -48t194 -120l-67 -76q-68 63 -174.5 107.5t-225.5 44.5 q-106 0 -177.5 -44t-71.5 -116q0 -63 65.5 -110.5t218.5 -100.5q205 -72 295 -137.5t90 -161.5q0 -121 -117.5 -191.5t-285.5 -70.5h-4q160 -70 160 -197q0 -117 -106.5 -185t-264.5 -68q-135 0 -258 48t-195 119zM291 750q0 -59 62.5 -106.5t209.5 -98.5q123 -43 240 -43 q127 0 213 53t86 129q0 59 -62.5 106.5t-210.5 98.5q-125 43 -239 43q-127 0 -213 -53t-86 -129z" />
<glyph unicode="&#xa8;" d="M436 1219l45 163h142l-45 -163h-142zM770 1219l45 163h141l-45 -163h-141z" />
<glyph unicode="&#xa9;" horiz-adv-x="1699" d="M166 629q0 164 63.5 319.5t180.5 272.5q238 238 571 237q295 0 476 -186t181 -467q0 -164 -63.5 -319.5t-179.5 -272.5q-238 -238 -572 -238q-295 0 -476 186.5t-181 467.5zM231 627q0 -252 161 -423t437 -171q299 0 514 215q229 229 230 559q0 252 -161 423t-437 171 q-299 0 -514 -215q-230 -229 -230 -559zM535 643q0 203 141 344q129 129 297 129q197 0 280 -162l-75 -43q-74 123 -205 123q-133 0 -232 -98q-117 -117 -116 -287q0 -109 62.5 -168t158.5 -59q121 0 229 104l58 -57q-125 -129 -293 -129q-129 0 -217 82t-88 221z" />
<glyph unicode="&#xaa;" horiz-adv-x="798" d="M119 600l20 82h500l-21 -82h-499zM217 993q0 98 75 157.5t193 59.5q80 0 199 -30l4 12q8 29 8 55q0 119 -159 119q-78 0 -164 -31l-15 72q98 35 193 35q109 0 168 -48t59 -132q0 -27 -12 -80l-88 -330h-82l29 102q-105 -114 -234 -114q-74 0 -124 42t-50 111zM303 1001 q0 -43 30 -69.5t79 -26.5q78 0 153.5 56.5t96.5 132.5l8 28q-102 25 -185 25q-80 0 -131 -41t-51 -105z" />
<glyph unicode="&#xab;" horiz-adv-x="1054" d="M92 514l4 16l443 428l73 -57l-393 -393l170 -377l-84 -45zM510 514l4 16l442 428l74 -57l-393 -393l170 -377l-84 -45z" />
<glyph unicode="&#xad;" horiz-adv-x="837" d="M152 551l30 115h549l-31 -115h-548z" />
<glyph unicode="&#xae;" horiz-adv-x="851" d="M225 1051q0 170 116.5 286.5t276.5 116.5q141 0 229.5 -90t88.5 -223q0 -170 -117 -287t-276 -117q-141 0 -229.5 90.5t-88.5 223.5zM266 1055q0 -119 76 -199t205 -80q139 0 239 101q109 109 109 260q0 119 -76 198.5t-205 79.5q-139 0 -239 -100q-109 -109 -109 -260z M399 924l97 358h129q131 0 131 -102q0 -45 -31 -80t-88 -43l61 -133h-59l-57 131h-90l-35 -131h-58zM504 1102h84q63 0 90 26q18 18 18 48q0 55 -78 55h-79z" />
<glyph unicode="&#xaf;" d="M401 1272l27 96h623l-27 -96h-623z" />
<glyph unicode="&#xb0;" horiz-adv-x="749" d="M180 1100q0 139 102.5 241.5t237.5 102.5q113 0 185.5 -74t72.5 -184q0 -139 -102.5 -241.5t-237.5 -102.5q-113 0 -185.5 73.5t-72.5 184.5zM272 1108q0 -82 49.5 -131t127.5 -49q92 0 161 69q76 76 76 181q0 82 -49 131t-127 49q-92 0 -162 -70q-76 -76 -76 -180z" />
<glyph unicode="&#xb1;" horiz-adv-x="1269" d="M23 0l26 98h948l-26 -98h-948zM217 733l27 98h424l110 416h103l-111 -416h424l-27 -98h-424l-112 -416h-103l113 416h-424z" />
<glyph unicode="&#xb2;" horiz-adv-x="819" d="M227 872l17 68l444 338q72 55 107.5 100t35.5 103q0 61 -44 96t-115 35q-113 0 -221 -113l-52 45q125 139 281 139q102 0 166.5 -54t64.5 -142q0 -123 -174 -254l-375 -285h443l-21 -76h-557z" />
<glyph unicode="&#xb3;" horiz-adv-x="819" d="M260 1004l64 36q70 -117 206 -116q98 0 162 49t64 129q0 145 -199 145h-35l-24 47l344 293h-408l23 76h512l-19 -66l-342 -288q96 -4 163 -54.5t67 -144.5q0 -111 -90 -184.5t-213 -73.5q-199 0 -275 152z" />
<glyph unicode="&#xb4;" d="M514 1219l254 272l127 -61l-277 -211h-104z" />
<glyph unicode="&#xb6;" horiz-adv-x="995" d="M209 913q0 209 131 340q176 180 537 181h149l-385 -1434h-109l144 539q-254 14 -375 135q-92 92 -92 239z" />
<glyph unicode="&#xb7;" horiz-adv-x="473" d="M168 522l47 174h135l-47 -174h-135z" />
<glyph unicode="&#xb8;" d="M143 -250l256 270h88l-245 -323z" />
<glyph unicode="&#xb9;" horiz-adv-x="665" d="M422 1520v75l237 82h68l-215 -805h-80l191 717z" />
<glyph unicode="&#xba;" horiz-adv-x="798" d="M123 600l20 82h549l-20 -82h-549zM236 1098q0 141 102 243.5t240 102.5q119 0 192.5 -74.5t73.5 -189.5q0 -141 -102.5 -243.5t-239.5 -102.5q-119 0 -192.5 74.5t-73.5 189.5zM322 1102q0 -86 52 -139.5t134 -53.5q96 0 170 74q80 80 80 193q0 86 -52.5 139t-134.5 53 q-96 0 -170 -74q-79 -79 -79 -192z" />
<glyph unicode="&#xbb;" horiz-adv-x="1054" d="M23 141l393 394l-170 376l84 45l213 -428l-4 -16l-443 -428zM440 141l394 394l-170 376l84 45l213 -428l-5 -16l-442 -428z" />
<glyph unicode="&#xbc;" horiz-adv-x="1689" d="M92 0l696 729l662 705h98l-698 -729l-660 -705h-98zM299 1290v76l238 82h67l-215 -805h-80l191 717zM860 254l537 549h100l-147 -551h112l-18 -70h-113l-49 -186h-76l49 186h-389zM954 252h320l121 448z" />
<glyph unicode="&#xbd;" horiz-adv-x="1689" d="M72 0l696 729l662 705h98l-699 -729l-659 -705h-98zM299 1290v76l238 82h67l-215 -805h-80l191 717zM834 0l16 68l444 338q72 55 108 100t36 102q0 61 -44 96t-116 35q-113 0 -221 -112l-51 45q125 139 280 139q102 0 167 -54.5t65 -142.5q0 -123 -175 -254l-374 -284 h442l-20 -76h-557z" />
<glyph unicode="&#xbe;" horiz-adv-x="1843" d="M145 774l64 37q70 -117 207 -117q98 0 161.5 49.5t63.5 128.5q0 145 -199 146h-34l-25 47l344 293h-408l23 76h512l-18 -66l-342 -289q96 -4 162.5 -54t66.5 -144q0 -111 -90 -184.5t-213 -73.5q-199 0 -275 151zM236 0l696 729l661 705h99l-699 -729l-659 -705h-98z M1014 254l536 549h101l-148 -551h113l-19 -70h-112l-49 -186h-76l49 186h-389zM1108 252h319l121 448z" />
<glyph unicode="&#xbf;" horiz-adv-x="1093" d="M104 340q0 193 154 311.5t389 151.5l88 256h66l-62 -332l-14 -10q-231 -16 -371.5 -115.5t-140.5 -259.5q0 -125 88 -194.5t223 -69.5q221 0 402 180l65 -70q-207 -207 -475 -206q-188 0 -300 100t-112 258zM754 1260l47 174h135l-47 -174h-135z" />
<glyph unicode="&#xc0;" horiz-adv-x="1554" d="M-70 0l1055 1444h102l281 -1444h-108l-74 401h-846l-291 -401h-119zM410 498h755l-153 829zM840 1772l118 57l127 -242h-75z" />
<glyph unicode="&#xc1;" horiz-adv-x="1554" d="M-70 0l1055 1444h102l281 -1444h-108l-74 401h-846l-291 -401h-119zM410 498h755l-153 829zM1016 1587l254 242l123 -57l-269 -185h-108z" />
<glyph unicode="&#xc2;" horiz-adv-x="1554" d="M-70 0l1055 1444h102l281 -1444h-108l-74 401h-846l-291 -401h-119zM410 498h755l-153 829zM805 1587l270 219h94l152 -219h-102l-115 125l-184 -125h-115z" />
<glyph unicode="&#xc3;" horiz-adv-x="1554" d="M-70 0l1055 1444h102l281 -1444h-108l-74 401h-846l-291 -401h-119zM410 498h755l-153 829zM784 1589q45 96 91.5 138t105.5 42q41 0 127 -38q90 -39 119 -39q37 0 61.5 20.5t57.5 73.5l73 -21q-45 -96 -91 -137t-105 -41q-41 0 -127 39q-90 39 -119 39 q-37 0 -61.5 -20.5t-57.5 -75.5z" />
<glyph unicode="&#xc4;" horiz-adv-x="1554" d="M-70 0l1055 1444h102l281 -1444h-108l-74 401h-846l-291 -401h-119zM410 498h755l-153 829zM823 1587l43 156h152l-43 -156h-152zM1184 1587l43 156h149l-43 -156h-149z" />
<glyph unicode="&#xc5;" horiz-adv-x="1554" d="M-70 0l1002 1370q-92 47 -92 148q0 92 74.5 155.5t172.5 63.5q84 0 138.5 -48.5t54.5 -122t-50 -132t-126 -78.5l264 -1356h-108l-74 401h-846l-291 -401h-119zM410 498h755l-153 829zM920 1524q0 -51 33.5 -81t86.5 -30q63 0 111.5 42t48.5 106q0 47 -31.5 78.5 t-89.5 31.5q-63 0 -111 -42t-48 -105z" />
<glyph unicode="&#xc6;" horiz-adv-x="2154" d="M-66 0l1252 1434h1108l-27 -99h-883l-151 -563h790l-26 -98h-791l-153 -576h893l-27 -98h-999l108 401h-616l-349 -401h-129zM496 498h557l225 839h-55z" />
<glyph unicode="&#xc7;" horiz-adv-x="1511" d="M188 555q0 182 74 353t203 300q250 250 579 250q188 0 322.5 -85t204.5 -224l-92 -49q-74 129 -177.5 195.5t-263.5 66.5q-279 0 -489 -211q-117 -117 -183.5 -273.5t-66.5 -318.5q0 -223 136 -355t349 -132q152 0 265.5 54t220.5 161l71 -66q-238 -248 -567 -248h-10 l-209 -276l-98 53l217 232q-211 31 -348.5 184t-137.5 389z" />
<glyph unicode="&#xc8;" horiz-adv-x="1329" d="M74 0l385 1434h1009l-26 -99h-903l-152 -563h811l-27 -98h-811l-153 -576h913l-26 -98h-1020zM750 1751l118 57l127 -241h-75z" />
<glyph unicode="&#xc9;" horiz-adv-x="1329" d="M74 0l385 1434h1009l-26 -99h-903l-152 -563h811l-27 -98h-811l-153 -576h913l-26 -98h-1020zM926 1567l254 241l123 -57l-269 -184h-108z" />
<glyph unicode="&#xca;" horiz-adv-x="1329" d="M74 0l385 1434h1009l-26 -99h-903l-152 -563h811l-27 -98h-811l-153 -576h913l-26 -98h-1020zM715 1567l270 219h94l152 -219h-103l-114 125l-185 -125h-114z" />
<glyph unicode="&#xcb;" horiz-adv-x="1329" d="M74 0l385 1434h1009l-26 -99h-903l-152 -563h811l-27 -98h-811l-153 -576h913l-26 -98h-1020zM731 1567l43 155h152l-43 -155h-152zM1092 1567l43 155h149l-43 -155h-149z" />
<glyph unicode="&#xcc;" horiz-adv-x="561" d="M88 0l385 1434h107l-385 -1434h-107zM324 1751l118 57l127 -241h-75z" />
<glyph unicode="&#xcd;" horiz-adv-x="561" d="M88 0l385 1434h107l-385 -1434h-107zM500 1567l254 241l123 -57l-269 -184h-108z" />
<glyph unicode="&#xce;" horiz-adv-x="561" d="M88 0l385 1434h107l-385 -1434h-107zM289 1567l270 219h94l152 -219h-103l-114 125l-185 -125h-114z" />
<glyph unicode="&#xcf;" horiz-adv-x="561" d="M88 0l385 1434h107l-385 -1434h-107zM305 1567l43 155h152l-43 -155h-152zM666 1567l43 155h149l-43 -155h-149z" />
<glyph unicode="&#xd0;" horiz-adv-x="1640" d="M135 0l180 672h-153l26 98h154l178 664h322q365 0 557 -193q158 -158 157 -410q0 -332 -223 -555q-131 -131 -320.5 -203.5t-408.5 -72.5h-469zM268 98h350q389 0 635 246q193 193 193 479q0 222 -133 351q-162 162 -477 161h-236l-151 -565h475l-27 -98h-475z" />
<glyph unicode="&#xd1;" horiz-adv-x="1609" d="M74 0l385 1434h98l645 -1256l338 1256h102l-385 -1434h-77l-660 1282l-344 -1282h-102zM791 1559q45 96 91 138t105 42q41 0 127 -39q90 -39 119 -39q37 0 61.5 20.5t57.5 73.5l73 -20q-45 -96 -91 -137.5t-105 -41.5q-41 0 -127 39q-90 39 -119 39q-37 0 -61.5 -20.5 t-57.5 -75.5z" />
<glyph unicode="&#xd2;" horiz-adv-x="1732" d="M197 590q0 174 70.5 339t193.5 288q242 241 561 241q268 0 443 -177t175 -439q0 -174 -70.5 -339t-193.5 -288q-242 -242 -561 -242q-268 0 -443 177.5t-175 439.5zM307 590q0 -223 141.5 -371.5t366.5 -148.5q272 0 479 206q111 111 173.5 259.5t62.5 306.5 q0 223 -141.5 371.5t-366.5 148.5q-272 0 -479 -207q-111 -111 -173.5 -259t-62.5 -306zM887 1772l119 57l127 -242h-76z" />
<glyph unicode="&#xd3;" horiz-adv-x="1732" d="M197 590q0 174 70.5 339t193.5 288q242 241 561 241q268 0 443 -177t175 -439q0 -174 -70.5 -339t-193.5 -288q-242 -242 -561 -242q-268 0 -443 177.5t-175 439.5zM307 590q0 -223 141.5 -371.5t366.5 -148.5q272 0 479 206q111 111 173.5 259.5t62.5 306.5 q0 223 -141.5 371.5t-366.5 148.5q-272 0 -479 -207q-111 -111 -173.5 -259t-62.5 -306zM1063 1587l254 242l123 -57l-269 -185h-108z" />
<glyph unicode="&#xd4;" horiz-adv-x="1732" d="M197 590q0 174 70.5 339t193.5 288q242 241 561 241q268 0 443 -177t175 -439q0 -174 -70.5 -339t-193.5 -288q-242 -242 -561 -242q-268 0 -443 177.5t-175 439.5zM307 590q0 -223 141.5 -371.5t366.5 -148.5q272 0 479 206q111 111 173.5 259.5t62.5 306.5 q0 223 -141.5 371.5t-366.5 148.5q-272 0 -479 -207q-111 -111 -173.5 -259t-62.5 -306zM852 1587l270 219h95l151 -219h-102l-115 125l-184 -125h-115z" />
<glyph unicode="&#xd5;" horiz-adv-x="1732" d="M197 590q0 174 70.5 339t193.5 288q242 241 561 241q268 0 443 -177t175 -439q0 -174 -70.5 -339t-193.5 -288q-242 -242 -561 -242q-268 0 -443 177.5t-175 439.5zM307 590q0 -223 141.5 -371.5t366.5 -148.5q272 0 479 206q111 111 173.5 259.5t62.5 306.5 q0 223 -141.5 371.5t-366.5 148.5q-272 0 -479 -207q-111 -111 -173.5 -259t-62.5 -306zM831 1589q45 96 91.5 138t105.5 42q41 0 127 -38q90 -39 119 -39q37 0 61.5 20.5t57.5 73.5l73 -21q-45 -96 -91 -137t-105 -41q-41 0 -127 39q-90 39 -119 39q-37 0 -61.5 -20.5 t-57.5 -75.5z" />
<glyph unicode="&#xd6;" horiz-adv-x="1732" d="M197 590q0 174 70.5 339t193.5 288q242 241 561 241q268 0 443 -177t175 -439q0 -174 -70.5 -339t-193.5 -288q-242 -242 -561 -242q-268 0 -443 177.5t-175 439.5zM307 590q0 -223 141.5 -371.5t366.5 -148.5q272 0 479 206q111 111 173.5 259.5t62.5 306.5 q0 223 -141.5 371.5t-366.5 148.5q-272 0 -479 -207q-111 -111 -173.5 -259t-62.5 -306zM868 1587l43 156h152l-43 -156h-152zM1229 1587l43 156h149l-43 -156h-149z" />
<glyph unicode="&#xd7;" horiz-adv-x="1269" d="M147 354l476 375l-275 369l84 63l270 -373l474 377l55 -78l-475 -372l274 -369l-84 -63l-270 372l-473 -376z" />
<glyph unicode="&#xd8;" horiz-adv-x="1732" d="M-23 -12l314 262q-94 154 -94 340q0 174 70.5 339t193.5 288q242 241 561 241q287 0 469 -205l227 191h142l-316 -264q96 -152 96 -338q0 -174 -70.5 -339t-193.5 -288q-242 -242 -561 -242q-291 0 -469 205l-227 -190h-142zM307 590q0 -154 66 -273l1040 871 q-145 174 -391 174q-272 0 -479 -207q-111 -111 -173.5 -259t-62.5 -306zM424 242q141 -172 391 -172q272 0 479 206q111 111 173.5 259.5t62.5 306.5q0 145 -66 270z" />
<glyph unicode="&#xd9;" horiz-adv-x="1548" d="M197 428q0 111 28 221l209 785h107l-222 -834q-18 -74 -18 -164q0 -162 106.5 -262t313.5 -100q203 0 350 147q133 133 201 381l223 832h107l-230 -854q-72 -266 -227 -422q-180 -181 -432 -181q-250 0 -383 125t-133 326zM793 1741l118 57l127 -242h-75z" />
<glyph unicode="&#xda;" horiz-adv-x="1548" d="M197 428q0 111 28 221l209 785h107l-222 -834q-18 -74 -18 -164q0 -162 106.5 -262t313.5 -100q203 0 350 147q133 133 201 381l223 832h107l-230 -854q-72 -266 -227 -422q-180 -181 -432 -181q-250 0 -383 125t-133 326zM969 1556l254 242l123 -57l-269 -185h-108z" />
<glyph unicode="&#xdb;" horiz-adv-x="1548" d="M197 428q0 111 28 221l209 785h107l-222 -834q-18 -74 -18 -164q0 -162 106.5 -262t313.5 -100q203 0 350 147q133 133 201 381l223 832h107l-230 -854q-72 -266 -227 -422q-180 -181 -432 -181q-250 0 -383 125t-133 326zM758 1556l270 220h94l152 -220h-103l-114 125 l-185 -125h-114z" />
<glyph unicode="&#xdc;" horiz-adv-x="1548" d="M197 428q0 111 28 221l209 785h107l-222 -834q-18 -74 -18 -164q0 -162 106.5 -262t313.5 -100q203 0 350 147q133 133 201 381l223 832h107l-230 -854q-72 -266 -227 -422q-180 -181 -432 -181q-250 0 -383 125t-133 326zM776 1556l43 156h152l-43 -156h-152zM1137 1556 l43 156h149l-43 -156h-149z" />
<glyph unicode="&#xdd;" horiz-adv-x="1368" d="M260 1434h117l330 -770l745 770h143l-862 -879l-147 -555h-107l156 582zM870 1556l254 242l123 -57l-268 -185h-109z" />
<glyph unicode="&#xde;" horiz-adv-x="1368" d="M74 0l385 1434h104l-67 -260h340q266 0 395 -130q98 -98 98 -256q0 -197 -129 -325q-186 -186 -579 -187h-365l-76 -276h-106zM281 373h344q346 0 497 151q100 100 101 260q0 117 -74 191q-100 100 -315 100h-365z" />
<glyph unicode="&#xdf;" horiz-adv-x="1269" d="M51 0l275 1024q59 223 178 342q143 143 340 143q166 0 274.5 -93t108.5 -236q0 -311 -434 -432q326 -86 325 -336q0 -182 -180 -300t-487 -116l24 90q266 2 400.5 95t134.5 233q0 219 -371 286l25 93q455 106 454 383q0 106 -75.5 172.5t-206.5 66.5 q-150 0 -257.5 -111.5t-160.5 -310.5l-266 -993h-101z" />
<glyph unicode="&#xe0;" horiz-adv-x="1169" d="M47 268q0 147 100 248q131 131 371 131q184 0 402 -59l8 28q14 53 14 105q0 119 -81 182.5t-234 63.5q-143 0 -303 -56l-19 90q166 59 330 60q190 0 297.5 -87t107.5 -239q0 -59 -20 -137l-160 -598h-98l47 180q-172 -205 -420 -205q-141 0 -241.5 77t-100.5 216z M154 281q0 -96 68.5 -154.5t185.5 -58.5q154 0 290 97t176 251l25 92q-197 49 -395 49q-178 0 -277 -98q-74 -74 -73 -178zM510 1430l127 61l106 -272h-71z" />
<glyph unicode="&#xe1;" horiz-adv-x="1169" d="M47 268q0 147 100 248q131 131 371 131q184 0 402 -59l8 28q14 53 14 105q0 119 -81 182.5t-234 63.5q-143 0 -303 -56l-19 90q166 59 330 60q190 0 297.5 -87t107.5 -239q0 -59 -20 -137l-160 -598h-98l47 180q-172 -205 -420 -205q-141 0 -241.5 77t-100.5 216z M154 281q0 -96 68.5 -154.5t185.5 -58.5q154 0 290 97t176 251l25 92q-197 49 -395 49q-178 0 -277 -98q-74 -74 -73 -178zM670 1219l254 272l127 -61l-277 -211h-104z" />
<glyph unicode="&#xe2;" horiz-adv-x="1169" d="M47 268q0 147 100 248q131 131 371 131q184 0 402 -59l8 28q14 53 14 105q0 119 -81 182.5t-234 63.5q-143 0 -303 -56l-19 90q166 59 330 60q190 0 297.5 -87t107.5 -239q0 -59 -20 -137l-160 -598h-98l47 180q-172 -205 -420 -205q-141 0 -241.5 77t-100.5 216z M154 281q0 -96 68.5 -154.5t185.5 -58.5q154 0 290 97t176 251l25 92q-197 49 -395 49q-178 0 -277 -98q-74 -74 -73 -178zM475 1219l273 249h81l138 -249h-90l-107 139l-197 -139h-98z" />
<glyph unicode="&#xe3;" horiz-adv-x="1169" d="M47 268q0 147 100 248q131 131 371 131q184 0 402 -59l8 28q14 53 14 105q0 119 -81 182.5t-234 63.5q-143 0 -303 -56l-19 90q166 59 330 60q190 0 297.5 -87t107.5 -239q0 -59 -20 -137l-160 -598h-98l47 180q-172 -205 -420 -205q-141 0 -241.5 77t-100.5 216z M154 281q0 -96 68.5 -154.5t185.5 -58.5q154 0 290 97t176 251l25 92q-197 49 -395 49q-178 0 -277 -98q-74 -74 -73 -178zM434 1219q47 109 93 149.5t110 40.5q39 0 129 -43q82 -41 117 -41q37 0 62.5 21.5t58.5 80.5l71 -18q-47 -109 -93 -149.5t-110 -40.5q-39 0 -129 43 q-82 41 -116 41q-37 0 -62.5 -21.5t-58.5 -81.5z" />
<glyph unicode="&#xe4;" horiz-adv-x="1169" d="M47 268q0 147 100 248q131 131 371 131q184 0 402 -59l8 28q14 53 14 105q0 119 -81 182.5t-234 63.5q-143 0 -303 -56l-19 90q166 59 330 60q190 0 297.5 -87t107.5 -239q0 -59 -20 -137l-160 -598h-98l47 180q-172 -205 -420 -205q-141 0 -241.5 77t-100.5 216z M154 281q0 -96 68.5 -154.5t185.5 -58.5q154 0 290 97t176 251l25 92q-197 49 -395 49q-178 0 -277 -98q-74 -74 -73 -178zM492 1219l45 163h141l-45 -163h-141zM825 1219l45 163h142l-45 -163h-142z" />
<glyph unicode="&#xe5;" horiz-adv-x="1169" d="M47 268q0 147 100 248q131 131 371 131q184 0 402 -59l8 28q14 53 14 105q0 119 -81 182.5t-234 63.5q-143 0 -303 -56l-19 90q166 59 330 60q190 0 297.5 -87t107.5 -239q0 -59 -20 -137l-160 -598h-98l47 180q-172 -205 -420 -205q-141 0 -241.5 77t-100.5 216z M154 281q0 -96 68.5 -154.5t185.5 -58.5q154 0 290 97t176 251l25 92q-197 49 -395 49q-178 0 -277 -98q-74 -74 -73 -178zM561 1403q0 90 74 155.5t168 65.5q90 0 147.5 -54t57.5 -134q0 -90 -74 -156t-168 -66q-90 0 -147.5 54.5t-57.5 134.5zM635 1405q0 -53 36 -89 t97 -36q68 0 117 45t49 109q0 53 -36 89t-97 36q-68 0 -117 -45.5t-49 -108.5z" />
<glyph unicode="&#xe6;" horiz-adv-x="1980" d="M47 268q0 147 100 248q131 131 371 131q184 0 402 -59l8 28q14 53 14 105q0 119 -81 182.5t-234 63.5q-143 0 -303 -56l-19 90q166 59 330 59.5t267.5 -65t129.5 -182.5q86 117 206 186.5t255 69.5q188 0 291.5 -114.5t103.5 -284.5q0 -100 -28 -183h-859q-4 -25 -4 -69 q0 -158 96.5 -253t249.5 -95q186 0 357 139l59 -72q-194 -162 -409 -162q-154 0 -261.5 69t-156.5 187q-246 -256 -535 -256q-145 0 -247.5 77t-102.5 216zM154 281q0 -96 70.5 -154.5t189.5 -58.5q256 0 491 256q-14 86 -2 182q-180 51 -399 51q-178 0 -277 -98 q-74 -74 -73 -178zM1020 578h758q8 37 8 86q0 135 -75 224t-220 89q-183 0 -322 -139q-109 -109 -149 -260z" />
<glyph unicode="&#xe7;" horiz-adv-x="1153" d="M102 426q0 266 195 461q182 182 420 182q150 0 253 -71.5t156 -180.5l-84 -47q-117 205 -331 205q-186 0 -334 -148q-166 -166 -166 -395q0 -168 103.5 -265t248.5 -97q178 0 338 149l68 -65q-184 -178 -412 -179h-6l-211 -278l-98 53l221 236q-154 29 -257.5 145.5 t-103.5 294.5z" />
<glyph unicode="&#xe8;" horiz-adv-x="1193" d="M102 414q0 131 54.5 258t148.5 221q176 176 402 176q188 0 291.5 -114.5t103.5 -284.5q0 -101 -29 -183h-858q-4 -25 -4 -69q0 -158 96 -253t250 -95q186 0 356 139l60 -72q-195 -162 -416 -162q-201 0 -328 123t-127 316zM233 578h758q8 37 8 86q0 135 -74.5 224 t-219.5 89q-183 0 -322 -139q-109 -109 -150 -260zM569 1430l127 61l107 -272h-72z" />
<glyph unicode="&#xe9;" horiz-adv-x="1193" d="M102 414q0 131 54.5 258t148.5 221q176 176 402 176q188 0 291.5 -114.5t103.5 -284.5q0 -101 -29 -183h-858q-4 -25 -4 -69q0 -158 96 -253t250 -95q186 0 356 139l60 -72q-195 -162 -416 -162q-201 0 -328 123t-127 316zM233 578h758q8 37 8 86q0 135 -74.5 224 t-219.5 89q-183 0 -322 -139q-109 -109 -150 -260zM729 1219l254 272l127 -61l-276 -211h-105z" />
<glyph unicode="&#xea;" horiz-adv-x="1193" d="M102 414q0 131 54.5 258t148.5 221q176 176 402 176q188 0 291.5 -114.5t103.5 -284.5q0 -101 -29 -183h-858q-4 -25 -4 -69q0 -158 96 -253t250 -95q186 0 356 139l60 -72q-195 -162 -416 -162q-201 0 -328 123t-127 316zM233 578h758q8 37 8 86q0 135 -74.5 224 t-219.5 89q-183 0 -322 -139q-109 -109 -150 -260zM532 1219l273 249h82l137 -249h-90l-107 139l-196 -139h-99z" />
<glyph unicode="&#xeb;" horiz-adv-x="1193" d="M102 414q0 131 54.5 258t148.5 221q176 176 402 176q188 0 291.5 -114.5t103.5 -284.5q0 -101 -29 -183h-858q-4 -25 -4 -69q0 -158 96 -253t250 -95q186 0 356 139l60 -72q-195 -162 -416 -162q-201 0 -328 123t-127 316zM233 578h758q8 37 8 86q0 135 -74.5 224 t-219.5 89q-183 0 -322 -139q-109 -109 -150 -260zM551 1219l45 163h141l-45 -163h-141zM885 1219l45 163h141l-45 -163h-141z" />
<glyph unicode="&#xec;" horiz-adv-x="512" d="M66 0l280 1044h100l-280 -1044h-100zM223 1430l127 61l107 -272h-72z" />
<glyph unicode="&#xed;" horiz-adv-x="512" d="M66 0l280 1044h100l-280 -1044h-100zM383 1219l254 272l127 -61l-277 -211h-104z" />
<glyph unicode="&#xee;" horiz-adv-x="512" d="M66 0l280 1044h100l-280 -1044h-100zM186 1219l273 249h82l137 -249h-90l-107 139l-196 -139h-99z" />
<glyph unicode="&#xef;" horiz-adv-x="512" d="M66 0l280 1044h100l-280 -1044h-100zM205 1219l45 163h141l-45 -163h-141zM539 1219l45 163h141l-45 -163h-141z" />
<glyph unicode="&#xf0;" horiz-adv-x="1273" d="M102 446q0 250 179 428q170 170 397 170q248 0 397 -225q-63 209 -250 477l-286 -129l-41 80l274 125q-47 61 -98 123h131l59 -82l221 100l41 -79l-211 -97q264 -401 265 -712q0 -285 -187 -471q-178 -178 -428 -179q-209 0 -336 134.5t-127 336.5zM211 453 q0 -172 98 -277.5t266 -105.5q197 0 346.5 149.5t149.5 353.5q0 162 -108.5 271.5t-282.5 109.5q-184 0 -318 -133q-152 -152 -151 -368z" />
<glyph unicode="&#xf1;" horiz-adv-x="1251" d="M51 0l279 1044h100l-51 -194q182 219 395 219q156 0 249 -91t93 -241q0 -57 -22 -147l-156 -590h-100l159 598q16 61 17 129q0 117 -72 184.5t-197 67.5q-137 0 -264 -110.5t-172 -278.5l-157 -590h-101zM514 1219q47 109 93 149.5t110 40.5q39 0 129 -43q82 -41 117 -41 q37 0 62 21.5t58 80.5l72 -18q-47 -109 -93 -149.5t-110 -40.5q-39 0 -129 43q-82 41 -116 41q-37 0 -63 -21.5t-58 -81.5z" />
<glyph unicode="&#xf2;" horiz-adv-x="1296" d="M104 438q0 254 191 445q186 186 430 186q207 0 336 -130t129 -333q0 -254 -191 -444q-186 -186 -430 -187q-207 0 -336 130.5t-129 332.5zM213 442q0 -174 100.5 -273t266.5 -99q188 0 338 149q164 164 163 383q0 174 -100 273.5t-266 99.5q-188 0 -338 -150 q-164 -164 -164 -383zM602 1430l127 61l107 -272h-72z" />
<glyph unicode="&#xf3;" horiz-adv-x="1296" d="M104 438q0 254 191 445q186 186 430 186q207 0 336 -130t129 -333q0 -254 -191 -444q-186 -186 -430 -187q-207 0 -336 130.5t-129 332.5zM213 442q0 -174 100.5 -273t266.5 -99q188 0 338 149q164 164 163 383q0 174 -100 273.5t-266 99.5q-188 0 -338 -150 q-164 -164 -164 -383zM762 1219l254 272l127 -61l-277 -211h-104z" />
<glyph unicode="&#xf4;" horiz-adv-x="1296" d="M104 438q0 254 191 445q186 186 430 186q207 0 336 -130t129 -333q0 -254 -191 -444q-186 -186 -430 -187q-207 0 -336 130.5t-129 332.5zM213 442q0 -174 100.5 -273t266.5 -99q188 0 338 149q164 164 163 383q0 174 -100 273.5t-266 99.5q-188 0 -338 -150 q-164 -164 -164 -383zM565 1219l273 249h82l137 -249h-90l-107 139l-196 -139h-99z" />
<glyph unicode="&#xf5;" horiz-adv-x="1296" d="M104 438q0 254 191 445q186 186 430 186q207 0 336 -130t129 -333q0 -254 -191 -444q-186 -186 -430 -187q-207 0 -336 130.5t-129 332.5zM213 442q0 -174 100.5 -273t266.5 -99q188 0 338 149q164 164 163 383q0 174 -100 273.5t-266 99.5q-188 0 -338 -150 q-164 -164 -164 -383zM526 1219q47 109 93.5 149.5t109.5 40.5q39 0 129 -43q82 -41 117 -41q37 0 62.5 21.5t58.5 80.5l71 -18q-47 -109 -93 -149.5t-109 -40.5q-39 0 -129 43q-82 41 -117 41q-37 0 -62.5 -21.5t-58.5 -81.5z" />
<glyph unicode="&#xf6;" horiz-adv-x="1296" d="M104 438q0 254 191 445q186 186 430 186q207 0 336 -130t129 -333q0 -254 -191 -444q-186 -186 -430 -187q-207 0 -336 130.5t-129 332.5zM213 442q0 -174 100.5 -273t266.5 -99q188 0 338 149q164 164 163 383q0 174 -100 273.5t-266 99.5q-188 0 -338 -150 q-164 -164 -164 -383zM584 1219l45 163h141l-45 -163h-141zM918 1219l45 163h141l-45 -163h-141z" />
<glyph unicode="&#xf7;" horiz-adv-x="1269" d="M180 672l27 98h991l-27 -98h-991zM477 236l49 182h164l-49 -182h-164zM688 1024l49 182h164l-49 -182h-164z" />
<glyph unicode="&#xf8;" horiz-adv-x="1296" d="M-74 -12l244 198q-66 109 -66 252q0 254 191 445q186 186 430 186q215 0 346 -143l160 131h137l-244 -201q66 -111 66 -250q0 -254 -191 -444q-186 -186 -430 -187q-217 0 -348 142l-158 -129h-137zM213 442q0 -106 39 -188l743 608q-100 113 -280 113q-188 0 -338 -150 q-164 -164 -164 -383zM299 180q98 -111 281 -110q188 0 338 149q163 164 163 383q0 104 -39 189z" />
<glyph unicode="&#xf9;" horiz-adv-x="1247" d="M131 307q0 57 23 148l155 589h101l-160 -598q-16 -61 -17 -129q0 -117 72 -184t197 -67q137 0 264 110.5t172 278.5l158 589h100l-278 -1044h-101l51 195q-182 -220 -395 -220q-156 0 -249 91.5t-93 240.5zM565 1430l127 61l107 -272h-72z" />
<glyph unicode="&#xfa;" horiz-adv-x="1247" d="M131 307q0 57 23 148l155 589h101l-160 -598q-16 -61 -17 -129q0 -117 72 -184t197 -67q137 0 264 110.5t172 278.5l158 589h100l-278 -1044h-101l51 195q-182 -220 -395 -220q-156 0 -249 91.5t-93 240.5zM725 1219l254 272l127 -61l-277 -211h-104z" />
<glyph unicode="&#xfb;" horiz-adv-x="1247" d="M131 307q0 57 23 148l155 589h101l-160 -598q-16 -61 -17 -129q0 -117 72 -184t197 -67q137 0 264 110.5t172 278.5l158 589h100l-278 -1044h-101l51 195q-182 -220 -395 -220q-156 0 -249 91.5t-93 240.5zM530 1219l273 249h82l137 -249h-90l-107 139l-196 -139h-99z " />
<glyph unicode="&#xfc;" horiz-adv-x="1247" d="M131 307q0 57 23 148l155 589h101l-160 -598q-16 -61 -17 -129q0 -117 72 -184t197 -67q137 0 264 110.5t172 278.5l158 589h100l-278 -1044h-101l51 195q-182 -220 -395 -220q-156 0 -249 91.5t-93 240.5zM547 1219l45 163h141l-45 -163h-141zM881 1219l45 163h141 l-45 -163h-141z" />
<glyph unicode="&#xfd;" horiz-adv-x="1163" d="M-180 -262l55 82q74 -59 178 -60q82 0 161 56.5t173 189.5l-213 1038h107l182 -933l629 933h120l-743 -1081q-111 -160 -212 -228.5t-216 -68.5q-119 0 -221 72zM649 1219l254 272l127 -61l-276 -211h-105z" />
<glyph unicode="&#xfe;" horiz-adv-x="1339" d="M-37 -328l490 1823h100l-178 -655q193 229 434 229q182 0 301 -124t119 -316q0 -289 -197 -486q-170 -170 -393 -170q-162 0 -266.5 83t-149.5 210l-160 -594h-100zM274 432q0 -154 101.5 -259t259.5 -105q186 0 321 135q164 164 164 413q0 160 -90 259.5t-233 99.5 q-193 0 -353 -160q-170 -170 -170 -383z" />
<glyph unicode="&#xff;" horiz-adv-x="1163" d="M-180 -262l55 82q74 -59 178 -60q82 0 161 56.5t173 189.5l-213 1038h107l182 -933l629 933h120l-743 -1081q-111 -160 -212 -228.5t-216 -68.5q-119 0 -221 72zM471 1219l45 163h141l-45 -163h-141zM805 1219l45 163h141l-45 -163h-141z" />
<glyph unicode="&#x152;" horiz-adv-x="2330" d="M188 602q0 332 224 555q131 131 320.5 204t408.5 73h1329l-27 -99h-880l-152 -563h789l-27 -98h-789l-153 -576h891l-27 -98h-1192q-365 0 -557 193q-158 158 -158 409zM299 610q0 -217 133 -350q162 -162 477 -162h215l332 1237h-330q-389 0 -634 -245 q-193 -193 -193 -480z" />
<glyph unicode="&#x153;" horiz-adv-x="2146" d="M104 438q0 254 191 445q186 186 430 186q172 0 284.5 -94t145.5 -240q180 334 504 334q188 0 291.5 -114.5t103.5 -284.5q0 -101 -29 -183h-858q-4 -25 -4 -69q0 -158 96.5 -253t249.5 -95q186 0 357 139l59 -72q-195 -162 -409 -162q-166 0 -283 87.5t-150 230.5 q-84 -139 -217 -228.5t-301 -89.5q-203 0 -332 130.5t-129 332.5zM213 442q0 -174 100.5 -273t266.5 -99q188 0 338 149q164 164 163 383q0 174 -100 273.5t-266 99.5q-188 0 -338 -150q-164 -164 -164 -383zM1186 578h758q8 37 8 86q0 135 -75 224t-220 89 q-183 0 -322 -139q-109 -109 -149 -260z" />
<glyph unicode="&#x178;" horiz-adv-x="1368" d="M260 1434h117l330 -770l745 770h143l-862 -879l-147 -555h-107l156 582zM676 1556l43 156h151l-43 -156h-151zM1036 1556l43 156h150l-43 -156h-150z" />
<glyph unicode="&#x2c6;" d="M455 1219l272 249h82l137 -249h-90l-106 139l-197 -139h-98z" />
<glyph unicode="&#x2dc;" d="M399 1219q47 109 93.5 149.5t109.5 40.5q39 0 129 -43q82 -41 117 -41q37 0 62.5 21.5t58.5 80.5l71 -18q-47 -109 -93 -149.5t-109 -40.5q-39 0 -129 43q-82 41 -117 41q-37 0 -62.5 -21.5t-58.5 -81.5z" />
<glyph unicode="&#x2000;" horiz-adv-x="914" />
<glyph unicode="&#x2001;" horiz-adv-x="1829" />
<glyph unicode="&#x2002;" horiz-adv-x="914" />
<glyph unicode="&#x2003;" horiz-adv-x="1829" />
<glyph unicode="&#x2004;" horiz-adv-x="609" />
<glyph unicode="&#x2005;" horiz-adv-x="457" />
<glyph unicode="&#x2006;" horiz-adv-x="304" />
<glyph unicode="&#x2007;" horiz-adv-x="304" />
<glyph unicode="&#x2008;" horiz-adv-x="228" />
<glyph unicode="&#x2009;" horiz-adv-x="365" />
<glyph unicode="&#x200a;" horiz-adv-x="101" />
<glyph unicode="&#x2010;" horiz-adv-x="837" d="M152 551l30 115h549l-31 -115h-548z" />
<glyph unicode="&#x2011;" horiz-adv-x="837" d="M152 551l30 115h549l-31 -115h-548z" />
<glyph unicode="&#x2012;" horiz-adv-x="837" d="M152 551l30 115h549l-31 -115h-548z" />
<glyph unicode="&#x2013;" horiz-adv-x="1081" d="M152 555l28 107h795l-29 -107h-794z" />
<glyph unicode="&#x2014;" horiz-adv-x="1839" d="M152 555l28 107h1553l-29 -107h-1552z" />
<glyph unicode="&#x2018;" horiz-adv-x="473" d="M301 1051l41 151q29 106 81 158.5t155 81.5l14 -49q-141 -49 -164 -168h55l-47 -174h-135z" />
<glyph unicode="&#x2019;" horiz-adv-x="473" d="M248 1092q141 49 164 168h-56l47 174h136l-41 -152q-31 -106 -82.5 -158.5t-153.5 -81.5z" />
<glyph unicode="&#x201a;" horiz-adv-x="473" d="M-80 -168q141 49 164 168h-55l47 174h135l-41 -151q-31 -106 -82.5 -158.5t-153.5 -81.5z" />
<glyph unicode="&#x201c;" horiz-adv-x="841" d="M299 1051l41 151q29 106 81 158.5t154 81.5l15 -49q-141 -49 -164 -168h55l-47 -174h-135zM668 1051l41 151q29 106 81 158.5t154 81.5l14 -49q-141 -49 -163 -168h55l-47 -174h-135z" />
<glyph unicode="&#x201d;" horiz-adv-x="841" d="M246 1092q141 49 164 168h-56l47 174h136l-41 -152q-31 -106 -82.5 -158.5t-153.5 -81.5zM614 1092q141 49 164 168h-55l47 174h135l-41 -152q-31 -106 -82 -158.5t-153 -81.5z" />
<glyph unicode="&#x201e;" horiz-adv-x="843" d="M-80 -168q141 49 164 168h-55l47 174h135l-41 -151q-31 -106 -82.5 -158.5t-153.5 -81.5zM291 -168q141 49 164 168h-56l47 174h136l-41 -151q-31 -106 -82.5 -158.5t-153.5 -81.5z" />
<glyph unicode="&#x2022;" horiz-adv-x="962" d="M260 678q0 129 92 221q88 88 201 88q94 0 154.5 -60.5t60.5 -162.5q0 -129 -92 -221q-88 -88 -201 -88q-94 0 -154.5 60t-60.5 163z" />
<glyph unicode="&#x2026;" horiz-adv-x="1398" d="M29 0l47 174h135l-47 -174h-135zM492 0l47 174h135l-47 -174h-135zM954 0l47 174h136l-47 -174h-136z" />
<glyph unicode="&#x202f;" horiz-adv-x="365" />
<glyph unicode="&#x2039;" horiz-adv-x="636" d="M92 514l4 16l443 428l73 -57l-393 -393l170 -377l-84 -45z" />
<glyph unicode="&#x203a;" horiz-adv-x="636" d="M23 143l393 394l-170 376l84 45l213 -428l-4 -16l-443 -428z" />
<glyph unicode="&#x205f;" horiz-adv-x="457" />
<glyph unicode="&#x20ac;" horiz-adv-x="1400" d="M76 502l26 98h162q6 129 43 252h-139l27 98h147q78 186 201 307q201 201 467 201q170 0 284.5 -90t163.5 -235l-92 -37q-55 131 -142 198.5t-233 67.5q-203 0 -368 -166q-104 -104 -166 -246h616l-26 -98h-627q-37 -111 -47 -252h608l-27 -98h-581q10 -195 112.5 -312.5 t278.5 -117.5q231 0 412 200l71 -61q-211 -236 -485 -236q-211 0 -349.5 142.5t-148.5 384.5h-188z" />
<glyph unicode="&#x2122;" horiz-adv-x="1413" d="M268 1364l21 70h485l-20 -70h-207l-160 -561h-72l160 561h-207zM737 803l181 631h65l147 -375l345 375h84l-181 -631h-71l145 504l-342 -365h-10l-146 365l-145 -504h-72z" />
<glyph unicode="&#x25fc;" horiz-adv-x="1044" d="M0 0v1044h1044v-1044h-1044z" />
</font>
</defs>
</svg>
