<?xml version="1.0" standalone="no"?>
<!DOCTYPE svg PUBLIC "-//W3C//DTD SVG 1.1//EN" "http://www.w3.org/Graphics/SVG/1.1/DTD/svg11.dtd" >
<svg xmlns="http://www.w3.org/2000/svg">
<metadata></metadata>
<defs>
<font id="gmimedium" horiz-adv-x="1712" >
<font-face units-per-em="2048" ascent="1638" descent="-410" />
<missing-glyph horiz-adv-x="614" />
<glyph unicode="&#xfb01;" horiz-adv-x="1398" d="M68 0l233 868h-137l57 213h135l21 76q37 154 125 242q106 106 289 106q125 0 213 -37l-56 -206q-78 33 -151 32q-137 0 -179 -151l-16 -62h299l-57 -213h-295l-234 -868h-247zM836 0l290 1081h248l-291 -1081h-247zM1161 1247l64 236h268l-66 -236h-266z" />
<glyph unicode="&#xfb02;" horiz-adv-x="1398" d="M68 0l233 868h-137l57 213h135l21 76q37 154 125 242q106 106 289 106q125 0 213 -37l-56 -206q-78 33 -151 32q-137 0 -179 -151l-16 -62h299l-57 -213h-295l-234 -868h-247zM836 0l401 1495h248l-402 -1495h-247z" />
<glyph unicode="&#xfb03;" horiz-adv-x="2209" d="M68 0l233 868h-137l57 213h135l21 76q37 154 125 242q106 106 289 106q125 0 213 -37l-56 -206q-78 33 -151 32q-137 0 -179 -151l-16 -62h299l-57 -213h-295l-234 -868h-247zM879 0l233 868h-137l57 213h135l21 76q37 154 125 242q106 106 289 106q125 0 213 -37 l-56 -206q-78 33 -151 32q-137 0 -178 -151l-17 -62h299l-57 -213h-295l-234 -868h-247zM1647 0l290 1081h248l-291 -1081h-247zM1972 1247l64 236h268l-66 -236h-266z" />
<glyph unicode="&#xfb04;" horiz-adv-x="2209" d="M68 0l233 868h-137l57 213h135l21 76q37 154 125 242q106 106 289 106q125 0 213 -37l-56 -206q-78 33 -151 32q-137 0 -179 -151l-16 -62h299l-57 -213h-295l-234 -868h-247zM879 0l233 868h-137l57 213h135l21 76q37 154 125 242q106 106 289 106q125 0 213 -37 l-56 -206q-78 33 -151 32q-137 0 -178 -151l-17 -62h299l-57 -213h-295l-234 -868h-247zM1647 0l401 1495h248l-402 -1495h-247z" />
<glyph horiz-adv-x="0" />
<glyph unicode="&#xd;" horiz-adv-x="681" />
<glyph unicode=" "  horiz-adv-x="614" />
<glyph unicode="&#x09;" horiz-adv-x="614" />
<glyph unicode="&#xa0;" horiz-adv-x="614" />
<glyph unicode="!" horiz-adv-x="620" d="M29 0l75 283h273l-76 -283h-272zM217 455l166 907l20 72h291l-20 -72l-320 -907h-137z" />
<glyph unicode="&#x22;" horiz-adv-x="1009" d="M205 821l176 613h283l-2 -11l-326 -602h-131zM662 821l178 613h282l-4 -11l-325 -602h-131z" />
<glyph unicode="#" horiz-adv-x="1406" d="M37 330l57 213h209l123 356h-215l57 213h232l112 322h219l-112 -322h336l112 322h219l-112 -322h190l-55 -213h-211l-123 -356h215l-55 -213h-236l-112 -330h-219l114 330h-336l-114 -330h-219l114 330h-190zM522 543h334l125 356h-336z" />
<glyph unicode="$" horiz-adv-x="1292" d="M-8 260l184 156q131 -145 307 -185l117 400q-176 66 -262 146.5t-86 226.5q0 184 154.5 307t381.5 123q6 0 19.5 -1t19.5 -1l37 120h178l-41 -143q190 -47 326 -184l-170 -168q-111 100 -227 137l-111 -383q172 -63 256 -147t84 -228q0 -193 -159.5 -314.5t-401.5 -121.5 h-12l-60 -201h-178l64 217q-272 51 -420 244zM510 1030q0 -53 35 -88t127 -74l100 349q-125 0 -193.5 -53.5t-68.5 -133.5zM643 217q119 4 187.5 57.5t68.5 137.5q0 53 -35 90t-116 73z" />
<glyph unicode="%" horiz-adv-x="1765" d="M127 0l690 715l692 719h224l-691 -715l-692 -719h-223zM178 1018q0 188 131 319q113 113 264 113q135 0 220.5 -87t85.5 -222q0 -190 -134 -320q-112 -112 -262 -112q-137 0 -221 86t-84 223zM348 1026q0 -78 39 -122t106.5 -44t127.5 55q86 90 86 218q0 78 -38 121.5 t-108 43.5q-68 0 -127 -55q-86 -90 -86 -217zM981 293q0 190 133 319q113 113 262 113q137 0 221 -86t84 -223q0 -188 -131 -320q-112 -112 -264 -112q-135 0 -220 87t-85 222zM1151 301q0 -78 38.5 -122t106.5 -44q72 0 127 55q88 88 88 218q0 78 -38.5 121.5t-106.5 43.5 q-72 0 -127 -55q-88 -88 -88 -217z" />
<glyph unicode="&#x26;" horiz-adv-x="1421" d="M51 356q0 150 107.5 272t326.5 187q-80 139 -79 256q0 160 121.5 273.5t310.5 113.5q168 0 272 -92t104 -238q0 -268 -409 -397l201 -272q104 115 192 262l158 -107q-119 -184 -236 -311l156 -213l-186 -119l-132 183q-219 -174 -464 -174q-195 0 -319 101t-124 275z M293 373q0 -84 60 -134.5t169 -50.5q158 0 320 123l-254 357q-150 -49 -222.5 -127t-72.5 -168zM629 1069q0 -88 69 -192q162 51 225.5 107t63.5 130q0 59 -43 102.5t-119 43.5q-84 0 -140 -56.5t-56 -134.5z" />
<glyph unicode="'" horiz-adv-x="550" d="M205 821l176 613h283l-2 -11l-326 -602h-131z" />
<glyph unicode="(" horiz-adv-x="903" d="M143 434q0 401 303 709q201 199 508 321l90 -184q-236 -106 -393 -264q-254 -254 -254 -574q0 -297 271 -577l-154 -156q-371 305 -371 725z" />
<glyph unicode=")" horiz-adv-x="903" d="M-119 -102q236 106 393 264q254 254 254 573q0 297 -270 578l154 155q371 -305 370 -725q0 -401 -303 -708q-201 -199 -508 -322z" />
<glyph unicode="*" horiz-adv-x="880" d="M242 1096l254 37l-199 159l102 103l158 -199l39 250l137 -37l-92 -235l238 92l39 -140l-254 -39l200 -157l-104 -105l-158 199l-37 -248l-139 35l92 236l-237 -93z" />
<glyph unicode="+" horiz-adv-x="1298" d="M158 608l61 228h391l105 389h235l-104 -389h393l-61 -228h-394l-104 -391h-234l105 391h-393z" />
<glyph unicode="," horiz-adv-x="600" d="M-111 -193q207 29 236 193h-107l76 283h273l-64 -240q-45 -172 -139 -250t-256 -90z" />
<glyph unicode="-" horiz-adv-x="841" d="M109 506l65 244h606l-65 -244h-606z" />
<glyph unicode="." horiz-adv-x="600" d="M18 0l76 283h273l-76 -283h-273z" />
<glyph unicode="/" horiz-adv-x="1067" d="M-268 -262l1417 1896h237l-1417 -1896h-237z" />
<glyph unicode="0" horiz-adv-x="1482" d="M139 553q0 195 74 382t205 318q205 205 481 205q246 0 390.5 -158.5t144.5 -418.5q0 -195 -74 -382.5t-205 -318.5q-205 -205 -479 -205q-246 0 -391.5 159t-145.5 419zM399 553q0 -162 78 -256t217 -94q145 0 264 123q100 98 158 250.5t58 304.5q0 162 -78 256t-217 94 q-145 0 -265 -123q-98 -98 -156.5 -250.5t-58.5 -304.5z" />
<glyph unicode="1" horiz-adv-x="827" d="M193 0l315 1174l-272 -70l-5 217l424 123h174l-387 -1444h-249z" />
<glyph unicode="2" horiz-adv-x="1241" d="M-55 0l55 205l760 549q115 84 168 152.5t53 144.5q0 82 -58.5 129t-160.5 47q-172 0 -363 -187l-155 162q227 252 530 252q209 0 338 -105.5t129 -273.5q0 -129 -74.5 -235.5t-251.5 -233.5l-528 -385h670l-60 -221h-1052z" />
<glyph unicode="3" horiz-adv-x="1239" d="M-18 250l190 135q121 -182 340 -182q137 0 229.5 72.5t92.5 175.5q0 98 -84 149t-234 51h-78l-16 154l487 409h-610l59 220h955l-51 -189l-512 -418q156 -27 248 -114.5t92 -239.5q0 -188 -136 -323q-173 -175 -454 -175q-367 0 -518 275z" />
<glyph unicode="4" horiz-adv-x="1341" d="M41 510l1020 934h244l-246 -916h205l-56 -206h-204l-86 -322h-240l86 322h-696zM362 528h457l154 572z" />
<glyph unicode="5" horiz-adv-x="1243" d="M-4 233l182 148q145 -176 357 -176q150 0 246 82t96 194q0 98 -77 159.5t-214 61.5q-111 0 -234 -59l-131 107l223 684h842l-61 -224h-615l-108 -329q90 33 184 32q203 0 327 -110.5t124 -296.5q0 -203 -150 -348q-180 -181 -473 -181q-160 0 -301 73t-217 183z" />
<glyph unicode="6" horiz-adv-x="1314" d="M135 508q0 215 75 410.5t208 328.5q215 211 502 211q262 0 436 -174l-152 -178q-131 125 -305 125q-178 0 -305 -129q-141 -141 -178 -340q55 66 153.5 112t210.5 46q193 0 318 -112t125 -294q0 -211 -158 -364q-170 -175 -422 -175q-231 0 -362 131q-145 145 -146 402z M381 426q0 -100 65 -162q74 -74 199 -74q143 0 238 95q84 84 84 200q0 98 -69 163t-187 65q-150 0 -248 -95q-82 -86 -82 -192z" />
<glyph unicode="7" horiz-adv-x="1228" d="M61 0l914 1212h-709l60 222h1007l-51 -191l-924 -1243h-297z" />
<glyph unicode="8" horiz-adv-x="1343" d="M70 377q0 158 106.5 258t282.5 137q-86 41 -137.5 117t-51.5 168q0 158 145.5 277.5t385.5 119.5q219 0 358 -106.5t139 -272.5q0 -137 -90 -233.5t-239 -128.5q102 -39 165.5 -120t63.5 -192q0 -174 -163 -297.5t-423 -123.5q-229 0 -385.5 112.5t-156.5 284.5zM319 397 q-2 -92 83.5 -151.5t222.5 -59.5q141 0 232 63.5t93 164.5q0 90 -85 151.5t-222 61.5q-143 0 -233.5 -66.5t-90.5 -163.5zM508 1030q-2 -86 71.5 -143.5t192.5 -57.5q127 0 207 63.5t80 154.5q2 86 -71 142t-197 56q-121 0 -201 -61.5t-82 -153.5z" />
<glyph unicode="9" horiz-adv-x="1314" d="M39 164l151 180q152 -141 322 -141q176 0 305 131q131 129 174 323q-57 -66 -153.5 -111.5t-210.5 -45.5q-195 0 -319 111.5t-124 299.5q0 217 158 375q172 172 424 172q233 0 362 -129q145 -145 146 -424q0 -205 -76 -394t-211 -325q-210 -211 -489 -211 q-264 0 -459 189zM440 940q0 -104 69.5 -168.5t192.5 -64.5q145 0 240 94q86 86 86 205q0 98 -65 163q-74 74 -199 74q-143 0 -236 -92q-88 -88 -88 -211z" />
<glyph unicode=":" horiz-adv-x="606" d="M23 0l75 283h273l-76 -283h-272zM238 801l75 280h273l-76 -280h-272z" />
<glyph unicode=";" horiz-adv-x="606" d="M-109 -193q207 29 236 193h-104l75 283h273l-64 -240q-47 -172 -141 -250t-256 -90zM238 801l75 280h273l-76 -280h-272z" />
<glyph unicode="&#x3c;" horiz-adv-x="1298" d="M154 610l59 221l1102 453l-70 -248l-817 -325l643 -328l-59 -225z" />
<glyph unicode="=" horiz-adv-x="1298" d="M121 350l61 230h959l-62 -230h-958zM258 862l61 230h959l-61 -230h-959z" />
<glyph unicode="&#x3e;" horiz-adv-x="1298" d="M76 158l67 248l820 325l-646 328l62 225l858 -453l-59 -221z" />
<glyph unicode="?" horiz-adv-x="1107" d="M201 1249q199 203 493 203q203 0 323 -106.5t120 -262.5q0 -184 -139.5 -299.5t-391.5 -152.5l-67 -176h-166l47 331l12 11q209 14 324.5 80.5t115.5 177.5q0 80 -55 124t-155 44q-176 0 -326 -140zM203 0l76 283h272l-76 -283h-272z" />
<glyph unicode="@" horiz-adv-x="2007" d="M119 475q0 195 78.5 377t212 315t319.5 214t391 81q373 0 596 -205.5t223 -504.5q0 -293 -139 -454t-325 -161q-104 0 -176 46t-99 126q-156 -174 -344 -174q-139 0 -233.5 92t-94.5 252q0 233 157 396t353.5 163t282.5 -166l45 148l188 -51l-153 -488q-23 -80 -23 -114 q0 -66 39 -103t105 -37q123 0 229.5 142.5t106.5 382.5q0 268 -202 451t-536 183q-252 0 -465 -125.5t-333.5 -335.5t-120.5 -450q0 -319 215 -520t559 -201q213 0 420 92l32 -67q-214 -101 -452 -101q-381 0 -618.5 222.5t-237.5 574.5zM745 506q0 -92 51.5 -144.5 t137.5 -52.5q123 0 224.5 107.5t101.5 247.5q0 90 -56.5 144t-148.5 54q-121 0 -215.5 -105.5t-94.5 -250.5z" />
<glyph unicode="A" horiz-adv-x="1562" d="M-102 0l1017 1444h242l244 -1444h-258l-56 346h-677l-238 -346h-274zM563 569h494l-92 580z" />
<glyph unicode="B" horiz-adv-x="1468" d="M39 0l385 1434h549q227 0 348 -95.5t121 -248.5q0 -143 -90 -237.5t-238 -127.5q223 -86 223 -293q0 -195 -162.5 -313.5t-447.5 -118.5h-688zM346 223h416q150 0 236.5 59.5t86.5 163.5q0 80 -67.5 125t-183.5 45h-383zM510 829h354q152 0 238 57.5t86 162.5 q0 161 -235 161h-3h-340z" />
<glyph unicode="C" horiz-adv-x="1495" d="M154 586q0 172 68.5 332.5t191.5 283.5q256 256 606 256q383 0 559 -307l-209 -141q-70 106 -158 161.5t-221 55.5q-211 0 -383 -168q-192 -192 -192 -460q0 -179 108.5 -284.5t282.5 -105.5q113 0 200 40t179 122l166 -168q-234 -228 -551 -228q-283 0 -465 166 t-182 445z" />
<glyph unicode="D" horiz-adv-x="1587" d="M39 0l385 1434h389q375 0 561 -187q156 -156 156 -418q0 -330 -232 -561q-268 -268 -745 -268h-514zM352 229h232q330 0 524 195q160 160 160 395q-1 164 -101 264q-121 121 -372 121h-179z" />
<glyph unicode="E" horiz-adv-x="1351" d="M39 0l385 1434h1053l-62 -226h-801l-100 -374h711l-62 -224h-708l-105 -385h813l-61 -225h-1063z" />
<glyph unicode="F" horiz-adv-x="1353" d="M39 0l385 1434h1067l-61 -230h-816l-104 -391h723l-62 -229h-722l-156 -584h-254z" />
<glyph unicode="G" horiz-adv-x="1601" d="M152 592q0 168 68.5 325.5t191.5 280.5q260 260 628 260q387 0 568 -254l-189 -160q-152 182 -397 183q-244 0 -420 -176q-186 -186 -186 -451q0 -184 114.5 -288.5t294.5 -104.5q170 0 303 74l89 301h-367l59 219h611l-195 -686q-235 -140 -516 -140q-270 0 -463.5 163 t-193.5 454z" />
<glyph unicode="H" horiz-adv-x="1548" d="M39 0l385 1434h254l-160 -596h674l160 596h252l-385 -1434h-252l161 604h-673l-162 -604h-254z" />
<glyph unicode="I" horiz-adv-x="649" d="M53 0l385 1434h254l-385 -1434h-254z" />
<glyph unicode="J" horiz-adv-x="1161" d="M-59 246l184 147q104 -180 274 -180q125 0 213 88q78 74 136 299l223 834h260l-240 -891q-43 -158 -87 -250t-116 -166q-149 -147 -399 -147q-147 0 -264 70.5t-184 195.5z" />
<glyph unicode="K" horiz-adv-x="1480" d="M39 0l385 1434h254l-195 -723l840 723h346l-729 -613l369 -821h-281l-289 672l-346 -291l-100 -381h-254z" />
<glyph unicode="L" horiz-adv-x="1265" d="M39 0l385 1434h254l-324 -1205h754l-64 -229h-1005z" />
<glyph unicode="M" horiz-adv-x="1777" d="M39 0l385 1434h256l250 -678l614 678h289l-385 -1434h-256l276 1028l-630 -676h-9l-264 672l-274 -1024h-252z" />
<glyph unicode="N" horiz-adv-x="1609" d="M39 0l385 1434h233l486 -1014l274 1014h248l-385 -1434h-211l-502 1042l-278 -1042h-250z" />
<glyph unicode="O" d="M156 604q0 168 67.5 328t188.5 278q244 248 594 248q287 0 466 -179t179 -450q0 -168 -67.5 -326.5t-188.5 -279.5q-244 -248 -596 -248q-285 0 -464 179.5t-179 449.5zM418 618q0 -182 109.5 -296.5t297.5 -114.5q215 0 377 162q88 88 137.5 206.5t49.5 239.5 q0 180 -110 296t-298 116q-215 0 -377 -162q-88 -88 -137 -207t-49 -240z" />
<glyph unicode="P" horiz-adv-x="1380" d="M39 0l385 1434h453q295 0 434 -142q106 -106 106 -282q0 -209 -139 -353q-196 -192 -557 -192h-4h-299l-125 -465h-254zM477 688h254q233 0 348 111q76 80 76 190q0 86 -55 141q-74 74 -232 74h-254z" />
<glyph unicode="Q" d="M156 604q0 168 67.5 328t188.5 278q244 248 594 248q287 0 466 -179t179 -450q0 -168 -67.5 -326.5t-188.5 -279.5l-4 -4l127 -158l-207 -139l-107 156q-186 -102 -405 -103q-285 0 -464 179.5t-179 449.5zM418 618q0 -182 109.5 -296.5t297.5 -114.5q129 0 242 61 l-201 258l207 144l172 -254q143 178 144 399q0 180 -110 296t-298 116q-215 0 -377 -162q-88 -88 -137 -207t-49 -240z" />
<glyph unicode="R" horiz-adv-x="1480" d="M39 0l385 1434h520q297 0 434 -140q104 -104 105 -270q0 -201 -131 -328q-123 -123 -359 -172l267 -524h-289l-246 500h-299l-133 -500h-254zM487 723h324q233 0 338 108q72 72 72 173q0 76 -52 131q-73 69 -234 69h-5h-314z" />
<glyph unicode="S" horiz-adv-x="1304" d="M-2 248l190 158q178 -203 433 -203q121 0 198.5 55t77.5 143q0 66 -56.5 112t-207.5 105q-184 74 -276.5 160t-92.5 226q0 172 119 290q160 160 432 160q332 0 526 -215l-176 -172q-168 164 -368 164q-121 0 -194 -56.5t-73 -132.5q0 -68 58.5 -111.5t220.5 -107.5 q180 -70 268 -156.5t88 -228.5q0 -172 -125 -297q-162 -161 -434 -161q-406 0 -608 268z" />
<glyph unicode="T" horiz-adv-x="1267" d="M223 1200l64 234h1163l-64 -234h-454l-324 -1200h-252l324 1200h-457z" />
<glyph unicode="U" horiz-adv-x="1560" d="M176 451q0 115 33 227l201 756h254l-213 -791q-20 -78 -21 -158q0 -123 78 -198.5t223 -75.5q162 0 268 106q109 109 158 301l219 816h252l-229 -854q-74 -274 -223 -424q-178 -179 -469 -179q-250 0 -390.5 127t-140.5 347z" />
<glyph unicode="V" horiz-adv-x="1476" d="M266 1434h271l129 -1096l718 1096h285l-977 -1444h-223z" />
<glyph unicode="W" horiz-adv-x="2248" d="M279 1434h262l59 -1063l633 1067h213l70 -1067l626 1063h287l-887 -1444h-231l-74 1018l-619 -1018h-227z" />
<glyph unicode="X" horiz-adv-x="1429" d="M-88 0l711 743l-330 691h282l230 -512l471 512h323l-688 -721l340 -713h-282l-242 535l-491 -535h-324z" />
<glyph unicode="Y" horiz-adv-x="1341" d="M219 1434h281l215 -648l567 648h311l-809 -891l-145 -543h-252l152 569z" />
<glyph unicode="Z" horiz-adv-x="1394" d="M-39 0l49 186l1096 1024h-793l62 224h1141l-52 -187l-1095 -1024h827l-59 -223h-1176z" />
<glyph unicode="[" horiz-adv-x="931" d="M-4 -266l457 1700h630l-53 -195h-393l-352 -1311h393l-51 -194h-631z" />
<glyph unicode="\" horiz-adv-x="1067" d="M260 1634h207l434 -1896h-207z" />
<glyph unicode="]" horiz-adv-x="931" d="M-131 -266l53 194h393l353 1311h-394l52 195h630l-456 -1700h-631z" />
<glyph unicode="^" horiz-adv-x="1024" d="M201 1010l424 426h176l194 -426h-172l-137 270l-280 -270h-205z" />
<glyph unicode="_" horiz-adv-x="1228" d="M-236 -328l54 193h1237l-51 -193h-1240z" />
<glyph unicode="`" horiz-adv-x="1024" d="M537 1454l231 100l125 -335h-170z" />
<glyph unicode="a" horiz-adv-x="1193" d="M25 272q0 154 102 260q135 131 371 132q158 0 336 -54l6 19q12 53 12 90q0 164 -240 164q-147 0 -295 -60l-41 201q184 72 386 72q211 0 321.5 -87t110.5 -247q0 -59 -23 -158l-162 -604h-239l37 143q-150 -166 -357 -166q-141 0 -233 82t-92 213zM272 301 q0 -66 48.5 -105.5t128.5 -39.5q113 0 208 74.5t125 183.5l15 49q-127 41 -262 41q-133 0 -209 -72q-53 -53 -54 -131z" />
<glyph unicode="b" horiz-adv-x="1368" d="M10 0l400 1495h247l-149 -557q166 166 346 166q184 0 303 -126t119 -337q0 -291 -197 -487q-176 -177 -403 -177q-250 0 -367 216l-51 -193h-248zM373 463q0 -119 76.5 -196t195.5 -77q141 0 242 105q131 127 131 330q0 123 -69.5 194.5t-186.5 71.5q-143 0 -256 -113 q-133 -133 -133 -315z" />
<glyph unicode="c" horiz-adv-x="1148" d="M90 457q0 266 190.5 456.5t448.5 190.5q299 0 438 -246l-192 -131q-49 78 -109.5 120t-156.5 42q-131 0 -238 -107q-133 -137 -133 -323q0 -123 73.5 -197t182.5 -74q139 0 276 121l131 -162q-188 -172 -415 -172q-213 0 -354.5 132.5t-141.5 349.5z" />
<glyph unicode="d" horiz-adv-x="1368" d="M90 440q0 291 197 488q176 176 405 176q248 0 365 -215l162 606h247l-399 -1495h-248l39 143q-162 -166 -346 -166t-303 126t-119 337zM348 457q0 -123 70.5 -195t187.5 -72q145 0 254 113q135 135 135 315q0 119 -76.5 196t-197.5 77q-137 0 -242 -105 q-131 -131 -131 -329z" />
<glyph unicode="e" horiz-adv-x="1228" d="M90 449q0 129 52.5 252.5t146.5 218.5q184 184 438 184q203 0 317.5 -119t114.5 -301q0 -116 -47 -229h-786q0 -127 72.5 -202t207.5 -75q139 0 277 105l118 -158q-178 -150 -419 -150q-225 0 -358.5 128t-133.5 346zM352 618h561q10 31 11 76q0 90 -54.5 148.5 t-160.5 58.5q-144 0 -250 -106q-72 -72 -107 -177z" />
<glyph unicode="f" horiz-adv-x="811" d="M68 0l233 868h-137l57 213h135l21 76q37 154 125 242q106 106 289 106q125 0 213 -37l-56 -206q-76 32 -147 32h-4q-137 0 -179 -151l-16 -62h299l-57 -213h-295l-234 -868h-247z" />
<glyph unicode="g" horiz-adv-x="1363" d="M-51 -166l137 172q182 -137 403 -137q168 0 265 96q72 72 112 219l19 66q-176 -164 -371 -164q-170 0 -293 105.5t-123 285.5q0 262 189 451q176 176 409 176q139 0 221 -59.5t136 -157.5l51 194h248l-238 -893q-39 -145 -80 -226t-104 -142q-152 -152 -426 -152 q-334 0 -555 166zM356 520q0 -111 70.5 -171t179.5 -60q154 0 266 112q111 111 111 250q0 104 -71.5 173t-190.5 69q-141 0 -252 -107q-113 -113 -113 -266z" />
<glyph unicode="h" horiz-adv-x="1265" d="M10 0l400 1495h247l-147 -551q164 160 330 160q150 0 238.5 -87t88.5 -237q0 -63 -32 -190l-156 -590h-248l160 600q16 55 16 109q0 82 -49 126t-139 44q-102 0 -183 -75t-114 -196l-162 -608h-250z" />
<glyph unicode="i" horiz-adv-x="585" d="M25 0l290 1081h248l-291 -1081h-247zM350 1247l64 236h268l-66 -236h-266z" />
<glyph unicode="j" horiz-adv-x="583" d="M-256 -315l53 196q53 -12 82 -12q51 0 91 38t59 109l286 1065h248l-295 -1095q-83 -320 -366 -320q-86 0 -158 19zM350 1247l64 236h266l-64 -236h-266z" />
<glyph unicode="k" horiz-adv-x="1191" d="M10 0l402 1495h250l-236 -874l553 460h328l-545 -438l260 -643h-279l-192 481l-209 -168l-82 -313h-250z" />
<glyph unicode="l" horiz-adv-x="585" d="M25 0l401 1495h248l-402 -1495h-247z" />
<glyph unicode="m" horiz-adv-x="1945" d="M10 0l289 1081h248l-37 -137q160 160 317 160q115 0 191 -59.5t104 -157.5q162 217 406 217q145 0 233 -88t88 -236q0 -55 -34 -190l-158 -590h-248l162 600q14 61 14 109q0 82 -46 126t-130 44q-100 0 -178 -75t-109 -196l-164 -608h-247l161 600q14 61 15 109 q0 82 -46 126t-130 44q-100 0 -178 -74t-111 -197l-162 -608h-250z" />
<glyph unicode="n" horiz-adv-x="1263" d="M10 0l289 1081h248l-37 -137q164 160 330 160q150 0 238.5 -87t88.5 -237q0 -63 -32 -190l-156 -590h-248l160 600q16 55 16 109q0 82 -49 126t-139 44q-102 0 -183 -75t-114 -196l-162 -608h-250z" />
<glyph unicode="o" horiz-adv-x="1323" d="M92 469q0 256 191 446q184 189 440 189q229 0 368.5 -139.5t139.5 -356.5q0 -258 -191 -444q-184 -188 -440 -189q-229 0 -368.5 138.5t-139.5 355.5zM338 477q0 -135 75.5 -211t200.5 -76q139 0 240 105q61 59 96 143t35 164q0 135 -75.5 211t-200.5 76 q-131 0 -240 -105q-61 -59 -96 -143t-35 -164z" />
<glyph unicode="p" horiz-adv-x="1368" d="M-78 -328l377 1409h248l-39 -143q166 166 346 166q184 0 303 -126t119 -337q0 -291 -197 -487q-176 -177 -403 -177q-250 0 -367 216l-137 -521h-250zM373 463q0 -119 76.5 -196t195.5 -77q141 0 242 105q131 127 131 330q0 123 -69.5 194.5t-186.5 71.5 q-143 0 -256 -113q-133 -133 -133 -315z" />
<glyph unicode="q" horiz-adv-x="1368" d="M90 440q0 291 197 488q176 176 405 176q248 0 365 -215l51 192h248l-375 -1409h-248l125 471q-162 -166 -346 -166t-303 126t-119 337zM348 457q0 -123 70.5 -195t187.5 -72q145 0 254 113q135 135 135 315q0 119 -76.5 196t-197.5 77q-137 0 -242 -105 q-131 -131 -131 -329z" />
<glyph unicode="r" horiz-adv-x="843" d="M10 0l289 1081h248l-64 -243q184 265 424 265q15 0 29 -1l-70 -262h-14q-170 0 -299 -111t-186 -328l-107 -401h-250z" />
<glyph unicode="s" horiz-adv-x="1021" d="M-35 170l150 152q152 -152 350 -152q74 0 123 35t49 94q0 39 -37 69.5t-121 65.5q-160 66 -235.5 130.5t-75.5 178.5q0 156 116.5 258.5t307.5 102.5q119 0 231.5 -45t184.5 -109l-138 -159q-149 118 -295 118h-2q-78 0 -121.5 -34.5t-43.5 -88.5q0 -41 38.5 -71.5 t133.5 -69.5q145 -61 221 -127.5t76 -175.5q0 -166 -122.5 -266.5t-310.5 -100.5q-129 0 -258 50.5t-221 144.5z" />
<glyph unicode="t" horiz-adv-x="837" d="M131 195q0 63 19 124l145 549h-137l57 213h137l80 297h248l-80 -297h289l-58 -213h-288l-140 -522q-8 -41 -8 -61q0 -84 109 -84q76 0 158 35l-58 -216q-86 -38 -203 -38q-129 0 -199.5 58t-70.5 155z" />
<glyph unicode="u" horiz-adv-x="1265" d="M98 301q0 63 33 191l158 589h248l-162 -600q-14 -57 -15 -108q0 -82 49.5 -126t137.5 -44q102 0 183 74.5t114 195.5l164 608h247l-288 -1081h-248l37 139q-162 -162 -328 -162q-152 0 -241 87.5t-89 236.5z" />
<glyph unicode="v" horiz-adv-x="1191" d="M176 1081h256l78 -790l498 790h270l-729 -1089h-223z" />
<glyph unicode="w" horiz-adv-x="1746" d="M188 1081h252l21 -737l438 741h211l41 -743l422 739h250l-647 -1089h-224l-43 739l-442 -739h-219z" />
<glyph unicode="x" horiz-adv-x="1171" d="M-90 0l551 563l-250 518h266l154 -346l319 346h299l-524 -540l256 -541h-266l-162 369l-342 -369h-301z" />
<glyph unicode="y" horiz-adv-x="1198" d="M-111 -260l131 182q66 -47 140 -47q51 0 92 26.5t92 94.5l-158 1085h254l90 -800l478 800h270l-698 -1112q-109 -164 -211.5 -233.5t-233.5 -69.5q-139 0 -246 74z" />
<glyph unicode="z" horiz-adv-x="1134" d="M-49 0l47 170l795 709h-584l53 202h912l-46 -170l-796 -708h612l-53 -203h-940z" />
<glyph unicode="{" horiz-adv-x="997" d="M102 494l52 188h61q145 0 209 63q66 63 98 263q37 217 133 315q135 135 439 141l12 -168q-197 -18 -275 -96q-63 -63 -90 -239q-39 -225 -110 -299q-76 -76 -219 -93q80 -14 123 -61t43 -117q0 -55 -33 -145q-37 -119 -37 -172q0 -76 44 -123t161 -88l-80 -152 q-193 39 -278 119t-85 203q0 70 43 196q27 84 27 138q0 66 -35 96.5t-139 30.5h-64z" />
<glyph unicode="|" horiz-adv-x="677" d="M25 -262l507 1896h199l-510 -1896h-196z" />
<glyph unicode="}" horiz-adv-x="997" d="M-84 -121q197 18 274 96q63 63 91 240q39 225 110 299q76 76 219 92q-80 14 -123 61.5t-43 116.5q0 55 33 146q37 119 37 172q0 76 -44 123t-161 88l80 151q193 -39 278 -118.5t85 -202.5q0 -70 -43 -197q-27 -84 -27 -137q0 -66 35 -96.5t139 -30.5h64l-52 -188h-61 q-145 0 -209 -64q-66 -63 -98 -262q-37 -217 -133 -315q-135 -135 -439 -142z" />
<glyph unicode="~" horiz-adv-x="1013" d="M133 532q115 250 283 250q76 0 153 -63q74 -55 107 -55q68 0 137 120l137 -65q-115 -250 -282 -250q-76 0 -156 63q-74 55 -104 56q-68 0 -138 -121z" />
<glyph unicode="&#xa1;" horiz-adv-x="620" d="M18 0l21 72l319 907h138l-166 -907l-21 -72h-291zM336 1151l76 283h272l-76 -283h-272z" />
<glyph unicode="&#xa2;" horiz-adv-x="1183" d="M141 653q0 266 185 451q186 186 456 186q8 0 26.5 -1t27.5 -1l61 158h180l-76 -193q162 -59 244 -211l-188 -129q-63 98 -146 136l-262 -672h17q156 0 297 115l135 -166q-182 -164 -426 -164q-49 0 -97 6l-69 -180h-180l88 225q-129 57 -201 173t-72 267zM387 657 q0 -158 117 -233l256 651q-139 -6 -248 -110q-125 -126 -125 -308z" />
<glyph unicode="&#xa3;" horiz-adv-x="1306" d="M-20 0l43 160l176 49l96 360h-162l57 213h162l58 215q53 201 163 312q143 143 369 143q289 0 420 -240l-203 -135q-45 72 -99 108t-136 36q-100 0 -172 -72q-66 -66 -101 -195l-49 -172h516l-57 -213h-514l-92 -350h667l-59 -219h-1083z" />
<glyph unicode="&#xa5;" horiz-adv-x="1449" d="M117 209l49 182h393l39 150h-393l49 182h321l-282 711h274l219 -603l545 603h305l-671 -711h321l-49 -182h-395l-39 -150h395l-49 -182h-395l-56 -209h-243l55 209h-393z" />
<glyph unicode="&#xa7;" horiz-adv-x="1294" d="M111 164l155 143q139 -135 332 -135q78 0 127 28.5t49 73.5q0 41 -50 72t-181 70q-197 59 -291 121.5t-94 173.5q0 82 51 142t116.5 88t143.5 38q-94 68 -94 176q0 133 123 217t307 84q150 0 274.5 -49t198.5 -133l-156 -144q-139 135 -331 136q-78 0 -127.5 -29 t-49.5 -74q0 -41 50.5 -71.5t181.5 -69.5q195 -57 290 -119.5t95 -173.5q0 -123 -93.5 -189.5t-217.5 -80.5q94 -74 94 -176q0 -133 -123 -217t-307 -84q-150 0 -275 49t-198 133zM393 750q0 -45 47 -77t158 -67q131 -43 215 -43q76 0 129 37t53 88q0 45 -47 77t-157 66 q-131 43 -216 43q-76 0 -129 -36.5t-53 -87.5z" />
<glyph unicode="&#xa8;" horiz-adv-x="1024" d="M356 1219l66 243h252l-66 -243h-252zM764 1219l65 243h252l-67 -243h-250z" />
<glyph unicode="&#xa9;" horiz-adv-x="1699" d="M160 627q0 166 63.5 321.5t179.5 272.5q238 238 572 237q295 0 476 -185t181 -466q0 -166 -63.5 -321.5t-179.5 -272.5q-238 -238 -572 -238q-295 0 -476 185.5t-181 466.5zM240 629q0 -248 155.5 -414t423.5 -166q297 0 506 209q227 227 227 549q0 248 -156.5 412.5 t-424.5 164.5q-297 0 -506 -208q-225 -225 -225 -547zM500 655q0 199 141 336q137 137 326 137q209 0 305 -165l-125 -86q-74 113 -195 112q-115 0 -198 -84q-98 -98 -99 -241q0 -94 54.5 -146.5t142.5 -52.5q96 0 201 86l96 -102q-131 -123 -301 -123q-154 0 -251 90 t-97 239z" />
<glyph unicode="&#xaa;" horiz-adv-x="798" d="M109 578l32 118h531l-31 -118h-532zM211 985q0 100 74.5 159.5t187.5 59.5q84 0 180 -30l4 14q8 25 9 41q0 88 -131 88q-84 0 -160 -31l-25 115q102 41 215 41q117 0 178.5 -48t61.5 -137q0 -31 -12 -88l-91 -331h-141l23 80q-88 -93 -197 -93q-78 0 -127 45t-49 115z M356 1001q0 -33 24.5 -53t63.5 -20q59 0 113.5 42t69.5 99l4 21q-76 23 -133 22q-63 0 -102.5 -30.5t-39.5 -80.5z" />
<glyph unicode="&#xab;" horiz-adv-x="1239" d="M94 520l4 17l486 458l133 -125l-357 -366l152 -346l-184 -84zM606 520l4 17l488 458l131 -125l-355 -366l150 -346l-184 -84z" />
<glyph unicode="&#xad;" horiz-adv-x="841" d="M109 506l65 244h606l-65 -244h-606z" />
<glyph unicode="&#xae;" horiz-adv-x="782" d="M184 1051q0 170 117 286.5t277 116.5q141 0 229 -90t88 -223q0 -170 -116.5 -287t-276.5 -117q-141 0 -229.5 90.5t-88.5 223.5zM225 1055q0 -119 76 -199t205 -80q139 0 239 101q109 109 109 260q0 119 -76 198.5t-205 79.5q-139 0 -239 -100q-109 -109 -109 -260z M344 918l98 370h144q145 0 145 -112q0 -102 -113 -132l56 -126h-94l-50 116h-65l-29 -116h-92zM485 1108h68q53 0 72 22q14 14 14 35q0 45 -61 45h-66z" />
<glyph unicode="&#xaf;" horiz-adv-x="1024" d="M348 1241l49 180h703l-49 -180h-703z" />
<glyph unicode="&#xb0;" horiz-adv-x="862" d="M186 1073q0 152 113 264q108 109 258 109q137 0 219 -83t82 -212q0 -154 -113 -262q-104 -109 -256 -109q-137 0 -220 82t-83 211zM330 1081q0 -76 46 -122t122 -46q84 0 145 62q72 72 72 170q0 76 -46 122t-122 46q-84 0 -146 -62q-72 -72 -71 -170z" />
<glyph unicode="&#xb1;" horiz-adv-x="1298" d="M10 0l56 211h991l-56 -211h-991zM213 764l57 219l385 -2l99 371h225l-100 -371l385 2l-58 -219h-385l-98 -371h-225l100 371h-385z" />
<glyph unicode="&#xb2;" horiz-adv-x="819" d="M201 862l35 127l419 303q115 82 115 154q0 43 -31.5 69.5t-85.5 26.5q-100 0 -207 -106l-92 96q131 147 305 147q121 0 194 -60t73 -159q0 -74 -42 -135t-155 -135l-285 -197h379l-35 -131h-587z" />
<glyph unicode="&#xb3;" horiz-adv-x="819" d="M223 977l101 96q86 -96 198 -96q74 0 125 38t51 93q0 109 -172 109h-49l-16 90l284 217h-342l37 135h541l-33 -115l-303 -225q207 -29 207 -197q0 -121 -95.5 -200.5t-234.5 -79.5q-201 0 -299 135z" />
<glyph unicode="&#xb4;" horiz-adv-x="1024" d="M453 1219l307 335l221 -100l-313 -235h-215z" />
<glyph unicode="&#xb6;" horiz-adv-x="1157" d="M188 883q0 223 144 364q182 186 561 187h319l-385 -1434h-252l123 465q-279 10 -407 139q-102 102 -103 279z" />
<glyph unicode="&#xb7;" horiz-adv-x="600" d="M141 487l76 281h275l-76 -281h-275z" />
<glyph unicode="&#xb8;" horiz-adv-x="1024" d="M106 -248l254 268h187l-250 -360z" />
<glyph unicode="&#xb9;" horiz-adv-x="665" d="M377 1575l266 94h113l-215 -807h-148l172 643l-178 -59z" />
<glyph unicode="&#xba;" horiz-adv-x="815" d="M111 578l30 118h564l-31 -118h-563zM219 1096q0 141 107 247q100 100 239 101q129 0 207 -77t78 -198q0 -143 -107 -245q-98 -102 -239 -103q-129 0 -207 77t-78 198zM362 1102q0 -70 41 -113t107 -43q74 0 131 58q66 66 66 159q0 70 -41 113t-107 43q-72 0 -131 -55 q-66 -70 -66 -162z" />
<glyph unicode="&#xbb;" horiz-adv-x="1239" d="M4 197l354 366l-149 346l184 84l234 -446l-4 -17l-488 -458zM516 197l356 366l-151 346l184 84l234 -446l-4 -17l-486 -458z" />
<glyph unicode="&#xbc;" horiz-adv-x="1689" d="M63 0l711 745l643 689h158l-711 -746l-643 -688h-158zM268 1350l267 96h112l-215 -809h-147l172 645l-176 -61zM831 172l21 141l514 496h162l-139 -516h108l-33 -121h-108l-47 -174h-138l48 174h-388zM989 291h262l92 344z" />
<glyph unicode="&#xbd;" horiz-adv-x="1689" d="M43 0l711 745l643 689h157l-710 -746l-643 -688h-158zM268 1350l267 96h112l-215 -809h-147l172 645l-176 -61zM813 0l35 127l420 303q115 82 114 154q0 43 -31.5 69.5t-84.5 26.5q-100 0 -207 -107l-92 97q131 147 305 147q121 0 193.5 -60.5t72.5 -158.5 q0 -74 -42 -135.5t-155 -134.5l-284 -197h379l-35 -131h-588z" />
<glyph unicode="&#xbe;" horiz-adv-x="1843" d="M117 754l100 94q86 -96 197 -96q76 0 127 38.5t51 94.5q0 106 -174 106h-49l-15 90l285 217h-344l37 136h540l-30 -115l-303 -225q207 -29 206 -197q0 -121 -95 -201t-236 -80q-201 0 -297 138zM207 0l711 745l643 689h157l-710 -746l-643 -688h-158zM985 172l21 141 l514 496h161l-139 -516h109l-33 -121h-109l-47 -174h-137l47 174h-387zM1143 291h262l92 344z" />
<glyph unicode="&#xbf;" horiz-adv-x="1107" d="M66 350q0 184 139 300t391 153l68 176h165l-47 -332l-12 -10q-209 -14 -324.5 -81t-115.5 -177q0 -80 55 -124t156 -44q176 0 325 139l135 -166q-199 -203 -493 -202q-203 0 -322.5 106.5t-119.5 261.5zM651 1151l76 283h272l-75 -283h-273z" />
<glyph unicode="&#xc0;" horiz-adv-x="1562" d="M-102 0l1017 1444h242l244 -1444h-258l-56 346h-677l-238 -346h-274zM563 569h494l-92 580zM758 1772l229 98l150 -297h-172z" />
<glyph unicode="&#xc1;" horiz-adv-x="1562" d="M-102 0l1017 1444h242l244 -1444h-258l-56 346h-677l-238 -346h-274zM563 569h494l-92 580zM958 1573l312 297l219 -98l-313 -199h-218z" />
<glyph unicode="&#xc2;" horiz-adv-x="1562" d="M-102 0l1017 1444h242l244 -1444h-258l-56 346h-677l-238 -346h-274zM563 569h494l-92 580zM688 1565l322 276h233l174 -276h-192l-125 118l-191 -118h-221z" />
<glyph unicode="&#xc3;" horiz-adv-x="1562" d="M-102 0l1017 1444h242l244 -1444h-258l-56 346h-677l-238 -346h-274zM563 569h494l-92 580zM690 1599q57 129 116.5 188.5t147.5 59.5q57 0 170 -43q86 -37 119 -37q41 0 69.5 22.5t61.5 76.5l137 -45q-57 -129 -116.5 -188.5t-147.5 -59.5q-57 0 -170 43q-86 37 -119 37 q-41 0 -69.5 -24t-61.5 -77z" />
<glyph unicode="&#xc4;" horiz-adv-x="1562" d="M-102 0l1017 1444h242l244 -1444h-258l-56 346h-677l-238 -346h-274zM563 569h494l-92 580zM735 1573l64 229h254l-64 -229h-254zM1155 1573l64 229h254l-64 -229h-254z" />
<glyph unicode="&#xc5;" horiz-adv-x="1562" d="M-102 0l966 1372q-51 55 -51 127q0 102 76 173t196 71q94 0 157 -55.5t63 -135.5q0 -141 -129 -211l225 -1341h-258l-56 346h-677l-238 -346h-274zM563 569h494l-92 580zM926 1509q0 -47 31.5 -75.5t84.5 -28.5q63 0 107.5 42t44.5 95q0 47 -33 76t-84 29 q-66 0 -108.5 -41t-42.5 -97z" />
<glyph unicode="&#xc6;" horiz-adv-x="2162" d="M-106 0l1185 1434h1209l-62 -226h-766l-100 -374h676l-62 -224h-674l-104 -385h778l-61 -225h-1028l94 346h-524l-283 -346h-278zM637 569h401l172 645h-43z" />
<glyph unicode="&#xc7;" horiz-adv-x="1495" d="M154 586q0 172 68.5 332.5t191.5 283.5q256 256 606 256q383 0 559 -307l-209 -141q-70 106 -158 161.5t-221 55.5q-211 0 -383 -168q-193 -193 -192 -463q0 -176 108.5 -281.5t282.5 -105.5q113 0 200 40t179 122l166 -168q-233 -227 -551 -228h-17l-217 -315l-190 92 l231 246q-207 51 -330.5 205.5t-123.5 382.5z" />
<glyph unicode="&#xc8;" horiz-adv-x="1351" d="M39 0l385 1434h1053l-62 -226h-801l-100 -374h711l-62 -224h-708l-105 -385h813l-61 -225h-1063zM662 1751l229 98l149 -297h-172z" />
<glyph unicode="&#xc9;" horiz-adv-x="1351" d="M39 0l385 1434h1053l-62 -226h-801l-100 -374h711l-62 -224h-708l-105 -385h813l-61 -225h-1063zM862 1552l312 297l219 -98l-314 -199h-217z" />
<glyph unicode="&#xca;" horiz-adv-x="1351" d="M39 0l385 1434h1053l-62 -226h-801l-100 -374h711l-62 -224h-708l-105 -385h813l-61 -225h-1063zM596 1552l322 277h233l174 -277h-192l-125 119l-191 -119h-221z" />
<glyph unicode="&#xcb;" horiz-adv-x="1351" d="M39 0l385 1434h1053l-62 -226h-801l-100 -374h711l-62 -224h-708l-105 -385h813l-61 -225h-1063zM639 1552l63 230h254l-63 -230h-254zM1059 1552l63 230h254l-63 -230h-254z" />
<glyph unicode="&#xcc;" horiz-adv-x="649" d="M53 0l385 1434h254l-385 -1434h-254zM283 1751l229 98l150 -297h-173z" />
<glyph unicode="&#xcd;" horiz-adv-x="649" d="M53 0l385 1434h254l-385 -1434h-254zM483 1552l312 297l219 -98l-314 -199h-217z" />
<glyph unicode="&#xce;" horiz-adv-x="649" d="M53 0l385 1434h254l-385 -1434h-254zM217 1552l322 277h233l174 -277h-192l-125 119l-191 -119h-221z" />
<glyph unicode="&#xcf;" horiz-adv-x="649" d="M53 0l385 1434h254l-385 -1434h-254zM260 1552l64 230h254l-64 -230h-254zM680 1552l63 230h254l-63 -230h-254z" />
<glyph unicode="&#xd0;" horiz-adv-x="1634" d="M84 608l61 226h164l162 600h389q375 0 561 -187q156 -156 156 -418q0 -330 -231 -561q-268 -268 -746 -268h-514l164 608h-166zM399 229h232q330 0 524 195q160 160 160 395q-1 164 -101 264q-121 121 -372 121h-178l-101 -370h346l-61 -226h-346z" />
<glyph unicode="&#xd1;" horiz-adv-x="1609" d="M39 0l385 1434h233l486 -1014l274 1014h248l-385 -1434h-211l-502 1042l-278 -1042h-250zM694 1577q57 129 116.5 188.5t147.5 59.5q57 0 170 -43q86 -37 119 -37q41 0 70 22.5t61 75.5l138 -45q-57 -129 -117 -188.5t-148 -59.5q-57 0 -170 43q-86 37 -118 37 q-41 0 -70 -23.5t-62 -76.5z" />
<glyph unicode="&#xd2;" d="M156 604q0 168 67.5 328t188.5 278q244 248 594 248q287 0 466 -179t179 -450q0 -168 -67.5 -326.5t-188.5 -279.5q-244 -248 -596 -248q-285 0 -464 179.5t-179 449.5zM418 618q0 -182 109.5 -296.5t297.5 -114.5q215 0 377 162q88 88 137.5 206.5t49.5 239.5 q0 180 -110 296t-298 116q-215 0 -377 -162q-88 -88 -137 -207t-49 -240zM799 1772l229 98l150 -297h-172z" />
<glyph unicode="&#xd3;" d="M156 604q0 168 67.5 328t188.5 278q244 248 594 248q287 0 466 -179t179 -450q0 -168 -67.5 -326.5t-188.5 -279.5q-244 -248 -596 -248q-285 0 -464 179.5t-179 449.5zM418 618q0 -182 109.5 -296.5t297.5 -114.5q215 0 377 162q88 88 137.5 206.5t49.5 239.5 q0 180 -110 296t-298 116q-215 0 -377 -162q-88 -88 -137 -207t-49 -240zM987 1573l311 297l220 -98l-314 -199h-217z" />
<glyph unicode="&#xd4;" d="M156 604q0 168 67.5 328t188.5 278q244 248 594 248q287 0 466 -179t179 -450q0 -168 -67.5 -326.5t-188.5 -279.5q-244 -248 -596 -248q-285 0 -464 179.5t-179 449.5zM418 618q0 -182 109.5 -296.5t297.5 -114.5q215 0 377 162q88 88 137.5 206.5t49.5 239.5 q0 180 -110 296t-298 116q-215 0 -377 -162q-88 -88 -137 -207t-49 -240zM731 1573l322 276h233l174 -276h-192l-125 119l-191 -119h-221z" />
<glyph unicode="&#xd5;" d="M156 604q0 168 67.5 328t188.5 278q244 248 594 248q287 0 466 -179t179 -450q0 -168 -67.5 -326.5t-188.5 -279.5q-244 -248 -596 -248q-285 0 -464 179.5t-179 449.5zM418 618q0 -182 109.5 -296.5t297.5 -114.5q215 0 377 162q88 88 137.5 206.5t49.5 239.5 q0 180 -110 296t-298 116q-215 0 -377 -162q-88 -88 -137 -207t-49 -240zM733 1599q57 129 116.5 188.5t147.5 59.5q57 0 170 -43q86 -37 119 -37q41 0 69.5 22.5t61.5 76.5l137 -45q-57 -129 -116.5 -188.5t-147.5 -59.5q-57 0 -170 43q-86 37 -119 37q-41 0 -69.5 -24 t-61.5 -77z" />
<glyph unicode="&#xd6;" d="M156 604q0 168 67.5 328t188.5 278q244 248 594 248q287 0 466 -179t179 -450q0 -168 -67.5 -326.5t-188.5 -279.5q-244 -248 -596 -248q-285 0 -464 179.5t-179 449.5zM418 618q0 -182 109.5 -296.5t297.5 -114.5q215 0 377 162q88 88 137.5 206.5t49.5 239.5 q0 180 -110 296t-298 116q-215 0 -377 -162q-88 -88 -137 -207t-49 -240zM774 1573l64 229h254l-64 -229h-254zM1194 1573l63 229h254l-63 -229h-254z" />
<glyph unicode="&#xd7;" horiz-adv-x="1298" d="M121 401l428 332l-246 330l191 149l237 -335l424 337l129 -174l-426 -329l246 -328l-193 -150l-237 334l-424 -338z" />
<glyph unicode="&#xd8;" d="M-53 -10l303 270q-94 152 -94 344q0 168 67.5 328t188.5 278q244 248 594 248q262 0 440 -155l160 141h254l-304 -273q94 -154 95 -342q0 -168 -67.5 -326.5t-188.5 -279.5q-244 -248 -596 -248q-266 0 -441 156l-159 -141h-252zM410 616q0 -109 36 -194l809 723 q-106 90 -274 90q-217 0 -381 -164q-90 -88 -140 -209t-50 -246zM549 287q106 -90 274 -90q217 0 383 165q88 88 139.5 210t51.5 245q0 102 -39 193z" />
<glyph unicode="&#xd9;" horiz-adv-x="1560" d="M176 451q0 115 33 227l201 756h254l-213 -791q-20 -78 -21 -158q0 -123 78 -198.5t223 -75.5q162 0 268 106q109 109 158 301l219 816h252l-229 -854q-74 -274 -223 -424q-178 -179 -469 -179q-250 0 -390.5 127t-140.5 347zM719 1749l229 98l150 -297h-172z" />
<glyph unicode="&#xda;" horiz-adv-x="1560" d="M176 451q0 115 33 227l201 756h254l-213 -791q-20 -78 -21 -158q0 -123 78 -198.5t223 -75.5q162 0 268 106q109 109 158 301l219 816h252l-229 -854q-74 -274 -223 -424q-178 -179 -469 -179q-250 0 -390.5 127t-140.5 347zM920 1550l311 297l219 -98l-313 -199h-217z " />
<glyph unicode="&#xdb;" horiz-adv-x="1560" d="M176 451q0 115 33 227l201 756h254l-213 -791q-20 -78 -21 -158q0 -123 78 -198.5t223 -75.5q162 0 268 106q109 109 158 301l219 816h252l-229 -854q-74 -274 -223 -424q-178 -179 -469 -179q-250 0 -390.5 127t-140.5 347zM653 1550l322 277h233l174 -277h-192 l-125 119l-191 -119h-221z" />
<glyph unicode="&#xdc;" horiz-adv-x="1560" d="M176 451q0 115 33 227l201 756h254l-213 -791q-20 -78 -21 -158q0 -123 78 -198.5t223 -75.5q162 0 268 106q109 109 158 301l219 816h252l-229 -854q-74 -274 -223 -424q-178 -179 -469 -179q-250 0 -390.5 127t-140.5 347zM696 1550l64 230h254l-64 -230h-254z M1116 1550l64 230h254l-64 -230h-254z" />
<glyph unicode="&#xdd;" horiz-adv-x="1341" d="M219 1434h281l215 -648l567 648h311l-809 -891l-145 -543h-252l152 569zM797 1550l311 297l219 -98l-313 -199h-217z" />
<glyph unicode="&#xde;" horiz-adv-x="1398" d="M39 0l385 1434h252l-58 -224h199q293 0 434 -141q106 -111 107 -283q0 -213 -141 -354q-190 -190 -560 -190h-299l-65 -242h-254zM418 463h252q238 0 350 112q76 76 76 191q0 84 -56 139q-74 76 -233 76h-252z" />
<glyph unicode="&#xdf;" horiz-adv-x="1286" d="M10 0l277 1028q61 223 178 340q145 141 362 141q195 0 310.5 -104.5t115.5 -265.5q0 -295 -352 -404q248 -86 248 -299q0 -203 -177 -325.5t-511 -114.5l53 197q205 -2 301 68.5t96 180.5q0 170 -276 207l45 170q336 80 336 297q0 84 -55.5 133t-143.5 49 q-104 0 -179 -75.5t-112 -214.5l-268 -1008h-248z" />
<glyph unicode="&#xe0;" horiz-adv-x="1193" d="M25 272q0 154 102 260q135 131 371 132q158 0 336 -54l6 19q12 53 12 90q0 164 -240 164q-147 0 -295 -60l-41 201q184 72 386 72q211 0 321.5 -87t110.5 -247q0 -59 -23 -158l-162 -604h-239l37 143q-150 -166 -357 -166q-141 0 -233 82t-92 213zM272 301 q0 -66 48.5 -105.5t128.5 -39.5q113 0 208 74.5t125 183.5l15 49q-127 41 -262 41q-133 0 -209 -72q-53 -53 -54 -131zM469 1454l231 100l125 -335h-170z" />
<glyph unicode="&#xe1;" horiz-adv-x="1193" d="M25 272q0 154 102 260q135 131 371 132q158 0 336 -54l6 19q12 53 12 90q0 164 -240 164q-147 0 -295 -60l-41 201q184 72 386 72q211 0 321.5 -87t110.5 -247q0 -59 -23 -158l-162 -604h-239l37 143q-150 -166 -357 -166q-141 0 -233 82t-92 213zM272 301 q0 -66 48.5 -105.5t128.5 -39.5q113 0 208 74.5t125 183.5l15 49q-127 41 -262 41q-133 0 -209 -72q-53 -53 -54 -131zM647 1219l307 335l222 -100l-314 -235h-215z" />
<glyph unicode="&#xe2;" horiz-adv-x="1193" d="M25 272q0 154 102 260q135 131 371 132q158 0 336 -54l6 19q12 53 12 90q0 164 -240 164q-147 0 -295 -60l-41 201q184 72 386 72q211 0 321.5 -87t110.5 -247q0 -59 -23 -158l-162 -604h-239l37 143q-150 -166 -357 -166q-141 0 -233 82t-92 213zM272 301 q0 -66 48.5 -105.5t128.5 -39.5q113 0 208 74.5t125 183.5l15 49q-127 41 -262 41q-133 0 -209 -72q-53 -53 -54 -131zM391 1219l318 301h231l158 -301h-185l-120 137l-197 -137h-205z" />
<glyph unicode="&#xe3;" horiz-adv-x="1193" d="M25 272q0 154 102 260q135 131 371 132q158 0 336 -54l6 19q12 53 12 90q0 164 -240 164q-147 0 -295 -60l-41 201q184 72 386 72q211 0 321.5 -87t110.5 -247q0 -59 -23 -158l-162 -604h-239l37 143q-150 -166 -357 -166q-141 0 -233 82t-92 213zM272 301 q0 -66 48.5 -105.5t128.5 -39.5q113 0 208 74.5t125 183.5l15 49q-127 41 -262 41q-133 0 -209 -72q-53 -53 -54 -131zM379 1243q57 131 116.5 191.5t149.5 60.5q59 0 162 -45q90 -37 117 -37q43 0 69.5 23t61.5 80l137 -46q-59 -131 -118.5 -191t-147.5 -60q-61 0 -164 45 q-86 37 -115 36q-43 0 -70.5 -23.5t-60.5 -78.5z" />
<glyph unicode="&#xe4;" horiz-adv-x="1193" d="M25 272q0 154 102 260q135 131 371 132q158 0 336 -54l6 19q12 53 12 90q0 164 -240 164q-147 0 -295 -60l-41 201q184 72 386 72q211 0 321.5 -87t110.5 -247q0 -59 -23 -158l-162 -604h-239l37 143q-150 -166 -357 -166q-141 0 -233 82t-92 213zM272 301 q0 -66 48.5 -105.5t128.5 -39.5q113 0 208 74.5t125 183.5l15 49q-127 41 -262 41q-133 0 -209 -72q-53 -53 -54 -131zM426 1219l66 243h251l-65 -243h-252zM834 1219l65 243h252l-68 -243h-249z" />
<glyph unicode="&#xe5;" horiz-adv-x="1193" d="M25 272q0 154 102 260q135 131 371 132q158 0 336 -54l6 19q12 53 12 90q0 164 -240 164q-147 0 -295 -60l-41 201q184 72 386 72q211 0 321.5 -87t110.5 -247q0 -59 -23 -158l-162 -604h-239l37 143q-150 -166 -357 -166q-141 0 -233 82t-92 213zM272 301 q0 -66 48.5 -105.5t128.5 -39.5q113 0 208 74.5t125 183.5l15 49q-127 41 -262 41q-133 0 -209 -72q-53 -53 -54 -131zM578 1417q0 102 75.5 179t182.5 77q98 0 158.5 -58.5t60.5 -144.5q0 -102 -76 -179t-182 -77q-96 0 -157.5 58.5t-61.5 144.5zM684 1425q0 -53 32 -85.5 t85 -32.5q63 0 106 47t43 108q0 53 -32.5 86t-86.5 33q-61 0 -104 -48.5t-43 -107.5z" />
<glyph unicode="&#xe6;" horiz-adv-x="1941" d="M25 272q0 154 102 260q135 131 371 132q158 0 336 -54l6 19q12 53 12 90q0 164 -240 164q-147 0 -295 -60l-41 201q184 72 386 72q291 0 370 -189q176 197 416 197q197 0 310.5 -119t113.5 -301q0 -117 -47 -229h-787q0 -127 73 -202t208 -75q137 0 278 105l117 -158 q-172 -150 -418 -150q-145 0 -252.5 58.5t-164.5 167.5q-213 -223 -504 -224q-160 0 -255 80t-95 215zM272 301q0 -66 51.5 -105.5t141.5 -39.5q201 0 369 174q-12 53 -9 121q-137 53 -290 53q-133 0 -209 -72q-53 -53 -54 -131zM1065 618h563q8 37 8 76q0 90 -53 148.5 t-162 58.5q-144 0 -250 -106q-72 -72 -106 -177z" />
<glyph unicode="&#xe7;" horiz-adv-x="1148" d="M90 457q0 266 190.5 456.5t448.5 190.5q299 0 438 -246l-192 -131q-49 78 -109.5 120t-156.5 42q-131 0 -238 -107q-133 -137 -133 -323q0 -123 73.5 -197t182.5 -74q139 0 276 121l131 -162q-186 -170 -413 -172l-217 -315l-191 92l236 248q-147 47 -236.5 167 t-89.5 290z" />
<glyph unicode="&#xe8;" horiz-adv-x="1228" d="M90 449q0 129 52.5 252.5t146.5 218.5q184 184 438 184q203 0 317.5 -119t114.5 -301q0 -116 -47 -229h-786q0 -127 72.5 -202t207.5 -75q139 0 277 105l118 -158q-178 -150 -419 -150q-225 0 -358.5 128t-133.5 346zM352 618h561q10 31 11 76q0 90 -54.5 148.5 t-160.5 58.5q-144 0 -250 -106q-72 -72 -107 -177zM518 1454l232 100l124 -335h-169z" />
<glyph unicode="&#xe9;" horiz-adv-x="1228" d="M90 449q0 129 52.5 252.5t146.5 218.5q184 184 438 184q203 0 317.5 -119t114.5 -301q0 -116 -47 -229h-786q0 -127 72.5 -202t207.5 -75q139 0 277 105l118 -158q-178 -150 -419 -150q-225 0 -358.5 128t-133.5 346zM352 618h561q10 31 11 76q0 90 -54.5 148.5 t-160.5 58.5q-144 0 -250 -106q-72 -72 -107 -177zM696 1219l308 335l221 -100l-314 -235h-215z" />
<glyph unicode="&#xea;" horiz-adv-x="1228" d="M90 449q0 129 52.5 252.5t146.5 218.5q184 184 438 184q203 0 317.5 -119t114.5 -301q0 -116 -47 -229h-786q0 -127 72.5 -202t207.5 -75q139 0 277 105l118 -158q-178 -150 -419 -150q-225 0 -358.5 128t-133.5 346zM352 618h561q10 31 11 76q0 90 -54.5 148.5 t-160.5 58.5q-144 0 -250 -106q-72 -72 -107 -177zM440 1219l318 301h231l158 -301h-184l-121 137l-197 -137h-205z" />
<glyph unicode="&#xeb;" horiz-adv-x="1228" d="M90 449q0 129 52.5 252.5t146.5 218.5q184 184 438 184q203 0 317.5 -119t114.5 -301q0 -116 -47 -229h-786q0 -127 72.5 -202t207.5 -75q139 0 277 105l118 -158q-178 -150 -419 -150q-225 0 -358.5 128t-133.5 346zM352 618h561q10 31 11 76q0 90 -54.5 148.5 t-160.5 58.5q-144 0 -250 -106q-72 -72 -107 -177zM475 1219l66 243h252l-66 -243h-252zM883 1219l65 243h252l-67 -243h-250z" />
<glyph unicode="&#xec;" horiz-adv-x="585" d="M25 0l290 1081h248l-291 -1081h-247zM188 1454l232 100l125 -335h-170z" />
<glyph unicode="&#xed;" horiz-adv-x="585" d="M25 0l290 1081h248l-291 -1081h-247zM369 1219l307 335l221 -100l-313 -235h-215z" />
<glyph unicode="&#xee;" horiz-adv-x="585" d="M25 0l290 1081h248l-291 -1081h-247zM113 1219l317 301h232l157 -301h-184l-121 137l-197 -137h-204z" />
<glyph unicode="&#xef;" horiz-adv-x="585" d="M25 0l290 1081h248l-291 -1081h-247zM147 1219l66 243h252l-66 -243h-252zM555 1219l66 243h251l-67 -243h-250z" />
<glyph unicode="&#xf0;" horiz-adv-x="1318" d="M90 463q0 270 184 450q162 166 388 166q186 0 317 -153q-53 143 -184 319l-273 -86l-45 135l221 70q-39 45 -120 131h307l49 -59l237 75l50 -133l-199 -63q209 -313 209 -615q0 -334 -211 -544q-180 -180 -438 -181q-221 0 -356.5 133.5t-135.5 354.5zM334 475 q0 -133 70.5 -211t197.5 -78q141 0 250 109q127 131 127 303q0 127 -77 206t-202 79q-141 0 -243 -103q-123 -127 -123 -305z" />
<glyph unicode="&#xf1;" horiz-adv-x="1263" d="M10 0l289 1081h248l-37 -137q164 160 330 160q150 0 238.5 -87t88.5 -237q0 -63 -32 -190l-156 -590h-248l160 600q16 55 16 109q0 82 -49 126t-139 44q-102 0 -183 -75t-114 -196l-162 -608h-250zM424 1243q57 131 116.5 191.5t149.5 60.5q59 0 162 -45q90 -37 117 -37 q43 0 69.5 23t61.5 80l137 -46q-59 -131 -118.5 -191t-147.5 -60q-61 0 -164 45q-86 37 -115 36q-43 0 -70.5 -23.5t-60.5 -78.5z" />
<glyph unicode="&#xf2;" horiz-adv-x="1323" d="M92 469q0 256 191 446q184 189 440 189q229 0 368.5 -139.5t139.5 -356.5q0 -258 -191 -444q-184 -188 -440 -189q-229 0 -368.5 138.5t-139.5 355.5zM338 477q0 -135 75.5 -211t200.5 -76q139 0 240 105q61 59 96 143t35 164q0 135 -75.5 211t-200.5 76 q-131 0 -240 -105q-61 -59 -96 -143t-35 -164zM545 1454l231 100l125 -335h-170z" />
<glyph unicode="&#xf3;" horiz-adv-x="1323" d="M92 469q0 256 191 446q184 189 440 189q229 0 368.5 -139.5t139.5 -356.5q0 -258 -191 -444q-184 -188 -440 -189q-229 0 -368.5 138.5t-139.5 355.5zM338 477q0 -135 75.5 -211t200.5 -76q139 0 240 105q61 59 96 143t35 164q0 135 -75.5 211t-200.5 76 q-131 0 -240 -105q-61 -59 -96 -143t-35 -164zM715 1219l307 335l221 -100l-313 -235h-215z" />
<glyph unicode="&#xf4;" horiz-adv-x="1323" d="M92 469q0 256 191 446q184 189 440 189q229 0 368.5 -139.5t139.5 -356.5q0 -258 -191 -444q-184 -188 -440 -189q-229 0 -368.5 138.5t-139.5 355.5zM338 477q0 -135 75.5 -211t200.5 -76q139 0 240 105q61 59 96 143t35 164q0 135 -75.5 211t-200.5 76 q-131 0 -240 -105q-61 -59 -96 -143t-35 -164zM469 1219l317 301h232l158 -301h-185l-121 137l-196 -137h-205z" />
<glyph unicode="&#xf5;" horiz-adv-x="1323" d="M92 469q0 256 191 446q184 189 440 189q229 0 368.5 -139.5t139.5 -356.5q0 -258 -191 -444q-184 -188 -440 -189q-229 0 -368.5 138.5t-139.5 355.5zM338 477q0 -135 75.5 -211t200.5 -76q139 0 240 105q61 59 96 143t35 164q0 135 -75.5 211t-200.5 76 q-131 0 -240 -105q-61 -59 -96 -143t-35 -164zM459 1243q57 131 116.5 191.5t149.5 60.5q59 0 162 -45q90 -37 117 -37q43 0 69.5 23t61.5 80l137 -46q-59 -131 -118.5 -191t-147.5 -60q-61 0 -164 45q-86 37 -115 36q-43 0 -70.5 -23.5t-60.5 -78.5z" />
<glyph unicode="&#xf6;" horiz-adv-x="1323" d="M92 469q0 256 191 446q184 189 440 189q229 0 368.5 -139.5t139.5 -356.5q0 -258 -191 -444q-184 -188 -440 -189q-229 0 -368.5 138.5t-139.5 355.5zM338 477q0 -135 75.5 -211t200.5 -76q139 0 240 105q61 59 96 143t35 164q0 135 -75.5 211t-200.5 76 q-131 0 -240 -105q-61 -59 -96 -143t-35 -164zM504 1219l65 243h252l-65 -243h-252zM911 1219l66 243h252l-68 -243h-250z" />
<glyph unicode="&#xf7;" horiz-adv-x="1298" d="M160 614l57 213h1020l-57 -213h-1020zM414 164l67 262h275l-70 -262h-272zM641 1018l70 260h272l-70 -260h-272z" />
<glyph unicode="&#xf8;" horiz-adv-x="1323" d="M-92 -12l250 221q-66 113 -66 260q0 256 191 446q184 189 440 189q205 0 344 -117l117 105h231l-250 -224q66 -113 66 -260q0 -258 -191 -444q-184 -188 -440 -189q-211 0 -344 115l-117 -102h-231zM330 477q0 -72 14 -117l549 484q-72 53 -178 53q-141 0 -252 -111 q-133 -129 -133 -309zM430 233q66 -51 178 -51q141 0 252 111q133 129 133 309q0 61 -16 115z" />
<glyph unicode="&#xf9;" horiz-adv-x="1265" d="M98 301q0 63 33 191l158 589h248l-162 -600q-14 -57 -15 -108q0 -82 49.5 -126t137.5 -44q102 0 183 74.5t114 195.5l164 608h247l-288 -1081h-248l37 139q-162 -162 -328 -162q-152 0 -241 87.5t-89 236.5zM516 1454l232 100l124 -335h-170z" />
<glyph unicode="&#xfa;" horiz-adv-x="1265" d="M98 301q0 63 33 191l158 589h248l-162 -600q-14 -57 -15 -108q0 -82 49.5 -126t137.5 -44q102 0 183 74.5t114 195.5l164 608h247l-288 -1081h-248l37 139q-162 -162 -328 -162q-152 0 -241 87.5t-89 236.5zM694 1219l307 335l222 -100l-314 -235h-215z" />
<glyph unicode="&#xfb;" horiz-adv-x="1265" d="M98 301q0 63 33 191l158 589h248l-162 -600q-14 -57 -15 -108q0 -82 49.5 -126t137.5 -44q102 0 183 74.5t114 195.5l164 608h247l-288 -1081h-248l37 139q-162 -162 -328 -162q-152 0 -241 87.5t-89 236.5zM436 1219l318 301h231l158 -301h-185l-120 137l-197 -137h-205 z" />
<glyph unicode="&#xfc;" horiz-adv-x="1265" d="M98 301q0 63 33 191l158 589h248l-162 -600q-14 -57 -15 -108q0 -82 49.5 -126t137.5 -44q102 0 183 74.5t114 195.5l164 608h247l-288 -1081h-248l37 139q-162 -162 -328 -162q-152 0 -241 87.5t-89 236.5zM471 1219l66 243h251l-65 -243h-252zM879 1219l65 243h252 l-68 -243h-249z" />
<glyph unicode="&#xfd;" horiz-adv-x="1198" d="M-111 -260l131 182q66 -47 140 -47q51 0 92 26.5t92 94.5l-158 1085h254l90 -800l478 800h270l-698 -1112q-109 -164 -211.5 -233.5t-233.5 -69.5q-139 0 -246 74zM641 1219l307 335l221 -100l-313 -235h-215z" />
<glyph unicode="&#xfe;" horiz-adv-x="1368" d="M-78 -328l490 1823h247l-151 -557q166 166 346 166q184 0 303 -126t119 -337q0 -291 -197 -487q-176 -176 -403 -177q-250 0 -367 216l-137 -521h-250zM373 463q0 -119 76.5 -196t195.5 -77q141 0 242 105q131 127 131 330q0 123 -69.5 194.5t-186.5 71.5 q-143 0 -256 -113q-133 -133 -133 -315z" />
<glyph unicode="&#xff;" horiz-adv-x="1198" d="M-111 -260l131 182q66 -47 140 -47q51 0 92 26.5t92 94.5l-158 1085h254l90 -800l478 800h270l-698 -1112q-109 -164 -211.5 -233.5t-233.5 -69.5q-139 0 -246 74zM420 1219l65 243h252l-65 -243h-252zM827 1219l66 243h252l-68 -243h-250z" />
<glyph unicode="&#x152;" horiz-adv-x="2234" d="M154 604q0 334 231 561q268 268 743 269h1231l-61 -226h-766l-98 -374h673l-61 -224h-674l-104 -385h778l-61 -225h-1117q-373 0 -567 195q-147 147 -147 409zM416 614q0 -166 98 -264q121 -121 375 -121h129l262 975h-180q-332 0 -527 -194q-158 -158 -157 -396z" />
<glyph unicode="&#x153;" horiz-adv-x="2117" d="M92 469q0 256 191 446q184 188 440 189q156 0 265.5 -68.5t158.5 -183.5q178 252 469 252q203 0 317.5 -119t114.5 -301q0 -116 -47 -229h-787q0 -127 73 -202t208 -75q137 0 279 105l116 -158q-172 -150 -417 -150q-152 0 -259.5 61.5t-156.5 174.5q-178 -236 -457 -236 q-229 0 -368.5 138.5t-139.5 355.5zM338 477q0 -135 75.5 -211t200.5 -76q139 0 240 105q61 59 96 143t35 164q0 135 -75.5 211t-200.5 76q-131 0 -240 -105q-61 -59 -96 -143t-35 -164zM1241 618h561q10 31 10 76q0 90 -54 148.5t-161 58.5q-143 0 -249 -106 q-72 -72 -107 -177z" />
<glyph unicode="&#x178;" horiz-adv-x="1341" d="M219 1434h281l215 -648l567 648h311l-809 -891l-145 -543h-252l152 569zM573 1550l64 230h254l-64 -230h-254zM993 1550l64 230h254l-64 -230h-254z" />
<glyph unicode="&#x2c6;" horiz-adv-x="1024" d="M342 1219l317 301h232l158 -301h-185l-121 137l-196 -137h-205z" />
<glyph unicode="&#x2dc;" horiz-adv-x="1024" d="M319 1243q57 131 117 191.5t150 60.5q59 0 162 -45q90 -37 116 -37q43 0 69.5 23t61.5 80l138 -46q-59 -131 -119 -191t-148 -60q-61 0 -164 45q-86 37 -114 36q-43 0 -71 -23.5t-60 -78.5z" />
<glyph unicode="&#x2000;" horiz-adv-x="935" />
<glyph unicode="&#x2001;" horiz-adv-x="1870" />
<glyph unicode="&#x2002;" horiz-adv-x="935" />
<glyph unicode="&#x2003;" horiz-adv-x="1870" />
<glyph unicode="&#x2004;" horiz-adv-x="623" />
<glyph unicode="&#x2005;" horiz-adv-x="467" />
<glyph unicode="&#x2006;" horiz-adv-x="311" />
<glyph unicode="&#x2007;" horiz-adv-x="311" />
<glyph unicode="&#x2008;" horiz-adv-x="233" />
<glyph unicode="&#x2009;" horiz-adv-x="374" />
<glyph unicode="&#x200a;" horiz-adv-x="103" />
<glyph unicode="&#x2010;" horiz-adv-x="841" d="M109 506l65 244h606l-65 -244h-606z" />
<glyph unicode="&#x2011;" horiz-adv-x="841" d="M109 506l65 244h606l-65 -244h-606z" />
<glyph unicode="&#x2012;" horiz-adv-x="841" d="M109 506l65 244h606l-65 -244h-606z" />
<glyph unicode="&#x2013;" horiz-adv-x="1085" d="M109 510l63 235h852l-63 -235h-852z" />
<glyph unicode="&#x2014;" horiz-adv-x="1843" d="M109 510l63 235h1610l-64 -235h-1609z" />
<glyph unicode="&#x2018;" horiz-adv-x="600" d="M223 866l64 238q47 172 141 251t256 89l18 -105q-207 -29 -235 -192h104l-75 -281h-273z" />
<glyph unicode="&#x2019;" horiz-adv-x="600" d="M184 961q207 29 236 192h-105l76 281h273l-64 -240q-47 -170 -141 -249t-256 -91z" />
<glyph unicode="&#x201a;" horiz-adv-x="600" d="M-111 -193q207 29 236 193h-107l76 283h273l-64 -240q-45 -172 -139 -250t-256 -90z" />
<glyph unicode="&#x201c;" horiz-adv-x="1073" d="M225 864l64 240q45 170 139 249t256 91l18 -107q-207 -29 -235 -190h106l-75 -283h-273zM698 864l66 240q45 170 139 249t256 91l19 -107q-207 -29 -236 -190h107l-76 -283h-275z" />
<glyph unicode="&#x201d;" horiz-adv-x="1073" d="M186 961q207 29 236 192h-107l76 281h273l-64 -240q-45 -170 -139 -249t-256 -91zM659 961q207 29 236 192h-104l75 281h273l-64 -240q-47 -170 -140 -249t-255 -91z" />
<glyph unicode="&#x201e;" horiz-adv-x="1075" d="M-111 -193q207 29 236 193h-107l76 283h273l-64 -240q-45 -172 -139 -250t-256 -90zM365 -193q207 29 235 193h-106l75 283h273l-64 -240q-45 -172 -139 -250t-256 -90z" />
<glyph unicode="&#x2022;" horiz-adv-x="1005" d="M264 657q0 158 113 271q94 94 217 94q106 0 167.5 -63.5t61.5 -170.5q0 -162 -110 -272q-96 -92 -217 -92q-106 0 -169 62.5t-63 170.5z" />
<glyph unicode="&#x2026;" horiz-adv-x="1669" d="M18 0l74 276h268l-73 -276h-269zM557 0l76 276h266l-74 -276h-268zM1096 0l75 276h267l-74 -276h-268z" />
<glyph unicode="&#x202f;" horiz-adv-x="374" />
<glyph unicode="&#x2039;" horiz-adv-x="724" d="M94 520l4 17l486 458l133 -125l-357 -366l152 -346l-184 -84z" />
<glyph unicode="&#x203a;" horiz-adv-x="724" d="M4 197l356 366l-151 346l184 84l234 -446l-4 -17l-486 -458z" />
<glyph unicode="&#x205f;" horiz-adv-x="467" />
<glyph unicode="&#x20ac;" horiz-adv-x="1452" d="M57 461l47 176h156q10 88 31 172h-141l47 174h147q70 164 182 272q203 203 488 203q381 0 497 -332l-215 -104q-49 106 -116.5 157.5t-184.5 51.5q-160 0 -274 -119q-61 -59 -98 -129h464l-47 -174h-481q-29 -98 -37 -172h473l-47 -176h-430q18 -123 93 -190.5t190 -67.5 q98 0 173 39t152 123l172 -148q-207 -242 -501 -242q-227 0 -372.5 130.5t-168.5 355.5h-199z" />
<glyph unicode="&#x2122;" horiz-adv-x="1427" d="M242 1323l30 111h510l-30 -111h-195l-143 -520h-121l141 520h-192zM745 803l173 631h120l109 -299l270 299h135l-174 -631h-116l124 448l-276 -301h-12l-113 301l-125 -448h-115z" />
<glyph unicode="&#x25fc;" horiz-adv-x="1085" d="M0 0v1085h1085v-1085h-1085z" />
</font>
</defs>
</svg>
