<?xml version="1.0" standalone="no"?>
<!DOCTYPE svg PUBLIC "-//W3C//DTD SVG 1.1//EN" "http://www.w3.org/Graphics/SVG/1.1/DTD/svg11.dtd" >
<svg xmlns="http://www.w3.org/2000/svg">
<metadata></metadata>
<defs>
<font id="gnbibook" horiz-adv-x="1427" >
<font-face units-per-em="2048" ascent="1638" descent="-410" />
<missing-glyph horiz-adv-x="458" />
<glyph unicode="&#xfb01;" horiz-adv-x="1298" d="M25 0l204 846h-116l69 262h113l8 37q41 172 123 252q100 98 289 98q98 0 174 -22l-66 -252q-47 14 -98 14q-92 0 -119 -96l-8 -31h199l-70 -262h-190l-205 -846h-307zM729 0l272 1108h306l-271 -1108h-307zM1018 1214l74 279h317l-74 -279h-317z" />
<glyph unicode="&#xfb02;" horiz-adv-x="1298" d="M25 0l204 846h-116l69 262h113l8 37q41 172 123 252q100 98 289 98q98 0 174 -22l-66 -252q-47 14 -98 14q-92 0 -119 -96l-8 -31h199l-70 -262h-190l-205 -846h-307zM729 0l363 1479h305l-361 -1479h-307z" />
<glyph unicode="&#xfb03;" horiz-adv-x="2039" d="M25 0l204 846h-116l69 262h113l8 37q41 172 123 252q100 98 289 98q98 0 174 -22l-66 -252q-47 14 -98 14q-92 0 -119 -96l-8 -31h199l-70 -262h-190l-205 -846h-307zM766 0l205 846h-117l70 262h112l8 37q41 172 123 252q100 98 289 98q98 0 174 -22l-65 -252 q-47 14 -99 14q-92 0 -118 -96l-9 -31h199l-70 -262h-190l-205 -846h-307zM1473 0l272 1108h305l-270 -1108h-307zM1761 1214l74 279h317l-73 -279h-318z" />
<glyph unicode="&#xfb04;" horiz-adv-x="2039" d="M25 0l204 846h-116l69 262h113l8 37q41 172 123 252q100 98 289 98q98 0 174 -22l-66 -252q-47 14 -98 14q-92 0 -119 -96l-8 -31h199l-70 -262h-190l-205 -846h-307zM766 0l205 846h-117l70 262h112l8 37q41 172 123 252q100 98 289 98q98 0 174 -22l-65 -252 q-47 14 -99 14q-92 0 -118 -96l-9 -31h199l-70 -262h-190l-205 -846h-307zM1473 0l362 1479h305l-360 -1479h-307z" />
<glyph horiz-adv-x="0" />
<glyph unicode="&#xd;" horiz-adv-x="681" />
<glyph unicode=" "  horiz-adv-x="458" />
<glyph unicode="&#x09;" horiz-adv-x="458" />
<glyph unicode="&#xa0;" horiz-adv-x="458" />
<glyph unicode="!" horiz-adv-x="628" d="M14 0l82 326h328l-82 -326h-328zM215 487l125 906l8 41h361l-9 -41l-317 -906h-168z" />
<glyph unicode="&#x22;" horiz-adv-x="968" d="M190 788l142 646h340l-6 -13l-320 -633h-156zM639 788l141 646h340l-4 -13l-321 -633h-156z" />
<glyph unicode="#" horiz-adv-x="1232" d="M8 305l66 258h151l92 311h-155l67 259h166l92 301h263l-91 -301h236l92 301h262l-92 -301h141l-65 -259h-154l-94 -311h160l-66 -258h-170l-94 -305h-262l92 305h-235l-93 -305h-262l92 305h-139zM487 563h238l92 311h-235z" />
<glyph unicode="$" horiz-adv-x="1128" d="M-25 240l224 192q96 -113 202 -149l91 325q-139 76 -211 162t-72 223q0 195 139 318t365 125l37 123h202l-41 -154q166 -51 279 -170l-209 -207q-70 68 -150 107l-83 -304q281 -150 280 -376q0 -205 -144.5 -331t-363.5 -128l-57 -197h-205l66 219q-217 57 -349 222z M526 1038q0 -66 58 -112l67 243q-59 -8 -92 -46t-33 -85zM588 266q57 14 91 55t34 96.5t-56 100.5z" />
<glyph unicode="%" horiz-adv-x="1583" d="M102 0l666 764l567 670h224l-664 -764l-567 -670h-226zM160 1034q0 197 123 316q98 98 233 98q129 0 207 -83t78 -226q0 -188 -123 -316q-99 -98 -236 -98q-129 0 -205.5 82t-76.5 227zM354 1038q0 -66 28 -101.5t73 -35.5q43 0 80 33q70 74 69 203q0 66 -26.5 101.5 t-71.5 35.5t-80 -35q-72 -68 -72 -201zM862 295q0 190 121 315q102 98 236 99q129 0 205.5 -82t76.5 -228q0 -195 -121 -315q-102 -98 -235 -98q-129 0 -206 82t-77 227zM1057 297q0 -66 27.5 -101.5t72.5 -35.5q41 0 80 35q70 70 70 200q0 66 -28 101.5t-73 35.5 q-43 0 -80 -32q-70 -74 -69 -203z" />
<glyph unicode="&#x26;" horiz-adv-x="1249" d="M35 352q0 303 348 453q-70 150 -70 268q0 160 113 271.5t301 111.5q160 0 260 -96t100 -234q0 -133 -80.5 -232t-267.5 -173l135 -215q71 94 130 205l196 -129q-96 -166 -194 -285l116 -180l-231 -142l-86 136q-172 -129 -358.5 -129t-299 101t-112.5 269zM326 379 q0 -59 38.5 -101t114.5 -42q94 0 205 75l-186 303q-172 -100 -172 -235zM580 1069q0 -74 49 -170q102 43 146 89t44 112q0 51 -27.5 85t-84.5 34q-55 0 -91 -43.5t-36 -106.5z" />
<glyph unicode="'" horiz-adv-x="514" d="M190 788l142 646h340l-6 -13l-320 -633h-156z" />
<glyph unicode="(" horiz-adv-x="788" d="M74 420q0 446 319 766q170 170 412 270l110 -223q-164 -84 -276 -197q-260 -260 -260 -616q0 -274 221 -524l-197 -183q-330 301 -329 707z" />
<glyph unicode=")" horiz-adv-x="788" d="M-113 -57q164 84 277 196q260 260 260 617q0 274 -221 524l196 182q330 -301 330 -706q0 -446 -319 -766q-170 -170 -412 -271z" />
<glyph unicode="*" horiz-adv-x="784" d="M188 1096l230 37l-187 143l117 119l144 -187l26 240l158 -41l-86 -223l213 96l45 -160l-230 -37l187 -143l-119 -119l-141 187l-27 -240l-158 41l86 223l-213 -96z" />
<glyph unicode="+" horiz-adv-x="1134" d="M119 582l71 278h312l76 311h284l-78 -311h312l-72 -278h-311l-74 -312h-285l76 312h-311z" />
<glyph unicode="," horiz-adv-x="602" d="M-129 -199q123 12 183.5 60.5t74.5 138.5h-127l82 326h330l-70 -275q-47 -197 -156.5 -286t-293.5 -95z" />
<glyph unicode="-" horiz-adv-x="755" d="M70 489l75 289h580l-74 -289h-581z" />
<glyph unicode="." horiz-adv-x="602" d="M2 0l82 326h330l-82 -326h-330z" />
<glyph unicode="/" horiz-adv-x="933" d="M-246 -244l1184 1860h285l-1186 -1860h-283z" />
<glyph unicode="0" horiz-adv-x="1284" d="M98 532q0 201 71 412t200 340q167 172 409 172q217 0 350.5 -148.5t133.5 -408.5q0 -199 -71 -409.5t-200 -339.5q-172 -172 -411 -173q-217 0 -349.5 147.5t-132.5 407.5zM414 532q0 -274 188 -274q84 0 152 68q86 86 138 257t52 318q0 274 -186 275q-84 0 -152 -68 q-86 -86 -139 -258t-53 -318z" />
<glyph unicode="1" horiz-adv-x="806" d="M164 0l266 1108l-217 -53l2 270l393 117h215l-352 -1442h-307z" />
<glyph unicode="2" horiz-adv-x="1095" d="M-63 0l67 252l588 491q109 90 156 158t47 137q0 66 -38 101t-103.5 35t-128 -36t-146.5 -116l-186 201q199 231 477 231q203 0 323.5 -106.5t120.5 -270.5q0 -150 -70.5 -259t-242.5 -245l-365 -305h508l-72 -268h-935z" />
<glyph unicode="3" horiz-adv-x="1052" d="M-55 195l225 202q115 -141 254 -141q88 0 147.5 61.5t59.5 145.5q0 176 -232 176h-77v199l350 329h-441l72 267h846l-62 -234l-403 -356q121 -43 189.5 -133t68.5 -222q0 -215 -147 -360q-152 -152 -392 -152q-291 0 -458 218z" />
<glyph unicode="4" horiz-adv-x="1161" d="M20 539l846 905h301l-213 -889h156l-66 -252h-151l-72 -303h-295l72 303h-557zM346 555h316l118 483z" />
<glyph unicode="5" horiz-adv-x="1079" d="M-35 195l209 213q131 -145 266 -146q104 0 173 70.5t69 171.5q0 74 -53.5 121t-151.5 47q-70 0 -143 -27l-156 125l199 664h764l-72 -273h-485l-66 -241q55 6 92 6q172 0 280.5 -103.5t108.5 -285.5q0 -233 -157 -392q-170 -165 -420 -165q-141 0 -261 58t-196 157z" />
<glyph unicode="6" horiz-adv-x="1136" d="M90 469q0 199 73 431.5t216 375.5q180 180 426 180q217 0 383 -143l-174 -236q-115 98 -230 99q-117 0 -200 -84q-94 -94 -142 -252q41 39 115 64.5t148 25.5q158 0 263 -95.5t105 -275.5q0 -119 -47 -233.5t-127 -194.5q-153 -154 -360 -154q-203 0 -314 111 q-135 135 -135 381zM379 414q0 -82 45 -131q47 -43 117 -43q82 0 141 59q80 80 80 215q0 82 -43 125t-117 43q-84 0 -143 -59q-80 -84 -80 -209z" />
<glyph unicode="7" horiz-adv-x="1077" d="M-20 0l788 1165h-547l70 269h895l-64 -238l-788 -1196h-354z" />
<glyph unicode="8" horiz-adv-x="1159" d="M47 373q-2 303 311 401q-139 102 -139 262q0 164 127 291t348 127q193 0 312.5 -102.5t119.5 -266.5q0 -276 -270 -374q182 -102 182 -291q0 -178 -141 -309t-381 -131q-193 0 -330 108.5t-139 284.5zM346 406q-2 -78 51 -127.5t133 -49.5q86 0 145.5 58.5t61.5 142.5 q2 80 -49 127t-137 47q-84 0 -143.5 -58.5t-61.5 -139.5zM502 1014q-2 -68 38.5 -113t116.5 -45q72 0 126.5 55.5t56.5 132.5q2 68 -38 112t-122 44q-72 0 -124 -55t-54 -131z" />
<glyph unicode="9" horiz-adv-x="1136" d="M8 133l178 236q127 -111 252 -111q115 0 199 84q94 98 133 231q-104 -86 -256 -86q-158 0 -262.5 94.5t-106.5 284.5q0 270 172 439q152 152 363 151q203 0 317 -115q133 -133 133 -405q0 -184 -75.5 -410.5t-218.5 -369.5q-178 -179 -416 -179q-229 0 -412 156zM457 909 q5 -172 159 -172q86 0 146 60q78 78 78 215q0 92 -47 139q-43 43 -113 43q-82 0 -141 -59q-41 -39 -62.5 -101.5t-19.5 -124.5z" />
<glyph unicode=":" horiz-adv-x="602" d="M2 0l84 326h328l-82 -326h-330zM190 782l84 326h328l-82 -326h-330z" />
<glyph unicode=";" horiz-adv-x="602" d="M-129 -199q123 12 183.5 60.5t74.5 138.5h-127l84 326h328l-70 -275q-47 -197 -156.5 -286t-293.5 -95zM190 782l84 326h328l-82 -326h-330z" />
<glyph unicode="&#x3c;" horiz-adv-x="1134" d="M131 580l74 282l946 379l-80 -301l-622 -231l512 -230l-68 -276z" />
<glyph unicode="=" horiz-adv-x="1134" d="M88 344l72 277h858l-72 -277h-858zM209 821l72 277h858l-74 -277h-856z" />
<glyph unicode="&#x3e;" horiz-adv-x="1134" d="M57 201l82 301l621 231l-512 230l69 276l762 -377l-73 -282z" />
<glyph unicode="?" horiz-adv-x="968" d="M125 0l82 326h328l-82 -326h-328zM190 1290q186 160 424 160q190 0 302 -101.5t112 -252.5q0 -172 -116.5 -287t-350.5 -158l-55 -164h-207l39 344l12 13q174 20 264.5 75.5t90.5 135.5q0 53 -32 82.5t-91 29.5q-106 0 -236 -100z" />
<glyph unicode="@" horiz-adv-x="1789" d="M90 428q0 266 118 502.5t331 384t467 147.5q328 0 525.5 -191.5t197.5 -465.5q0 -301 -136.5 -486.5t-330.5 -185.5q-94 0 -160 45t-90 117q-141 -164 -297 -164q-121 0 -198 83t-77 228q0 240 146.5 422.5t333.5 182.5q150 0 217 -138l34 117l222 -61l-150 -492 q-29 -94 -29 -141q0 -106 111 -107q119 0 220.5 173t101.5 407q0 244 -174.5 410.5t-468.5 166.5q-233 0 -428 -138t-301.5 -356t-106.5 -460q0 -297 186.5 -474t472.5 -177q195 0 387 94l33 -70q-215 -102 -420 -102q-322 0 -529.5 198.5t-207.5 530.5zM692 492 q0 -160 127 -160q90 0 172 107.5t82 246.5q0 70 -32.5 113t-94.5 43q-92 0 -173 -110.5t-81 -239.5z" />
<glyph unicode="A" horiz-adv-x="1347" d="M-109 0l859 1444h301l153 -1444h-317l-25 322h-461l-178 -322h-332zM575 596h256l-22 469z" />
<glyph unicode="B" horiz-adv-x="1251" d="M6 0l350 1434h445q229 0 342.5 -97.5t113.5 -249.5q0 -145 -79.5 -236t-212.5 -124q184 -90 184 -287q0 -207 -160 -323.5t-430 -116.5h-553zM379 272h227q111 0 173.5 50.5t62.5 138.5q0 133 -168 133h-223zM518 852h193q237 0 237 180q0 59 -43 94t-131 35h-188z" />
<glyph unicode="C" horiz-adv-x="1228" d="M106 573q0 184 69 366.5t190 305.5q213 209 485 209q301 0 479 -244l-242 -204q-61 82 -120.5 121.5t-137.5 39.5q-121 0 -227 -106q-78 -78 -127 -208t-49 -269q0 -143 71.5 -230.5t192.5 -87.5q117 0 246 105l174 -219q-187 -172 -418 -172q-266 0 -426 160.5 t-160 432.5z" />
<glyph unicode="D" horiz-adv-x="1357" d="M6 0l350 1434h361q311 0 467 -156q147 -145 147 -424q0 -166 -64.5 -335t-189.5 -294q-225 -225 -637 -225h-434zM387 281h92q236 0 369 135q80 80 121 197.5t41 230.5q0 155 -76 231q-78 78 -242 78h-98z" />
<glyph unicode="E" horiz-adv-x="1159" d="M6 0l350 1434h912l-72 -277h-602l-68 -299h529l-72 -272h-528l-70 -310h614l-73 -276h-920z" />
<glyph unicode="F" horiz-adv-x="1138" d="M6 0l350 1434h926l-74 -283h-614l-70 -311h541l-74 -281h-538l-136 -559h-311z" />
<glyph unicode="G" horiz-adv-x="1351" d="M102 569q0 186 69 362.5t194 299.5q223 223 536 223q291 0 483 -188l-221 -222q-135 125 -286 125q-158 0 -281 -122q-78 -80 -125 -208t-47 -261q0 -145 82 -230.5t205 -85.5q78 0 159 29l60 264h-238l72 268h534l-188 -739q-195 -104 -420 -104q-111 0 -213 35.5 t-187 105t-136.5 186.5t-51.5 262z" />
<glyph unicode="H" horiz-adv-x="1335" d="M6 0l350 1434h312l-138 -570h433l135 570h311l-350 -1434h-311l141 578h-432l-140 -578h-311z" />
<glyph unicode="I" horiz-adv-x="622" d="M20 0l351 1434h311l-350 -1434h-312z" />
<glyph unicode="J" horiz-adv-x="980" d="M-78 193l219 204q98 -127 185 -127q63 0 110 47q57 57 101 240l206 877h320l-227 -951q-35 -150 -73 -231.5t-99 -142.5q-127 -127 -328 -127q-264 0 -414 211z" />
<glyph unicode="K" horiz-adv-x="1271" d="M6 0l350 1434h312l-146 -611l541 611h399l-594 -607l273 -827h-338l-172 602l-223 -225l-91 -377h-311z" />
<glyph unicode="L" horiz-adv-x="1083" d="M6 0l350 1434h312l-277 -1151h567l-73 -283h-879z" />
<glyph unicode="M" horiz-adv-x="1531" d="M6 0l350 1434h330l139 -598l418 598h363l-351 -1434h-313l219 934l-454 -617h-9l-161 611l-222 -928h-309z" />
<glyph unicode="N" horiz-adv-x="1380" d="M6 0l350 1434h289l291 -899l213 899h305l-350 -1434h-268l-306 930l-217 -930h-307z" />
<glyph unicode="O" d="M102 559q0 186 71 377.5t196 316.5q202 203 493 203q248 0 394.5 -160.5t146.5 -421.5q0 -186 -69.5 -376.5t-196.5 -317.5q-203 -203 -494 -203q-248 0 -394.5 161t-146.5 421zM422 582q0 -152 66.5 -235t193.5 -83q121 0 219 98q82 82 132 224.5t50 265.5 q0 152 -66.5 234.5t-193.5 82.5q-125 0 -219 -98q-82 -82 -132 -224t-50 -265z" />
<glyph unicode="P" horiz-adv-x="1204" d="M6 0l350 1434h355q285 0 417 -134q111 -111 111 -299q0 -236 -154 -389q-184 -180 -493 -180h-172l-103 -432h-311zM489 702h119q147 0 232 84q73 73 73 190q0 78 -45 126q-53 51 -172 51h-102z" />
<glyph unicode="Q" d="M102 559q0 186 71 377.5t196 316.5q203 203 493 203q248 0 394.5 -160.5t146.5 -421.5q0 -170 -59.5 -346t-165.5 -305l98 -143l-258 -168l-74 131q-137 -66 -301 -66q-248 0 -394.5 161t-146.5 421zM422 582q0 -152 65.5 -235t194.5 -83q59 0 115 23l-152 223l258 170 l98 -174q82 170 82 346q0 152 -65.5 234.5t-194.5 82.5q-127 0 -219 -96q-82 -82 -132 -225t-50 -266z" />
<glyph unicode="R" horiz-adv-x="1282" d="M6 0l350 1434h412q285 0 418 -134q111 -115 110 -294q0 -223 -133 -361q-35 -35 -54 -52.5t-77.5 -50t-130.5 -53.5l197 -489h-348l-175 455h-151l-107 -455h-311zM498 727h166q162 0 243 80q66 70 66 174q0 76 -47 121q-49 51 -178 51h-152z" />
<glyph unicode="S" horiz-adv-x="1105" d="M-29 242l232 200q166 -188 311 -188q66 0 107 37t41 92q0 45 -39 91t-146 124q-137 102 -204.5 195.5t-67.5 205.5q0 182 123 310q145 145 360 145q272 0 471 -213l-213 -215q-143 154 -268 154q-68 0 -105.5 -37t-37.5 -88q0 -47 36.5 -91t145.5 -122 q135 -98 204.5 -192.5t69.5 -215.5q0 -186 -129 -315q-139 -139 -362 -139q-334 0 -529 262z" />
<glyph unicode="T" horiz-adv-x="1069" d="M164 1147l76 287h1020l-76 -287h-355l-276 -1147h-309l274 1147h-354z" />
<glyph unicode="U" horiz-adv-x="1345" d="M125 410q0 92 35 221l192 803h310l-199 -826q-23 -90 -23 -155q0 -88 49.5 -138.5t131.5 -50.5q104 0 172 64q76 76 112 229l211 877h309l-221 -920q-66 -260 -192 -387q-150 -150 -424 -150q-213 0 -338 113t-125 320z" />
<glyph unicode="V" horiz-adv-x="1280" d="M236 1434h331l39 -988l508 988h346l-827 -1444h-277z" />
<glyph unicode="W" horiz-adv-x="1978" d="M244 1434h319l-6 -963l487 967h271l41 -967l446 963h350l-759 -1444h-291l-41 921l-475 -921h-289z" />
<glyph unicode="X" horiz-adv-x="1222" d="M-106 0l587 750l-227 684h346l105 -449l303 449h391l-570 -719l240 -715h-346l-121 483l-321 -483h-387z" />
<glyph unicode="Y" horiz-adv-x="1132" d="M178 1434h342l105 -576l379 576h368l-659 -879l-138 -555h-309l140 578z" />
<glyph unicode="Z" horiz-adv-x="1200" d="M-39 0l62 238l825 925h-594l72 271h995l-61 -238l-828 -926h621l-70 -270h-1022z" />
<glyph unicode="[" horiz-adv-x="841" d="M-27 -266l414 1700h578l-62 -240h-282l-299 -1221h290l-63 -239h-576z" />
<glyph unicode="\" horiz-adv-x="933" d="M217 1616h252l319 -1860h-251z" />
<glyph unicode="]" horiz-adv-x="841" d="M-111 -266l62 239h282l299 1221h-290l63 240h576l-414 -1700h-578z" />
<glyph unicode="^" horiz-adv-x="899" d="M164 1034l344 389h207l151 -389h-196l-90 201l-183 -201h-233z" />
<glyph unicode="_" horiz-adv-x="1136" d="M-215 -328l59 234h1143l-59 -234h-1143z" />
<glyph unicode="`" horiz-adv-x="1024" d="M496 1448l260 115l143 -357h-209z" />
<glyph unicode="a" horiz-adv-x="1050" d="M0 272q0 176 113 289q117 117 317 117q115 0 240 -47l4 18q14 61 14 101q0 108 -155 108h-3q-106 0 -239 -59l-68 243q168 76 361 76q197 0 300 -78.5t103 -222.5q0 -84 -33 -215l-143 -602h-297l27 115q-118 -133 -265 -133q-129 0 -202.5 81.5t-73.5 208.5zM303 303 q0 -51 30 -83t79 -32q74 0 127 60.5t73 144.5l17 72q-70 31 -140 31q-86 0 -133 -52q-53 -53 -53 -141z" />
<glyph unicode="b" horiz-adv-x="1189" d="M-20 0l356 1479h307l-115 -482q133 129 263 129q143 0 239 -117.5t96 -328.5q0 -160 -54 -306.5t-152 -244.5q-150 -145 -330 -145t-275 161l-32 -145h-303zM379 452.5q0 -100.5 45 -156.5t119 -56q78 0 141 63q129 129 129 352q0 100 -42 157.5t-122 57.5t-143 -63 q-59 -59 -93 -156.5t-34 -198z" />
<glyph unicode="c" horiz-adv-x="954" d="M66 444q0 150 53 287t147 232q165 161 372 161h3q137 0 224 -50t151 -146l-223 -178q-73 114 -157 114h-1q-74 0 -137 -63q-59 -59 -95 -158.5t-36 -193.5q0 -100 41 -155.5t108 -55.5q70 0 174 84l152 -195q-156 -147 -340 -147q-201 0 -318.5 125.5t-117.5 338.5z" />
<glyph unicode="d" horiz-adv-x="1189" d="M63 430q0 158 54.5 305.5t152.5 245.5q145 145 330 145q180 0 274 -161l121 514h308l-363 -1479h-305l27 111q-133 -127 -263 -127q-143 0 -239.5 117.5t-96.5 328.5zM377 455q0 -100 42 -157.5t122 -57.5t143 63q59 59 93 156.5t34 198t-45 156.5t-119 56 q-78 0 -141 -63q-129 -129 -129 -352z" />
<glyph unicode="e" horiz-adv-x="1081" d="M66 461q0 143 54 277t150 231q157 157 370 157h3q178 0 285.5 -113.5t107.5 -297.5q0 -128 -53 -271h-635q4 -104 50 -162.5t132 -58.5q98 0 209 80l129 -205q-153 -118 -349 -118h-3q-213 0 -331.5 129t-118.5 352zM375 635h368q12 47 13 96q0 68 -35 109t-100 41 q-82 0 -148 -66q-61 -61 -98 -180z" />
<glyph unicode="f" horiz-adv-x="739" d="M25 0l204 846h-116l69 262h113l8 37q41 172 123 252q100 98 289 98q98 0 174 -22l-66 -252q-47 14 -98 14q-92 0 -119 -96l-8 -31h199l-70 -262h-190l-205 -846h-307z" />
<glyph unicode="g" horiz-adv-x="1183" d="M-66 -164l148 211q166 -119 328 -119q106 0 176 70q53 53 82 166l16 61q-139 -141 -287 -141q-141 0 -235 96t-94 271q0 145 56 288.5t155 241.5q145 145 317 145q186 0 264 -178l39 160h305l-221 -920q-61 -258 -174 -370q-129 -129 -379 -129q-279 0 -496 147zM381 498 q0 -172 141 -172q84 0 152 67q45 45 77.5 125t32.5 172q0 86 -41 134t-108 48q-76 0 -139 -63q-53 -53 -84 -142t-31 -169z" />
<glyph unicode="h" horiz-adv-x="1112" d="M-20 0l356 1479h307l-113 -473q124 120 256 120h2q121 0 194 -74.5t73 -207.5q0 -72 -37 -223l-150 -621h-307l152 623q18 74 18 118q0 106 -106 107q-68 0 -114 -51.5t-65 -134.5l-161 -662h-305z" />
<glyph unicode="i" horiz-adv-x="557" d="M-10 0l272 1108h305l-270 -1108h-307zM279 1214l73 279h318l-74 -279h-317z" />
<glyph unicode="j" horiz-adv-x="561" d="M-252 -289l64 232q31 -10 61 -11q113 0 141 134l252 1042h305l-262 -1085q-45 -184 -140 -260t-249 -76q-98 0 -172 24zM283 1214l71 279h318l-72 -279h-317z" />
<glyph unicode="k" horiz-adv-x="1046" d="M-20 0l360 1479h307l-172 -725l316 354h387l-445 -416l182 -692h-337l-101 479l-102 -110l-90 -369h-305z" />
<glyph unicode="l" horiz-adv-x="557" d="M-10 0l362 1479h305l-360 -1479h-307z" />
<glyph unicode="m" horiz-adv-x="1693" d="M-20 0l270 1108h305l-25 -102q128 120 254 120h2q180 0 242 -176q150 176 334 176q129 0 201.5 -71.5t72.5 -194.5q0 -96 -34 -239l-152 -621h-305l151 627q18 74 19 118q0 102 -107 103q-66 0 -112.5 -49t-65.5 -129l-164 -670h-305l152 625q18 74 18 118 q0 104 -106 105q-135 0 -179 -186l-161 -662h-305z" />
<glyph unicode="n" horiz-adv-x="1103" d="M-20 0l270 1108h305l-25 -102q124 120 256 120h2q121 0 194 -74.5t73 -207.5q0 -72 -37 -223l-150 -621h-307l152 623q18 74 18 118q0 106 -106 107q-68 0 -114 -51.5t-65 -134.5l-161 -662h-305z" />
<glyph unicode="o" horiz-adv-x="1148" d="M68 457q0 147 53 283.5t147 230.5q156 155 365 155t329.5 -132t120.5 -347q0 -145 -53 -281.5t-147 -232.5q-156 -156 -365 -156q-207 0 -328.5 132.5t-121.5 347.5zM365 465q0 -111 43.5 -168t121.5 -57q74 0 131.5 57t91 155.5t33.5 186.5q0 111 -44 168t-121 57 q-74 0 -131.5 -57t-91 -155.5t-33.5 -186.5z" />
<glyph unicode="p" horiz-adv-x="1189" d="M-96 -307l346 1415h305l-27 -111q133 129 263 129q143 0 239 -117.5t96 -328.5q0 -160 -54 -306.5t-152 -244.5q-150 -145 -330 -145t-275 161l-106 -452h-305zM379 452.5q0 -100.5 45 -156.5t119 -56q78 0 141 63q129 129 129 352q0 100 -42 157.5t-122 57.5t-143 -63 q-59 -59 -93 -156.5t-34 -198z" />
<glyph unicode="q" horiz-adv-x="1189" d="M63 430q0 158 54.5 304.5t152.5 244.5q147 147 332 147q178 0 272 -161l31 143h307l-344 -1415h-307l101 418q-134 -127 -263 -127q-143 0 -239.5 117.5t-96.5 328.5zM377 455q0 -100 42 -157.5t122 -57.5t143 63q59 59 93 156.5t34 198t-45 156.5t-119 56 q-78 0 -141 -63q-129 -129 -129 -352z" />
<glyph unicode="r" horiz-adv-x="747" d="M-20 0l270 1108h305l-43 -174q68 104 146 154q64 40 149 40q19 0 39 -2l-86 -317h-17q-135 0 -218 -73.5t-124 -248.5l-116 -487h-305z" />
<glyph unicode="s" horiz-adv-x="874" d="M-61 182l176 185q143 -156 266 -156q47 0 74.5 24.5t27.5 61.5q0 39 -29.5 67.5t-123.5 96.5q-111 80 -162 150.5t-51 164.5q0 143 107.5 245.5t283.5 102.5q215 0 385 -170l-162 -194q-139 133 -237 133q-37 0 -62.5 -22.5t-25.5 -57.5q0 -37 28.5 -65.5t122.5 -94.5 q119 -80 168 -156.5t49 -168.5q0 -147 -112.5 -247.5t-286.5 -100.5q-250 0 -436 202z" />
<glyph unicode="t" horiz-adv-x="733" d="M82 199q0 45 22 143l123 504h-118l67 262h115l65 270h308l-66 -270h195l-68 -262h-190l-123 -498q-6 -29 -6 -45q0 -47 61 -47q68 0 129 31l-66 -258q-81 -43 -206 -43q-117 0 -179.5 57t-62.5 156z" />
<glyph unicode="u" horiz-adv-x="1112" d="M59 264q0 72 37 223l150 621h307l-152 -623q-18 -74 -18 -118q0 -106 106 -107q68 0 114 51t65 135l161 662h306l-271 -1108h-305l25 102q-124 -120 -256 -120h-2q-121 0 -194 74.5t-73 207.5z" />
<glyph unicode="v" horiz-adv-x="1067" d="M164 1108h311l12 -731l355 731h323l-633 -1116h-278z" />
<glyph unicode="w" horiz-adv-x="1538" d="M170 1108h309l-30 -674l319 676h268l4 -678l291 676h301l-561 -1116h-276l-9 678l-329 -678h-277z" />
<glyph unicode="x" horiz-adv-x="1032" d="M-96 0l456 580l-184 528h320l77 -307l195 307h356l-440 -557l188 -551h-321l-82 330l-211 -330h-354z" />
<glyph unicode="y" horiz-adv-x="1058" d="M-45 -217l145 203q53 -45 96 -45t68 49l-82 1118h312l2 -746l331 746h326l-586 -1124q-84 -160 -167 -228.5t-201 -68.5q-143 0 -244 96z" />
<glyph unicode="z" horiz-adv-x="956" d="M-57 0l55 219l577 643h-419l63 246h793l-56 -219l-581 -641h438l-63 -248h-807z" />
<glyph unicode="{" horiz-adv-x="868" d="M61 473l62 232h55q143 0 201 57q66 70 63 237q0 236 111 344q127 123 397 121l25 -204q-158 -18 -213 -70q-39 -37 -50.5 -94.5t-9.5 -180.5q0 -178 -75 -253q-80 -80 -232 -99q86 -14 131 -64t45 -122q0 -70 -53 -191q-49 -102 -49 -143q0 -47 34 -73.5t136 -63.5 l-96 -193q-195 39 -276 102.5t-81 178.5q0 66 53.5 190.5t53.5 177.5q0 111 -178 111h-54z" />
<glyph unicode="|" horiz-adv-x="673" d="M20 -244l457 1860h240l-459 -1860h-238z" />
<glyph unicode="}" horiz-adv-x="868" d="M-90 -82q158 18 213 70q39 37 50 94t9 180q0 178 76 254q80 80 231 98q-86 14 -131 64.5t-45 122.5q0 70 54 190q49 102 49 144q0 47 -34 73.5t-136 63.5l96 192q195 -39 275.5 -102.5t80.5 -177.5q0 -66 -53 -191t-53 -178q0 -111 178 -110h53l-61 -232h-55 q-143 0 -201 -57q-66 -70 -64 -238q0 -236 -110 -344q-127 -123 -398 -121z" />
<glyph unicode="~" horiz-adv-x="940" d="M88 532q49 119 124 190t163 71q80 0 147 -54q66 -49 99 -49q74 0 129 113l157 -78q-49 -119 -123.5 -189.5t-162.5 -70.5q-78 0 -148 53q-66 49 -98 49q-72 1 -129 -112z" />
<glyph unicode="&#xa1;" horiz-adv-x="628" d="M-4 0l8 41l318 905h167l-124 -905l-9 -41h-360zM281 1108l81 326h328l-82 -326h-327z" />
<glyph unicode="&#xa2;" horiz-adv-x="1032" d="M115 639q0 145 49 278.5t137 221.5q154 158 391 157h25l51 148h203l-66 -193q106 -51 182 -168l-215 -159q-35 43 -63 65l-184 -577q82 10 168 71l141 -198q-166 -135 -356 -135h-33l-56 -162h-202l71 207q-244 115 -243 444zM414 647q0 -113 49 -174l172 557 q-57 -14 -107 -63q-53 -53 -83.5 -144.5t-30.5 -175.5z" />
<glyph unicode="&#xa3;" horiz-adv-x="1130" d="M-35 0l53 203l146 51l74 307h-142l66 252h135l51 217q47 195 152 299q125 125 334 125q127 0 227 -59.5t160 -159.5l-242 -176q-68 109 -164 108q-59 0 -102 -43q-47 -49 -70 -145l-37 -166h367l-66 -252h-362l-68 -293h508l-70 -268h-950z" />
<glyph unicode="&#xa5;" horiz-adv-x="1230" d="M74 199l55 215h303l31 127h-305l57 215h229l-188 678h330l102 -525l352 525h363l-522 -678h239l-55 -215h-305l-33 -127h309l-57 -215h-303l-49 -199h-295l47 199h-305z" />
<glyph unicode="&#xa7;" horiz-adv-x="1124" d="M72 154l178 180q125 -121 250 -121q55 0 84.5 21.5t29.5 52.5q0 35 -30.5 54t-137.5 60q-84 31 -132 53.5t-101 57.5t-76.5 80t-23.5 104q0 113 73.5 178.5t175.5 88.5q-59 72 -59 180q0 131 110.5 222t301.5 91q268 0 422 -170l-179 -180q-125 121 -249 121 q-55 0 -85 -21.5t-30 -52.5q0 -35 30.5 -54.5t137.5 -60.5q84 -31 132 -53t101.5 -57t77 -80.5t23.5 -104.5q0 -113 -75 -179t-177 -89q61 -74 61 -178q0 -131 -110.5 -222t-300.5 -91q-268 0 -422 170zM399 750q0 -27 16.5 -47.5t35 -32t59.5 -29.5q135 -51 190 -51 q43 0 76 26.5t33 73.5q0 37 -25.5 59.5t-87.5 49.5q-133 51 -190 51q-41 0 -74 -27.5t-33 -72.5z" />
<glyph unicode="&#xa8;" horiz-adv-x="1024" d="M342 1212l68 267h284l-69 -267h-283zM735 1212l70 267h282l-67 -267h-285z" />
<glyph unicode="&#xa9;" horiz-adv-x="1507" d="M123 596q0 182 65.5 357t186.5 296q209 209 495 209q266 0 427 -177t161 -443q0 -182 -65.5 -356.5t-186.5 -297.5q-209 -209 -495 -209q-266 0 -427 177.5t-161 443.5zM205 602q0 -233 135 -389t371 -156q256 0 432 176q115 115 173 276t58 327q2 231 -133 385.5 t-373 154.5q-258 0 -430 -176q-115 -113 -173 -272.5t-60 -325.5zM434 643q0 104 40 206.5t110 170.5q117 117 272 117q166 0 266 -148l-137 -106q-37 47 -67.5 69.5t-75.5 22.5q-74 0 -131 -57q-41 -41 -69 -116t-28 -151q0 -84 38 -132t102 -48q72 0 157 70l93 -123 q-118 -107 -265 -107q-137 0 -221 90.5t-84 241.5z" />
<glyph unicode="&#xaa;" horiz-adv-x="710" d="M102 586l33 127h496l-33 -127h-496zM195 975q0 98 65.5 161.5t165.5 63.5q66 0 141 -29l6 23q6 23 7 41q0 63 -82 63q-68 0 -144 -30l-41 133q106 41 211 41t161 -48t56 -130q0 -39 -14 -103l-82 -334h-162l15 58q-66 -70 -146 -70q-70 0 -113.5 44t-43.5 116zM360 995 q-2 -31 16.5 -48t49.5 -17q39 0 69.5 32.5t43.5 84.5l8 32q-41 16 -86 17q-47 0 -74 -30t-27 -71z" />
<glyph unicode="&#xab;" horiz-adv-x="1206" d="M84 522l4 17l471 471l152 -150l-310 -356l136 -340l-224 -96zM586 522l4 17l471 471l151 -150l-309 -356l135 -340l-225 -96z" />
<glyph unicode="&#xad;" horiz-adv-x="755" d="M70 489l75 289h580l-74 -289h-581z" />
<glyph unicode="&#xae;" horiz-adv-x="688" d="M145 1034q0 195 125 320q105 104 248 104q131 0 209 -85t78 -214q0 -197 -125 -321q-102 -102 -246 -103q-131 0 -210 85t-79 214zM186 1036q0 -113 66.5 -188.5t185.5 -75.5q121 0 211 90q117 117 117 293q0 113 -66.5 188.5t-185.5 75.5q-123 0 -211 -88 q-117 -117 -117 -295zM291 909l94 387h119q154 0 153 -120q0 -92 -98 -134l47 -133h-104l-41 117h-41l-27 -117h-102zM442 1110h37q45 0 64 18q14 14 14 37q0 43 -57 43h-35z" />
<glyph unicode="&#xaf;" horiz-adv-x="1024" d="M344 1206l55 209h652l-54 -209h-653z" />
<glyph unicode="&#xb0;" horiz-adv-x="837" d="M180 1051q0 176 123 299q99 98 240 98q133 0 210.5 -84t77.5 -219q0 -176 -122 -299q-98 -98 -238 -98q-135 0 -213 83.5t-78 219.5zM340 1059q0 -74 37 -118t100 -44q70 0 121 51q74 74 74 189q0 74 -36 117.5t-101 43.5q-70 0 -119 -49q-76 -76 -76 -190z" />
<glyph unicode="&#xb1;" horiz-adv-x="1134" d="M-4 61l65 254h897l-65 -254h-897zM170 760l68 264l313 -2l74 303h270l-76 -303l316 2l-68 -264l-315 2l-70 -303h-272l75 303z" />
<glyph unicode="&#xb2;" horiz-adv-x="722" d="M166 885l39 147l356 275q94 78 94 133q0 31 -23.5 50t-62.5 19q-78 0 -174 -86l-104 123q127 127 284 127q121 0 193 -61.5t72 -157.5q0 -74 -36 -132t-155 -140l-200 -144h301l-39 -153h-545z" />
<glyph unicode="&#xb3;" horiz-adv-x="722" d="M178 983l111 125q4 -4 20.5 -16.5t22.5 -16.5t20.5 -14t24.5 -14.5t25.5 -9.5t32 -7t34.5 -2q53 0 88 33t35 72q0 86 -156 90h-45v108l223 170h-270l39 158h506l-33 -131l-258 -191q176 -35 176 -192q0 -121 -86 -199t-223 -78q-176 0 -287 115z" />
<glyph unicode="&#xb4;" horiz-adv-x="1024" d="M428 1206l305 357l250 -115l-307 -242h-248z" />
<glyph unicode="&#xb6;" horiz-adv-x="1124" d="M147 868q0 233 158 392q174 174 518 174h375l-350 -1434h-307l100 432q-260 6 -381 127q-113 113 -113 309z" />
<glyph unicode="&#xb7;" horiz-adv-x="604" d="M106 471l82 328h332l-84 -328h-330z" />
<glyph unicode="&#xb8;" horiz-adv-x="1024" d="M123 -223l223 243h221l-215 -348z" />
<glyph unicode="&#xb9;" horiz-adv-x="587" d="M307 1563l256 100h131l-190 -778h-174l141 581l-149 -57z" />
<glyph unicode="&#xba;" horiz-adv-x="735" d="M104 586l33 127h502l-35 -127h-500zM197 1075q0 172 114 283q86 86 201 86q117 0 184.5 -71.5t67.5 -190.5q0 -172 -115 -283q-80 -84 -200 -84q-117 0 -184.5 70.5t-67.5 189.5zM360 1077q0 -53 25 -87t70 -34q43 0 77 35q68 66 68 189q0 53 -24.5 86.5t-69.5 33.5 q-43 0 -78 -34q-68 -68 -68 -189z" />
<glyph unicode="&#xbb;" horiz-adv-x="1206" d="M-12 217l309 356l-135 340l225 97l227 -455l-4 -16l-471 -471zM489 217l310 356l-135 340l223 97l229 -455l-4 -16l-471 -471z" />
<glyph unicode="&#xbc;" horiz-adv-x="1490" d="M33 0l639 752l559 682h176l-639 -752l-559 -682h-176zM221 1337l254 103h131l-188 -781h-174l139 584l-150 -59zM690 158l37 161l447 463h184l-119 -487h94l-37 -137h-94l-39 -158h-159l38 158h-352zM879 293h200l64 282h-4z" />
<glyph unicode="&#xbd;" horiz-adv-x="1490" d="M2 0l639 752l559 682h176l-639 -752l-559 -682h-176zM221 1337l254 103h131l-188 -781h-174l139 584l-150 -59zM684 0l39 147l356 275q94 78 95 133q0 31 -24 50.5t-63 19.5q-78 0 -174 -86l-104 123q127 127 285 126q121 0 192.5 -61t71.5 -158q0 -74 -36 -132 t-155 -140l-200 -143h301l-39 -154h-545z" />
<glyph unicode="&#xbe;" horiz-adv-x="1626" d="M82 758l111 125q4 -2 18 -14.5t19.5 -15.5t18.5 -12.5t20 -12.5t21.5 -9t26 -8t26.5 -4t32 -2q53 0 88 31.5t35 70.5q0 90 -158 90h-45v109l223 170h-270l41 158h506l-35 -131l-258 -189q176 -39 176 -194q0 -121 -86 -199t-223 -78q-172 0 -287 115zM164 0l639 752 l559 682h176l-639 -752l-559 -682h-176zM827 158l37 161l447 463h184l-119 -487h94l-36 -137h-95l-39 -158h-159l39 158h-353zM1016 293h201l63 282h-4z" />
<glyph unicode="&#xbf;" horiz-adv-x="968" d="M18 338q0 172 117 286.5t350 157.5l56 164h207l-39 -344l-13 -12q-174 -20 -264 -75.5t-90 -135.5q0 -53 32 -83t91 -30q106 0 235 101l156 -224q-186 -160 -424 -159q-190 0 -302 101t-112 253zM512 1108l82 326h328l-82 -326h-328z" />
<glyph unicode="&#xc0;" horiz-adv-x="1347" d="M-109 0l859 1444h301l153 -1444h-317l-25 322h-461l-178 -322h-332zM575 596h256l-22 469zM592 1747l268 113l166 -314h-211z" />
<glyph unicode="&#xc1;" horiz-adv-x="1347" d="M-109 0l859 1444h301l153 -1444h-317l-25 322h-461l-178 -322h-332zM575 596h256l-22 469zM795 1546l309 314l252 -113l-309 -201h-252z" />
<glyph unicode="&#xc2;" horiz-adv-x="1347" d="M-109 0l859 1444h301l153 -1444h-317l-25 322h-461l-178 -322h-332zM522 1540l316 295h290l170 -295h-223l-121 113l-176 -113h-256zM575 596h256l-22 469z" />
<glyph unicode="&#xc3;" horiz-adv-x="1347" d="M-109 0l859 1444h301l153 -1444h-317l-25 322h-461l-178 -322h-332zM537 1593q57 131 117.5 195.5t156.5 64.5q74 0 178 -45q63 -35 103 -34q68 0 122 92l164 -58q-59 -131 -119.5 -195.5t-156.5 -64.5q-74 0 -178 45q-66 35 -103 35q-68 0 -123 -92zM575 596h256 l-22 469z" />
<glyph unicode="&#xc4;" horiz-adv-x="1347" d="M-109 0l859 1444h301l153 -1444h-317l-25 322h-461l-178 -322h-332zM575 596h256l-22 469zM588 1552l63 252h285l-66 -252h-282zM987 1552l66 252h284l-65 -252h-285z" />
<glyph unicode="&#xc5;" horiz-adv-x="1347" d="M-109 0l822 1382q-33 49 -33 103q0 98 67.5 166.5t190.5 68.5q92 0 155.5 -56t63.5 -134q0 -121 -94 -189l141 -1341h-317l-25 322h-461l-178 -322h-332zM575 596h256l-22 469zM801 1495q0 -41 28.5 -67.5t75.5 -26.5q61 0 96 37t35 80t-29.5 70.5t-74.5 27.5 q-61 0 -96 -38t-35 -83z" />
<glyph unicode="&#xc6;" horiz-adv-x="1816" d="M-135 0l981 1434h1089l-73 -277h-568l-65 -299h493l-71 -272h-494l-72 -310h580l-72 -276h-884l75 322h-381l-206 -322h-332zM610 596h246l133 569h-28z" />
<glyph unicode="&#xc7;" horiz-adv-x="1228" d="M106 573q0 184 69 366.5t190 305.5q213 209 485 209q301 0 479 -244l-242 -204q-61 82 -120.5 121.5t-137.5 39.5q-121 0 -227 -106q-78 -78 -127 -208t-49 -269q0 -143 71.5 -230.5t192.5 -87.5q117 0 246 105l174 -219q-186 -172 -418 -172h-30l-191 -308l-229 105 l219 239q-166 61 -260.5 206t-94.5 351z" />
<glyph unicode="&#xc8;" horiz-adv-x="1159" d="M6 0l350 1434h912l-72 -277h-602l-68 -299h529l-72 -272h-528l-70 -310h614l-73 -276h-920zM498 1731l268 112l166 -313h-211z" />
<glyph unicode="&#xc9;" horiz-adv-x="1159" d="M6 0l350 1434h912l-72 -277h-602l-68 -299h529l-72 -272h-528l-70 -310h614l-73 -276h-920zM698 1530l310 313l252 -112l-310 -201h-252z" />
<glyph unicode="&#xca;" horiz-adv-x="1159" d="M6 0l350 1434h912l-72 -277h-602l-68 -299h529l-72 -272h-528l-70 -310h614l-73 -276h-920zM432 1534l316 295h290l170 -295h-223l-121 113l-176 -113h-256z" />
<glyph unicode="&#xcb;" horiz-adv-x="1159" d="M6 0l350 1434h912l-72 -277h-602l-68 -299h529l-72 -272h-528l-70 -310h614l-73 -276h-920zM492 1536l63 252h285l-66 -252h-282zM891 1536l65 252h285l-65 -252h-285z" />
<glyph unicode="&#xcc;" horiz-adv-x="622" d="M20 0l351 1434h311l-350 -1434h-312zM215 1731l268 112l166 -313h-211z" />
<glyph unicode="&#xcd;" horiz-adv-x="622" d="M20 0l351 1434h311l-350 -1434h-312zM418 1530l309 313l252 -112l-309 -201h-252z" />
<glyph unicode="&#xce;" horiz-adv-x="622" d="M20 0l351 1434h311l-350 -1434h-312zM150 1534l315 295h291l170 -295h-224l-120 113l-176 -113h-256z" />
<glyph unicode="&#xcf;" horiz-adv-x="622" d="M20 0l351 1434h311l-350 -1434h-312zM211 1536l63 252h285l-65 -252h-283zM610 1536l66 252h285l-66 -252h-285z" />
<glyph unicode="&#xd0;" horiz-adv-x="1384" d="M14 584l72 274h156l141 576h358q309 0 469 -156q145 -145 146 -424q0 -166 -63.5 -335t-188.5 -294q-225 -225 -639 -225h-432l141 584h-160zM414 281h90q236 0 368 135q80 80 122 198.5t42 229.5q0 157 -78 231q-74 78 -241 78h-96l-70 -295h205l-74 -274h-197z" />
<glyph unicode="&#xd1;" horiz-adv-x="1380" d="M6 0l350 1434h289l291 -899l213 899h305l-350 -1434h-268l-306 930l-217 -930h-307zM537 1577q57 131 117.5 195.5t156.5 64.5q74 0 178 -45q63 -35 103 -35q68 0 122 92l164 -57q-59 -131 -119.5 -195.5t-156.5 -64.5q-74 0 -178 45q-66 35 -103 35q-68 0 -123 -92z" />
<glyph unicode="&#xd2;" d="M102 559q0 186 71 377.5t196 316.5q202 203 493 203q248 0 394.5 -160.5t146.5 -421.5q0 -186 -69.5 -376.5t-196.5 -317.5q-203 -203 -494 -203q-248 0 -394.5 161t-146.5 421zM422 582q0 -152 66.5 -235t193.5 -83q121 0 219 98q82 82 132 224.5t50 265.5 q0 152 -66.5 234.5t-193.5 82.5q-125 0 -219 -98q-82 -82 -132 -224t-50 -265zM608 1747l269 113l165 -314h-211z" />
<glyph unicode="&#xd3;" d="M102 559q0 186 71 377.5t196 316.5q202 203 493 203q248 0 394.5 -160.5t146.5 -421.5q0 -186 -69.5 -376.5t-196.5 -317.5q-203 -203 -494 -203q-248 0 -394.5 161t-146.5 421zM422 582q0 -152 66.5 -235t193.5 -83q121 0 219 98q82 82 132 224.5t50 265.5 q0 152 -66.5 234.5t-193.5 82.5q-125 0 -219 -98q-82 -82 -132 -224t-50 -265zM795 1546l309 314l252 -113l-309 -201h-252z" />
<glyph unicode="&#xd4;" d="M102 559q0 186 71 377.5t196 316.5q202 203 493 203q248 0 394.5 -160.5t146.5 -421.5q0 -186 -69.5 -376.5t-196.5 -317.5q-203 -203 -494 -203q-248 0 -394.5 161t-146.5 421zM422 582q0 -152 66.5 -235t193.5 -83q121 0 219 98q82 82 132 224.5t50 265.5 q0 152 -66.5 234.5t-193.5 82.5q-125 0 -219 -98q-82 -82 -132 -224t-50 -265zM543 1550l315 295h291l170 -295h-223l-121 113l-176 -113h-256z" />
<glyph unicode="&#xd5;" d="M102 559q0 186 71 377.5t196 316.5q202 203 493 203q248 0 394.5 -160.5t146.5 -421.5q0 -186 -69.5 -376.5t-196.5 -317.5q-203 -203 -494 -203q-248 0 -394.5 161t-146.5 421zM422 582q0 -152 66.5 -235t193.5 -83q121 0 219 98q82 82 132 224.5t50 265.5 q0 152 -66.5 234.5t-193.5 82.5q-125 0 -219 -98q-82 -82 -132 -224t-50 -265zM555 1593q57 131 117.5 195.5t156.5 64.5q74 0 179 -45q63 -35 102 -34q68 0 123 92l164 -58q-59 -131 -119.5 -195.5t-157.5 -64.5q-74 0 -178 45q-66 35 -102 35q-68 0 -123 -92z" />
<glyph unicode="&#xd6;" d="M102 559q0 186 71 377.5t196 316.5q202 203 493 203q248 0 394.5 -160.5t146.5 -421.5q0 -186 -69.5 -376.5t-196.5 -317.5q-203 -203 -494 -203q-248 0 -394.5 161t-146.5 421zM422 582q0 -152 66.5 -235t193.5 -83q121 0 219 98q82 82 132 224.5t50 265.5 q0 152 -66.5 234.5t-193.5 82.5q-125 0 -219 -98q-82 -82 -132 -224t-50 -265zM604 1552l64 252h284l-65 -252h-283zM1004 1552l65 252h285l-66 -252h-284z" />
<glyph unicode="&#xd7;" horiz-adv-x="1134" d="M94 469l332 266l-195 262l232 183l184 -271l330 273l158 -209l-332 -264l194 -260l-229 -185l-186 266l-328 -270z" />
<glyph unicode="&#xd8;" d="M-70 -10l242 256q-70 135 -70 313q0 186 71 377.5t196 316.5q202 203 493 203q201 0 338 -108l90 98h285l-244 -258q72 -139 72 -314q0 -186 -69.5 -376.5t-196.5 -317.5q-203 -203 -494 -203q-203 0 -340 109l-88 -96h-285zM410 575q0 -47 6 -83l575 643q-70 49 -166 49 q-129 0 -227 -103q-82 -82 -135 -228.5t-53 -277.5zM514 299q62 -49 166 -49q127 0 227 104q82 82 135.5 227.5t53.5 278.5q0 45 -6 84z" />
<glyph unicode="&#xd9;" horiz-adv-x="1345" d="M125 410q0 92 35 221l192 803h310l-199 -826q-23 -90 -23 -155q0 -88 49.5 -138.5t131.5 -50.5q104 0 172 64q76 76 112 229l211 877h309l-221 -920q-66 -260 -192 -387q-150 -150 -424 -150q-213 0 -338 113t-125 320zM563 1731l268 112l166 -313h-211z" />
<glyph unicode="&#xda;" horiz-adv-x="1345" d="M125 410q0 92 35 221l192 803h310l-199 -826q-23 -90 -23 -155q0 -88 49.5 -138.5t131.5 -50.5q104 0 172 64q76 76 112 229l211 877h309l-221 -920q-66 -260 -192 -387q-150 -150 -424 -150q-213 0 -338 113t-125 320zM768 1530l309 313l252 -112l-309 -201h-252z" />
<glyph unicode="&#xdb;" horiz-adv-x="1345" d="M125 410q0 92 35 221l192 803h310l-199 -826q-23 -90 -23 -155q0 -88 49.5 -138.5t131.5 -50.5q104 0 172 64q76 76 112 229l211 877h309l-221 -920q-66 -260 -192 -387q-150 -150 -424 -150q-213 0 -338 113t-125 320zM500 1534l315 295h291l170 -295h-223l-121 113 l-176 -113h-256z" />
<glyph unicode="&#xdc;" horiz-adv-x="1345" d="M125 410q0 92 35 221l192 803h310l-199 -826q-23 -90 -23 -155q0 -88 49.5 -138.5t131.5 -50.5q104 0 172 64q76 76 112 229l211 877h309l-221 -920q-66 -260 -192 -387q-150 -150 -424 -150q-213 0 -338 113t-125 320zM559 1536l64 252h284l-65 -252h-283zM958 1536 l66 252h285l-66 -252h-285z" />
<glyph unicode="&#xdd;" horiz-adv-x="1132" d="M178 1434h342l105 -576l379 576h368l-659 -879l-138 -555h-309l140 578zM645 1530l309 313l252 -112l-309 -201h-252z" />
<glyph unicode="&#xde;" horiz-adv-x="1220" d="M6 0l350 1434h312l-52 -207h46q285 0 417 -133q111 -106 111 -299q0 -236 -154 -389q-180 -180 -491 -181h-174l-54 -225h-311zM440 498h119q145 0 232 82q74 74 73 192q0 74 -45 123q-53 53 -172 53h-102z" />
<glyph unicode="&#xdf;" horiz-adv-x="1118" d="M-20 0l258 1061q49 203 157 311q119 119 318 119q186 0 292.5 -102.5t106.5 -266.5q0 -141 -72.5 -251.5t-203.5 -155.5q174 -94 174 -277q0 -207 -165 -341t-462 -101l63 235q131 -8 204 56.5t73 165.5q0 150 -186 176l51 196q115 25 176 98.5t61 168.5 q0 68 -35.5 104.5t-84.5 36.5q-123 0 -168 -186l-254 -1047h-303z" />
<glyph unicode="&#xe0;" horiz-adv-x="1050" d="M0 272q0 176 113 289q117 117 317 117q115 0 240 -47l4 18q14 61 14 101q0 109 -158 108q-106 0 -239 -59l-68 243q168 76 361 76q197 0 300 -78.5t103 -222.5q0 -84 -33 -215l-143 -602h-297l27 115q-118 -133 -265 -133q-129 0 -202.5 81.5t-73.5 208.5zM303 303 q0 -51 30 -83t79 -32q74 0 127 60.5t73 144.5l17 72q-70 31 -140 31q-86 0 -133 -52q-53 -53 -53 -141zM367 1450l260 115l143 -357h-209z" />
<glyph unicode="&#xe1;" horiz-adv-x="1050" d="M0 272q0 176 113 289q117 117 317 117q115 0 240 -47l4 18q14 61 14 101q0 109 -158 108q-106 0 -239 -59l-68 243q168 76 361 76q197 0 300 -78.5t103 -222.5q0 -84 -33 -215l-143 -602h-297l27 115q-118 -133 -265 -133q-129 0 -202.5 81.5t-73.5 208.5zM303 303 q0 -51 30 -83t79 -32q74 0 127 60.5t73 144.5l17 72q-70 31 -140 31q-86 0 -133 -52q-53 -53 -53 -141zM553 1208l305 357l250 -115l-307 -242h-248z" />
<glyph unicode="&#xe2;" horiz-adv-x="1050" d="M0 272q0 176 113 289q117 117 317 117q115 0 240 -47l4 18q14 61 14 101q0 109 -158 108q-106 0 -239 -59l-68 243q168 76 361 76q197 0 300 -78.5t103 -222.5q0 -84 -33 -215l-143 -602h-297l27 115q-118 -133 -265 -133q-129 0 -202.5 81.5t-73.5 208.5zM291 1210 l309 322h291l149 -322h-219l-110 142l-176 -142h-244zM303 303q0 -51 30 -83t79 -32q74 0 127 60.5t73 144.5l17 72q-70 31 -140 31q-86 0 -133 -52q-53 -53 -53 -141z" />
<glyph unicode="&#xe3;" horiz-adv-x="1050" d="M0 272q0 176 113 289q117 117 317 117q115 0 240 -47l4 18q14 61 14 101q0 109 -158 108q-106 0 -239 -59l-68 243q168 76 361 76q197 0 300 -78.5t103 -222.5q0 -84 -33 -215l-143 -602h-297l27 115q-118 -133 -265 -133q-129 0 -202.5 81.5t-73.5 208.5zM301 1251 q55 133 115.5 200t154.5 67q72 0 166 -48q61 -37 97 -36q39 0 64 22.5t54 73.5l162 -55q-57 -133 -116.5 -200t-153.5 -67q-80 0 -166 49q-68 37 -96 37q-66 0 -119 -98zM303 303q0 -51 30 -83t79 -32q74 0 127 60.5t73 144.5l17 72q-70 31 -140 31q-86 0 -133 -52 q-53 -53 -53 -141z" />
<glyph unicode="&#xe4;" horiz-adv-x="1050" d="M0 272q0 176 113 289q117 117 317 117q115 0 240 -47l4 18q14 61 14 101q0 109 -158 108q-106 0 -239 -59l-68 243q168 76 361 76q197 0 300 -78.5t103 -222.5q0 -84 -33 -215l-143 -602h-297l27 115q-118 -133 -265 -133q-129 0 -202.5 81.5t-73.5 208.5zM303 303 q0 -51 30 -83t79 -32q74 0 127 60.5t73 144.5l17 72q-70 31 -140 31q-86 0 -133 -52q-53 -53 -53 -141zM342 1214l68 267h284l-69 -267h-283zM735 1214l70 267h282l-67 -267h-285z" />
<glyph unicode="&#xe5;" horiz-adv-x="1050" d="M0 272q0 176 113 289q117 117 317 117q115 0 240 -47l4 18q14 61 14 101q0 109 -158 108q-106 0 -239 -59l-68 243q168 76 361 76q197 0 300 -78.5t103 -222.5q0 -84 -33 -215l-143 -602h-297l27 115q-118 -133 -265 -133q-129 0 -202.5 81.5t-73.5 208.5zM303 303 q0 -51 30 -83t79 -32q74 0 127 60.5t73 144.5l17 72q-70 31 -140 31q-86 0 -133 -52q-53 -53 -53 -141zM508 1401q0 100 68.5 178t173.5 78q92 0 148 -56.5t56 -140.5q0 -102 -67.5 -178t-173.5 -76q-92 0 -148.5 55.5t-56.5 139.5zM621 1411q0 -49 27.5 -77.5t70.5 -28.5 q55 0 89 45t34 100q0 49 -27 77.5t-70 28.5q-55 0 -89.5 -45t-34.5 -100z" />
<glyph unicode="&#xe6;" horiz-adv-x="1648" d="M0 272q0 176 113 289q117 117 317 117q115 0 240 -47l4 18q14 66 14 101q0 109 -158 108q-106 0 -239 -59l-68 243q168 76 363 76q227 0 307 -143q147 152 336 151q164 0 269.5 -114.5t105.5 -296.5q0 -127 -54 -271h-635q4 -104 50.5 -162.5t132.5 -58.5q98 0 209 80 l129 -205q-154 -118 -353 -118q-262 0 -364 208q-162 -207 -410 -206q-156 0 -232.5 78.5t-76.5 211.5zM303 303q0 -115 127 -115q57 0 125 42t115 106q-6 53 -6 113q-82 47 -168 47q-92 0 -140 -52q-53 -53 -53 -141zM942 635h369q12 47 12 96q0 68 -35 109t-100 41 q-82 0 -148 -66q-61 -61 -98 -180z" />
<glyph unicode="&#xe7;" horiz-adv-x="954" d="M66 444q0 150 53 287t147 232q166 162 375 161q137 0 224 -50t151 -146l-223 -178q-74 115 -158 114q-74 0 -137 -63q-59 -59 -95 -158.5t-36 -193.5q0 -100 41 -155.5t108 -55.5q70 0 174 84l152 -195q-150 -143 -328 -147l-188 -308l-230 105l217 237q-117 49 -182 161 t-65 269z" />
<glyph unicode="&#xe8;" horiz-adv-x="1081" d="M66 461q0 143 54 277t150 231q158 158 373 157q178 0 285.5 -113.5t107.5 -297.5q0 -128 -53 -271h-635q4 -104 50 -162.5t132 -58.5q98 0 209 80l129 -205q-154 -119 -352 -118q-213 0 -331.5 129t-118.5 352zM375 635h368q12 47 13 96q0 68 -35 109t-100 41 q-82 0 -148 -66q-61 -61 -98 -180zM399 1450l260 115l144 -357h-209z" />
<glyph unicode="&#xe9;" horiz-adv-x="1081" d="M66 461q0 143 54 277t150 231q158 158 373 157q178 0 285.5 -113.5t107.5 -297.5q0 -128 -53 -271h-635q4 -104 50 -162.5t132 -58.5q98 0 209 80l129 -205q-154 -119 -352 -118q-213 0 -331.5 129t-118.5 352zM375 635h368q12 47 13 96q0 68 -35 109t-100 41 q-82 0 -148 -66q-61 -61 -98 -180zM584 1208l305 357l250 -115l-308 -242h-247z" />
<glyph unicode="&#xea;" horiz-adv-x="1081" d="M66 461q0 143 54 277t150 231q158 158 373 157q178 0 285.5 -113.5t107.5 -297.5q0 -128 -53 -271h-635q4 -104 50 -162.5t132 -58.5q98 0 209 80l129 -205q-154 -119 -352 -118q-213 0 -331.5 129t-118.5 352zM324 1210l309 322h291l149 -322h-219l-111 142l-176 -142 h-243zM375 635h368q12 47 13 96q0 68 -35 109t-100 41q-82 0 -148 -66q-61 -61 -98 -180z" />
<glyph unicode="&#xeb;" horiz-adv-x="1081" d="M66 461q0 143 54 277t150 231q158 158 373 157q178 0 285.5 -113.5t107.5 -297.5q0 -128 -53 -271h-635q4 -104 50 -162.5t132 -58.5q98 0 209 80l129 -205q-154 -119 -352 -118q-213 0 -331.5 129t-118.5 352zM373 1214l67 267h285l-70 -267h-282zM375 635h368 q12 47 13 96q0 68 -35 109t-100 41q-82 0 -148 -66q-61 -61 -98 -180zM766 1214l70 267h282l-67 -267h-285z" />
<glyph unicode="&#xec;" horiz-adv-x="557" d="M-10 0l270 1108h307l-270 -1108h-307zM129 1448l260 115l143 -357h-208z" />
<glyph unicode="&#xed;" horiz-adv-x="557" d="M-10 0l270 1108h307l-270 -1108h-307zM317 1206l306 357l249 -115l-307 -242h-248z" />
<glyph unicode="&#xee;" horiz-adv-x="557" d="M-10 0l270 1108h307l-270 -1108h-307zM55 1208l310 322h290l150 -322h-219l-111 142l-176 -142h-244z" />
<glyph unicode="&#xef;" horiz-adv-x="557" d="M-10 0l270 1108h307l-270 -1108h-307zM104 1212l68 267h285l-70 -267h-283zM498 1212l69 267h283l-68 -267h-284z" />
<glyph unicode="&#xf0;" horiz-adv-x="1161" d="M70 438q0 158 53 301.5t143 233.5q137 137 312 137q121 0 206 -92q-31 94 -104 196l-223 -55l-45 154l159 39q-39 45 -120 127h368l45 -56l223 56l46 -152l-172 -43q133 -223 133 -493q0 -199 -64.5 -375t-173.5 -285q-150 -154 -362 -154q-193 0 -308.5 121t-115.5 340z M362 446q0 -100 40 -155t114 -55q76 0 135 59q57 59 94 162.5t37 204.5q0 102 -40 156t-109 54q-82 0 -146 -67q-55 -55 -90 -155.5t-35 -203.5z" />
<glyph unicode="&#xf1;" horiz-adv-x="1103" d="M-20 0l270 1108h305l-25 -102q125 121 258 120q121 0 194 -74.5t73 -207.5q0 -72 -37 -223l-150 -621h-307l152 623q18 74 18 118q0 106 -106 107q-68 0 -114 -51.5t-65 -134.5l-161 -662h-305zM317 1251q55 133 116 200t155 67q72 0 166 -48q61 -37 96 -36 q39 0 64.5 22.5t54.5 73.5l161 -55q-57 -133 -116.5 -200t-153.5 -67q-80 0 -166 49q-68 37 -96 37q-66 0 -119 -98z" />
<glyph unicode="&#xf2;" horiz-adv-x="1148" d="M68 457q0 147 53 283.5t147 230.5q156 155 365 155t329.5 -132t120.5 -347q0 -145 -53 -281.5t-147 -232.5q-156 -156 -365 -156q-207 0 -328.5 132.5t-121.5 347.5zM365 465q0 -111 43.5 -168t121.5 -57q74 0 131.5 57t91 155.5t33.5 186.5q0 111 -44 168t-121 57 q-74 0 -131.5 -57t-91 -155.5t-33.5 -186.5zM420 1450l260 115l143 -357h-209z" />
<glyph unicode="&#xf3;" horiz-adv-x="1148" d="M68 457q0 147 53 283.5t147 230.5q156 155 365 155t329.5 -132t120.5 -347q0 -145 -53 -281.5t-147 -232.5q-156 -156 -365 -156q-207 0 -328.5 132.5t-121.5 347.5zM365 465q0 -111 43.5 -168t121.5 -57q74 0 131.5 57t91 155.5t33.5 186.5q0 111 -44 168t-121 57 q-74 0 -131.5 -57t-91 -155.5t-33.5 -186.5zM588 1208l305 357l250 -115l-307 -242h-248z" />
<glyph unicode="&#xf4;" horiz-adv-x="1148" d="M68 457q0 147 53 283.5t147 230.5q156 155 365 155t329.5 -132t120.5 -347q0 -145 -53 -281.5t-147 -232.5q-156 -156 -365 -156q-207 0 -328.5 132.5t-121.5 347.5zM344 1210l309 322h291l150 -322h-220l-110 142l-176 -142h-244zM365 465q0 -111 43.5 -168t121.5 -57 q74 0 131.5 57t91 155.5t33.5 186.5q0 111 -44 168t-121 57q-74 0 -131.5 -57t-91 -155.5t-33.5 -186.5z" />
<glyph unicode="&#xf5;" horiz-adv-x="1148" d="M68 457q0 147 53 283.5t147 230.5q156 155 365 155t329.5 -132t120.5 -347q0 -145 -53 -281.5t-147 -232.5q-156 -156 -365 -156q-207 0 -328.5 132.5t-121.5 347.5zM354 1251q55 133 115.5 200t155.5 67q72 0 166 -48q61 -37 96 -36q39 0 64.5 22.5t54.5 73.5l161 -55 q-57 -133 -116.5 -200t-153.5 -67q-80 0 -166 49q-68 37 -96 37q-66 0 -119 -98zM365 465q0 -111 43.5 -168t121.5 -57q74 0 131.5 57t91 155.5t33.5 186.5q0 111 -44 168t-121 57q-74 0 -131.5 -57t-91 -155.5t-33.5 -186.5z" />
<glyph unicode="&#xf6;" horiz-adv-x="1148" d="M68 457q0 147 53 283.5t147 230.5q156 155 365 155t329.5 -132t120.5 -347q0 -145 -53 -281.5t-147 -232.5q-156 -156 -365 -156q-207 0 -328.5 132.5t-121.5 347.5zM365 465q0 -111 43.5 -168t121.5 -57q74 0 131.5 57t91 155.5t33.5 186.5q0 111 -44 168t-121 57 q-74 0 -131.5 -57t-91 -155.5t-33.5 -186.5zM391 1214l68 267h284l-69 -267h-283zM784 1214l70 267h283l-68 -267h-285z" />
<glyph unicode="&#xf7;" horiz-adv-x="1134" d="M121 592l67 258h908l-70 -258h-905zM322 180l71 283h303l-71 -283h-303zM520 979l72 283h303l-72 -283h-303z" />
<glyph unicode="&#xf8;" horiz-adv-x="1148" d="M-88 -12l211 217q-55 115 -55 252q0 147 53 283.5t147 230.5q156 155 365 155q164 0 278 -88l72 76h256l-213 -215q57 -111 57 -252q0 -145 -53 -281.5t-147 -232.5q-156 -156 -365 -156q-168 0 -278 86l-72 -75h-256zM354 430l367 418q-39 29 -92 29q-82 0 -148 -66 q-59 -59 -93 -156.5t-34 -189.5v-35zM428 256q41 -29 94 -29q82 0 148 66q59 59 93 156.5t34 189.5q0 23 -2 33z" />
<glyph unicode="&#xf9;" horiz-adv-x="1112" d="M59 264q0 72 37 223l150 621h307l-152 -623q-18 -74 -18 -118q0 -106 106 -107q68 0 114 51t65 135l161 662h306l-271 -1108h-305l25 102q-125 -121 -258 -120q-121 0 -194 74.5t-73 207.5zM406 1446l260 115l143 -357h-209z" />
<glyph unicode="&#xfa;" horiz-adv-x="1112" d="M59 264q0 72 37 223l150 621h307l-152 -623q-18 -74 -18 -118q0 -106 106 -107q68 0 114 51t65 135l161 662h306l-271 -1108h-305l25 102q-125 -121 -258 -120q-121 0 -194 74.5t-73 207.5zM590 1204l305 357l250 -115l-307 -242h-248z" />
<glyph unicode="&#xfb;" horiz-adv-x="1112" d="M59 264q0 72 37 223l150 621h307l-152 -623q-18 -74 -18 -118q0 -106 106 -107q68 0 114 51t65 135l161 662h306l-271 -1108h-305l25 102q-125 -121 -258 -120q-121 0 -194 74.5t-73 207.5zM328 1206l309 322h291l149 -322h-219l-110 142l-177 -142h-243z" />
<glyph unicode="&#xfc;" horiz-adv-x="1112" d="M59 264q0 72 37 223l150 621h307l-152 -623q-18 -74 -18 -118q0 -106 106 -107q68 0 114 51t65 135l161 662h306l-271 -1108h-305l25 102q-125 -121 -258 -120q-121 0 -194 74.5t-73 207.5zM375 1210l67 267h285l-70 -267h-282zM768 1210l70 267h282l-67 -267h-285z" />
<glyph unicode="&#xfd;" horiz-adv-x="1058" d="M-45 -217l145 203q53 -45 96 -45t68 49l-82 1118h312l2 -746l331 746h326l-586 -1124q-84 -160 -167 -228.5t-201 -68.5q-143 0 -244 96zM557 1204l305 357l250 -115l-307 -242h-248z" />
<glyph unicode="&#xfe;" horiz-adv-x="1189" d="M-96 -307l434 1786h307l-117 -482q133 129 263 129q143 0 239 -117.5t96 -328.5q0 -160 -54 -306.5t-152 -244.5q-150 -145 -330 -145t-275 161l-106 -452h-305zM379 452.5q0 -100.5 45 -156.5t119 -56q78 0 141 63q129 129 129 352q0 100 -42 157.5t-122 57.5t-143 -63 q-59 -59 -93 -156.5t-34 -198z" />
<glyph unicode="&#xff;" horiz-adv-x="1058" d="M-45 -217l145 203q53 -45 96 -45t68 49l-82 1118h312l2 -746l331 746h326l-586 -1124q-84 -160 -167 -228.5t-201 -68.5q-143 0 -244 96zM346 1210l68 267h284l-69 -267h-283zM739 1210l70 267h283l-68 -267h-285z" />
<glyph unicode="&#x152;" horiz-adv-x="1820" d="M106 580q0 164 65 333.5t189 294.5q225 225 637 226h942l-71 -277h-570l-65 -299h493l-71 -272h-494l-71 -310h581l-74 -276h-876q-311 0 -477 166q-137 137 -138 414zM428 590q0 -156 76 -232q78 -78 241 -77h35l207 872h-29q-233 0 -368 -135q-78 -80 -120 -199 t-42 -229z" />
<glyph unicode="&#x153;" horiz-adv-x="1800" d="M68 457q0 145 53 281t147 233q156 156 365 155q248 0 352 -194q156 195 385 194q172 0 278.5 -113.5t106.5 -297.5q0 -128 -53 -271h-635q4 -104 50 -162.5t132 -58.5q98 0 209 80l129 -205q-154 -119 -346 -118q-256 0 -362 184q-154 -186 -359 -187 q-209 0 -330.5 132.5t-121.5 347.5zM365 465q0 -111 43.5 -168t121.5 -57q74 0 131.5 57t91 155.5t33.5 186.5q0 111 -44 168t-121 57q-74 0 -131.5 -57t-91 -155.5t-33.5 -186.5zM1094 635h368q12 45 13 96q0 68 -35 109t-101 41q-81 0 -147 -66q-61 -61 -98 -180z" />
<glyph unicode="&#x178;" horiz-adv-x="1132" d="M178 1434h342l105 -576l379 576h368l-659 -879l-138 -555h-309l140 578zM438 1536l64 252h284l-65 -252h-283zM838 1536l65 252h285l-66 -252h-284z" />
<glyph unicode="&#x2c6;" horiz-adv-x="1024" d="M297 1208l309 322h291l150 -322h-220l-110 142l-176 -142h-244z" />
<glyph unicode="&#x2dc;" horiz-adv-x="1024" d="M301 1249q55 133 115.5 200t154.5 67q72 0 166 -48q61 -37 97 -36q39 0 64 22.5t54 73.5l162 -55q-57 -133 -116.5 -200t-153.5 -67q-80 0 -166 49q-68 37 -96 37q-66 0 -119 -98z" />
<glyph unicode="&#x2000;" horiz-adv-x="933" />
<glyph unicode="&#x2001;" horiz-adv-x="1866" />
<glyph unicode="&#x2002;" horiz-adv-x="933" />
<glyph unicode="&#x2003;" horiz-adv-x="1866" />
<glyph unicode="&#x2004;" horiz-adv-x="622" />
<glyph unicode="&#x2005;" horiz-adv-x="466" />
<glyph unicode="&#x2006;" horiz-adv-x="311" />
<glyph unicode="&#x2007;" horiz-adv-x="311" />
<glyph unicode="&#x2008;" horiz-adv-x="233" />
<glyph unicode="&#x2009;" horiz-adv-x="373" />
<glyph unicode="&#x200a;" horiz-adv-x="103" />
<glyph unicode="&#x2010;" horiz-adv-x="755" d="M70 489l75 289h580l-74 -289h-581z" />
<glyph unicode="&#x2011;" horiz-adv-x="755" d="M70 489l75 289h580l-74 -289h-581z" />
<glyph unicode="&#x2012;" horiz-adv-x="755" d="M70 489l75 289h580l-74 -289h-581z" />
<glyph unicode="&#x2013;" horiz-adv-x="1005" d="M70 492l73 284h832l-72 -284h-833z" />
<glyph unicode="&#x2014;" horiz-adv-x="1644" d="M70 492l73 284h1471l-74 -284h-1470z" />
<glyph unicode="&#x2018;" horiz-adv-x="602" d="M156 791l69 274q49 197 158 285t293 94l22 -131q-123 -12 -182 -59.5t-76 -137.5h127l-82 -325h-329z" />
<glyph unicode="&#x2019;" horiz-adv-x="602" d="M129 909q123 12 183.5 60.5t74.5 138.5h-127l82 326h330l-70 -275q-49 -197 -157.5 -285t-292.5 -94z" />
<glyph unicode="&#x201a;" horiz-adv-x="602" d="M-129 -199q123 12 183.5 60.5t74.5 138.5h-127l82 326h330l-70 -275q-47 -197 -156.5 -286t-293.5 -95z" />
<glyph unicode="&#x201c;" horiz-adv-x="1091" d="M160 788l67 275q49 195 159 284t292 95l22 -131q-123 -12 -182 -59.5t-74 -137.5h127l-84 -326h-327zM647 788l70 275q49 197 157.5 285t292.5 94l23 -131q-123 -12 -182.5 -59.5t-75.5 -137.5h127l-82 -326h-330z" />
<glyph unicode="&#x201d;" horiz-adv-x="1091" d="M131 909q123 12 183.5 60.5t74.5 138.5h-127l84 326h328l-68 -275q-49 -195 -158.5 -284t-293.5 -95zM621 909q121 12 181 60.5t77 138.5h-127l82 326h329l-69 -275q-49 -197 -158 -285t-293 -94z" />
<glyph unicode="&#x201e;" horiz-adv-x="1089" d="M-129 -199q123 12 183.5 60.5t74.5 138.5h-127l82 326h330l-70 -275q-47 -197 -156.5 -286t-293.5 -95zM358 -199q123 12 183.5 60.5t74.5 138.5h-127l84 326h328l-67 -275q-49 -197 -159 -286t-294 -95z" />
<glyph unicode="&#x2022;" horiz-adv-x="923" d="M244 643q0 178 118 297q84 84 197 84q100 0 157.5 -59.5t57.5 -159.5q0 -178 -119 -297q-84 -84 -196 -84q-102 0 -158.5 59.5t-56.5 159.5z" />
<glyph unicode="&#x2026;" horiz-adv-x="1652" d="M2 0l80 319h324l-82 -319h-322zM532 0l80 319h324l-82 -319h-322zM1061 0l82 319h321l-80 -319h-323z" />
<glyph unicode="&#x202f;" horiz-adv-x="373" />
<glyph unicode="&#x2039;" horiz-adv-x="704" d="M84 522l4 17l471 471l152 -150l-310 -356l136 -340l-224 -96z" />
<glyph unicode="&#x203a;" horiz-adv-x="704" d="M-12 217l309 356l-135 340l223 97l229 -455l-4 -16l-471 -471z" />
<glyph unicode="&#x205f;" horiz-adv-x="466" />
<glyph unicode="&#x20ac;" horiz-adv-x="1271" d="M33 449l51 200h139q8 68 25 144h-131l49 196h135q68 178 184 295q170 170 424 170q154 0 267.5 -74.5t171.5 -201.5l-261 -148q-45 76 -91 110t-111 34q-98 0 -162 -64q-51 -51 -84 -121h322l-52 -196h-331q-20 -63 -33 -144h332l-52 -200h-290q12 -94 60 -141.5 t122 -47.5q100 0 207 100l204 -188q-168 -193 -419 -192q-215 0 -345.5 124.5t-150.5 344.5h-180z" />
<glyph unicode="&#x2122;" horiz-adv-x="1245" d="M197 1309l34 125h453l-33 -125h-157l-119 -510h-139l118 510h-157zM647 799l152 635h147l62 -252l180 252h155l-149 -635h-133l98 432l-196 -275h-13l-71 275l-99 -432h-133z" />
<glyph unicode="&#x25fc;" horiz-adv-x="1105" d="M0 0v1106h1106v-1106h-1106z" />
</font>
</defs>
</svg>
