<?xml version="1.0" standalone="no"?>
<!DOCTYPE svg PUBLIC "-//W3C//DTD SVG 1.1//EN" "http://www.w3.org/Graphics/SVG/1.1/DTD/svg11.dtd" >
<svg xmlns="http://www.w3.org/2000/svg">
<metadata></metadata>
<defs>
<font id="gnblblack" horiz-adv-x="1396" >
<font-face units-per-em="2048" ascent="1638" descent="-410" />
<missing-glyph horiz-adv-x="487" />
<glyph unicode="&#xfb01;" horiz-adv-x="1280" d="M37 819v285h108v33q0 178 88 268q90 88 269 88q125 0 213 -25v-260q-61 14 -113 15q-102 0 -102 -99v-24h215v-281h-209v-819h-361v819h-108zM819 1202v281h373v-281h-373zM825 0v1108h361v-1108h-361z" />
<glyph unicode="&#xfb02;" horiz-adv-x="1280" d="M37 819v285h108v33q0 178 88 268q90 88 269 88q125 0 213 -25v-260q-61 14 -113 15q-102 0 -102 -99v-24h215v-281h-209v-819h-361v819h-108zM825 0v1483h361v-1483h-361z" />
<glyph unicode="&#xfb03;" horiz-adv-x="2009" d="M37 819v285h108v33q0 178 88 268q90 88 269 88q125 0 213 -25v-260q-61 14 -113 15q-102 0 -102 -99v-24h215v-281h-209v-819h-361v819h-108zM766 819v281h108v37q0 180 89 268q90 88 268 88q125 0 213 -25v-260q-61 14 -113 15q-102 0 -102 -99v-24h215v-281h-209v-819 h-361v819h-108zM1546 1202v281h373v-281h-373zM1552 0v1108h361v-1108h-361z" />
<glyph unicode="&#xfb04;" horiz-adv-x="2009" d="M37 819v285h108v33q0 178 88 268q90 88 269 88q125 0 213 -25v-260q-61 14 -113 15q-102 0 -102 -99v-24h215v-281h-209v-819h-361v819h-108zM766 819v281h108v37q0 180 89 268q90 88 268 88q125 0 213 -25v-260q-61 14 -113 15q-102 0 -102 -99v-24h215v-281h-209v-819 h-361v819h-108zM1552 0v1483h361v-1483h-361z" />
<glyph horiz-adv-x="0" />
<glyph unicode="&#xd;" horiz-adv-x="681" />
<glyph unicode=" "  horiz-adv-x="487" />
<glyph unicode="&#x09;" horiz-adv-x="487" />
<glyph unicode="&#xa0;" horiz-adv-x="487" />
<glyph unicode="!" horiz-adv-x="604" d="M92 1305v129h420v-129l-117 -840h-186zM111 0v342h383v-342h-383z" />
<glyph unicode="&#x22;" horiz-adv-x="985" d="M70 725l30 709h377v-13l-231 -696h-176zM541 725l30 709h377v-13l-231 -696h-176z" />
<glyph unicode="#" horiz-adv-x="1257" d="M49 285v311h187l36 250h-163v311h210l41 277h265l-41 -277h219l41 277h266l-41 -277h139v-311h-186l-37 -250h164v-311h-211l-43 -285h-264l41 285h-219l-41 -285h-267l43 285h-139zM489 586h236l41 270h-236z" />
<glyph unicode="$" horiz-adv-x="1177" d="M29 197l174 262q211 -162 409 -164h11q160 0 159 104v4q0 47 -48 80t-177 72q-244 82 -353.5 181.5t-109.5 271.5v6q0 170 109.5 281.5t300.5 136.5v131h213v-133q215 -27 385 -156l-166 -264q-172 131 -338 131h-12q-74 0 -111 -29t-37 -74v-2q0 -51 48.5 -82.5 t187.5 -76.5q236 -78 343 -179.5t107 -271.5v-4q0 -170 -111.5 -281.5t-297.5 -138.5v-209h-213v209q-274 31 -473 195z" />
<glyph unicode="%" horiz-adv-x="1634" d="M61 1053v16q0 168 91.5 275.5t239 107.5t237.5 -107.5t90 -275.5v-14q0 -168 -91.5 -275.5t-238.5 -107.5q-145 0 -236.5 107.5t-91.5 273.5zM211 0l524 760l447 674h241l-526 -766l-444 -668h-242zM291 1055q0 -80 27.5 -127t72.5 -47t71.5 46t26.5 128v12 q0 82 -26.5 128t-73.5 46q-45 0 -71.5 -46t-26.5 -126v-14zM915 365v14q0 168 91.5 275.5t238.5 107.5q145 0 236.5 -106.5t91.5 -274.5v-16q0 -168 -92 -275.5t-237.5 -107.5t-237 107.5t-91.5 275.5zM1143 367q0 -80 27.5 -127t74.5 -47q45 0 71.5 46t26.5 126v14 q0 80 -27.5 127t-72.5 47q-47 0 -73.5 -46t-26.5 -128v-12z" />
<glyph unicode="&#x26;" horiz-adv-x="1282" d="M37 385v6q0 260 266 402q-102 152 -102 290v7q0 156 114.5 263t298.5 107q178 0 286 -100t108 -256v-6q0 -238 -256 -375l145 -174q37 63 102 209l250 -105q-68 -186 -159 -323l165 -187l-251 -172l-121 135q-168 -129 -375 -129t-339 110t-132 298zM399 408 q0 -68 43 -109t113 -41q76 0 147 55l-215 260q-88 -66 -88 -161v-4zM512 1077q0 -78 72 -174q129 72 129 182v2q0 51 -27 82t-72 31t-73.5 -33.5t-28.5 -87.5v-2z" />
<glyph unicode="'" horiz-adv-x="518" d="M70 725l30 709h383v-13l-233 -696h-180z" />
<glyph unicode="(" horiz-adv-x="813" d="M80 580v16q0 602 553 866l137 -227q-182 -119 -261 -275.5t-79 -371.5v-2q0 -215 79 -372t261 -273l-137 -228q-553 264 -553 867z" />
<glyph unicode=")" horiz-adv-x="813" d="M43 -59q182 117 261 273.5t79 371.5v2q0 215 -79 371.5t-261 275.5l137 227q553 -264 553 -866v-16q0 -603 -553 -867z" />
<glyph unicode="*" horiz-adv-x="800" d="M47 997l246 84l-246 84l107 187l192 -174l-51 260h211l-51 -260l192 174l109 -187l-248 -84l248 -84l-109 -184l-192 174l51 -260h-211l51 260l-192 -174z" />
<glyph unicode="+" horiz-adv-x="1163" d="M94 561v320h324v327h330v-327h321v-320h-321v-330h-330v330h-324z" />
<glyph unicode="," horiz-adv-x="538" d="M37 -186q102 14 152.5 63t46.5 125h-156v379h379v-309q0 -373 -391 -400z" />
<glyph unicode="-" horiz-adv-x="782" d="M74 477v326h635v-326h-635z" />
<glyph unicode="." horiz-adv-x="538" d="M80 0v377h379v-377h-379z" />
<glyph unicode="/" horiz-adv-x="956" d="M-63 -244l772 1860h286l-772 -1860h-286z" />
<glyph unicode="0" horiz-adv-x="1310" d="M70 700v31q0 324 159.5 526.5t428 202.5t426 -200.5t157.5 -526.5v-31q0 -324 -159.5 -526.5t-428 -202.5t-426 201t-157.5 526zM440 705q0 -193 58.5 -297.5t158.5 -104.5q98 0 155.5 102.5t57.5 294.5v29q0 193 -59 297t-157.5 104t-156 -102t-57.5 -295v-28z" />
<glyph unicode="1" horiz-adv-x="768" d="M20 1337l363 105h266v-1442h-364v1085l-213 -53z" />
<glyph unicode="2" horiz-adv-x="1120" d="M55 1198q113 133 236 196.5t284 63.5q211 0 343.5 -117.5t132.5 -312.5v-4q0 -137 -63.5 -239.5t-215.5 -243.5l-240 -226h523v-315h-994v289l459 438q90 90 126 146.5t36 115.5q0 61 -40 99t-105 38q-63 0 -122 -38.5t-141 -124.5z" />
<glyph unicode="3" horiz-adv-x="1110" d="M25 170l196 258q133 -129 291 -129q82 0 130 41t48 111v4q0 76 -65.5 117.5t-192.5 41.5h-106l-39 207l301 299h-479v314h919v-281l-319 -305q342 -82 342 -399v-5q0 -215 -143.5 -343t-370.5 -128q-311 0 -512 197z" />
<glyph unicode="4" horiz-adv-x="1243" d="M27 528l639 914h368v-887h162v-287h-162v-268h-352v268h-610zM393 553h291v424z" />
<glyph unicode="5" horiz-adv-x="1126" d="M33 156l182 270q160 -127 297 -127q90 0 141.5 47t51.5 127v4q0 78 -53.5 124t-139.5 46q-94 0 -190 -57l-207 117l41 727h850v-318h-564l-12 -219q90 35 186 35q190 0 319.5 -113.5t129.5 -333.5v-6q0 -236 -150.5 -371t-390.5 -135q-279 0 -491 183z" />
<glyph unicode="6" horiz-adv-x="1200" d="M70 672v8q0 371 158.5 575.5t449.5 204.5q217 0 403 -127l-153 -276q-121 90 -242 90q-123 0 -183.5 -89t-68.5 -214q125 92 271 92q178 0 301.5 -115.5t123.5 -328.5v-7q0 -231 -147.5 -371.5t-366.5 -140.5q-233 0 -374 142q-172 172 -172 557zM434 465 q0 -90 46 -144.5t126 -54.5t125 53.5t45 143.5v4q0 88 -47 142.5t-127 54.5q-78 0 -123 -53.5t-45 -141.5v-4z" />
<glyph unicode="7" horiz-adv-x="1097" d="M74 1108v326h973v-269l-533 -1165h-395l528 1108h-573z" />
<glyph unicode="8" horiz-adv-x="1157" d="M49 391v8q0 238 221 344q-182 113 -182 314v6q0 172 137 283.5t354.5 111.5t353.5 -111.5t136 -283.5v-6q0 -201 -182 -314q221 -113 221 -342v-8q0 -188 -147.5 -303t-383 -115t-382 115t-146.5 301zM403 428q0 -78 47.5 -125t129.5 -47q80 0 128 47t48 125v4 q0 78 -49.5 125t-126.5 47q-80 0 -128.5 -46t-48.5 -126v-4zM426 1020q0 -76 42 -121t112 -45q68 0 109.5 45t41.5 121v2q0 72 -42 116t-109 44q-70 0 -112 -44t-42 -116v-2z" />
<glyph unicode="9" horiz-adv-x="1198" d="M70 934v8q0 236 145 377t367 141q236 0 379 -143q170 -170 169 -557v-6q0 -375 -160.5 -578t-447.5 -203q-227 0 -426 140l154 272q133 -98 264 -98q123 0 182.5 84t67.5 207q-115 -94 -266 -95q-184 0 -306 118t-122 333zM424 958q0 -92 46 -147t126 -55t125 55t45 145 v5q0 94 -46 150t-128 56q-80 0 -124 -55t-44 -149v-5z" />
<glyph unicode=":" horiz-adv-x="555" d="M88 0v377h379v-377h-379zM88 731v377h379v-377h-379z" />
<glyph unicode=";" horiz-adv-x="555" d="M45 -190q102 14 152.5 64t46.5 126h-156v377h379v-307q0 -375 -391 -400zM88 731v377h379v-377h-379z" />
<glyph unicode="&#x3c;" horiz-adv-x="1163" d="M106 555v330l922 401v-348l-588 -217l588 -215v-350z" />
<glyph unicode="=" horiz-adv-x="1163" d="M104 305v320h955v-320h-955zM104 817v320h955v-320h-955z" />
<glyph unicode="&#x3e;" horiz-adv-x="1163" d="M135 156v348l590 215l-590 215v352l922 -401v-330z" />
<glyph unicode="?" horiz-adv-x="987" d="M8 1270q203 182 465 182q215 0 345 -112.5t130 -301.5v-2q0 -311 -356 -411l-27 -160h-231l-45 350l12 14q287 35 287 175v4q0 53 -38 83.5t-106 30.5q-125 0 -264 -118zM254 0v342h383v-342h-383z" />
<glyph unicode="@" horiz-adv-x="1759" d="M78 524q0 250 105.5 464t300 343t431.5 129q326 0 546 -221t220 -522q0 -272 -118.5 -436t-292.5 -164q-207 0 -279 162q-115 -156 -272 -156q-137 0 -226.5 98t-89.5 268q0 231 123 403.5t289 172.5q156 0 236 -147l22 122l287 -45l-96 -549q-8 -43 -9 -98 q0 -49 29 -77.5t78 -28.5q96 0 163.5 133t67.5 344q0 270 -192.5 463.5t-489.5 193.5q-322 0 -533.5 -252t-211.5 -604q-2 -332 198.5 -542.5t520.5 -210.5q231 0 438 120l41 -67q-223 -135 -483 -135q-348 0 -575.5 236.5t-227.5 602.5zM700 508q0 -70 33 -105.5t86 -35.5 t99 45q37 37 60 115.5t23 146.5q0 66 -32.5 102.5t-83.5 36.5q-55 0 -101 -45q-37 -39 -60.5 -116t-23.5 -144z" />
<glyph unicode="A" d="M8 0l504 1442h373l506 -1442h-387l-84 258h-451l-82 -258h-379zM561 553h266l-133 420z" />
<glyph unicode="B" horiz-adv-x="1277" d="M106 0v1434h594q264 0 390 -127q94 -90 94 -238v-8q0 -219 -213 -316q262 -98 262 -339v-9q0 -186 -139.5 -291.5t-391.5 -105.5h-596zM465 307h217q86 0 134 37t48 102v3q0 63 -48 101t-136 38h-215v-281zM465 858h176q178 0 178 133v2q0 133 -172 133h-182v-268z" />
<glyph unicode="C" horiz-adv-x="1263" d="M66 702v25q0 328 189 529.5t476 201.5q303 0 496 -225l-238 -252q-113 135 -252 135q-129 0 -211 -106.5t-82 -286.5v-8q0 -186 82 -292t211 -106q84 0 143.5 37t118.5 105l234 -238q-201 -246 -516 -246q-281 0 -466 200t-185 527z" />
<glyph unicode="D" horiz-adv-x="1366" d="M106 0v1434h472q342 0 532 -189.5t190 -511.5v-24q0 -322 -192.5 -515.5t-536.5 -193.5h-465zM475 330h107q160 0 251 95t91 282v18q0 188 -91 283.5t-251 95.5h-107v-774z" />
<glyph unicode="E" horiz-adv-x="1167" d="M106 0v1434h988v-324h-623v-236h561v-305h-561v-245h631v-324h-996z" />
<glyph unicode="F" horiz-adv-x="1128" d="M106 0v1434h975v-332h-606v-254h545v-318h-545v-530h-369z" />
<glyph unicode="G" horiz-adv-x="1359" d="M66 700v29q0 319 195.5 524t494.5 205q279 0 493 -174l-205 -280q-132 118 -278 118h-2q-139 0 -230.5 -110.5t-91.5 -286.5v-20q0 -190 91.5 -299t234.5 -109q100 0 166 43v213h-227v285h573v-684q-239 -179 -526 -179q-299 0 -493.5 198t-194.5 527z" />
<glyph unicode="H" horiz-adv-x="1357" d="M106 0v1434h369v-545h408v545h370v-1434h-370v553h-408v-553h-369z" />
<glyph unicode="I" horiz-adv-x="595" d="M113 0v1434h368v-1434h-368z" />
<glyph unicode="J" horiz-adv-x="995" d="M4 166l207 250q88 -104 182 -105q66 0 105 46t39 135v942h366v-955q0 -244 -131 -373q-125 -129 -348 -129q-264 0 -420 189z" />
<glyph unicode="K" horiz-adv-x="1302" d="M106 0v1434h369v-568l395 568h424l-444 -611l459 -823h-430l-289 522l-115 -149v-373h-369z" />
<glyph unicode="L" horiz-adv-x="1077" d="M106 0v1434h369v-1102h563v-332h-932z" />
<glyph unicode="M" horiz-adv-x="1552" d="M106 0v1434h379l291 -529l289 529h381v-1434h-365v807l-305 -533h-6l-305 529v-803h-359z" />
<glyph unicode="N" d="M106 0v1434h347l477 -721v721h362v-1434h-327l-496 752v-752h-363z" />
<glyph unicode="O" horiz-adv-x="1460" d="M66 700v31q0 319 188 524t477 205q291 0 477.5 -202.5t186.5 -524.5v-31q0 -319 -188.5 -524t-477.5 -205q-291 0 -477 203t-186 524zM442 707q0 -184 80 -292t209 -108q131 0 209 106.5t78 291.5v22q0 184 -80 291.5t-209 107.5t-208 -106.5t-79 -290.5v-22z" />
<glyph unicode="P" horiz-adv-x="1210" d="M106 0v1434h512q258 0 409 -130t151 -368v-8q0 -248 -158 -378t-406 -134h-141v-416h-367zM473 717h129q96 0 151.5 53t55.5 143v7q0 98 -54.5 148t-154.5 50h-127v-401z" />
<glyph unicode="Q" horiz-adv-x="1464" d="M66 700v31q0 319 188 524t477 205q291 0 477.5 -202.5t186.5 -524.5v-31q0 -229 -109 -413l137 -131l-198 -197l-125 125q-164 -113 -371 -113q-289 0 -476 204t-187 523zM442 702q0 -188 80 -295.5t213 -107.5q66 0 117 27l-172 161l199 197l127 -123q14 72 14 139v25 q0 184 -80 292.5t-211 108.5q-129 0 -208 -107.5t-79 -291.5v-25z" />
<glyph unicode="R" horiz-adv-x="1284" d="M106 0v1434h564q289 0 430 -146q125 -125 125 -336v-10q0 -295 -256 -422l295 -520h-416l-244 444h-131v-444h-367zM473 737h182q94 0 146.5 50.5t52.5 136.5v4q0 90 -53 137t-148 47h-180v-375z" />
<glyph unicode="S" horiz-adv-x="1159" d="M2 190l197 269q197 -162 389 -162q72 0 110.5 28.5t38.5 75.5v2q0 43 -44 76t-167 76q-233 80 -346.5 175t-113.5 276v6q0 197 139 319.5t373 122.5q297 0 512 -174l-187 -274q-170 131 -334 131q-61 0 -96 -27t-35 -68v-2q0 -47 45 -79.5t183 -83.5 q223 -72 332.5 -171.5t109.5 -271.5v-4q0 -207 -144.5 -328.5t-377.5 -121.5q-340 0 -584 210z" />
<glyph unicode="T" horiz-adv-x="1159" d="M41 1102v332h1077v-332h-354v-1102h-369v1102h-354z" />
<glyph unicode="U" horiz-adv-x="1349" d="M92 567v867h371v-871q0 -125 56 -189.5t155 -64.5q100 0 155.5 61.5t55.5 186.5v877h372v-861q0 -301 -155.5 -449.5t-429.5 -148.5q-272 0 -426 147.5t-154 444.5z" />
<glyph unicode="V" horiz-adv-x="1337" d="M8 1434h402l264 -893l262 893h393l-483 -1442h-354z" />
<glyph unicode="W" horiz-adv-x="1980" d="M20 1434h390l200 -830l224 834h317l225 -834l201 830h381l-399 -1442h-338l-232 792l-231 -792h-338z" />
<glyph unicode="X" horiz-adv-x="1294" d="M16 0l416 729l-397 705h411l203 -416l209 416h404l-402 -701l418 -733h-414l-221 444l-223 -444h-404z" />
<glyph unicode="Y" horiz-adv-x="1282" d="M-4 1434h407l240 -519l242 519h401l-461 -893v-541h-368v537z" />
<glyph unicode="Z" horiz-adv-x="1214" d="M70 0v276l596 836h-578v322h1061v-277l-598 -835h598v-322h-1079z" />
<glyph unicode="[" horiz-adv-x="821" d="M121 -266v1700h624v-248h-305v-1204h305v-248h-624z" />
<glyph unicode="\" horiz-adv-x="956" d="M-39 1616h287l772 -1860h-285z" />
<glyph unicode="]" horiz-adv-x="821" d="M76 -18h305v1204h-305v248h624v-1700h-624v248z" />
<glyph unicode="^" horiz-adv-x="1024" d="M131 1010l252 420h256l254 -420h-246l-137 219l-137 -219h-242z" />
<glyph unicode="_" horiz-adv-x="1153" d="M-4 -88h1161v-234h-1161v234z" />
<glyph unicode="`" horiz-adv-x="1024" d="M217 1434l326 106l194 -346h-241z" />
<glyph unicode="a" horiz-adv-x="1083" d="M41 313v15q0 172 102.5 261t276.5 89q129 0 229 -43v27q0 172 -192 172q-113 0 -262 -62l-82 266q190 86 403 86q252 0 375 -123q113 -113 113 -337v-664h-357v113q-106 -136 -282 -136q-141 0 -232.5 89.5t-91.5 246.5zM383 338q0 -57 32 -90t83 -35q68 0 110.5 44 t42.5 118v82q-56 27 -122 27h-3q-68 0 -105.5 -37t-37.5 -101v-8z" />
<glyph unicode="b" horiz-adv-x="1212" d="M88 0v1483h361v-516q57 78 125.5 120.5t168.5 42.5q176 0 295 -144t119 -411v-36q0 -270 -118 -416t-296 -146q-174 0 -294 156v-133h-361zM442 541q0 -115 50.5 -185.5t130 -70.5t130 70.5t50.5 185.5v26q0 115 -50.5 185.5t-130 70.5t-130 -70.5t-50.5 -185.5v-26z" />
<glyph unicode="c" horiz-adv-x="997" d="M53 537v22q0 248 148.5 409.5t380.5 161.5q246 0 393 -186l-211 -223q-74 94 -170 94q-84 0 -136 -71.5t-52 -184.5v-6q0 -121 52 -192.5t140 -71.5q90 0 174 94l205 -211q-156 -199 -410 -199q-225 0 -369.5 159t-144.5 405z" />
<glyph unicode="d" horiz-adv-x="1212" d="M55 532v37q0 270 119 415.5t295 145.5q172 0 297 -155v508h358v-1483h-358v141q-125 -164 -295 -164q-178 0 -297 144.5t-119 410.5zM412 541q0 -115 50 -185.5t130 -70.5q78 0 128 70.5t50 185.5v26q0 115 -50 185.5t-128 70.5q-80 0 -130 -70.5t-50 -185.5v-26z" />
<glyph unicode="e" horiz-adv-x="1095" d="M51 539v22q0 250 141.5 411t360.5 161q238 0 364.5 -164t126.5 -428q0 -74 -2 -103h-643q41 -180 213 -180q117 0 228 104l172 -204q-172 -183 -424 -183q-238 0 -387.5 154t-149.5 410zM395 641h314q-8 102 -49.5 157.5t-106.5 55.5q-135 0 -158 -213z" />
<glyph unicode="f" horiz-adv-x="729" d="M37 819v285h108v33q0 178 88 268q90 88 269 88q125 0 213 -25v-260q-61 14 -113 15q-102 0 -102 -99v-24h215v-281h-209v-819h-361v819h-108z" />
<glyph unicode="g" horiz-adv-x="1212" d="M55 600v16q0 246 117 380t291 134q176 0 303 -153v131h358v-883q0 -270 -129 -399q-143 -139 -438 -139q-254 0 -471 100l100 258q156 -86 334 -86q250 0 250 238v55q-123 -160 -299 -160q-180 0 -298 132t-118 376zM412 606q0 -102 49 -163.5t129 -61.5q82 0 131 61.5 t49 163.5v6q0 102 -49 165t-131 63t-130 -62.5t-48 -165.5v-6z" />
<glyph unicode="h" horiz-adv-x="1148" d="M88 0v1483h361v-520q116 167 290 167h2q154 0 241 -98t87 -268v-764h-360v653q0 76 -35 117t-92 41q-59 0 -96 -41t-37 -117v-653h-361z" />
<glyph unicode="i" horiz-adv-x="550" d="M90 1202v281h371v-281h-371zM96 0v1108h359v-1108h-359z" />
<glyph unicode="j" horiz-adv-x="555" d="M-53 -59q29 -4 45 -4q104 0 104 116v1055h361v-1067q0 -188 -91.5 -272t-271.5 -84q-57 0 -147 12v244zM90 1202v281h373v-281h-373z" />
<glyph unicode="k" horiz-adv-x="1095" d="M88 0v1483h361v-746l247 371h398l-318 -442l324 -666h-395l-177 383l-79 -109v-274h-361z" />
<glyph unicode="l" horiz-adv-x="550" d="M96 0v1483h359v-1483h-359z" />
<glyph unicode="m" horiz-adv-x="1753" d="M88 0v1108h358v-145q118 167 291 167h2q197 0 281 -165q130 165 317 165h2q156 0 244 -96t88 -268v-766h-360v655q0 74 -33 115t-90.5 41t-93 -41t-35.5 -115v-655h-359v655q0 74 -33.5 115t-91 41t-93.5 -41t-36 -115v-655h-358z" />
<glyph unicode="n" horiz-adv-x="1148" d="M88 0v1108h361v-147q118 169 290 169h2q154 0 241 -98t87 -268v-764h-360v653q0 76 -35 117t-92 41q-59 0 -96 -41t-37 -117v-653h-361z" />
<glyph unicode="o" horiz-adv-x="1179" d="M53 537v30q0 246 152.5 406t386 160t385 -159t151.5 -405v-30q0 -246 -152 -406t-388 -160q-233 0 -384 159t-151 405zM406 545q0 -117 51 -189.5t135 -72.5t134 71.5t50 188.5v18q0 117 -51 189.5t-135 72.5q-86 0 -135 -71.5t-49 -188.5v-18z" />
<glyph unicode="p" horiz-adv-x="1212" d="M88 -309v1417h361v-141q57 78 125.5 120.5t168.5 42.5q176 0 295 -144t119 -411v-36q0 -270 -117.5 -416t-296.5 -146q-174 0 -294 156v-442h-361zM442 541q0 -115 50.5 -185.5t130 -70.5t130 70.5t50.5 185.5v26q0 115 -50.5 185.5t-130 70.5t-130 -70.5t-50.5 -185.5 v-26z" />
<glyph unicode="q" horiz-adv-x="1212" d="M55 532v37q0 270 119 415.5t295 145.5q172 0 297 -155v133h358v-1417h-358v450q-125 -164 -295 -164q-178 0 -297 144.5t-119 410.5zM412 541q0 -115 50 -185.5t130 -70.5q78 0 128 70.5t50 185.5v26q0 115 -50 185.5t-128 70.5q-80 0 -130 -70.5t-50 -185.5v-26z" />
<glyph unicode="r" horiz-adv-x="772" d="M88 0v1108h361v-201q84 217 277 217h17v-393h-24q-270 0 -270 -325v-406h-361z" />
<glyph unicode="s" horiz-adv-x="927" d="M10 127l135 240q174 -121 322 -121q90 0 90 61v4q0 31 -34 50.5t-128 56.5q-170 63 -254 138t-84 212v4q0 166 114 261t298 95q223 0 405 -118l-131 -244q-150 94 -272 94q-84 0 -84 -57v-4q0 -29 34 -49.5t130 -59.5q170 -63 253 -139t83 -207v-4q0 -170 -114 -266.5 t-304 -96.5q-258 0 -459 150z" />
<glyph unicode="t" horiz-adv-x="772" d="M35 819v289h110v276h359v-276h217v-289h-217v-436q0 -92 92 -92q59 0 123 28v-282q-105 -57 -244 -57q-330 0 -330 321v518h-110z" />
<glyph unicode="u" horiz-adv-x="1148" d="M80 344v764h360v-653q0 -76 35 -117t92 -41q59 0 96 41t37 117v653h361v-1108h-361v145q-116 -168 -292 -168q-154 0 -241 98.5t-87 268.5z" />
<glyph unicode="v" horiz-adv-x="1124" d="M14 1108h375l176 -649l176 649h369l-379 -1116h-338z" />
<glyph unicode="w" horiz-adv-x="1562" d="M20 1108h353l123 -561l139 565h293l141 -567l125 563h350l-297 -1116h-315l-152 561l-153 -561h-314z" />
<glyph unicode="x" horiz-adv-x="1075" d="M12 0l322 559l-316 549h383l138 -283l141 283h375l-316 -547l324 -561h-383l-145 295l-148 -295h-375z" />
<glyph unicode="y" horiz-adv-x="1124" d="M16 1108h373l182 -653l172 653h365l-350 -1077q-61 -188 -147.5 -267t-237.5 -79q-154 0 -293 77l92 256q80 -45 139 -45q55 0 80 43z" />
<glyph unicode="z" horiz-adv-x="995" d="M53 0v242l441 575h-426v291h880v-242l-442 -575h442v-291h-895z" />
<glyph unicode="{" horiz-adv-x="892" d="M59 463v248h35q109 0 161 41t52 137q0 29 -10 100.5t-10 100.5q0 162 116.5 253t389.5 117l47 -221q-137 -25 -185.5 -69t-48.5 -132q0 -27 11.5 -92t11.5 -100q0 -203 -230 -258q229 -55 230 -260q0 -33 -11.5 -98.5t-11.5 -94.5q0 -88 48 -131t186 -67l-47 -224 q-272 27 -389 118t-117 253q0 31 10 101.5t10 99.5q0 98 -52 138t-161 40h-35z" />
<glyph unicode="|" horiz-adv-x="647" d="M188 -244v1860h271v-1860h-271z" />
<glyph unicode="}" horiz-adv-x="892" d="M53 -63q137 25 185.5 67.5t48.5 130.5q0 29 -10.5 94.5t-10.5 98.5q0 207 230 260q-229 53 -230 258q0 35 10.5 100.5t10.5 91.5q0 88 -48.5 132t-185.5 69l49 221q270 -27 387 -118t117 -252q0 -29 -10 -100.5t-10 -100.5q0 -96 53 -137t160 -41h37v-248h-37 q-109 0 -161 -40t-52 -138q0 -29 10 -99.5t10 -101.5q0 -162 -117 -253t-387 -118z" />
<glyph unicode="~" horiz-adv-x="942" d="M78 514q51 283 227 283q68 0 174 -43q90 -35 121 -35q37 0 56.5 20.5t37.5 69.5l170 -45q-51 -281 -225 -281q-70 0 -176 41q-92 37 -121 37q-35 0 -53.5 -20.5t-38.5 -71.5z" />
<glyph unicode="&#xa1;" horiz-adv-x="604" d="M92 0v129l117 840h186l117 -840v-129h-420zM111 1092v342h383v-342h-383z" />
<glyph unicode="&#xa2;" horiz-adv-x="1015" d="M57 711v22q0 233 130 389t343 176l19 148h227l-22 -168q139 -45 229 -158l-195 -211q-84 98 -198 99q-92 0 -148.5 -77t-56.5 -200v-6q0 -133 56.5 -208t158.5 -75q109 0 195 99l190 -201q-145 -176 -367 -190l-20 -162h-227l24 192q-154 57 -246 198.5t-92 332.5z" />
<glyph unicode="&#xa3;" horiz-adv-x="1142" d="M74 0v229l139 58v256h-137v278h137v127q0 250 131 381q129 129 348 129q246 0 410 -170l-199 -262q-88 94 -178 94q-61 0 -100 -39q-43 -41 -43 -137v-123h370v-278h-370v-238h505v-305h-1013z" />
<glyph unicode="&#xa5;" horiz-adv-x="1265" d="M6 1434h404l227 -488l227 488h398l-365 -660h240v-239h-322v-103h322v-239h-322v-193h-364v193h-320v239h320v103h-320v239h234z" />
<glyph unicode="&#xa7;" horiz-adv-x="1150" d="M68 698v4q0 160 182 232q-92 76 -92 199v4q0 141 113.5 231t314.5 90q256 0 430 -133l-133 -227q-150 102 -293 102q-100 0 -101 -61v-2q0 -29 40 -51.5t147 -53.5q207 -57 307 -119.5t100 -177.5v-4q0 -159 -180 -231q90 -78 90 -197v-4q0 -143 -112.5 -233.5 t-315.5 -90.5q-252 0 -430 134l135 227q152 -102 291 -103q100 0 101 62v4q0 29 -40 49.5t-145 52.5q-100 29 -164.5 52.5t-126 58.5t-90 81t-28.5 105zM354 750q0 -33 43 -58.5t142 -54.5q106 -33 161 -33q43 0 70 20.5t27 55.5v4q0 33 -43 58.5t-142 54.5q-106 33 -159 32 q-43 0 -71 -20.5t-28 -54.5v-4z" />
<glyph unicode="&#xa8;" horiz-adv-x="1024" d="M168 1194v274h301v-274h-301zM555 1194v274h301v-274h-301z" />
<glyph unicode="&#xa9;" horiz-adv-x="1499" d="M86 705v22q0 311 190.5 522t475.5 211q283 0 472 -210t189 -521v-22q0 -311 -190 -522.5t-473 -211.5q-285 0 -474.5 210t-189.5 522zM170 702q0 -279 164 -464t415.5 -185t415.5 186.5t164 467.5v24q0 279 -162.5 464t-414.5 185q-254 0 -418 -186t-164 -467v-25z M401 715v16q0 180 104.5 293t268.5 113q168 0 275 -123l-134 -144q-61 72 -139 72q-70 0 -115 -57.5t-45 -155.5v-8q0 -100 46.5 -157.5t115.5 -57.5q74 0 142 76l133 -136q-109 -135 -285 -135q-162 0 -264.5 110.5t-102.5 293.5z" />
<glyph unicode="&#xaa;" horiz-adv-x="710" d="M78 567v150h545v-150h-545zM82 1001v9q0 94 55.5 142t151.5 48q72 0 127 -24v12q0 96 -107 96q-63 0 -145 -37l-45 150q104 47 223 47q137 0 205 -68q63 -61 63 -186v-363h-196v64q-60 -74 -154 -74q-80 0 -129 48t-49 136zM268 1012q1 -66 64 -66q37 0 61.5 23.5 t24.5 62.5v47q-43 14 -70 15q-80 0 -80 -74v-8z" />
<glyph unicode="&#xab;" horiz-adv-x="1165" d="M53 510v80l324 438l233 -115l-221 -362l223 -361l-235 -116zM530 541v18l349 469l233 -115l-221 -362l223 -361l-235 -116z" />
<glyph unicode="&#xad;" horiz-adv-x="782" d="M74 477v326h635v-326h-635z" />
<glyph unicode="&#xae;" horiz-adv-x="700" d="M27 1090v12q0 150 93 252t230 102t230.5 -101.5t93.5 -250.5v-12q0 -152 -93.5 -253.5t-230.5 -101.5t-230 101.5t-93 251.5zM68 1090q0 -133 79.5 -223.5t202.5 -90.5t203 90t80 226v12q0 133 -80 223t-203 90q-121 0 -201.5 -91t-80.5 -224v-12zM207 911v383h155 q72 0 114 -32.5t42 -96.5v-2q0 -80 -69 -114l79 -138h-120l-66 115h-29v-115h-106zM313 1112h45q49 0 50 45v2q0 45 -50 45h-45v-92z" />
<glyph unicode="&#xaf;" horiz-adv-x="1024" d="M168 1206v217h688v-217h-688z" />
<glyph unicode="&#xb0;" horiz-adv-x="841" d="M86 1077v17q0 150 98.5 252t235.5 102t235.5 -102.5t98.5 -251.5v-17q0 -152 -97.5 -253t-236.5 -101t-236.5 101.5t-97.5 252.5zM285 1081q0 -78 37.5 -126t97 -48t98.5 48.5t39 125.5v9q0 78 -39 126t-98.5 48t-97 -48.5t-37.5 -125.5v-9z" />
<glyph unicode="&#xb1;" horiz-adv-x="1163" d="M100 0v276h963v-276h-963zM100 725v297l328 -2v321h309l-2 -321l330 2v-297l-330 2l2 -319h-309v319z" />
<glyph unicode="&#xb4;" horiz-adv-x="1024" d="M283 1194l194 346l326 -106l-279 -240h-241z" />
<glyph unicode="&#xb6;" horiz-adv-x="1067" d="M39 938v6q0 240 151.5 365t407.5 125h363v-1434h-359v453h-29q-238 8 -386 132t-148 353z" />
<glyph unicode="&#xb7;" horiz-adv-x="544" d="M82 451v378h379v-378h-379z" />
<glyph unicode="&#xb8;" horiz-adv-x="1024" d="M238 -215l186 256h231l-123 -367z" />
<glyph unicode="&#xba;" horiz-adv-x="710" d="M63 1118v17q0 137 83 223t210 86t209 -86t82 -219v-19q0 -135 -83 -222t-210 -87t-209 87t-82 220zM92 567v150h526v-150h-526zM256 1122q0 -63 27.5 -102t72.5 -39t72 38t27 101v15q0 63 -28 102t-73 39t-71.5 -38t-26.5 -103v-13z" />
<glyph unicode="&#xbb;" horiz-adv-x="1165" d="M53 188l223 361l-223 362l236 117l348 -469v-18l-348 -467zM555 188l223 361l-223 362l236 117l323 -438v-80l-323 -436z" />
<glyph unicode="&#xbf;" horiz-adv-x="987" d="M39 395v2q0 311 356 412l25 160h231l47 -351l-14 -14q-287 -35 -287 -174v-4q0 -53 39 -84t107 -31q123 0 262 119l172 -266q-201 -182 -465 -182q-215 0 -344 112.5t-129 300.5zM348 1092v342h383v-342h-383z" />
<glyph unicode="&#xc0;" d="M8 0l504 1442h373l506 -1442h-387l-84 258h-451l-82 -258h-379zM299 1733l342 104l199 -305h-265zM561 553h266l-133 420z" />
<glyph unicode="&#xc1;" d="M8 0l504 1442h373l506 -1442h-387l-84 258h-451l-82 -258h-379zM557 1532l201 305l340 -104l-275 -201h-266zM561 553h266l-133 420z" />
<glyph unicode="&#xc2;" d="M8 0l504 1442h373l506 -1442h-387l-84 258h-451l-82 -258h-379zM322 1530l221 282h311l221 -282h-241l-138 102l-137 -102h-237zM561 553h266l-133 420z" />
<glyph unicode="&#xc3;" d="M8 0l504 1442h373l506 -1442h-387l-84 258h-451l-82 -258h-379zM307 1563q27 145 80 213.5t145 68.5q57 0 185 -41q86 -33 119 -32q35 0 54 19t38 69l174 -45q-27 -145 -80 -214t-145 -69q-59 0 -183 41q-94 35 -123 35q-33 0 -52 -20.5t-38 -67.5zM561 553h266l-133 420 z" />
<glyph unicode="&#xc4;" d="M8 0l504 1442h373l506 -1442h-387l-84 258h-451l-82 -258h-379zM342 1534v264h305v-264h-305zM561 553h266l-133 420zM750 1534v264h305v-264h-305z" />
<glyph unicode="&#xc5;" d="M8 0l479 1376q-49 59 -49 140q0 100 75 166.5t185.5 66.5t185 -66.5t74.5 -166.5q0 -78 -49 -140l482 -1376h-387l-84 258h-451l-82 -258h-379zM561 553h266l-133 420zM569 1515.5q0 -51.5 36 -85t93.5 -33.5t94 33.5t36.5 85t-36.5 85t-94 33.5t-93.5 -33.5t-36 -85z " />
<glyph unicode="&#xc6;" horiz-adv-x="1873" d="M-10 0l628 1434h1182v-324h-590v-236h531v-305h-531v-245h600v-324h-962v258h-381l-109 -258h-368zM592 553h256v563h-25z" />
<glyph unicode="&#xc7;" horiz-adv-x="1263" d="M66 702v25q0 328 189 529.5t476 201.5q303 0 496 -225l-238 -252q-113 135 -252 135q-129 0 -211 -106.5t-82 -286.5v-8q0 -186 82 -292t211 -106q84 0 143.5 37t118.5 105l234 -238q-178 -219 -453 -241l-100 -306l-295 111l156 215q-215 57 -345 242.5t-130 459.5z" />
<glyph unicode="&#xc8;" horiz-adv-x="1167" d="M106 0v1434h988v-324h-623v-236h561v-305h-561v-245h631v-324h-996zM205 1718l342 105l198 -305h-264z" />
<glyph unicode="&#xc9;" horiz-adv-x="1167" d="M106 0v1434h988v-324h-623v-236h561v-305h-561v-245h631v-324h-996zM461 1518l201 305l339 -105l-274 -200h-266z" />
<glyph unicode="&#xca;" horiz-adv-x="1167" d="M106 0v1434h988v-324h-623v-236h561v-305h-561v-245h631v-324h-996zM225 1518l221 282h312l221 -282h-242l-137 102l-137 -102h-238z" />
<glyph unicode="&#xcb;" horiz-adv-x="1167" d="M106 0v1434h988v-324h-623v-236h561v-305h-561v-245h631v-324h-996zM246 1520v264h305v-264h-305zM653 1520v264h305v-264h-305z" />
<glyph unicode="&#xcc;" horiz-adv-x="595" d="M-100 1718l342 105l198 -305h-264zM113 0v1434h368v-1434h-368z" />
<glyph unicode="&#xcd;" horiz-adv-x="595" d="M113 0v1434h368v-1434h-368zM158 1518l200 305l340 -105l-274 -200h-266z" />
<glyph unicode="&#xce;" horiz-adv-x="595" d="M-78 1518l221 282h312l221 -282h-242l-137 102l-137 -102h-238zM113 0v1434h368v-1434h-368z" />
<glyph unicode="&#xcf;" horiz-adv-x="595" d="M-57 1520v264h305v-264h-305zM113 0v1434h368v-1434h-368zM350 1520v264h305v-264h-305z" />
<glyph unicode="&#xd0;" horiz-adv-x="1443" d="M47 573v297h135v564h473q340 0 531.5 -189.5t191.5 -511.5v-24q0 -322 -193.5 -515.5t-535.5 -193.5h-467v573h-135zM545 324h114q160 0 251 97t91 286v18q0 193 -90 289t-252 96h-114v-244h196v-291h-196v-251z" />
<glyph unicode="&#xd1;" d="M106 0v1434h347l477 -721v721h362v-1434h-327l-496 752v-752h-363zM307 1548q27 145 80 214t145 69q57 0 185 -41q86 -33 119 -33q35 0 54 19.5t38 68.5l174 -45q-27 -145 -80 -213.5t-145 -68.5q-59 0 -183 41q-94 35 -123 34q-33 0 -52 -20.5t-38 -67.5z" />
<glyph unicode="&#xd2;" horiz-adv-x="1460" d="M66 700v31q0 319 188 524t477 205q291 0 477.5 -202.5t186.5 -524.5v-31q0 -319 -188.5 -524t-477.5 -205q-291 0 -477 203t-186 524zM330 1733l342 104l198 -305h-264zM442 707q0 -184 80 -292t209 -108q131 0 209 106.5t78 291.5v22q0 184 -80 291.5t-209 107.5 t-208 -106.5t-79 -290.5v-22z" />
<glyph unicode="&#xd3;" horiz-adv-x="1460" d="M66 700v31q0 319 188 524t477 205q291 0 477.5 -202.5t186.5 -524.5v-31q0 -319 -188.5 -524t-477.5 -205q-291 0 -477 203t-186 524zM442 707q0 -184 80 -292t209 -108q131 0 209 106.5t78 291.5v22q0 184 -80 291.5t-209 107.5t-208 -106.5t-79 -290.5v-22zM588 1532 l200 305l340 -104l-274 -201h-266z" />
<glyph unicode="&#xd4;" horiz-adv-x="1460" d="M66 700v31q0 319 188 524t477 205q291 0 477.5 -202.5t186.5 -524.5v-31q0 -319 -188.5 -524t-477.5 -205q-291 0 -477 203t-186 524zM352 1532l221 283h312l221 -283h-242l-137 102l-137 -102h-238zM442 707q0 -184 80 -292t209 -108q131 0 209 106.5t78 291.5v22 q0 184 -80 291.5t-209 107.5t-208 -106.5t-79 -290.5v-22z" />
<glyph unicode="&#xd5;" horiz-adv-x="1460" d="M66 700v31q0 319 188 524t477 205q291 0 477.5 -202.5t186.5 -524.5v-31q0 -319 -188.5 -524t-477.5 -205q-291 0 -477 203t-186 524zM340 1563q27 145 80 213.5t145 68.5q57 0 185 -41q86 -33 118 -32q35 0 54.5 19t38.5 69l174 -45q-27 -145 -80.5 -214t-145.5 -69 q-59 0 -182 41q-94 35 -123 35q-33 0 -52.5 -20.5t-37.5 -67.5zM442 707q0 -184 80 -292t209 -108q131 0 209 106.5t78 291.5v22q0 184 -80 291.5t-209 107.5t-208 -106.5t-79 -290.5v-22z" />
<glyph unicode="&#xd6;" horiz-adv-x="1460" d="M66 700v31q0 319 188 524t477 205q291 0 477.5 -202.5t186.5 -524.5v-31q0 -319 -188.5 -524t-477.5 -205q-291 0 -477 203t-186 524zM373 1534v264h305v-264h-305zM442 707q0 -184 80 -292t209 -108q131 0 209 106.5t78 291.5v22q0 184 -80 291.5t-209 107.5 t-208 -106.5t-79 -290.5v-22zM780 1534v264h305v-264h-305z" />
<glyph unicode="&#xd7;" horiz-adv-x="1163" d="M88 995l227 222l269 -279l268 279l223 -218l-280 -276l280 -277l-227 -221l-268 279l-269 -279l-221 217l279 277z" />
<glyph unicode="&#xd8;" horiz-adv-x="1460" d="M59 -10l166 219q-160 203 -159 491v31q0 319 188 524t477 205q195 0 352 -100l66 84h254l-168 -221q160 -199 160 -490v-31q0 -319 -188.5 -524t-477.5 -205q-201 0 -354 101l-64 -84h-252zM436 707q0 -113 27 -193l420 571q-63 49 -154 50q-131 0 -212 -108.5 t-81 -295.5v-24zM578 348q67 -49 155 -49q131 0 211 108.5t80 294.5v25q0 104 -29 191z" />
<glyph unicode="&#xd9;" horiz-adv-x="1349" d="M92 567v867h371v-871q0 -125 56 -189.5t155 -64.5q100 0 155.5 61.5t55.5 186.5v877h372v-861q0 -301 -155.5 -449.5t-429.5 -148.5q-272 0 -426 147.5t-154 444.5zM274 1718l342 105l199 -305h-264z" />
<glyph unicode="&#xda;" horiz-adv-x="1349" d="M92 567v867h371v-871q0 -125 56 -189.5t155 -64.5q100 0 155.5 61.5t55.5 186.5v877h372v-861q0 -301 -155.5 -449.5t-429.5 -148.5q-272 0 -426 147.5t-154 444.5zM532 1518l201 305l340 -105l-274 -200h-267z" />
<glyph unicode="&#xdb;" horiz-adv-x="1349" d="M92 567v867h371v-871q0 -125 56 -189.5t155 -64.5q100 0 155.5 61.5t55.5 186.5v877h372v-861q0 -301 -155.5 -449.5t-429.5 -148.5q-272 0 -426 147.5t-154 444.5zM297 1518l221 282h311l222 -282h-242l-137 102l-137 -102h-238z" />
<glyph unicode="&#xdc;" horiz-adv-x="1349" d="M92 567v867h371v-871q0 -125 56 -189.5t155 -64.5q100 0 155.5 61.5t55.5 186.5v877h372v-861q0 -301 -155.5 -449.5t-429.5 -148.5q-272 0 -426 147.5t-154 444.5zM315 1520v264h306v-264h-306zM723 1520v264h305v-264h-305z" />
<glyph unicode="&#xdd;" horiz-adv-x="1282" d="M-4 1434h407l240 -519l242 519h401l-461 -893v-541h-368v537zM498 1518l200 305l340 -105l-274 -200h-266z" />
<glyph unicode="&#xde;" horiz-adv-x="1224" d="M106 0v1434h367v-199h150q254 0 404.5 -129t150.5 -365v-10q0 -246 -158 -377t-406 -131h-141v-223h-367zM473 528h129q96 0 151.5 53.5t55.5 143.5v6q0 98 -54.5 148.5t-154.5 50.5h-127v-402z" />
<glyph unicode="&#xdf;" horiz-adv-x="1169" d="M88 0v991q0 231 131 367.5t375 136.5q217 0 343 -114.5t126 -288.5v-9q0 -217 -199 -329q256 -94 256 -346v-7q0 -201 -149.5 -309t-403.5 -98v270q94 8 145.5 53t51.5 121v2q0 150 -197 176v211q145 80 146 215v5q0 68 -35 107.5t-90 39.5q-63 0 -101 -51t-38 -146v-997 h-361z" />
<glyph unicode="&#xe0;" horiz-adv-x="1083" d="M41 313v15q0 172 102.5 261t276.5 89q129 0 229 -43v27q0 172 -192 172q-113 0 -262 -62l-82 266q190 86 403 86q252 0 375 -123q113 -113 113 -337v-664h-357v113q-106 -136 -282 -136q-141 0 -232.5 89.5t-91.5 246.5zM162 1442l325 106l195 -346h-242zM383 338 q0 -57 32 -90t83 -35q68 0 110.5 44t42.5 118v82q-57 27 -124.5 26.5t-105.5 -37t-38 -100.5v-8z" />
<glyph unicode="&#xe1;" horiz-adv-x="1083" d="M41 313v15q0 172 102.5 261t276.5 89q129 0 229 -43v27q0 172 -192 172q-113 0 -262 -62l-82 266q190 86 403 86q252 0 375 -123q113 -113 113 -337v-664h-357v113q-106 -136 -282 -136q-141 0 -232.5 89.5t-91.5 246.5zM383 338q0 -57 32 -90t83 -35q68 0 110.5 44 t42.5 118v82q-57 27 -124.5 26.5t-105.5 -37t-38 -100.5v-8zM410 1202l194 346l326 -106l-279 -240h-241z" />
<glyph unicode="&#xe2;" horiz-adv-x="1083" d="M41 313v15q0 172 102.5 261t276.5 89q129 0 229 -43v27q0 172 -192 172q-113 0 -262 -62l-82 266q190 86 403 86q252 0 375 -123q113 -113 113 -337v-664h-357v113q-106 -136 -282 -136q-141 0 -232.5 89.5t-91.5 246.5zM174 1202l232 311h282l232 -311h-228l-147 117 l-148 -117h-223zM383 338q0 -57 32 -90t83 -35q68 0 110.5 44t42.5 118v82q-57 27 -124.5 26.5t-105.5 -37t-38 -100.5v-8z" />
<glyph unicode="&#xe3;" horiz-adv-x="1083" d="M41 313v15q0 172 102.5 261t276.5 89q129 0 229 -43v27q0 172 -192 172q-113 0 -262 -62l-82 266q190 86 403 86q252 0 375 -123q113 -113 113 -337v-664h-357v113q-106 -136 -282 -136q-141 0 -232.5 89.5t-91.5 246.5zM166 1231q27 145 79 213.5t142 68.5q61 0 172 -40 q90 -35 119 -35q35 0 53.5 19.5t36.5 68.5l172 -43q-27 -145 -79 -214t-142 -69q-61 0 -172 41q-90 35 -119 35q-37 0 -54.5 -19.5t-35.5 -68.5zM383 338q0 -57 32 -90t83 -35q68 0 110.5 44t42.5 118v82q-57 27 -124.5 26.5t-105.5 -37t-38 -100.5v-8z" />
<glyph unicode="&#xe4;" horiz-adv-x="1083" d="M41 313v15q0 172 102.5 261t276.5 89q129 0 229 -43v27q0 172 -192 172q-113 0 -262 -62l-82 266q190 86 403 86q252 0 375 -123q113 -113 113 -337v-664h-357v113q-106 -136 -282 -136q-141 0 -232.5 89.5t-91.5 246.5zM203 1202v275h301v-275h-301zM383 338 q0 -57 32 -90t83 -35q68 0 110.5 44t42.5 118v82q-57 27 -124.5 26.5t-105.5 -37t-38 -100.5v-8zM590 1202v275h301v-275h-301z" />
<glyph unicode="&#xe5;" horiz-adv-x="1083" d="M41 313v15q0 172 102.5 261t276.5 89q129 0 229 -43v27q0 172 -192 172q-113 0 -262 -62l-82 266q190 86 403 86q252 0 375 -123q113 -113 113 -337v-664h-357v113q-106 -136 -282 -136q-141 0 -232.5 89.5t-91.5 246.5zM301 1439.5q0 100.5 71.5 169t174 68.5 t174.5 -68.5t72 -169t-72 -170t-174.5 -69.5t-174 69.5t-71.5 170zM383 338q0 -57 32 -90t83 -35q68 0 110.5 44t42.5 118v82q-57 27 -124.5 26.5t-105.5 -37t-38 -100.5v-8zM424 1439.5q0 -53.5 36 -90t87 -36.5t87 36.5t36 90t-36 90.5t-87 37t-87 -37t-36 -90.5z" />
<glyph unicode="&#xe6;" horiz-adv-x="1687" d="M41 319v11q0 172 102.5 260t276.5 88q129 0 229 -43v27q0 172 -192 172q-123 0 -262 -66l-82 272q190 84 401 84q221 0 334 -118q123 127 303 127q231 0 358 -165t127 -427q0 -6 -1 -46t-1 -57h-645q41 -180 215 -180q117 0 226 104l172 -204q-172 -182 -422 -183 q-252 0 -396 172q-170 -170 -381 -170q-160 0 -261 89.5t-101 252.5zM383 338q0 -55 34 -88t89 -33q96 0 182 96q-23 59 -33 144q-66 27 -127 26q-68 0 -106.5 -36.5t-38.5 -100.5v-8zM985 641h313q-6 102 -47 157.5t-108 55.5q-135 0 -158 -213z" />
<glyph unicode="&#xe7;" horiz-adv-x="997" d="M53 537v22q0 248 148.5 409.5t380.5 161.5q246 0 393 -186l-211 -223q-74 94 -170 94q-84 0 -136 -71.5t-52 -184.5v-6q0 -121 52 -192.5t140 -71.5q90 0 174 94l205 -211q-133 -172 -342 -195l-100 -303l-295 111l157 215q-158 53 -251 197.5t-93 339.5z" />
<glyph unicode="&#xe8;" horiz-adv-x="1095" d="M51 539v22q0 250 141.5 411t360.5 161q238 0 364.5 -164t126.5 -428q0 -74 -2 -103h-643q41 -180 213 -180q117 0 228 104l172 -204q-172 -183 -424 -183q-238 0 -387.5 154t-149.5 410zM170 1442l326 106l194 -346h-241zM395 641h314q-8 102 -49.5 157.5t-106.5 55.5 q-135 0 -158 -213z" />
<glyph unicode="&#xe9;" horiz-adv-x="1095" d="M51 539v22q0 250 141.5 411t360.5 161q238 0 364.5 -164t126.5 -428q0 -74 -2 -103h-643q41 -180 213 -180q117 0 228 104l172 -204q-172 -183 -424 -183q-238 0 -387.5 154t-149.5 410zM395 641h314q-8 102 -49.5 157.5t-106.5 55.5q-135 0 -158 -213zM418 1202l194 346 l326 -106l-279 -240h-241z" />
<glyph unicode="&#xea;" horiz-adv-x="1095" d="M51 539v22q0 250 141.5 411t360.5 161q238 0 364.5 -164t126.5 -428q0 -74 -2 -103h-643q41 -180 213 -180q117 0 228 104l172 -204q-172 -183 -424 -183q-238 0 -387.5 154t-149.5 410zM182 1200l232 311h282l232 -311h-228l-147 117l-147 -117h-224zM395 641h314 q-8 102 -49.5 157.5t-106.5 55.5q-135 0 -158 -213z" />
<glyph unicode="&#xeb;" horiz-adv-x="1095" d="M51 539v22q0 250 141.5 411t360.5 161q238 0 364.5 -164t126.5 -428q0 -74 -2 -103h-643q41 -180 213 -180q117 0 228 104l172 -204q-172 -183 -424 -183q-238 0 -387.5 154t-149.5 410zM209 1202v275h301v-275h-301zM395 641h314q-8 102 -49.5 157.5t-106.5 55.5 q-135 0 -158 -213zM596 1202v275h301v-275h-301z" />
<glyph unicode="&#xec;" horiz-adv-x="550" d="M-109 1434l326 106l195 -346h-242zM96 0v1108h359v-1108h-359z" />
<glyph unicode="&#xed;" horiz-adv-x="550" d="M96 0v1108h359v-1108h-359zM141 1194l195 346l326 -106l-279 -240h-242z" />
<glyph unicode="&#xee;" horiz-adv-x="550" d="M-96 1194l231 311h283l231 -311h-227l-148 117l-147 -117h-223zM96 0v1108h359v-1108h-359z" />
<glyph unicode="&#xef;" horiz-adv-x="550" d="M-68 1194v274h301v-274h-301zM96 0v1108h359v-1108h-359zM319 1194v274h302v-274h-302z" />
<glyph unicode="&#xf0;" horiz-adv-x="1179" d="M53 555v33q0 236 116 378t290 142q123 0 223 -74q-49 84 -129 178l-215 -53l-55 162l131 33q-82 72 -160 129h438l53 -47l199 51l55 -162l-120 -31q248 -307 247 -663v-25q0 -287 -146 -460t-394 -173q-236 0 -384.5 160t-148.5 422zM406 545q0 -117 51 -189.5t135 -72.5 t134 71.5t50 186.5v18q0 117 -52 189.5t-136 72.5t-133 -71.5t-49 -186.5v-18z" />
<glyph unicode="&#xf1;" horiz-adv-x="1148" d="M88 0v1108h361v-147q119 170 292 169q154 0 241 -98t87 -268v-764h-360v653q0 76 -35 117t-92 41q-59 0 -96 -41t-37 -117v-653h-361zM197 1231q27 145 79 213.5t142 68.5q61 0 172 -40q90 -35 119 -35q35 0 53 19.5t37 68.5l172 -43q-27 -145 -79 -214t-142 -69 q-61 0 -172 41q-90 35 -119 35q-37 0 -54.5 -19.5t-35.5 -68.5z" />
<glyph unicode="&#xf2;" horiz-adv-x="1179" d="M53 537v30q0 246 152.5 406t386 160t385 -159t151.5 -405v-30q0 -246 -152 -406t-388 -160q-233 0 -384 159t-151 405zM207 1442l325 106l195 -346h-242zM406 545q0 -117 51 -189.5t135 -72.5t134 71.5t50 188.5v18q0 117 -51 189.5t-135 72.5q-86 0 -135 -71.5 t-49 -188.5v-18z" />
<glyph unicode="&#xf3;" horiz-adv-x="1179" d="M53 537v30q0 246 152.5 406t386 160t385 -159t151.5 -405v-30q0 -246 -152 -406t-388 -160q-233 0 -384 159t-151 405zM406 545q0 -117 51 -189.5t135 -72.5t134 71.5t50 188.5v18q0 117 -51 189.5t-135 72.5q-86 0 -135 -71.5t-49 -188.5v-18zM455 1202l194 346 l326 -106l-279 -240h-241z" />
<glyph unicode="&#xf4;" horiz-adv-x="1179" d="M53 537v30q0 246 152.5 406t386 160t385 -159t151.5 -405v-30q0 -246 -152 -406t-388 -160q-233 0 -384 159t-151 405zM217 1200l232 311h282l232 -311h-228l-147 117l-148 -117h-223zM406 545q0 -117 51 -189.5t135 -72.5t134 71.5t50 188.5v18q0 117 -51 189.5 t-135 72.5q-86 0 -135 -71.5t-49 -188.5v-18z" />
<glyph unicode="&#xf5;" horiz-adv-x="1179" d="M53 537v30q0 246 152.5 406t386 160t385 -159t151.5 -405v-30q0 -246 -152 -406t-388 -160q-233 0 -384 159t-151 405zM209 1231q27 145 79 213.5t142 68.5q61 0 172 -40q90 -35 119 -35q35 0 53.5 19.5t36.5 68.5l172 -43q-27 -145 -79 -214t-142 -69q-61 0 -172 41 q-90 35 -119 35q-37 0 -54.5 -19.5t-35.5 -68.5zM406 545q0 -117 51 -189.5t135 -72.5t134 71.5t50 188.5v18q0 117 -51 189.5t-135 72.5q-86 0 -135 -71.5t-49 -188.5v-18z" />
<glyph unicode="&#xf6;" horiz-adv-x="1179" d="M53 537v30q0 246 152.5 406t386 160t385 -159t151.5 -405v-30q0 -246 -152 -406t-388 -160q-233 0 -384 159t-151 405zM246 1202v275h301v-275h-301zM406 545q0 -117 51 -189.5t135 -72.5t134 71.5t50 188.5v18q0 117 -51 189.5t-135 72.5q-86 0 -135 -71.5t-49 -188.5 v-18zM633 1202v275h301v-275h-301z" />
<glyph unicode="&#xf7;" horiz-adv-x="1163" d="M94 573v295h975v-295h-975zM414 145v308h336v-308h-336zM414 989v307h336v-307h-336z" />
<glyph unicode="&#xf8;" horiz-adv-x="1179" d="M27 -10l145 180q-119 152 -119 367v30q0 246 152.5 406t386.5 160q154 0 280 -78l50 63h231l-145 -182q121 -154 120 -367v-30q0 -246 -152.5 -406t-387.5 -160q-158 0 -281 76l-49 -59h-231zM391 543q0 -59 10 -97l281 365q-43 27 -92 27q-90 0 -144.5 -76t-54.5 -197 v-22zM500 293q41 -25 92 -25q90 0 144.5 76t54.5 197v22q0 47 -11 94z" />
<glyph unicode="&#xf9;" horiz-adv-x="1148" d="M80 344v764h360v-653q0 -76 35 -117t92 -41q59 0 96 41t37 117v653h361v-1108h-361v145q-116 -168 -292 -168q-154 0 -241 98.5t-87 268.5zM184 1434l326 106l195 -346h-242z" />
<glyph unicode="&#xfa;" horiz-adv-x="1148" d="M80 344v764h360v-653q0 -76 35 -117t92 -41q59 0 96 41t37 117v653h361v-1108h-361v145q-116 -168 -292 -168q-154 0 -241 98.5t-87 268.5zM434 1194l195 346l325 -106l-278 -240h-242z" />
<glyph unicode="&#xfb;" horiz-adv-x="1148" d="M80 344v764h360v-653q0 -76 35 -117t92 -41q59 0 96 41t37 117v653h361v-1108h-361v145q-116 -168 -292 -168q-154 0 -241 98.5t-87 268.5zM197 1194l231 311h283l231 -311h-227l-148 117l-147 -117h-223z" />
<glyph unicode="&#xfc;" horiz-adv-x="1148" d="M80 344v764h360v-653q0 -76 35 -117t92 -41q59 0 96 41t37 117v653h361v-1108h-361v145q-116 -168 -292 -168q-154 0 -241 98.5t-87 268.5zM225 1194v274h301v-274h-301zM612 1194v274h301v-274h-301z" />
<glyph unicode="&#xfd;" horiz-adv-x="1124" d="M16 1108h373l182 -653l172 653h365l-350 -1077q-61 -188 -147.5 -267t-237.5 -79q-154 0 -293 77l92 256q80 -45 139 -45q55 0 80 43zM430 1194l195 346l325 -106l-278 -240h-242z" />
<glyph unicode="&#xfe;" horiz-adv-x="1212" d="M88 -309v1792h361v-516q57 78 125.5 120.5t168.5 42.5q176 0 295 -144t119 -411v-36q0 -270 -117.5 -416t-296.5 -146q-174 0 -294 156v-442h-361zM442 541q0 -115 50.5 -185.5t130 -70.5t130 70.5t50.5 185.5v26q0 115 -50.5 185.5t-130 70.5t-130 -70.5t-50.5 -185.5 v-26z" />
<glyph unicode="&#xff;" horiz-adv-x="1124" d="M16 1108h373l182 -653l172 653h365l-350 -1077q-61 -188 -147.5 -267t-237.5 -79q-154 0 -293 77l92 256q80 -45 139 -45q55 0 80 43zM221 1194v274h301v-274h-301zM608 1194v274h301v-274h-301z" />
<glyph unicode="&#x152;" horiz-adv-x="1900" d="M66 700v25q0 324 193.5 516.5t535.5 192.5h1032v-324h-590v-236h528v-305h-528v-245h598v-324h-1044q-342 0 -533.5 189.5t-191.5 510.5zM442 709q0 -186 91 -284.5t247 -98.5h90v782h-90q-156 0 -247 -97.5t-91 -283.5v-18z" />
<glyph unicode="&#x153;" horiz-adv-x="1814" d="M53 537v30q0 244 151.5 405t377.5 161q223 0 358 -158q129 158 338 158q233 0 359 -164t126 -428q0 -74 -2 -103h-643q41 -180 215 -180q117 0 226 104l172 -204q-172 -182 -420 -183q-236 0 -375 158q-137 -160 -360.5 -160t-373 160t-149.5 404zM406 545 q0 -115 50 -188.5t132 -73.5q84 0 132 71.5t48 188.5v18q0 117 -50 189.5t-132 72.5q-84 0 -132 -71.5t-48 -188.5v-18zM1114 641h313q-8 102 -49 157.5t-106 55.5q-135 0 -158 -213z" />
<glyph unicode="&#x178;" horiz-adv-x="1282" d="M-4 1434h407l240 -519l242 519h401l-461 -893v-541h-368v537zM283 1520v264h305v-264h-305zM690 1520v264h305v-264h-305z" />
<glyph unicode="&#x2c6;" horiz-adv-x="1024" d="M139 1194l232 311h282l232 -311h-228l-147 117l-148 -117h-223z" />
<glyph unicode="&#x2dc;" horiz-adv-x="1024" d="M125 1223q27 145 79 213.5t142 68.5q61 0 172 -41q90 -35 119 -34q35 0 53.5 19t36.5 69l172 -43q-27 -145 -79 -214t-142 -69q-61 0 -172 41q-90 35 -119 35q-37 0 -54.5 -19.5t-35.5 -68.5z" />
<glyph unicode="&#x2000;" horiz-adv-x="930" />
<glyph unicode="&#x2001;" horiz-adv-x="1860" />
<glyph unicode="&#x2002;" horiz-adv-x="930" />
<glyph unicode="&#x2003;" horiz-adv-x="1860" />
<glyph unicode="&#x2004;" horiz-adv-x="620" />
<glyph unicode="&#x2005;" horiz-adv-x="465" />
<glyph unicode="&#x2006;" horiz-adv-x="310" />
<glyph unicode="&#x2007;" horiz-adv-x="310" />
<glyph unicode="&#x2008;" horiz-adv-x="232" />
<glyph unicode="&#x2009;" horiz-adv-x="372" />
<glyph unicode="&#x200a;" horiz-adv-x="103" />
<glyph unicode="&#x2010;" horiz-adv-x="782" d="M74 477v326h635v-326h-635z" />
<glyph unicode="&#x2011;" horiz-adv-x="782" d="M74 477v326h635v-326h-635z" />
<glyph unicode="&#x2012;" horiz-adv-x="782" d="M74 477v326h635v-326h-635z" />
<glyph unicode="&#x2013;" horiz-adv-x="1030" d="M74 481v318h882v-318h-882z" />
<glyph unicode="&#x2014;" horiz-adv-x="1695" d="M74 481v318h1548v-318h-1548z" />
<glyph unicode="&#x2018;" horiz-adv-x="540" d="M74 735v309q0 373 391 400l31 -139q-102 -14 -152.5 -64.5t-46.5 -126.5h156v-379h-379z" />
<glyph unicode="&#x2019;" horiz-adv-x="540" d="M45 866q100 14 150.5 63.5t48.5 127.5h-158v377h379v-310q0 -374 -391 -397z" />
<glyph unicode="&#x201a;" horiz-adv-x="546" d="M41 -190q102 14 153.5 64t47.5 126h-156v377h379v-307q0 -199 -101 -293.5t-294 -106.5z" />
<glyph unicode="&#x201c;" horiz-adv-x="1032" d="M74 735v309q0 373 385 400l30 -139q-102 -14 -150 -64.5t-44 -126.5h151v-379h-372zM573 735v309q0 373 385 400l31 -139q-102 -14 -150 -64.5t-44 -126.5h151v-379h-373z" />
<glyph unicode="&#x201d;" horiz-adv-x="1032" d="M45 866q100 14 149.5 63.5t45.5 127.5h-154v377h373v-310q0 -374 -385 -397zM545 866q100 14 148 63.5t46 127.5h-153v377h372v-310q0 -374 -385 -397z" />
<glyph unicode="&#x201e;" horiz-adv-x="1042" d="M41 -190q102 14 151.5 64t47.5 126h-154v377h373v-307q0 -199 -99.5 -293.5t-289.5 -106.5zM543 -190q102 14 152 64t46 126h-153v377h373v-307q0 -199 -100 -293.5t-290 -106.5z" />
<glyph unicode="&#x2022;" horiz-adv-x="937" d="M154 715v14q0 147 91 243.5t224 96.5t224 -96t91 -244v-14q0 -147 -91 -243.5t-224 -96.5t-224 96t-91 244z" />
<glyph unicode="&#x2026;" horiz-adv-x="1619" d="M82 0v373h375v-373h-375zM623 0v373h374v-373h-374zM1163 0v373h375v-373h-375z" />
<glyph unicode="&#x202f;" horiz-adv-x="372" />
<glyph unicode="&#x2039;" horiz-adv-x="663" d="M53 510v80l324 438l233 -115l-221 -362l223 -361l-235 -116z" />
<glyph unicode="&#x203a;" horiz-adv-x="663" d="M53 188l223 361l-223 362l236 115l323 -436v-80l-323 -436z" />
<glyph unicode="&#x205f;" horiz-adv-x="465" />
<glyph unicode="&#x20ac;" horiz-adv-x="1216" d="M61 455v213h123v26v41v39h-123v213h152q49 217 197.5 345t363.5 128q246 0 414 -184l-207 -244q-90 102 -199 103q-147 0 -204 -154h290v-207h-327v-39v-35v-32h327v-209h-295q53 -160 213 -160q111 0 205 109l199 -238q-174 -197 -424 -197q-217 0 -364.5 128 t-194.5 354h-146z" />
<glyph unicode="&#x2122;" horiz-adv-x="1261" d="M31 1282v152h481v-152h-156v-483h-168v483h-157zM596 799v635h174l127 -230l129 230h172v-635h-164v360l-135 -235h-6l-133 235v-360h-164z" />
<glyph unicode="&#x25fc;" horiz-adv-x="1105" d="M0 0v1106h1106v-1106h-1106z" />
</font>
</defs>
</svg>
