<?xml version="1.0" standalone="no"?>
<!DOCTYPE svg PUBLIC "-//W3C//DTD SVG 1.1//EN" "http://www.w3.org/Graphics/SVG/1.1/DTD/svg11.dtd" >
<svg xmlns="http://www.w3.org/2000/svg">
<metadata></metadata>
<defs>
<font id="gnlilight" horiz-adv-x="1335" >
<font-face units-per-em="2048" ascent="1638" descent="-410" />
<missing-glyph horiz-adv-x="487" />
<glyph unicode="&#xfb01;" horiz-adv-x="1091" d="M90 0l236 967h-138l23 88h135l37 141q35 143 109 213q76 72 190 72q96 0 170 -39l-23 -86q-84 37 -149 37q-154 0 -205 -211l-33 -127h312l-23 -88h-309l-236 -967h-96zM688 0l258 1055h94l-256 -1055h-96zM999 1313l35 139h115l-35 -139h-115z" />
<glyph unicode="&#xfb02;" horiz-adv-x="1091" d="M90 0l236 967h-138l23 88h135l37 141q35 143 109 213q76 72 190 72q96 0 170 -39l-23 -86q-84 37 -149 37q-154 0 -205 -211l-33 -127h312l-23 -88h-309l-236 -967h-96zM688 0l363 1479h94l-361 -1479h-96z" />
<glyph unicode="&#xfb03;" horiz-adv-x="1732" d="M90 0l236 967h-138l23 88h135l37 141q35 143 109 213q76 72 190 72q96 0 170 -39l-23 -86q-84 37 -149 37q-154 0 -205 -211l-33 -127h312l-23 -88h-309l-236 -967h-96zM731 0l236 967h-138l23 88h135l37 141q35 143 109 213q76 72 190 72q96 0 170 -39l-23 -86 q-82 37 -149 37q-154 0 -205 -211l-33 -127h312l-23 -88h-309l-236 -967h-96zM1331 0l258 1055h94l-256 -1055h-96zM1642 1313l35 139h115l-35 -139h-115z" />
<glyph unicode="&#xfb04;" horiz-adv-x="1732" d="M90 0l236 967h-138l23 88h135l37 141q35 143 109 213q76 72 190 72q96 0 170 -39l-23 -86q-84 37 -149 37q-154 0 -205 -211l-33 -127h312l-23 -88h-309l-236 -967h-96zM731 0l236 967h-138l23 88h135l37 141q35 143 109 213q76 72 190 72q96 0 170 -39l-23 -86 q-82 37 -149 37q-154 0 -205 -211l-33 -127h312l-23 -88h-309l-236 -967h-96zM1331 0l363 1479h94l-361 -1479h-96z" />
<glyph horiz-adv-x="0" />
<glyph unicode="&#xd;" horiz-adv-x="681" />
<glyph unicode=" "  horiz-adv-x="487" />
<glyph unicode="&#x09;" horiz-adv-x="487" />
<glyph unicode="&#xa0;" horiz-adv-x="487" />
<glyph unicode="!" horiz-adv-x="477" d="M45 0l41 172h131l-41 -172h-131zM174 375l195 915l34 144h115l-35 -144l-256 -915h-53z" />
<glyph unicode="&#x22;" horiz-adv-x="727" d="M195 922l159 512h121v-13l-227 -499h-53zM516 922l160 512h121v-13l-228 -499h-53z" />
<glyph unicode="#" horiz-adv-x="1206" d="M57 381l21 92h223l150 492h-234l23 92h237l115 377h92l-115 -377h363l115 377h90l-113 -377h215l-20 -92h-224l-149 -492h233l-20 -92h-240l-114 -381h-93l117 381h-364l-115 -381h-90l114 381h-217zM393 473h363l149 492h-364z" />
<glyph unicode="$" horiz-adv-x="1091" d="M-16 225l73 68q139 -164 342 -197l148 606q-168 82 -237.5 166t-69.5 193q0 158 123.5 266.5t310.5 108.5q10 0 27.5 -1t25.5 -1l33 125h92l-35 -138q178 -37 313 -170l-69 -71q-121 121 -273 153l-139 -567q160 -80 231.5 -166t71.5 -203q0 -172 -128 -286.5 t-335 -114.5q-6 0 -16 1t-16 1l-47 -199h-93l52 207q-240 41 -385 219zM342 1067q0 -78 52 -141.5t179 -126.5l134 544q-12 2 -39 3q-145 0 -235.5 -81t-90.5 -198zM481 88h25q158 0 251 89t93 218q0 80 -50 144.5t-175 128.5z" />
<glyph unicode="%" horiz-adv-x="1478" d="M106 0l650 739l602 695h108l-647 -740l-602 -694h-111zM178 1012q0 211 133 340q96 96 217 96q109 0 179.5 -80t70.5 -207q0 -203 -133 -340q-96 -96 -219 -96q-109 0 -178.5 80t-69.5 207zM272 1018q0 -96 43 -151.5t119 -55.5q74 0 141 63q106 111 107 283 q0 96 -42 150.5t-118 54.5q-78 0 -141 -64q-109 -109 -109 -280zM797 272q0 205 131 340q100 96 219 97q109 0 178.5 -80t69.5 -207q0 -209 -131 -340q-97 -96 -220 -96q-109 0 -178 79.5t-69 206.5zM891 276q0 -96 43 -150t119 -54q74 0 141 63q106 111 106 281 q0 96 -43 151.5t-118.5 55.5t-139.5 -64q-109 -109 -108 -283z" />
<glyph unicode="&#x26;" horiz-adv-x="1236" d="M51 326q0 342 445 495q-90 170 -90 291q0 145 98 244.5t241 99.5q137 0 218 -79t81 -199q0 -266 -415 -404l252 -428q100 129 198 332l80 -43q-115 -215 -227 -359l155 -253l-79 -48l-140 230q-109 -115 -212 -169t-238 -54q-160 0 -263.5 94t-103.5 250zM156 340 q0 -121 72.5 -194.5t199.5 -73.5q201 0 391 202l-278 474q-193 -61 -289 -168t-96 -240zM506 1114q0 -119 82 -268q358 109 358 328q0 86 -56 140t-151 54q-98 0 -165.5 -76t-67.5 -178z" />
<glyph unicode="'" horiz-adv-x="399" d="M195 922l159 512h121v-13l-227 -499h-53z" />
<glyph unicode="(" horiz-adv-x="757" d="M158 416q0 461 319 780q170 170 414 272l31 -67q-225 -106 -367 -248q-150 -150 -223.5 -342.5t-73.5 -390.5q0 -205 70.5 -358.5t197.5 -288.5l-53 -56q-315 303 -315 699z" />
<glyph unicode=")" horiz-adv-x="757" d="M-133 -213q225 106 366 248q150 150 223.5 342t73.5 391q0 205 -70.5 358.5t-197.5 288.5l53 55q315 -303 316 -698q0 -461 -320 -780q-170 -170 -413 -273z" />
<glyph unicode="*" horiz-adv-x="784" d="M246 1100l246 53l-195 162l59 59l164 -186l43 250l80 -19l-78 -241l230 88l24 -80l-246 -53l195 -162l-61 -60l-162 187l-43 -250l-80 18l78 242l-230 -88z" />
<glyph unicode="+" horiz-adv-x="1093" d="M152 674l22 94h385l94 383h99l-99 -383h385l-22 -94h-385l-94 -383h-97l97 383h-385z" />
<glyph unicode="," horiz-adv-x="421" d="M-84 -164q137 51 156 164h-56l43 172h131l-36 -149q-27 -104 -74.5 -155.5t-147.5 -82.5z" />
<glyph unicode="-" horiz-adv-x="749" d="M131 555l27 104h497l-24 -104h-500z" />
<glyph unicode="." horiz-adv-x="421" d="M16 0l43 172h131l-40 -172h-134z" />
<glyph unicode="/" horiz-adv-x="872" d="M-217 -244l1255 1860h103l-1258 -1860h-100z" />
<glyph unicode="0" horiz-adv-x="1241" d="M139 473q0 223 81 455.5t216 367.5q155 160 352 160q195 0 300.5 -134t105.5 -364q0 -221 -81 -453.5t-216 -367.5q-160 -160 -354 -160q-193 0 -298.5 133.5t-105.5 362.5zM244 475q0 -186 78 -295.5t225 -109.5q141 0 270 125q121 123 197 341t76 422q0 186 -79 296 t-225 110q-141 0 -270 -125q-121 -123 -196.5 -341t-75.5 -423z" />
<glyph unicode="1" horiz-adv-x="602" d="M160 0l323 1319l-258 -90l2 100l305 113h82l-352 -1442h-102z" />
<glyph unicode="2" horiz-adv-x="1042" d="M-41 0l16 74l707 653q127 123 184.5 212t57.5 185q0 104 -72 169t-197 65q-176 0 -342 -172l-69 65q193 203 418 203q164 0 266 -91t102 -235q0 -119 -66.5 -220t-205.5 -234l-625 -576h711l-25 -98h-860z" />
<glyph unicode="3" horiz-adv-x="1056" d="M0 203l78 57q121 -188 348 -188q168 0 275.5 102t107.5 260q0 147 -108.5 214t-260.5 67h-30l-13 55l561 565h-659l27 99h798l-16 -72l-563 -571q164 -18 267 -107.5t103 -245.5q0 -188 -131 -317q-143 -144 -364 -144q-279 0 -420 226z" />
<glyph unicode="4" horiz-adv-x="1132" d="M45 426l948 1018h92l-245 -1012h196l-20 -88h-197l-86 -344h-96l84 344h-670zM170 432h573l203 836z" />
<glyph unicode="5" horiz-adv-x="1060" d="M10 186l78 62q133 -180 342 -180q182 0 295 125.5t113 293.5q0 141 -83 215t-216 74q-137 0 -265 -69l-63 49l203 678h669l-24 -99h-582l-158 -518q102 51 226 51q182 0 290.5 -99t108.5 -280q0 -217 -145 -362q-154 -150 -373 -150q-260 0 -416 209z" />
<glyph unicode="6" horiz-adv-x="1130" d="M139 461q0 215 81 452.5t214 372.5q170 170 381 170q205 0 348 -156l-69 -69q-121 131 -287 131q-160 0 -299 -135q-90 -92 -156.5 -240.5t-89.5 -308.5q141 213 379 213q180 0 285.5 -111.5t105.5 -279.5q0 -233 -151 -385q-137 -138 -334 -138q-170 0 -281 111 q-127 127 -127 373zM250 393q0 -156 86 -241q84 -84 219 -84q141 0 248 102q125 125 125 328q0 131 -78 215t-221 84q-158 0 -260 -107q-119 -119 -119 -297z" />
<glyph unicode="7" horiz-adv-x="1015" d="M123 0l850 1335h-699l25 99h813l-20 -78l-856 -1356h-113z" />
<glyph unicode="8" horiz-adv-x="1116" d="M63 340q-2 158 104.5 271.5t278.5 148.5q-82 35 -133 112.5t-51 180.5q0 166 128 283.5t319 117.5q176 0 287.5 -96t111.5 -254q0 -141 -93 -246.5t-235 -138.5q90 -41 152.5 -127t62.5 -195q0 -174 -139 -295.5t-350 -121.5q-197 0 -318.5 102t-124.5 258zM166 352 q0 -129 94 -204.5t250 -75.5q170 0 275.5 96t105.5 238q0 125 -93 205.5t-249 80.5q-170 0 -276.5 -101.5t-106.5 -238.5zM365 1044q0 -113 79.5 -189.5t210.5 -76.5q160 0 255.5 98.5t95.5 223.5q0 117 -82 189.5t-217 72.5q-154 0 -248 -94t-94 -224z" />
<glyph unicode="9" horiz-adv-x="1130" d="M47 145l68 70q133 -143 303 -143q158 0 297 135q92 92 156.5 237.5t86.5 300.5q-141 -219 -380 -219q-180 0 -285 113t-105 287q0 240 158 393q137 137 332 137q168 0 278 -110q127 -127 127 -373q0 -217 -79.5 -453.5t-215.5 -372.5q-169 -170 -378 -170 q-211 0 -363 168zM293 928q-2 -137 76 -222t225 -85q150 0 256 106q123 123 123 313q0 156 -86 242q-84 84 -217 84q-145 0 -248 -102q-125 -125 -129 -336z" />
<glyph unicode=":" horiz-adv-x="442" d="M27 0l43 172h131l-41 -172h-133zM242 883l43 172h131l-41 -172h-133z" />
<glyph unicode=";" horiz-adv-x="442" d="M-74 -164q137 51 156 164h-55l43 172h131l-37 -149q-27 -104 -74 -155.5t-147 -82.5zM242 883l43 172h131l-41 -172h-133z" />
<glyph unicode="&#x3c;" horiz-adv-x="1093" d="M152 680l20 82l922 438l-27 -119l-793 -368l607 -371l-23 -98z" />
<glyph unicode="=" horiz-adv-x="1093" d="M123 469l24 98h818l-25 -98h-817zM225 874l23 99h817l-25 -99h-815z" />
<glyph unicode="&#x3e;" horiz-adv-x="1093" d="M92 242l29 118l790 369l-606 371l25 98l706 -436l-20 -82z" />
<glyph unicode="?" horiz-adv-x="948" d="M199 1284q182 166 399 166q166 0 267.5 -95t101.5 -245q0 -184 -136.5 -303t-347.5 -156l-86 -276h-63l59 344l15 12q209 23 332.5 124t123.5 253q0 119 -77.5 183.5t-194.5 64.5q-176 0 -336 -144zM211 0l41 172h131l-41 -172h-131z" />
<glyph unicode="@" horiz-adv-x="1789" d="M113 424q0 266 120.5 502.5t335.5 383t467 146.5q324 0 509.5 -190.5t185.5 -485.5q0 -264 -126 -447t-278 -183q-98 0 -153.5 57t-59.5 151q-154 -213 -344 -213q-119 0 -195.5 82t-76.5 224q0 219 142 400t321 181q106 0 172.5 -60.5t91.5 -154.5l57 191l90 -25 l-149 -504q-20 -72 -21 -117q0 -63 35 -102t100 -39q117 0 221.5 164t104.5 395q0 268 -167 440.5t-462 172.5q-233 0 -433 -139.5t-311.5 -362.5t-111.5 -467q0 -313 188.5 -493.5t491.5 -180.5q203 0 391 94l29 -57q-215 -100 -420 -100q-338 0 -541.5 196.5t-203.5 540.5 zM604 455q0 -104 51.5 -161.5t135.5 -57.5q139 0 264 147t125 315q0 109 -58.5 175.5t-158.5 66.5q-139 0 -249 -153.5t-110 -331.5z" />
<glyph unicode="A" d="M-61 0l911 1444h102l205 -1444h-102l-54 401h-700l-252 -401h-110zM358 494h629l-110 825z" />
<glyph unicode="B" horiz-adv-x="1251" d="M55 0l351 1434h417q184 0 293 -85t109 -235q0 -158 -104.5 -259t-260.5 -134q117 -31 187.5 -105.5t70.5 -189.5q0 -199 -159.5 -312.5t-409.5 -113.5h-494zM180 94h375q213 0 337 87t124 245q0 119 -95.5 184.5t-254.5 65.5h-344zM344 770h318q207 0 332.5 92t125.5 242 q0 115 -81 175t-224 60h-332z" />
<glyph unicode="C" horiz-adv-x="1253" d="M158 528q0 197 74.5 393.5t205.5 329.5q203 203 463 203q276 0 420 -240l-84 -57q-127 205 -344 205q-209 0 -377 -168q-115 -115 -184.5 -296t-69.5 -368q0 -211 108.5 -334.5t288.5 -123.5q195 0 371 164l66 -66q-199 -193 -443 -193q-215 0 -355 148.5t-140 402.5z " />
<glyph unicode="D" horiz-adv-x="1345" d="M55 0l351 1434h264q299 0 463 -164q149 -144 149 -410q0 -172 -62 -339t-180 -283q-238 -238 -614 -238h-371zM178 94h264q313 0 525 207q102 102 156.5 250.5t54.5 298.5q0 229 -125 354q-135 135 -389 135h-181z" />
<glyph unicode="E" horiz-adv-x="1126" d="M55 0l351 1434h849l-22 -95h-748l-141 -569h674l-23 -94h-673l-142 -582h758l-25 -94h-858z" />
<glyph unicode="F" horiz-adv-x="1124" d="M55 0l351 1434h843l-22 -95h-742l-145 -591h668l-25 -95h-666l-159 -653h-103z" />
<glyph unicode="G" horiz-adv-x="1363" d="M160 549q0 190 72.5 374.5t203.5 313.5q217 217 502 217q272 0 426 -209l-78 -59q-129 176 -358 176q-236 0 -418 -186q-115 -115 -180.5 -284t-65.5 -341q0 -221 119 -351t315 -130q186 0 318 88l123 489h-398l25 94h494l-162 -641q-191 -123 -406 -123q-238 0 -385 157 t-147 415z" />
<glyph unicode="H" d="M55 0l351 1434h102l-164 -666h766l162 666h102l-350 -1434h-102l163 674h-763l-164 -674h-103z" />
<glyph unicode="I" horiz-adv-x="495" d="M70 0l350 1434h102l-350 -1434h-102z" />
<glyph unicode="J" horiz-adv-x="925" d="M-29 238l90 36q70 -198 248 -198h2q121 0 201 82q80 76 123 250l248 1026h102l-254 -1047q-49 -195 -151 -297q-109 -108 -269 -108q-256 0 -340 256z" />
<glyph unicode="K" horiz-adv-x="1245" d="M55 0l351 1434h102l-223 -904l970 904h138l-697 -639l373 -795h-115l-338 725l-366 -340l-92 -385h-103z" />
<glyph unicode="L" horiz-adv-x="1030" d="M55 0l351 1434h102l-328 -1340h694l-22 -94h-797z" />
<glyph unicode="M" horiz-adv-x="1533" d="M55 0l351 1434h90l280 -840l686 840h111l-350 -1434h-101l303 1243l-682 -829h-8l-278 829l-305 -1243h-97z" />
<glyph unicode="N" horiz-adv-x="1380" d="M55 0l351 1434h96l516 -1248l305 1248h98l-350 -1434h-78l-528 1276l-311 -1276h-99z" />
<glyph unicode="O" horiz-adv-x="1456" d="M162 539q0 197 74.5 396.5t203.5 326.5q195 194 445 194q227 0 365.5 -156.5t138.5 -406.5q0 -195 -75 -394.5t-204 -328.5q-195 -195 -444 -195q-227 0 -365.5 157t-138.5 407zM264 541q0 -209 111 -340t293 -131q205 0 366 161q115 115 183.5 299.5t68.5 360.5 q0 211 -110.5 341t-292.5 130q-207 0 -367 -164q-115 -115 -183.5 -298t-68.5 -359z" />
<glyph unicode="P" horiz-adv-x="1171" d="M55 0l351 1434h346q246 0 362 -117q98 -98 98 -260q0 -213 -137 -350q-176 -172 -516 -172h-270l-131 -535h-103zM309 625h254q297 0 438 141q109 111 109 291q0 120 -74 194q-88 88 -288 88h-263z" />
<glyph unicode="Q" horiz-adv-x="1456" d="M162 539q0 197 74.5 396.5t203.5 326.5q194 194 442 194h3q227 0 365.5 -156.5t138.5 -406.5q0 -193 -75 -391.5t-202 -327.5l133 -158l-76 -63l-127 158q-170 -135 -376 -136q-227 0 -365.5 157t-138.5 407zM264 541q0 -209 111 -340t293 -131q174 0 315 112l-199 240 l76 63l191 -237q106 119 170.5 297t64.5 346q0 211 -110.5 341t-292.5 130q-207 0 -367 -164q-115 -115 -183.5 -298t-68.5 -359z" />
<glyph unicode="R" horiz-adv-x="1253" d="M55 0l351 1434h403q231 0 348 -117q90 -94 90 -240q0 -190 -129 -319q-121 -121 -350 -156l266 -602h-112l-258 592q-25 -2 -72 -2h-291l-143 -590h-103zM324 680h315q270 0 403 133q104 104 105 260q0 115 -66 176q-88 90 -280 90h-316z" />
<glyph unicode="S" horiz-adv-x="1110" d="M23 233l81 64q168 -225 418 -225q143 0 241.5 86t98.5 209q0 86 -57 155.5t-199 155.5q-182 111 -254.5 198t-72.5 201q0 141 100 246q131 131 330 131q256 0 432 -211l-78 -67q-156 186 -361 186q-143 0 -232 -83t-89 -194q0 -88 61.5 -155.5t212.5 -159.5 q166 -100 238 -189t72 -206q0 -154 -111 -264q-131 -131 -338 -131q-307 0 -493 253z" />
<glyph unicode="T" horiz-adv-x="1058" d="M254 1339l25 95h938l-25 -95h-418l-328 -1339h-102l328 1339h-418z" />
<glyph unicode="U" horiz-adv-x="1329" d="M156 377q0 94 28 213l203 844h102l-215 -887q-18 -88 -18 -164q0 -141 90 -226t260 -85q166 0 285 118q125 125 178 345l217 899h100l-221 -920q-63 -248 -198 -383q-154 -154 -369 -154q-211 0 -326.5 110t-115.5 290z" />
<glyph unicode="V" horiz-adv-x="1259" d="M270 1434h105l145 -1305l783 1305h114l-880 -1444h-93z" />
<glyph unicode="W" horiz-adv-x="1908" d="M285 1434h102l66 -1268l671 1272h82l54 -1272l682 1268h112l-790 -1444h-84l-58 1247l-667 -1247h-86z" />
<glyph unicode="X" horiz-adv-x="1206" d="M-49 0l645 748l-301 686h108l265 -619l536 619h125l-616 -705l315 -729h-106l-283 662l-567 -662h-121z" />
<glyph unicode="Y" horiz-adv-x="1169" d="M238 1434h108l266 -752l633 752h131l-737 -861l-139 -573h-103l146 594z" />
<glyph unicode="Z" horiz-adv-x="1144" d="M-37 0l12 59l1121 1284h-783l23 91h921l-10 -60l-1122 -1284h819l-22 -90h-959z" />
<glyph unicode="[" horiz-adv-x="770" d="M27 -266l413 1700h475l-18 -76h-385l-377 -1548h383l-18 -76h-473z" />
<glyph unicode="\" horiz-adv-x="872" d="M276 1616h84l349 -1860h-86z" />
<glyph unicode="]" horiz-adv-x="770" d="M-121 -266l19 76h385l376 1548h-383l19 76h473l-414 -1700h-475z" />
<glyph unicode="^" horiz-adv-x="899" d="M256 1034l365 396h84l172 -396h-91l-137 303l-287 -303h-106z" />
<glyph unicode="_" horiz-adv-x="1136" d="M-213 -328l20 86h1145l-20 -86h-1145z" />
<glyph unicode="`" horiz-adv-x="1024" d="M573 1413l113 60l117 -267h-68z" />
<glyph unicode="a" horiz-adv-x="1015" d="M33 266q0 164 108 273q116 116 317 116h3q156 0 332 -57l8 35q16 82 16 129q0 102 -67.5 159.5t-198.5 57.5t-256 -53l-27 86q141 57 289 57q168 0 261 -78t93 -215q0 -61 -22 -158l-148 -618h-96l43 168q-151 -191 -356 -191q-127 0 -213 77t-86 212zM133 274 q0 -96 59.5 -153.5t159.5 -57.5q131 0 244 94.5t147 237.5l31 123q-154 53 -321 53q-145 0 -238 -88q-82 -82 -82 -209z" />
<glyph unicode="b" horiz-adv-x="1148" d="M35 0l362 1479h97l-154 -621q164 219 371 219q156 0 253 -113.5t97 -301.5q0 -154 -55.5 -301.5t-153.5 -245.5q-141 -138 -315 -138q-135 0 -222.5 77t-121.5 198l-62 -252h-96zM242 406q0 -147 82 -243.5t211 -96.5q141 0 247 106q82 84 129 214t47 265 q0 154 -70.5 246t-193.5 92q-147 0 -274 -127q-82 -82 -130 -207t-48 -249z" />
<glyph unicode="c" horiz-adv-x="960" d="M82 399q0 147 55.5 287.5t151.5 237.5q155 151 342 151h2q221 0 332 -190l-80 -56q-96 158 -258 158q-143 0 -265 -121q-80 -80 -129 -207t-49 -249q0 -164 84 -252t205 -88q139 0 262 112l60 -67q-148 -135 -328 -135q-162 0 -273.5 111.5t-111.5 307.5z" />
<glyph unicode="d" horiz-adv-x="1148" d="M92 393q0 154 55.5 301.5t151.5 243.5q139 139 315 139q135 0 222.5 -77.5t121.5 -196.5l166 676h97l-363 -1479h-94l49 195q-168 -217 -373 -218q-156 0 -252 114t-96 302zM193 403q0 -154 70.5 -245.5t193.5 -91.5q147 0 274 127q82 80 131 205.5t49 250.5 q0 147 -81.5 243.5t-211.5 96.5q-141 0 -249 -108q-82 -84 -129 -213t-47 -265z" />
<glyph unicode="e" horiz-adv-x="1032" d="M84 401q0 147 56.5 290t152.5 239q147 147 330 147q158 0 245.5 -104.5t87.5 -270.5v-6q0 -101 -32 -204h-736q-4 -29 -4 -86q0 -156 82 -246t217 -90q152 0 293 110l49 -71q-166 -129 -344 -129q-176 0 -286.5 113.5t-110.5 307.5zM207 578h639q14 49 14 122 q0 127 -61.5 208t-180.5 81h-2q-135 0 -251 -112q-111 -111 -158 -299z" />
<glyph unicode="f" horiz-adv-x="641" d="M90 0l236 967h-138l23 88h135l37 141q35 143 109 213q76 72 190 72q96 0 170 -39l-23 -86q-84 37 -149 37q-154 0 -205 -211l-33 -127h312l-23 -88h-309l-236 -967h-96z" />
<glyph unicode="g" horiz-adv-x="1148" d="M-16 -162l59 76q162 -135 365 -135q172 0 266 98q80 80 121 242l39 155q-165 -202 -371 -202h-2q-152 0 -255.5 104.5t-103.5 284.5q0 129 49.5 255t137.5 214q147 147 334 147q250 0 338 -266l61 244h94l-229 -953q-47 -188 -144 -284q-129 -129 -342 -129 q-236 0 -417 149zM203 463q0 -143 79.5 -223t196.5 -80q160 0 285 125q68 68 112 169t44 214q0 133 -82 226t-215 93q-147 0 -263 -115q-74 -74 -115.5 -185.5t-41.5 -223.5z" />
<glyph unicode="h" horiz-adv-x="1085" d="M35 0l362 1479h97l-150 -607q152 205 346 205q131 0 211 -79.5t80 -215.5q0 -61 -23 -161l-147 -621h-96l151 629q18 74 19 145q0 102 -59.5 159.5t-163.5 57.5q-121 0 -229.5 -102.5t-147.5 -253.5l-154 -635h-96z" />
<glyph unicode="i" horiz-adv-x="450" d="M49 0l258 1055h94l-256 -1055h-96zM360 1313l35 139h115l-35 -139h-115z" />
<glyph unicode="j" horiz-adv-x="454" d="M-223 -297l22 88q57 -14 86 -14q113 0 152 157l274 1121h95l-279 -1139q-25 -109 -85.5 -169t-152.5 -60q-53 0 -112 16zM365 1313l34 139h115l-35 -139h-114z" />
<glyph unicode="k" horiz-adv-x="983" d="M35 0l362 1479h97l-263 -1063l684 639h129l-497 -455l254 -600h-107l-223 530l-270 -245l-70 -285h-96z" />
<glyph unicode="l" horiz-adv-x="450" d="M49 0l363 1479h94l-361 -1479h-96z" />
<glyph unicode="m" horiz-adv-x="1697" d="M35 0l258 1055h94l-43 -183q147 205 330 205q113 0 180.5 -66.5t83.5 -166.5q141 233 379 233q125 0 203.5 -81t78.5 -214q0 -53 -24 -161l-150 -621h-94l152 629q16 76 16 145q0 100 -55 158.5t-152 58.5q-113 0 -218 -101.5t-140 -246.5l-154 -643h-96l152 629 q18 74 18 145q0 100 -56.5 158.5t-152.5 58.5q-115 0 -218 -103.5t-142 -252.5l-154 -635h-96z" />
<glyph unicode="n" horiz-adv-x="1087" d="M35 0l258 1055h94l-43 -183q152 205 346 205q131 0 211 -79.5t80 -215.5q0 -61 -23 -161l-147 -621h-96l151 629q18 74 19 145q0 102 -59.5 159.5t-163.5 57.5q-121 0 -229.5 -102.5t-147.5 -253.5l-154 -635h-96z" />
<glyph unicode="o" horiz-adv-x="1112" d="M86 412q0 147 53.5 282t147.5 230q153 153 350 153q174 0 280.5 -119.5t106.5 -314.5q0 -147 -53 -282.5t-148 -229.5q-154 -154 -350 -154q-174 0 -280.5 120t-106.5 315zM186 416q0 -164 80 -256t215 -92q147 0 269 120q80 82 127 204t47 247q0 164 -80 256t-215 92 q-147 0 -269 -121q-80 -82 -127 -203.5t-47 -246.5z" />
<glyph unicode="p" horiz-adv-x="1148" d="M-39 -307l332 1362h94l-47 -197q164 219 371 219q156 0 253 -113.5t97 -301.5q0 -154 -55.5 -301.5t-153.5 -245.5q-141 -138 -315 -138q-135 0 -222.5 77t-121.5 198l-138 -559h-94zM242 406q0 -147 82 -243.5t211 -96.5q141 0 247 106q82 84 129 214t47 265 q0 154 -70.5 246t-193.5 92q-147 0 -274 -127q-82 -82 -130 -207t-48 -249z" />
<glyph unicode="q" horiz-adv-x="1148" d="M92 393q0 154 55.5 301.5t151.5 243.5q139 139 315 139q135 0 222.5 -77.5t121.5 -196.5l62 252h96l-332 -1362h-96l125 502q-168 -218 -373 -218q-156 0 -252 114t-96 302zM193 403q0 -154 70.5 -245.5t193.5 -91.5q147 0 274 127q82 80 131 205.5t49 250.5 q0 147 -81.5 243.5t-211.5 96.5q-141 0 -249 -108q-82 -84 -129 -213t-47 -265z" />
<glyph unicode="r" horiz-adv-x="700" d="M35 0l258 1055h94l-61 -250q188 265 423 265q14 0 29 -1l-26 -102h-9q-164 0 -299 -117t-186 -324l-127 -526h-96z" />
<glyph unicode="s" horiz-adv-x="864" d="M-12 166l73 67q144 -163 312 -163h2q94 0 165.5 57t71.5 143q0 57 -42 108.5t-152 113.5q-135 74 -190.5 138t-55.5 156q0 119 93 203t241 84q94 0 184 -43t154 -112l-70 -72q-133 141 -274 141q-102 0 -165 -57.5t-63 -134.5q0 -57 41 -105.5t158 -114.5 q131 -76 186.5 -143t55.5 -153q0 -125 -101.5 -211t-244.5 -86q-223 0 -379 184z" />
<glyph unicode="t" horiz-adv-x="694" d="M137 168q0 43 15 104l167 695h-135l21 88h135l80 323h96l-80 -323h297l-20 -88h-299l-170 -713q-10 -41 -11 -74q0 -106 142 -106q57 0 127 28l-21 -92q-59 -24 -129 -24q-96 0 -155.5 46t-59.5 136z" />
<glyph unicode="u" horiz-adv-x="1085" d="M104 274q0 61 23 162l149 619h95l-152 -627q-18 -86 -18 -145q0 -102 59 -161t164 -59q123 0 231.5 102.5t145.5 254.5l153 635h97l-256 -1055h-97l45 182q-158 -205 -346 -205q-133 0 -213 80t-80 217z" />
<glyph unicode="v" horiz-adv-x="995" d="M172 1055h102l107 -932l559 932h111l-656 -1063h-82z" />
<glyph unicode="w" horiz-adv-x="1513" d="M190 1055h97l47 -918l493 920h80l47 -920l494 918h102l-587 -1063h-86l-48 899l-487 -899h-82z" />
<glyph unicode="x" horiz-adv-x="993" d="M-53 0l502 547l-222 508h103l184 -441l395 441h121l-475 -514l236 -541h-105l-197 473l-423 -473h-119z" />
<glyph unicode="y" horiz-adv-x="1009" d="M-139 -248l51 80q66 -55 145 -55q66 0 127.5 50t141.5 177l-160 1051h100l133 -934l549 934h111l-649 -1082q-94 -156 -178.5 -221t-182.5 -65q-106 0 -188 65z" />
<glyph unicode="z" horiz-adv-x="933" d="M-35 0l10 57l832 914h-592l21 84h729l-11 -58l-833 -911h620l-22 -86h-754z" />
<glyph unicode="{" horiz-adv-x="847" d="M104 553l19 74h43q147 0 221 73q98 102 102 310q14 223 121 327q113 115 361 127l-2 -73q-197 -8 -285 -101q-86 -86 -96 -286q-27 -244 -117 -334q-66 -63 -178 -86q143 -43 143 -174q0 -61 -35 -150q-57 -154 -57 -235q0 -90 53.5 -150.5t175.5 -95.5l-22 -66 q-303 68 -303 310q0 72 61 247q35 88 35 142q0 141 -199 141h-41z" />
<glyph unicode="|" horiz-adv-x="542" d="M41 -244l455 1860h86l-457 -1860h-84z" />
<glyph unicode="}" horiz-adv-x="847" d="M-92 -287l2 74q197 8 285 100q86 86 96 287q27 244 117 334q63 66 178 86q-143 43 -144 174q0 63 35 150q57 154 58 235q0 90 -53.5 150.5t-176.5 95.5l23 65q303 -68 303 -309q0 -74 -62 -248q-35 -88 -34 -141q0 -141 198 -141h41l-18 -74h-43q-147 0 -221 -74 q-98 -102 -103 -309q-14 -223 -121 -328q-113 -115 -360 -127z" />
<glyph unicode="~" horiz-adv-x="837" d="M154 532q45 96 87 140.5t99 44.5q61 0 123 -66q59 -57 88 -57q47 0 106 115l72 -27q-43 -96 -86 -140t-100 -44q-61 0 -123 65q-57 57 -88 58q-46 0 -107 -115z" />
<glyph unicode="&#xa1;" horiz-adv-x="477" d="M51 0l35 143l256 916h53l-194 -916l-35 -143h-115zM352 1262l41 172h131l-41 -172h-131z" />
<glyph unicode="&#xa2;" horiz-adv-x="974" d="M133 594q0 150 54.5 292t146.5 234q147 152 352 152q20 0 31 -2l59 174h94l-65 -187q158 -41 237 -184l-75 -53q-82 121 -199 149l-297 -901q41 -4 61 -4q152 0 285 113l55 -68q-152 -135 -346 -135q-43 0 -80 6l-65 -192h-92l76 217q-109 45 -170.5 148.5t-61.5 240.5z M236 600q0 -233 163 -307l291 887h-8q-156 0 -272 -117q-82 -80 -128 -207t-46 -256z" />
<glyph unicode="&#xa3;" horiz-adv-x="1089" d="M-12 0l12 49l162 39l133 551h-156l23 90h155l70 293q53 209 152 307q119 119 286 119q227 0 334 -193l-82 -53q-94 154 -256 154q-125 0 -207 -84q-88 -88 -129 -266l-67 -277h504l-23 -90h-504l-133 -547h647l-22 -92h-899z" />
<glyph unicode="&#xa5;" horiz-adv-x="1208" d="M123 266l20 86h361l47 201h-358l22 86h326l-281 795h111l260 -764l637 764h127l-676 -795h319l-20 -86h-367l-49 -201h367l-23 -86h-364l-64 -266h-100l63 266h-358z" />
<glyph unicode="&#xa7;" horiz-adv-x="1124" d="M113 129l61 76q150 -135 336 -135q96 0 157.5 43t61.5 110q0 61 -55.5 109.5t-188.5 107.5q-176 78 -254.5 146.5t-78.5 154.5q0 117 105 190t271 73q-143 80 -143 200q0 111 92 179.5t238 68.5q225 0 387 -147l-62 -76q-150 135 -335 135q-96 0 -158 -43t-62 -111 q0 -61 55.5 -109t188.5 -108q176 -78 255 -146.5t79 -154.5q0 -117 -105.5 -189.5t-273.5 -72.5q145 -84 145 -201q0 -111 -92 -179t-237 -68q-225 0 -387 147zM254 750q0 -111 190 -195q125 -55 244 -55t196 52t77 132q0 111 -191 195q-125 55 -243.5 55t-195.5 -52 t-77 -132z" />
<glyph unicode="&#xa8;" horiz-adv-x="1024" d="M455 1212l39 154h127l-39 -154h-127zM745 1212l39 154h125l-37 -154h-127z" />
<glyph unicode="&#xa9;" horiz-adv-x="1507" d="M133 600q0 180 65.5 354t186.5 295q209 209 496 209q268 0 427.5 -177t159.5 -447q0 -178 -65.5 -352.5t-185.5 -297.5q-209 -209 -496 -209q-268 0 -428 177.5t-160 447.5zM195 598q0 -240 141 -402.5t389 -162.5q258 0 444 186q115 115 175.5 281t60.5 336 q2 240 -139.5 402.5t-391.5 162.5q-260 0 -442 -187q-115 -113 -175 -278.5t-62 -337.5zM483 625q0 109 40 214t112 175q104 104 237 104q152 0 230 -125l-70 -49q-63 94 -160 94q-102 0 -178 -75q-125 -125 -125 -332q0 -104 50.5 -162.5t132.5 -58.5q88 0 180 82l47 -60 q-104 -100 -231 -100q-115 0 -190 78.5t-75 214.5z" />
<glyph unicode="&#xaa;" horiz-adv-x="710" d="M117 618l16 74h451l-17 -74h-450zM203 987q0 94 66.5 158.5t172.5 64.5q66 0 170 -30l6 20q8 37 9 62q0 104 -140 104q-66 0 -143 -29l-18 70q92 35 172 35q98 0 151 -45t56 -123q0 -33 -13 -86l-82 -340h-78l23 90q-91 -102 -197 -102q-66 0 -110.5 41t-44.5 110z M285 995q-2 -45 24.5 -70.5t69.5 -25.5q68 0 130 53.5t81 124.5l10 45q-86 25 -156 25q-72 0 -115.5 -44t-43.5 -108z" />
<glyph unicode="&#xab;" horiz-adv-x="944" d="M82 514l4 16l408 428l67 -53l-362 -395l161 -385l-77 -39zM449 514l4 16l407 428l68 -53l-363 -395l162 -385l-80 -39z" />
<glyph unicode="&#xad;" horiz-adv-x="749" d="M131 555l27 104h497l-24 -104h-500z" />
<glyph unicode="&#xae;" horiz-adv-x="786" d="M203 1034q0 195 125 320q104 104 247 104q131 0 209 -85t78 -214q0 -197 -125 -321q-102 -102 -245 -103q-131 0 -210 85t-79 214zM244 1036q0 -113 66.5 -188.5t185.5 -75.5q121 0 211 90q117 117 116 293q0 113 -66.5 188.5t-185.5 75.5q-121 0 -213 -88 q-115 -119 -114 -295zM371 920l90 368h96q135 0 135 -106q0 -43 -27.5 -77t-78.5 -44l55 -141h-55l-51 135h-78l-33 -135h-53zM469 1102h61q63 0 88 24q20 20 21 54q0 59 -80 59h-57z" />
<glyph unicode="&#xaf;" horiz-adv-x="1024" d="M420 1249l24 90h537l-23 -90h-538z" />
<glyph unicode="&#xb0;" horiz-adv-x="675" d="M172 1083q0 164 109 273q89 90 206 90q100 0 165 -68.5t65 -179.5q0 -168 -109 -272q-90 -90 -205 -90q-102 0 -166.5 68.5t-64.5 178.5zM258 1090q0 -80 42 -126t112 -46q76 0 135 59q84 84 84 215q0 80 -42 126t-112 46q-76 0 -133 -57q-86 -86 -86 -217z" />
<glyph unicode="&#xb1;" horiz-adv-x="1093" d="M14 61l25 95h833l-22 -95h-836zM176 717l23 94h368l92 367h95l-90 -367h370l-22 -94h-369l-92 -367h-96l92 367h-371z" />
<glyph unicode="&#xb2;" horiz-adv-x="722" d="M201 897l14 61l391 326q70 59 101.5 104.5t31.5 98.5q0 55 -40 88t-105 33q-90 0 -193 -99l-47 52q115 119 248 118q96 0 155.5 -52t59.5 -136q0 -117 -160 -250l-325 -270h391l-18 -74h-504z" />
<glyph unicode="&#xb3;" horiz-adv-x="722" d="M227 1018l60 41q72 -111 194 -111q86 0 139.5 49.5t53.5 122.5q0 143 -195 144h-24l-15 47l310 278h-363l19 74h464l-14 -61l-313 -279q92 -10 150.5 -60.5t58.5 -136.5q0 -104 -79 -174.5t-192 -70.5q-88 0 -154.5 38.5t-99.5 98.5z" />
<glyph unicode="&#xb4;" horiz-adv-x="1024" d="M514 1206l231 267l115 -60l-254 -207h-92z" />
<glyph unicode="&#xb6;" horiz-adv-x="894" d="M178 913q0 215 139 355q162 166 482 166h133l-350 -1434h-103l129 537q-225 14 -334 122q-96 96 -96 254z" />
<glyph unicode="&#xb7;" horiz-adv-x="423" d="M143 522l41 174h135l-43 -174h-133z" />
<glyph unicode="&#xb8;" horiz-adv-x="1024" d="M176 -227l223 247h82l-209 -296z" />
<glyph unicode="&#xb9;" horiz-adv-x="587" d="M369 1511l2 78l215 82h67l-190 -774h-78l168 686z" />
<glyph unicode="&#xba;" horiz-adv-x="710" d="M123 618l16 74h482l-19 -74h-479zM219 1077q0 172 111 279q88 88 198 88q102 0 165 -68.5t63 -179.5q0 -172 -111 -278q-82 -86 -199 -87q-102 0 -164.5 68t-62.5 178zM301 1077q0 -78 42 -126t110 -48q74 0 133 60q41 39 64.5 103t23.5 130q0 78 -42 126t-110 48 q-74 0 -133 -59q-39 -39 -63.5 -105t-24.5 -129z" />
<glyph unicode="&#xbb;" horiz-adv-x="944" d="M12 137l363 395l-162 386l80 38l199 -428l-5 -16l-407 -428zM379 137l362 395l-161 386l77 38l201 -428l-4 -16l-408 -428z" />
<glyph unicode="&#xbc;" horiz-adv-x="1490" d="M74 0l618 729l586 705h90l-620 -729l-584 -705h-90zM264 1284l4 76l213 84h68l-189 -776h-77l166 688zM739 172v66l478 536h98l-131 -536h100l-16 -66h-101l-43 -176h-71l41 176h-355zM829 238h283l105 432h-5z" />
<glyph unicode="&#xbd;" horiz-adv-x="1490" d="M43 0l619 729l585 705h90l-620 -729l-584 -705h-90zM264 1284l4 76l213 84h68l-189 -776h-77l166 688zM711 0l14 61l391 326q70 59 101.5 104.5t31.5 98.5q0 55 -40 88t-105 33q-90 0 -193 -99l-47 52q115 119 248 118q96 0 155.5 -52t59.5 -136q0 -117 -160 -250 l-325 -270h391l-19 -74h-503z" />
<glyph unicode="&#xbe;" horiz-adv-x="1626" d="M123 788l59 41q72 -111 195 -110q86 0 139 49t53 123q0 143 -194 143h-25l-14 47l309 279h-362l18 74h465l-14 -62l-314 -278q92 -10 150.5 -60.5t58.5 -136.5q0 -104 -78.5 -175t-191.5 -71q-88 0 -154.5 39t-99.5 98zM205 0l618 729l586 705h90l-620 -729l-584 -705 h-90zM877 172v66l477 536h98l-131 -536h100l-16 -66h-100l-43 -176h-72l41 176h-354zM967 238h282l105 432h-4z" />
<glyph unicode="&#xbf;" horiz-adv-x="948" d="M74 324q0 184 136 302.5t347 155.5l86 277h64l-60 -344l-14 -13q-209 -23 -333 -124t-124 -252q0 -119 78 -183.5t195 -64.5q176 0 335 143l58 -71q-182 -166 -400 -166q-166 0 -267 95t-101 245zM657 1262l41 172h131l-41 -172h-131z" />
<glyph unicode="&#xc0;" d="M-61 0l911 1444h102l205 -1444h-102l-54 401h-700l-252 -401h-110zM358 494h629l-110 825zM709 1747l110 53l133 -233h-73z" />
<glyph unicode="&#xc1;" d="M-61 0l911 1444h102l205 -1444h-102l-54 401h-700l-252 -401h-110zM358 494h629l-110 825zM874 1567l228 233l115 -53l-244 -180h-99z" />
<glyph unicode="&#xc2;" d="M-61 0l911 1444h102l205 -1444h-102l-54 401h-700l-252 -401h-110zM358 494h629l-110 825zM686 1571l244 213h90l139 -213h-96l-105 123l-167 -123h-105z" />
<glyph unicode="&#xc3;" d="M-61 0l911 1444h102l205 -1444h-102l-54 401h-700l-252 -401h-110zM358 494h629l-110 825zM668 1579q41 86 83 125t95 39q41 0 119 -39q68 -39 102 -39q53 0 104 86l72 -20q-78 -162 -178 -162q-41 0 -119 39q-72 39 -102.5 39t-53 -19.5t-51.5 -68.5z" />
<glyph unicode="&#xc4;" d="M-61 0l911 1444h102l205 -1444h-102l-54 401h-700l-252 -401h-110zM358 494h629l-110 825zM711 1573l37 149h137l-37 -149h-137zM1026 1573l37 149h135l-37 -149h-135z" />
<glyph unicode="&#xc5;" d="M-61 0l866 1370q-88 43 -88 141q0 84 67.5 142.5t157.5 58.5q80 0 130 -46t50 -116q0 -68 -45 -120t-114 -72l194 -1358h-102l-54 401h-700l-252 -401h-110zM358 494h629l-110 825zM793 1516q0 -47 29.5 -75t80.5 -28q59 0 101.5 38t42.5 93q0 45 -30 76t-81 31 q-59 0 -101 -39t-42 -96z" />
<glyph unicode="&#xc6;" horiz-adv-x="1837" d="M-76 0l1075 1434h945l-25 -95h-733l-139 -569h659l-23 -94h-659l-141 -582h743l-24 -94h-844l98 401h-514l-299 -401h-119zM410 494h467l208 847h-45z" />
<glyph unicode="&#xc7;" horiz-adv-x="1253" d="M158 528q0 197 74.5 393.5t205.5 329.5q203 203 463 203q276 0 420 -240l-84 -57q-127 205 -344 205q-209 0 -377 -168q-115 -115 -184.5 -296t-69.5 -368q0 -211 108.5 -334.5t288.5 -123.5q195 0 371 164l66 -66q-199 -193 -443 -193h-22l-178 -253l-97 49l193 215 q-176 33 -283.5 176t-107.5 364z" />
<glyph unicode="&#xc8;" horiz-adv-x="1126" d="M55 0l351 1434h849l-22 -95h-748l-141 -569h674l-23 -94h-673l-142 -582h758l-25 -94h-858zM623 1731l110 53l133 -234h-73z" />
<glyph unicode="&#xc9;" horiz-adv-x="1126" d="M55 0l351 1434h849l-22 -95h-748l-141 -569h674l-23 -94h-673l-142 -582h758l-25 -94h-858zM786 1550l228 234l114 -53l-243 -181h-99z" />
<glyph unicode="&#xca;" horiz-adv-x="1126" d="M55 0l351 1434h849l-22 -95h-748l-141 -569h674l-23 -94h-673l-142 -582h758l-25 -94h-858zM600 1554l244 213h90l139 -213h-96l-105 123l-167 -123h-105z" />
<glyph unicode="&#xcb;" horiz-adv-x="1126" d="M55 0l351 1434h849l-22 -95h-748l-141 -569h674l-23 -94h-673l-142 -582h758l-25 -94h-858zM621 1556l36 150h138l-37 -150h-137zM936 1556l37 150h135l-37 -150h-135z" />
<glyph unicode="&#xcc;" horiz-adv-x="495" d="M70 0l350 1434h102l-350 -1434h-102zM276 1731l111 53l133 -234h-74z" />
<glyph unicode="&#xcd;" horiz-adv-x="495" d="M70 0l350 1434h102l-350 -1434h-102zM442 1550l228 234l114 -53l-243 -181h-99z" />
<glyph unicode="&#xce;" horiz-adv-x="495" d="M70 0l350 1434h102l-350 -1434h-102zM254 1554l244 213h90l139 -213h-96l-105 123l-168 -123h-104z" />
<glyph unicode="&#xcf;" horiz-adv-x="495" d="M70 0l350 1434h102l-350 -1434h-102zM276 1556l37 150h138l-37 -150h-138zM592 1556l37 150h135l-37 -150h-135z" />
<glyph unicode="&#xd0;" horiz-adv-x="1392" d="M102 0l164 674h-141l22 94h142l164 666h262q297 0 465 -164q147 -147 147 -414q0 -168 -61.5 -335t-178.5 -283q-238 -238 -616 -238h-369zM225 94h262q317 0 525 207q102 102 157.5 251.5t55.5 297.5q0 227 -127 354q-131 135 -389 135h-179l-139 -571h385l-24 -94h-383 z" />
<glyph unicode="&#xd1;" horiz-adv-x="1380" d="M55 0l351 1434h96l516 -1248l305 1248h98l-350 -1434h-78l-528 1276l-311 -1276h-99zM672 1552q41 86 83 125t95 39q41 0 119 -39q68 -39 102 -39q53 0 105 86l71 -20q-78 -162 -178 -162q-41 0 -119 39q-72 39 -102.5 39t-53 -19.5t-51.5 -68.5z" />
<glyph unicode="&#xd2;" horiz-adv-x="1456" d="M162 539q0 197 74.5 396.5t203.5 326.5q195 194 445 194q227 0 365.5 -156.5t138.5 -406.5q0 -195 -75 -394.5t-204 -328.5q-195 -195 -444 -195q-227 0 -365.5 157t-138.5 407zM264 541q0 -209 111 -340t293 -131q205 0 366 161q115 115 183.5 299.5t68.5 360.5 q0 211 -110.5 341t-292.5 130q-207 0 -367 -164q-115 -115 -183.5 -298t-68.5 -359zM735 1747l111 53l133 -233h-74z" />
<glyph unicode="&#xd3;" horiz-adv-x="1456" d="M162 539q0 197 74.5 396.5t203.5 326.5q195 194 445 194q227 0 365.5 -156.5t138.5 -406.5q0 -195 -75 -394.5t-204 -328.5q-195 -195 -444 -195q-227 0 -365.5 157t-138.5 407zM264 541q0 -209 111 -340t293 -131q205 0 366 161q115 115 183.5 299.5t68.5 360.5 q0 211 -110.5 341t-292.5 130q-207 0 -367 -164q-115 -115 -183.5 -298t-68.5 -359zM901 1567l227 233l115 -53l-244 -180h-98z" />
<glyph unicode="&#xd4;" horiz-adv-x="1456" d="M162 539q0 197 74.5 396.5t203.5 326.5q195 194 445 194q227 0 365.5 -156.5t138.5 -406.5q0 -195 -75 -394.5t-204 -328.5q-195 -195 -444 -195q-227 0 -365.5 157t-138.5 407zM264 541q0 -209 111 -340t293 -131q205 0 366 161q115 115 183.5 299.5t68.5 360.5 q0 211 -110.5 341t-292.5 130q-207 0 -367 -164q-115 -115 -183.5 -298t-68.5 -359zM713 1571l243 213h91l139 -213h-96l-105 123l-168 -123h-104z" />
<glyph unicode="&#xd5;" horiz-adv-x="1456" d="M162 539q0 197 74.5 396.5t203.5 326.5q195 194 445 194q227 0 365.5 -156.5t138.5 -406.5q0 -195 -75 -394.5t-204 -328.5q-195 -195 -444 -195q-227 0 -365.5 157t-138.5 407zM264 541q0 -209 111 -340t293 -131q205 0 366 161q115 115 183.5 299.5t68.5 360.5 q0 211 -110.5 341t-292.5 130q-207 0 -367 -164q-115 -115 -183.5 -298t-68.5 -359zM694 1579q41 86 83 125t95 39q41 0 119 -39q68 -39 103 -39q53 0 104 86l72 -20q-78 -162 -178 -162q-41 0 -119 39q-72 39 -102.5 39t-53 -19.5t-51.5 -68.5z" />
<glyph unicode="&#xd6;" horiz-adv-x="1456" d="M162 539q0 197 74.5 396.5t203.5 326.5q195 194 445 194q227 0 365.5 -156.5t138.5 -406.5q0 -195 -75 -394.5t-204 -328.5q-195 -195 -444 -195q-227 0 -365.5 157t-138.5 407zM264 541q0 -209 111 -340t293 -131q205 0 366 161q115 115 183.5 299.5t68.5 360.5 q0 211 -110.5 341t-292.5 130q-207 0 -367 -164q-115 -115 -183.5 -298t-68.5 -359zM735 1573l37 149h137l-37 -149h-137zM1051 1573l36 149h136l-37 -149h-135z" />
<glyph unicode="&#xd7;" horiz-adv-x="1093" d="M131 401l401 328l-235 320l78 59l231 -322l400 326l53 -72l-402 -325l238 -320l-78 -59l-233 321l-398 -325z" />
<glyph unicode="&#xd8;" horiz-adv-x="1456" d="M-25 -12l254 245q-68 135 -67 306q0 197 74.5 396.5t203.5 326.5q195 194 445 194q242 0 385 -182l180 172h125l-254 -250q68 -135 68 -303q0 -195 -75 -394.5t-204 -328.5q-195 -195 -444 -195q-244 0 -385 181l-181 -168h-125zM264 541q0 -133 43 -232l893 893 q-113 162 -317 162q-207 0 -367 -164q-115 -115 -183.5 -299t-68.5 -360zM352 227q109 -157 316 -157q205 0 366 161q115 115 183.5 299.5t68.5 360.5q0 131 -43 229z" />
<glyph unicode="&#xd9;" horiz-adv-x="1329" d="M156 377q0 94 28 213l203 844h102l-215 -887q-18 -88 -18 -164q0 -141 90 -226t260 -85q166 0 285 118q125 125 178 345l217 899h100l-221 -920q-63 -248 -198 -383q-154 -154 -369 -154q-211 0 -326.5 110t-115.5 290zM668 1720l110 54l133 -234h-73z" />
<glyph unicode="&#xda;" horiz-adv-x="1329" d="M156 377q0 94 28 213l203 844h102l-215 -887q-18 -88 -18 -164q0 -141 90 -226t260 -85q166 0 285 118q125 125 178 345l217 899h100l-221 -920q-63 -248 -198 -383q-154 -154 -369 -154q-211 0 -326.5 110t-115.5 290zM836 1540l227 234l115 -54l-244 -180h-98z" />
<glyph unicode="&#xdb;" horiz-adv-x="1329" d="M156 377q0 94 28 213l203 844h102l-215 -887q-18 -88 -18 -164q0 -141 90 -226t260 -85q166 0 285 118q125 125 178 345l217 899h100l-221 -920q-63 -248 -198 -383q-154 -154 -369 -154q-211 0 -326.5 110t-115.5 290zM647 1544l244 213h90l139 -213h-96l-104 123 l-168 -123h-105z" />
<glyph unicode="&#xdc;" horiz-adv-x="1329" d="M156 377q0 94 28 213l203 844h102l-215 -887q-18 -88 -18 -164q0 -141 90 -226t260 -85q166 0 285 118q125 125 178 345l217 899h100l-221 -920q-63 -248 -198 -383q-154 -154 -369 -154q-211 0 -326.5 110t-115.5 290zM670 1546l37 150h137l-37 -150h-137zM985 1546 l37 150h135l-37 -150h-135z" />
<glyph unicode="&#xdd;" horiz-adv-x="1169" d="M238 1434h108l266 -752l633 752h131l-737 -861l-139 -573h-103l146 594zM748 1540l227 234l115 -54l-244 -180h-98z" />
<glyph unicode="&#xde;" horiz-adv-x="1177" d="M55 0l351 1434h100l-64 -258h246q246 0 363 -117q98 -94 98 -260q0 -213 -137 -350q-172 -172 -514 -173h-273l-67 -276h-103zM248 369h252q295 0 438 139q109 109 109 291q0 119 -72 194q-90 90 -291 90h-262z" />
<glyph unicode="&#xdf;" horiz-adv-x="1093" d="M35 0l258 1055q47 205 158 315q121 121 286 121q147 0 242.5 -88t95.5 -223q0 -162 -107.5 -271.5t-285.5 -163.5q285 -94 285 -331q0 -186 -159.5 -305t-438.5 -113l22 84q238 0 355.5 95t117.5 241q0 217 -321 286l20 84q205 47 307.5 148.5t102.5 241.5 q0 100 -64.5 162.5t-177.5 62.5q-127 0 -216 -97.5t-134 -277.5l-250 -1026h-96z" />
<glyph unicode="&#xe0;" horiz-adv-x="1015" d="M33 266q0 164 108 273q117 117 320 116q156 0 332 -57l8 35q16 82 16 129q0 102 -67.5 159.5t-198.5 57.5t-256 -53l-27 86q141 57 289 57q168 0 261 -78t93 -215q0 -61 -22 -158l-148 -618h-96l43 168q-151 -191 -356 -191q-127 0 -213 77t-86 212zM133 274 q0 -96 59.5 -153.5t159.5 -57.5q131 0 244 94.5t147 237.5l31 123q-154 53 -321 53q-145 0 -238 -88q-82 -82 -82 -209zM426 1415l113 60l116 -267h-67z" />
<glyph unicode="&#xe1;" horiz-adv-x="1015" d="M33 266q0 164 108 273q117 117 320 116q156 0 332 -57l8 35q16 82 16 129q0 102 -67.5 159.5t-198.5 57.5t-256 -53l-27 86q141 57 289 57q168 0 261 -78t93 -215q0 -61 -22 -158l-148 -618h-96l43 168q-151 -191 -356 -191q-127 0 -213 77t-86 212zM133 274 q0 -96 59.5 -153.5t159.5 -57.5q131 0 244 94.5t147 237.5l31 123q-154 53 -321 53q-145 0 -238 -88q-82 -82 -82 -209zM582 1208l231 267l115 -60l-254 -207h-92z" />
<glyph unicode="&#xe2;" horiz-adv-x="1015" d="M33 266q0 164 108 273q117 117 320 116q156 0 332 -57l8 35q16 82 16 129q0 102 -67.5 159.5t-198.5 57.5t-256 -53l-27 86q141 57 289 57q168 0 261 -78t93 -215q0 -61 -22 -158l-148 -618h-96l43 168q-151 -191 -356 -191q-127 0 -213 77t-86 212zM133 274 q0 -96 59.5 -153.5t159.5 -57.5q131 0 244 94.5t147 237.5l31 123q-154 53 -321 53q-145 0 -238 -88q-82 -82 -82 -209zM412 1210l243 250h78l121 -250h-84l-92 146l-174 -146h-92z" />
<glyph unicode="&#xe3;" horiz-adv-x="1015" d="M33 266q0 164 108 273q117 117 320 116q156 0 332 -57l8 35q16 82 16 129q0 102 -67.5 159.5t-198.5 57.5t-256 -53l-27 86q141 57 289 57q168 0 261 -78t93 -215q0 -61 -22 -158l-148 -618h-96l43 168q-151 -191 -356 -191q-127 0 -213 77t-86 212zM133 274 q0 -96 59.5 -153.5t159.5 -57.5q131 0 244 94.5t147 237.5l31 123q-154 53 -321 53q-145 0 -238 -88q-82 -82 -82 -209zM381 1217q41 98 82 138t98 40q37 0 117 -45q59 -43 98 -43q54 0 105 98l67 -19q-43 -98 -84 -138t-96 -40q-45 0 -117 47q-66 43 -98 43 q-55 0 -104 -100z" />
<glyph unicode="&#xe4;" horiz-adv-x="1015" d="M33 266q0 164 108 273q117 117 320 116q156 0 332 -57l8 35q16 82 16 129q0 102 -67.5 159.5t-198.5 57.5t-256 -53l-27 86q141 57 289 57q168 0 261 -78t93 -215q0 -61 -22 -158l-148 -618h-96l43 168q-151 -191 -356 -191q-127 0 -213 77t-86 212zM133 274 q0 -96 59.5 -153.5t159.5 -57.5q131 0 244 94.5t147 237.5l31 123q-154 53 -321 53q-145 0 -238 -88q-82 -82 -82 -209zM434 1214l39 154h127l-39 -154h-127zM725 1214l39 154h125l-37 -154h-127z" />
<glyph unicode="&#xe5;" horiz-adv-x="1015" d="M33 266q0 164 108 273q117 117 320 116q156 0 332 -57l8 35q16 82 16 129q0 102 -67.5 159.5t-198.5 57.5t-256 -53l-27 86q141 57 289 57q168 0 261 -78t93 -215q0 -61 -22 -158l-148 -618h-96l43 168q-151 -191 -356 -191q-127 0 -213 77t-86 212zM133 274 q0 -96 59.5 -153.5t159.5 -57.5q131 0 244 94.5t147 237.5l31 123q-154 53 -321 53q-145 0 -238 -88q-82 -82 -82 -209zM485 1380q0 84 65.5 145.5t154.5 61.5q80 0 132 -50t52 -126q0 -84 -65.5 -144.5t-153.5 -60.5q-80 0 -132.5 50.5t-52.5 123.5zM553 1382 q0 -49 32.5 -82.5t88.5 -33.5q61 0 104 42t43 101q0 49 -31.5 83t-87.5 34q-61 0 -105 -42.5t-44 -101.5z" />
<glyph unicode="&#xe6;" horiz-adv-x="1703" d="M33 266q0 164 108 273q117 117 320 116q156 0 332 -57l8 35q16 82 16 129q0 102 -67.5 159.5t-198.5 57.5t-256 -53l-27 86q141 57 289 57q145 0 234.5 -60.5t109.5 -168.5q164 238 393 237q158 0 246 -104.5t88 -270.5q0 -100 -31 -210h-737q-4 -29 -4 -86 q0 -156 82 -246t217 -90q152 0 293 110l51 -71q-166 -129 -340 -129q-137 0 -230 66.5t-134 186.5q-203 -256 -453 -256q-133 0 -221 76t-88 213zM133 274q0 -96 60.5 -153.5t162.5 -57.5q211 0 416 265q-12 96 4 188q-147 55 -323 55q-145 0 -238 -88q-82 -82 -82 -209z M879 578h641q14 61 14 122q0 127 -61.5 208t-182.5 81q-137 1 -254 -112q-111 -111 -157 -299z" />
<glyph unicode="&#xe7;" horiz-adv-x="960" d="M82 399q0 147 55.5 287.5t151.5 237.5q156 152 344 151q221 0 332 -190l-80 -56q-96 158 -258 158q-143 0 -265 -121q-80 -80 -129 -207t-49 -249q0 -164 84 -252t205 -88q139 0 262 112l60 -67q-147 -135 -328 -135h-8l-180 -256l-97 49l195 217q-129 29 -212 135 t-83 274z" />
<glyph unicode="&#xe8;" horiz-adv-x="1032" d="M84 401q0 147 56.5 290t152.5 239q147 147 330 147q158 0 245.5 -104.5t87.5 -270.5q1 -104 -32 -210h-736q-4 -29 -4 -86q0 -156 82 -246t217 -90q152 0 293 110l49 -71q-166 -129 -344 -129q-176 0 -286.5 113.5t-110.5 307.5zM207 578h639q14 49 14 122 q0 127 -61.5 208t-180.5 81q-136 1 -253 -112q-111 -111 -158 -299zM473 1415l113 60l116 -267h-67z" />
<glyph unicode="&#xe9;" horiz-adv-x="1032" d="M84 401q0 147 56.5 290t152.5 239q147 147 330 147q158 0 245.5 -104.5t87.5 -270.5q1 -104 -32 -210h-736q-4 -29 -4 -86q0 -156 82 -246t217 -90q152 0 293 110l49 -71q-166 -129 -344 -129q-176 0 -286.5 113.5t-110.5 307.5zM207 578h639q14 49 14 122 q0 127 -61.5 208t-180.5 81q-136 1 -253 -112q-111 -111 -158 -299zM627 1208l231 267l115 -60l-254 -207h-92z" />
<glyph unicode="&#xea;" horiz-adv-x="1032" d="M84 401q0 147 56.5 290t152.5 239q147 147 330 147q158 0 245.5 -104.5t87.5 -270.5q1 -104 -32 -210h-736q-4 -29 -4 -86q0 -156 82 -246t217 -90q152 0 293 110l49 -71q-166 -129 -344 -129q-176 0 -286.5 113.5t-110.5 307.5zM207 578h639q14 49 14 122 q0 127 -61.5 208t-180.5 81q-136 1 -253 -112q-111 -111 -158 -299zM457 1210l243 250h78l121 -250h-84l-92 146l-174 -146h-92z" />
<glyph unicode="&#xeb;" horiz-adv-x="1032" d="M84 401q0 147 56.5 290t152.5 239q147 147 330 147q158 0 245.5 -104.5t87.5 -270.5q1 -104 -32 -210h-736q-4 -29 -4 -86q0 -156 82 -246t217 -90q152 0 293 110l49 -71q-166 -129 -344 -129q-176 0 -286.5 113.5t-110.5 307.5zM207 578h639q14 49 14 122 q0 127 -61.5 208t-180.5 81q-136 1 -253 -112q-111 -111 -158 -299zM477 1214l39 154h127l-39 -154h-127zM768 1214l39 154h125l-37 -154h-127z" />
<glyph unicode="&#xec;" horiz-adv-x="450" d="M49 0l256 1055h96l-256 -1055h-96zM180 1413l113 60l117 -267h-68z" />
<glyph unicode="&#xed;" horiz-adv-x="450" d="M49 0l256 1055h96l-256 -1055h-96zM338 1206l231 267l115 -60l-254 -207h-92z" />
<glyph unicode="&#xee;" horiz-adv-x="450" d="M49 0l256 1055h96l-256 -1055h-96zM164 1208l244 250h77l121 -250h-84l-92 146l-174 -146h-92z" />
<glyph unicode="&#xef;" horiz-adv-x="450" d="M49 0l256 1055h96l-256 -1055h-96zM186 1212l39 154h127l-39 -154h-127zM477 1212l39 154h125l-37 -154h-127z" />
<glyph unicode="&#xf0;" horiz-adv-x="1095" d="M86 414q0 147 52 282t138 222q143 143 326 143q201 0 320 -195q-49 188 -195 418l-248 -113l-37 76l238 107q-35 49 -92 125h117l59 -88l201 90l34 -74l-190 -86q211 -346 211 -639q0 -352 -203 -555q-145 -150 -346 -150q-174 0 -279.5 122t-105.5 315zM186 416 q0 -160 79 -254t214 -94q154 0 273 118q74 74 118.5 195t44.5 246q0 152 -86 249t-225 97q-147 0 -252 -109q-76 -74 -121 -196.5t-45 -251.5z" />
<glyph unicode="&#xf1;" horiz-adv-x="1087" d="M35 0l258 1055h94l-43 -183q152 205 346 205q131 0 211 -79.5t80 -215.5q0 -61 -23 -161l-147 -621h-96l151 629q18 74 19 145q0 102 -59.5 159.5t-163.5 57.5q-121 0 -229.5 -102.5t-147.5 -253.5l-154 -635h-96zM444 1217q41 98 82 138t99 40q39 0 116 -45 q59 -43 99 -43q53 0 104 98l68 -19q-43 -98 -84 -138t-97 -40q-45 0 -116 47q-63 43 -99 43q-55 0 -104 -100z" />
<glyph unicode="&#xf2;" horiz-adv-x="1112" d="M86 412q0 147 53.5 282t147.5 230q153 153 350 153q174 0 280.5 -119.5t106.5 -314.5q0 -147 -53 -282.5t-148 -229.5q-154 -154 -350 -154q-174 0 -280.5 120t-106.5 315zM186 416q0 -164 80 -256t215 -92q147 0 269 120q80 82 127 204t47 247q0 164 -80 256t-215 92 q-147 0 -269 -121q-80 -82 -127 -203.5t-47 -246.5zM500 1415l112 60l117 -267h-67z" />
<glyph unicode="&#xf3;" horiz-adv-x="1112" d="M86 412q0 147 53.5 282t147.5 230q153 153 350 153q174 0 280.5 -119.5t106.5 -314.5q0 -147 -53 -282.5t-148 -229.5q-154 -154 -350 -154q-174 0 -280.5 120t-106.5 315zM186 416q0 -164 80 -256t215 -92q147 0 269 120q80 82 127 204t47 247q0 164 -80 256t-215 92 q-147 0 -269 -121q-80 -82 -127 -203.5t-47 -246.5zM653 1208l232 267l114 -60l-254 -207h-92z" />
<glyph unicode="&#xf4;" horiz-adv-x="1112" d="M86 412q0 147 53.5 282t147.5 230q153 153 350 153q174 0 280.5 -119.5t106.5 -314.5q0 -147 -53 -282.5t-148 -229.5q-154 -154 -350 -154q-174 0 -280.5 120t-106.5 315zM186 416q0 -164 80 -256t215 -92q147 0 269 120q80 82 127 204t47 247q0 164 -80 256t-215 92 q-147 0 -269 -121q-80 -82 -127 -203.5t-47 -246.5zM481 1210l244 250h78l121 -250h-84l-92 146l-175 -146h-92z" />
<glyph unicode="&#xf5;" horiz-adv-x="1112" d="M86 412q0 147 53.5 282t147.5 230q153 153 350 153q174 0 280.5 -119.5t106.5 -314.5q0 -147 -53 -282.5t-148 -229.5q-154 -154 -350 -154q-174 0 -280.5 120t-106.5 315zM186 416q0 -164 80 -256t215 -92q147 0 269 120q80 82 127 204t47 247q0 164 -80 256t-215 92 q-147 0 -269 -121q-80 -82 -127 -203.5t-47 -246.5zM451 1217q41 98 81.5 138t98.5 40q37 0 117 -45q59 -43 98 -43q53 0 104 98l68 -19q-43 -98 -84 -138t-96 -40q-45 0 -117 47q-66 43 -98 43q-55 0 -105 -100z" />
<glyph unicode="&#xf6;" horiz-adv-x="1112" d="M86 412q0 147 53.5 282t147.5 230q153 153 350 153q174 0 280.5 -119.5t106.5 -314.5q0 -147 -53 -282.5t-148 -229.5q-154 -154 -350 -154q-174 0 -280.5 120t-106.5 315zM186 416q0 -164 80 -256t215 -92q147 0 269 120q80 82 127 204t47 247q0 164 -80 256t-215 92 q-147 0 -269 -121q-80 -82 -127 -203.5t-47 -246.5zM502 1214l39 154h127l-39 -154h-127zM793 1214l38 154h125l-36 -154h-127z" />
<glyph unicode="&#xf7;" horiz-adv-x="1093" d="M152 672l22 98h866l-24 -98h-864zM414 283l43 170h147l-43 -170h-147zM588 989l43 170h147l-43 -170h-147z" />
<glyph unicode="&#xf8;" horiz-adv-x="1112" d="M-61 -12l198 188q-51 102 -51 236q0 147 53.5 282t147.5 230q153 153 350 153q180 0 287 -129l127 117h120l-200 -188q53 -100 53 -234q0 -147 -53 -282.5t-148 -229.5q-154 -154 -350 -154q-178 0 -289 129l-125 -118h-120zM186 416q0 -98 27 -166l643 631 q-80 108 -227 108q-145 0 -269 -123q-82 -82 -128 -202.5t-46 -247.5zM252 176q78 -109 229 -108q147 0 269 120q82 82 128 203t46 248q0 90 -27 166z" />
<glyph unicode="&#xf9;" horiz-adv-x="1085" d="M104 274q0 61 23 162l149 619h95l-152 -627q-18 -86 -18 -145q0 -102 59 -161t164 -59q123 0 231.5 102.5t145.5 254.5l153 635h97l-256 -1055h-97l45 182q-158 -205 -346 -205q-133 0 -213 80t-80 217zM477 1411l113 59l117 -266h-68z" />
<glyph unicode="&#xfa;" horiz-adv-x="1085" d="M104 274q0 61 23 162l149 619h95l-152 -627q-18 -86 -18 -145q0 -102 59 -161t164 -59q123 0 231.5 102.5t145.5 254.5l153 635h97l-256 -1055h-97l45 182q-158 -205 -346 -205q-133 0 -213 80t-80 217zM631 1204l231 266l115 -59l-254 -207h-92z" />
<glyph unicode="&#xfb;" horiz-adv-x="1085" d="M104 274q0 61 23 162l149 619h95l-152 -627q-18 -86 -18 -145q0 -102 59 -161t164 -59q123 0 231.5 102.5t145.5 254.5l153 635h97l-256 -1055h-97l45 182q-158 -205 -346 -205q-133 0 -213 80t-80 217zM461 1206l244 250h77l121 -250h-84l-92 146l-174 -146h-92z" />
<glyph unicode="&#xfc;" horiz-adv-x="1085" d="M104 274q0 61 23 162l149 619h95l-152 -627q-18 -86 -18 -145q0 -102 59 -161t164 -59q123 0 231.5 102.5t145.5 254.5l153 635h97l-256 -1055h-97l45 182q-158 -205 -346 -205q-133 0 -213 80t-80 217zM479 1210l39 154h127l-39 -154h-127zM770 1210l39 154h125 l-37 -154h-127z" />
<glyph unicode="&#xfd;" horiz-adv-x="1009" d="M-139 -248l51 80q66 -55 145 -55q66 0 127.5 50t141.5 177l-160 1051h100l133 -934l549 934h111l-649 -1082q-94 -156 -178.5 -221t-182.5 -65q-106 0 -188 65zM565 1204l232 266l114 -59l-254 -207h-92z" />
<glyph unicode="&#xfe;" horiz-adv-x="1148" d="M-39 -307l436 1786h97l-154 -621q164 219 371 219q156 0 253 -113.5t97 -301.5q0 -154 -55.5 -301.5t-153.5 -245.5q-141 -137 -315 -138q-135 0 -222.5 77t-121.5 198l-138 -559h-94zM242 406q0 -147 82 -243.5t211 -96.5q141 0 247 106q82 84 129 214t47 265 q0 154 -70.5 246t-193.5 92q-147 0 -274 -127q-82 -82 -130 -207t-48 -249z" />
<glyph unicode="&#xff;" horiz-adv-x="1009" d="M-139 -248l51 80q66 -55 145 -55q66 0 127.5 50t141.5 177l-160 1051h100l133 -934l549 934h111l-649 -1082q-94 -156 -178.5 -221t-182.5 -65q-106 0 -188 65zM418 1210l39 154h127l-39 -154h-127zM709 1210l39 154h124l-36 -154h-127z" />
<glyph unicode="&#x152;" horiz-adv-x="1990" d="M158 578q0 166 61.5 332.5t179.5 285.5q238 238 615 238h1083l-24 -95h-732l-139 -569h658l-23 -94h-657l-144 -582h744l-25 -94h-985q-299 0 -463 164q-150 150 -149 414zM262 584q0 -226 125 -355q135 -135 389 -135h158l305 1245h-242q-315 0 -522 -206 q-102 -102 -157.5 -252t-55.5 -297z" />
<glyph unicode="&#x153;" horiz-adv-x="1839" d="M86 412q0 145 54.5 281t146.5 231q154 154 350 153q143 0 237.5 -86t122.5 -223q68 133 177.5 221t255.5 88q158 0 245.5 -104.5t87.5 -270.5q1 -99 -30 -210h-736q-4 -29 -4 -86q0 -156 82 -246t217 -90q150 0 297 112l37 -78q-152 -125 -332 -124q-145 0 -246.5 79.5 t-132.5 221.5q-70 -133 -184.5 -218.5t-259.5 -85.5q-170 0 -277.5 121t-107.5 314zM186 416q0 -164 80 -256t215 -92q147 0 269 120q80 82 127 204t47 247q0 164 -80 256t-215 92q-147 0 -269 -121q-80 -82 -127 -203.5t-47 -246.5zM1014 578h641q12 53 12 122 q0 127 -61.5 208t-180.5 81q-137 1 -254 -112q-111 -111 -157 -299z" />
<glyph unicode="&#x178;" horiz-adv-x="1169" d="M238 1434h108l266 -752l633 752h131l-737 -861l-139 -573h-103l146 594zM582 1546l36 150h138l-37 -150h-137zM897 1546l37 150h135l-37 -150h-135z" />
<glyph unicode="&#x2c6;" horiz-adv-x="1024" d="M459 1208l243 250h78l121 -250h-84l-92 146l-174 -146h-92z" />
<glyph unicode="&#x2dc;" horiz-adv-x="1024" d="M416 1214q41 98 82 138.5t98 40.5q39 0 117 -45q59 -43 98 -43q53 0 104 98l68 -19q-43 -98 -84 -138t-96 -40q-45 0 -117 47q-63 43 -98 43q-55 0 -105 -100z" />
<glyph unicode="&#x2000;" horiz-adv-x="900" />
<glyph unicode="&#x2001;" horiz-adv-x="1800" />
<glyph unicode="&#x2002;" horiz-adv-x="900" />
<glyph unicode="&#x2003;" horiz-adv-x="1800" />
<glyph unicode="&#x2004;" horiz-adv-x="600" />
<glyph unicode="&#x2005;" horiz-adv-x="450" />
<glyph unicode="&#x2006;" horiz-adv-x="300" />
<glyph unicode="&#x2007;" horiz-adv-x="300" />
<glyph unicode="&#x2008;" horiz-adv-x="225" />
<glyph unicode="&#x2009;" horiz-adv-x="360" />
<glyph unicode="&#x200a;" horiz-adv-x="100" />
<glyph unicode="&#x2010;" horiz-adv-x="749" d="M131 555l27 104h497l-24 -104h-500z" />
<glyph unicode="&#x2011;" horiz-adv-x="749" d="M131 555l27 104h497l-24 -104h-500z" />
<glyph unicode="&#x2012;" horiz-adv-x="749" d="M131 555l27 104h497l-24 -104h-500z" />
<glyph unicode="&#x2013;" horiz-adv-x="999" d="M131 557l25 100h751l-24 -100h-752z" />
<glyph unicode="&#x2014;" horiz-adv-x="1638" d="M131 557l25 100h1388l-24 -100h-1389z" />
<glyph unicode="&#x2018;" horiz-adv-x="421" d="M266 1053l37 149q27 104 74 155.5t147 82.5l17 -51q-74 -27 -110 -66t-46 -98h55l-41 -172h-133z" />
<glyph unicode="&#x2019;" horiz-adv-x="421" d="M219 1098q139 51 156 164h-56l41 172h134l-37 -150q-27 -104 -74 -155t-147 -82z" />
<glyph unicode="&#x201a;" horiz-adv-x="421" d="M-84 -164q137 51 156 164h-56l43 172h131l-36 -149q-27 -104 -74.5 -155.5t-147.5 -82.5z" />
<glyph unicode="&#x201c;" horiz-adv-x="759" d="M266 1053l35 149q27 104 75 155.5t148 82.5l15 -51q-137 -51 -154 -164h55l-43 -172h-131zM602 1053l37 149q27 104 74 155.5t147 82.5l17 -51q-74 -27 -110 -66t-46 -98h55l-41 -172h-133z" />
<glyph unicode="&#x201d;" horiz-adv-x="759" d="M217 1098q139 51 156 164h-56l43 172h132l-35 -150q-27 -104 -76.5 -155t-147.5 -82zM555 1098q74 27 109.5 65.5t46.5 98.5h-56l41 172h133l-34 -150q-29 -106 -77.5 -156t-146.5 -81z" />
<glyph unicode="&#x201e;" horiz-adv-x="759" d="M-84 -164q137 51 156 164h-56l43 172h131l-36 -149q-27 -104 -74.5 -155.5t-147.5 -82.5zM256 -164q74 27 108.5 66t45.5 98h-56l43 172h133l-36 -149q-27 -104 -75.5 -155.5t-146.5 -82.5z" />
<glyph unicode="&#x2022;" horiz-adv-x="862" d="M238 674q0 135 90 225q76 76 174 76q84 0 138 -55.5t54 -149.5q0 -135 -90 -225q-76 -76 -174 -76q-86 0 -139 55.5t-53 149.5z" />
<glyph unicode="&#x2026;" horiz-adv-x="1265" d="M16 0l43 174h134l-43 -174h-134zM438 0l41 174h135l-43 -174h-133zM858 0l43 174h135l-43 -174h-135z" />
<glyph unicode="&#x202f;" horiz-adv-x="360" />
<glyph unicode="&#x2039;" horiz-adv-x="577" d="M82 514l4 16l408 428l67 -53l-362 -395l161 -385l-77 -39z" />
<glyph unicode="&#x203a;" horiz-adv-x="577" d="M12 139l363 396l-162 385l78 38l201 -428l-5 -16l-407 -428z" />
<glyph unicode="&#x205f;" horiz-adv-x="450" />
<glyph unicode="&#x20ac;" horiz-adv-x="1198" d="M59 506l23 92h147q6 123 41 254h-127l21 90h135q80 217 211 346q162 166 383 166q268 0 383 -252l-82 -47q-109 207 -315 207q-162 0 -295 -133q-115 -115 -178 -287h534l-22 -90h-541q-39 -131 -45 -254h524l-22 -92h-504q4 -199 92 -316.5t246 -117.5q172 0 325 157 l64 -65q-180 -184 -395 -184q-193 0 -313 140t-122 386h-168z" />
<glyph unicode="&#x2122;" horiz-adv-x="1224" d="M236 1366l20 68h418l-19 -68h-176l-143 -567h-68l144 567h-176zM637 799l162 635h69l115 -361l287 361h84l-160 -635h-70l129 510l-290 -363h-11l-114 363l-131 -510h-70z" />
<glyph unicode="&#x25fc;" horiz-adv-x="1054" d="M0 0v1055h1055v-1055h-1055z" />
</font>
</defs>
</svg>
