<?xml version="1.0" standalone="no"?>
<!DOCTYPE svg PUBLIC "-//W3C//DTD SVG 1.1//EN" "http://www.w3.org/Graphics/SVG/1.1/DTD/svg11.dtd" >
<svg xmlns="http://www.w3.org/2000/svg">
<metadata></metadata>
<defs>
<font id="gnmmedium" horiz-adv-x="1163" >
<font-face units-per-em="2048" ascent="1638" descent="-410" />
<missing-glyph horiz-adv-x="528" />
<glyph unicode="&#xfb01;" horiz-adv-x="1191" d="M59 887v192h121v84q0 168 80 248q82 78 227 78q92 0 164 -23v-194q-66 18 -112 18q-129 0 -129 -149v-62h239v-192h-237v-887h-232v887h-121zM811 1243v227h246v-227h-246zM817 0v1085h232v-1085h-232z" />
<glyph unicode="&#xfb02;" horiz-adv-x="1191" d="M59 887v192h121v84q0 168 80 248q82 78 227 78q92 0 164 -23v-194q-66 18 -112 18q-129 0 -129 -149v-62h239v-192h-237v-887h-232v887h-121zM817 0v1479h232v-1479h-232z" />
<glyph unicode="&#xfb03;" horiz-adv-x="1863" d="M59 887v192h121v84q0 168 80 248q82 78 227 78q92 0 164 -23v-194q-66 18 -112 18q-129 0 -129 -149v-62h237v-192h-235v-887h-232v887h-121zM735 887v192h117v84q0 168 84 248q78 78 225 78q92 0 164 -23v-194q-70 18 -113 18q-129 0 -129 -149v-62h240v-192h-238v-887 h-233v887h-117zM1483 1243v227h246v-227h-246zM1491 0v1085h231v-1085h-231z" />
<glyph unicode="&#xfb04;" horiz-adv-x="1863" d="M59 887v192h121v84q0 168 80 248q82 78 227 78q92 0 164 -23v-194q-66 18 -112 18q-129 0 -129 -149v-62h237v-192h-235v-887h-232v887h-121zM735 887v192h117v84q0 168 84 248q78 78 225 78q92 0 164 -23v-194q-70 18 -113 18q-129 0 -129 -149v-62h240v-192h-238v-887 h-233v887h-117zM1491 0v1479h231v-1479h-231z" />
<glyph horiz-adv-x="0" />
<glyph unicode="&#xd;" horiz-adv-x="681" />
<glyph unicode=" "  horiz-adv-x="528" />
<glyph unicode="&#x09;" horiz-adv-x="528" />
<glyph unicode="&#xa0;" horiz-adv-x="528" />
<glyph unicode="!" horiz-adv-x="565" d="M145 1362v72h275v-72l-74 -918h-127zM152 0v272h262v-272h-262z" />
<glyph unicode="&#x22;" horiz-adv-x="888" d="M113 823l34 611h259v-13l-179 -598h-114zM518 823l33 611h258v-13l-178 -598h-113z" />
<glyph unicode="#" horiz-adv-x="1239" d="M66 334v203h192l53 368h-182v203h211l47 326h195l-47 -326h282l47 326h193l-47 -326h161v-203h-192l-53 -368h182v-203h-211l-49 -334h-193l47 334h-282l-47 -334h-193l47 334h-161zM446 532h289l56 377h-289z" />
<glyph unicode="$" horiz-adv-x="1134" d="M70 195l131 174q143 -133 299 -162v422q-201 78 -289 172t-88 248v2q0 154 102.5 257t270.5 126v127h163v-129q199 -21 353 -154l-123 -176q-121 98 -234 123v-404q205 -78 294 -177t89 -251v-4q0 -158 -103.5 -262t-275.5 -127v-205h-163v205q-250 27 -426 195z M352 1063q0 -59 32 -100t116 -82v350q-72 -14 -110 -59.5t-38 -106.5v-2zM655 205q156 33 156 174v4q0 61 -34 104t-122 84v-366z" />
<glyph unicode="%" horiz-adv-x="1554" d="M84 1073v14q0 156 86 258.5t219 102.5t218 -102.5t85 -255.5v-15q0 -156 -85 -259t-220 -103q-133 0 -218 102.5t-85 257.5zM221 0l500 756l432 678h182l-499 -758l-435 -676h-180zM254 1077q0 -94 38 -153.5t97 -59.5q61 0 97 58.5t36 152.5v8q0 94 -38 153.5t-97 59.5 q-61 0 -97 -58t-36 -151v-10zM862 344v14q0 158 85 260.5t220 102.5q133 0 218 -102.5t85 -258.5v-14q0 -156 -85 -258t-220 -102q-133 0 -218 101t-85 257zM1032 350q0 -94 38 -153.5t97 -59.5q61 0 97 57.5t36 151.5v10q0 94 -37.5 153.5t-97.5 59.5q-61 0 -97 -58 t-36 -153v-8z" />
<glyph unicode="&#x26;" horiz-adv-x="1259" d="M66 379v6q0 262 280 412q-121 170 -121 309v8q0 141 103.5 241.5t269.5 100.5q154 0 251 -94t97 -236v-6q0 -242 -284 -379l221 -264q57 100 118 260l183 -75q-76 -207 -166 -343l196 -225l-174 -121l-159 183q-170 -176 -389 -176q-184 0 -305 110.5t-121 288.5z M303 389q0 -92 60.5 -151.5t154.5 -59.5q121 0 238 121l-287 346q-166 -92 -166 -250v-6zM442 1104q1 -96 103 -227q193 92 192 233v4q0 68 -40 111t-103 43q-68 0 -110 -46t-42 -114v-4z" />
<glyph unicode="'" horiz-adv-x="485" d="M113 823l34 611h261v-13l-181 -598h-114z" />
<glyph unicode="(" horiz-adv-x="802" d="M115 590q0 600 522 872l92 -151q-385 -248 -385 -721t385 -721l-92 -152q-522 268 -522 873z" />
<glyph unicode=")" horiz-adv-x="802" d="M76 -131q383 248 383 721t-383 721l92 151q522 -274 522 -872q0 -603 -522 -873z" />
<glyph unicode="*" horiz-adv-x="796" d="M94 1020l219 96l-219 98l72 123l190 -145l-28 246h141l-29 -246l189 145l73 -123l-219 -98l219 -96l-73 -123l-189 145l29 -245h-141l28 245l-190 -145z" />
<glyph unicode="+" horiz-adv-x="1134" d="M113 614v213h346v351h219v-351h344v-213h-344v-350h-219v350h-346z" />
<glyph unicode="," horiz-adv-x="507" d="M59 -197q184 35 168 197h-104v272h262v-229q0 -160 -74.5 -242t-224.5 -98z" />
<glyph unicode="-" horiz-adv-x="778" d="M104 512v229h570v-229h-570z" />
<glyph unicode="." horiz-adv-x="507" d="M123 0v272h262v-272h-262z" />
<glyph unicode="/" horiz-adv-x="927" d="M-41 -244l782 1860h201l-782 -1860h-201z" />
<glyph unicode="0" horiz-adv-x="1284" d="M100 705v22q0 328 148.5 528.5t396.5 200.5q246 0 393.5 -199.5t147.5 -527.5v-22q0 -328 -148.5 -529t-396.5 -201t-394.5 199t-146.5 529zM342 711q0 -238 83 -377t220 -139q135 0 216 137t81 375v16q0 238 -83 377t-218 139t-217 -137t-82 -375v-16z" />
<glyph unicode="1" horiz-adv-x="714" d="M47 1333l332 111h168v-1444h-236v1196l-225 -68z" />
<glyph unicode="2" horiz-adv-x="1095" d="M88 0v188l438 469q125 129 173.5 208t48.5 165q0 94 -59.5 149.5t-149.5 55.5q-82 0 -147.5 -44t-139.5 -140l-158 145q186 258 465 258q190 0 310 -110.5t120 -292.5v-4q0 -137 -65.5 -245t-233.5 -276l-287 -311h592v-215h-907z" />
<glyph unicode="3" horiz-adv-x="1091" d="M61 174l148 168q135 -150 309 -149q102 0 169 62t67 165v6q0 109 -87 169t-239 60h-72l-30 150l348 416h-543v213h840v-187l-363 -416q166 -25 273.5 -124t107.5 -273v-6q0 -201 -131 -326t-338 -125q-279 0 -459 197z" />
<glyph unicode="4" horiz-adv-x="1214" d="M61 483l682 959h211v-932h179v-199h-179v-311h-225v311h-635zM324 510h405v575z" />
<glyph unicode="5" horiz-adv-x="1105" d="M76 158l135 176q154 -137 305 -137q115 0 185.5 69.5t70.5 186.5v4q0 111 -73.5 176t-190.5 65q-106 0 -217 -53l-139 92l38 697h758v-217h-557l-22 -340q102 33 190 32q195 0 322 -113.5t127 -330.5v-4q0 -219 -136.5 -351.5t-353.5 -132.5q-252 0 -442 181z" />
<glyph unicode="6" horiz-adv-x="1177" d="M100 662v14q0 365 145.5 572.5t409.5 207.5q197 0 367 -131l-117 -188q-127 102 -256 102q-147 0 -225 -129t-82 -326q121 131 301 131q184 0 310 -117.5t126 -328.5v-4q0 -215 -136 -351.5t-341 -136.5q-207 0 -336 129q-166 170 -166 556zM348 453q0 -119 68.5 -193 t183.5 -74q113 0 178.5 75t65.5 192v4q0 117 -67.5 187.5t-180.5 70.5q-111 0 -179.5 -72t-68.5 -186v-4z" />
<glyph unicode="7" horiz-adv-x="1081" d="M111 1217v217h882v-179l-551 -1255h-258l551 1217h-624z" />
<glyph unicode="8" horiz-adv-x="1138" d="M82 387v6q0 244 233 350q-193 106 -192 320v8q0 166 127 274.5t319.5 108.5t318.5 -107.5t126 -275.5v-8q0 -215 -193 -320q236 -111 236 -346v-8q0 -186 -137.5 -297.5t-350.5 -111.5t-350 112.5t-137 294.5zM313 403q0 -100 71 -162.5t185.5 -62.5t184 62.5t69.5 162.5 v5q0 102 -71.5 164.5t-182 62.5t-183.5 -62.5t-73 -164.5v-5zM350 1047q0 -94 62.5 -156t157 -62t156.5 60.5t62 157.5v4q0 90 -61 148t-157.5 58t-158 -57t-61.5 -149v-4z" />
<glyph unicode="9" horiz-adv-x="1175" d="M98 956v7q0 215 134.5 354t341 139t337.5 -131q166 -166 166 -553v-14q0 -369 -147.5 -575t-407.5 -206q-211 0 -389 144l119 188q137 -114 274 -114q145 0 225 127t85 315q-117 -133 -299 -133q-193 0 -316 119.5t-123 332.5zM332 969q0 -121 67.5 -192.5t180 -71.5 t180 73.5t67.5 192.5v2q0 123 -68.5 198.5t-183.5 75.5q-113 0 -178 -76.5t-65 -197.5v-4z" />
<glyph unicode=":" horiz-adv-x="528" d="M133 0v272h262v-272h-262zM133 813v272h262v-272h-262z" />
<glyph unicode=";" horiz-adv-x="528" d="M70 -197q184 35 168 197h-105v272h262v-229q0 -160 -74.5 -242t-224.5 -98zM133 813v272h262v-272h-262z" />
<glyph unicode="&#x3c;" horiz-adv-x="1134" d="M115 616v209l868 428v-235l-633 -295l633 -297v-238z" />
<glyph unicode="=" horiz-adv-x="1134" d="M125 379v219h885v-219h-885zM125 844v219h885v-219h-885z" />
<glyph unicode="&#x3e;" horiz-adv-x="1134" d="M154 188v236l632 295l-632 297v237l866 -428v-209z" />
<glyph unicode="?" horiz-adv-x="968" d="M35 1257q178 193 424 193q199 0 319.5 -110.5t120.5 -290.5v-5q0 -319 -364 -405l-21 -195h-156l-34 340l10 11q330 31 330 241v4q0 86 -59.5 139.5t-155.5 53.5q-147 0 -279 -135zM303 0v272h262v-272h-262z" />
<glyph unicode="@" horiz-adv-x="1796" d="M94 524q0 248 106.5 462t299 342t426.5 128q328 0 552 -225t224 -531q0 -252 -108.5 -406.5t-270.5 -154.5q-205 0 -268 156q-125 -156 -287 -156q-135 0 -223 94.5t-88 253.5q0 223 126 387t291 164q168 0 248 -153l25 125l188 -31l-90 -516q-12 -57 -12 -105 q0 -61 35 -95t98 -34q106 0 180 132.5t74 340.5q0 272 -199.5 475t-496.5 203q-322 0 -536 -254t-214 -602q0 -334 204 -549t523 -215q238 0 445 123l38 -63q-225 -135 -485 -135q-346 0 -576.5 238.5t-228.5 600.5zM653 502q0 -94 47 -144.5t125 -50.5q84 0 146 66 q47 47 77.5 131t30.5 166q0 88 -48 141t-124 53q-84 0 -149 -65q-47 -47 -76 -132t-29 -165z" />
<glyph unicode="A" horiz-adv-x="1380" d="M49 0l526 1442h230l526 -1442h-248l-118 338h-557l-119 -338h-240zM481 549h410l-205 575z" />
<glyph unicode="B" horiz-adv-x="1273" d="M156 0v1434h512q244 0 366 -123q96 -96 96 -242v-6q0 -217 -210 -322q272 -96 272 -342v-8q0 -186 -138.5 -288.5t-371.5 -102.5h-526zM389 213h299q125 0 195.5 53t70.5 150v4q0 94 -71.5 148.5t-204.5 54.5h-289v-410zM389 823h248q119 0 187.5 52.5t68.5 150.5v4 q0 90 -63.5 140.5t-178.5 50.5h-262v-398z" />
<glyph unicode="C" horiz-adv-x="1263" d="M102 709v14q0 324 180.5 527.5t460.5 203.5q256 0 451 -178l-143 -182q-150 139 -308 139q-170 0 -282.5 -141.5t-112.5 -368.5v-8q0 -229 111.5 -371.5t283.5 -142.5q162 0 318 149l139 -168q-197 -202 -469 -202q-276 0 -452.5 201.5t-176.5 527.5z" />
<glyph unicode="D" horiz-adv-x="1376" d="M156 0v1434h438q307 0 493.5 -196t186.5 -511v-16q0 -315 -187.5 -513t-492.5 -198h-438zM393 215h199q199 0 317.5 132t118.5 362v12q0 229 -118.5 363.5t-317.5 134.5h-199v-1004z" />
<glyph unicode="E" d="M156 0v1434h903v-215h-668v-390h592v-215h-592v-399h678v-215h-913z" />
<glyph unicode="F" horiz-adv-x="1130" d="M156 0v1434h899v-220h-662v-403h586v-217h-586v-594h-237z" />
<glyph unicode="G" horiz-adv-x="1372" d="M102 707v16q0 317 184.5 524t473.5 207q262 0 454 -162l-141 -188q-143 129 -317 129q-176 0 -292 -143.5t-116 -364.5v-12q0 -238 117 -377t303 -139q147 0 254 75v316h-301v209h526v-643q-219 -174 -489 -174q-293 0 -474.5 198.5t-181.5 528.5z" />
<glyph unicode="H" horiz-adv-x="1347" d="M156 0v1434h237v-603h563v603h238v-1434h-238v610h-563v-610h-237z" />
<glyph unicode="I" horiz-adv-x="571" d="M168 0v1434h238v-1434h-238z" />
<glyph unicode="J" horiz-adv-x="972" d="M31 172l149 164q98 -131 223 -131q88 0 139.5 60.5t51.5 180.5v988h242v-996q0 -227 -121 -344q-112 -112 -305 -112q-242 0 -379 190z" />
<glyph unicode="K" horiz-adv-x="1282" d="M156 0v1434h237v-705l555 705h287l-500 -617l522 -817h-282l-404 629l-178 -215v-414h-237z" />
<glyph unicode="L" horiz-adv-x="1069" d="M156 0v1434h237v-1215h615v-219h-852z" />
<glyph unicode="M" horiz-adv-x="1542" d="M156 0v1434h247l369 -660l367 660h250v-1434h-236v1014l-381 -664h-6l-379 660v-1010h-231z" />
<glyph unicode="N" horiz-adv-x="1394" d="M156 0v1434h221l631 -957v957h231v-1434h-201l-649 985v-985h-233z" />
<glyph unicode="O" horiz-adv-x="1474" d="M102 705v20q0 319 178.5 525t458.5 206q279 0 456 -203.5t177 -523.5v-20q0 -319 -178 -525.5t-459 -206.5q-279 0 -456 204t-177 524zM348 711q0 -229 110.5 -371.5t280.5 -142.5t278.5 141t108.5 371v14q0 229 -109.5 371.5t-281.5 142.5q-170 0 -278.5 -141.5 t-108.5 -370.5v-14z" />
<glyph unicode="P" horiz-adv-x="1191" d="M156 0v1434h458q236 0 376 -128t140 -350v-4q0 -229 -148 -356t-382 -131h-207v-465h-237zM393 680h207q135 0 212 73.5t77 194.5v2q0 129 -76 198t-213 69h-207v-537z" />
<glyph unicode="Q" horiz-adv-x="1478" d="M102 705v20q0 319 178.5 525t458.5 206q279 0 456 -203.5t177 -523.5v-20q0 -262 -129 -455l156 -135l-146 -160l-151 141q-162 -123 -365 -123q-281 0 -458 204t-177 524zM348 709q0 -233 110.5 -373.5t284.5 -140.5q113 0 195 57l-213 190l145 160l199 -190 q57 125 57 295v18q0 229 -109.5 370.5t-281.5 141.5q-170 0 -278.5 -140.5t-108.5 -369.5v-18z" />
<glyph unicode="R" horiz-adv-x="1277" d="M156 0v1434h518q248 0 383 -136q119 -119 119 -315v-8q0 -160 -80 -265.5t-217 -154.5l338 -555h-275l-305 508q-4 -2 -14 -2h-230v-506h-237zM393 719h256q137 0 212 66.5t75 181.5v4q0 121 -74 183.5t-209 62.5h-260v-498z" />
<glyph unicode="S" horiz-adv-x="1124" d="M53 188l144 179q188 -170 376 -170q102 0 164 51t62 131v2q0 72 -55.5 123t-219.5 110q-219 82 -316 175.5t-97 257.5v4q0 176 127 288.5t327 112.5q258 0 451 -168l-135 -182q-166 135 -322 135q-94 0 -151.5 -47t-57.5 -119v-2q0 -78 59.5 -128t237.5 -120 q207 -80 298 -175t91 -247v-4q0 -186 -130 -299.5t-335 -113.5q-293 0 -518 206z" />
<glyph unicode="T" horiz-adv-x="1124" d="M66 1212v222h991v-222h-377v-1212h-238v1212h-376z" />
<glyph unicode="U" horiz-adv-x="1341" d="M137 547v887h238v-885q0 -172 78.5 -262t218.5 -90q137 0 216 88t79 256v893h235v-879q0 -283 -142 -430.5t-392 -147.5q-246 0 -388.5 147.5t-142.5 422.5z" />
<glyph unicode="V" horiz-adv-x="1310" d="M49 1434h258l352 -1084l353 1084h250l-496 -1442h-219z" />
<glyph unicode="W" horiz-adv-x="1968" d="M59 1434h252l281 -1041l293 1045h205l292 -1045l281 1041h246l-418 -1442h-215l-293 1012l-293 -1012h-215z" />
<glyph unicode="X" horiz-adv-x="1280" d="M61 0l439 731l-420 703h270l291 -516l295 516h264l-422 -701l443 -733h-273l-311 547l-311 -547h-265z" />
<glyph unicode="Y" horiz-adv-x="1255" d="M27 1434h272l332 -621l334 621h264l-481 -861v-573h-238v571z" />
<glyph unicode="Z" horiz-adv-x="1214" d="M109 0v176l704 1045h-682v213h979v-177l-704 -1044h704v-213h-1001z" />
<glyph unicode="[" horiz-adv-x="821" d="M166 -266v1700h553v-179h-334v-1343h334v-178h-553z" />
<glyph unicode="\" horiz-adv-x="927" d="M-14 1616h200l783 -1860h-201z" />
<glyph unicode="]" horiz-adv-x="821" d="M102 -88h334v1343h-334v179h553v-1700h-553v178z" />
<glyph unicode="^" horiz-adv-x="987" d="M145 1022l263 408h170l262 -408h-174l-174 262l-177 -262h-170z" />
<glyph unicode="_" horiz-adv-x="1138" d="M-4 -141h1147v-183h-1147v183z" />
<glyph unicode="`" horiz-adv-x="1024" d="M281 1432l206 96l197 -322h-170z" />
<glyph unicode="a" horiz-adv-x="1048" d="M70 311v11q0 170 103 259t282 89q121 0 250 -43v45q0 109 -60.5 165t-173.5 56q-119 0 -262 -66l-66 185q176 86 359 86q213 0 319 -111q109 -109 109 -313v-674h-228v133q-106 -153 -301 -153q-141 0 -236 89t-95 242zM295 326q0 -80 49 -125t127 -47h6q96 0 162 58 q68 60 68 153v108q-92 39 -201 39q-100 0 -155.5 -48t-55.5 -134v-4z" />
<glyph unicode="b" horiz-adv-x="1187" d="M131 0v1479h231v-568q125 195 318 195q174 0 298 -144.5t124 -404.5v-29q0 -260 -123 -404t-299 -144q-193 0 -318 184v-164h-231zM358 532q0 -156 75 -252t183.5 -96t180 94.5t71.5 253.5v19q0 160 -72.5 255t-179.5 95q-109 0 -183.5 -96t-74.5 -252v-21z" />
<glyph unicode="c" horiz-adv-x="985" d="M82 528v21q0 242 140 399.5t356 157.5q201 0 348 -148l-129 -170q-104 109 -219 109t-189 -98.5t-74 -251.5v-10q0 -158 75 -255.5t194 -97.5q111 0 221 111l125 -154q-146 -164 -361 -164q-213 0 -350 155t-137 396z" />
<glyph unicode="d" horiz-adv-x="1187" d="M86 528v27q0 262 123 406.5t299 144.5q188 0 317 -184v557h232v-1479h-232v174q-124 -194 -317 -194q-174 0 -298 144t-124 404zM319 535q0 -160 73 -255.5t179 -95.5q109 0 183.5 96.5t74.5 251.5v21q0 156 -74.5 252t-183 96t-180.5 -95t-72 -255v-16z" />
<glyph unicode="e" horiz-adv-x="1073" d="M82 530v17q0 244 131 401.5t332 157.5q215 0 332.5 -159t117.5 -412q0 -47 -2 -80h-680q14 -133 90 -207t185 -74q131 0 250 115l120 -144q-157 -168 -380 -168q-213 0 -354.5 152t-141.5 401zM311 614h459q-10 133 -68.5 215t-156.5 82q-96 0 -159 -80t-75 -217z" />
<glyph unicode="f" horiz-adv-x="673" d="M59 887v192h121v84q0 168 80 248q82 78 227 78q92 0 164 -23v-194q-66 18 -112 18q-129 0 -129 -149v-62h239v-192h-237v-887h-232v887h-121z" />
<glyph unicode="g" horiz-adv-x="1187" d="M86 588v8q0 240 121 375t293 135q195 0 325 -182v161h232v-909q0 -238 -123 -360q-127 -129 -391 -129q-223 0 -412 102l76 182q152 -92 325 -92q295 0 295 287v104q-135 -190 -327 -190q-172 0 -293 134t-121 374zM319 592q0 -141 72 -226t178 -85q109 0 184.5 86 t75.5 223v4q0 139 -75.5 224t-184 85t-179.5 -84t-71 -225v-2z" />
<glyph unicode="h" horiz-adv-x="1114" d="M131 0v1479h231v-553q115 180 297 180q156 0 245 -102.5t89 -276.5v-727h-231v662q0 113 -51.5 174t-143.5 61t-148.5 -64.5t-56.5 -175.5v-657h-231z" />
<glyph unicode="i" horiz-adv-x="518" d="M135 1243v227h246v-227h-246zM143 0v1085h232v-1085h-232z" />
<glyph unicode="j" horiz-adv-x="520" d="M-23 -119q27 -6 56 -6q113 0 112 129v1081h232v-1099q0 -301 -293 -301q-55 0 -107 12v184zM137 1243v227h248v-227h-248z" />
<glyph unicode="k" horiz-adv-x="1042" d="M131 0v1479h231v-871l371 477h275l-361 -442l371 -643h-268l-263 465l-125 -152v-313h-231z" />
<glyph unicode="l" horiz-adv-x="518" d="M143 0v1479h232v-1479h-232z" />
<glyph unicode="m" horiz-adv-x="1708" d="M131 0v1085h231v-157q117 178 291 178q197 0 281 -174q131 174 317 174q154 0 243 -98.5t89 -280.5v-727h-231v659q0 238 -185 238q-86 0 -140 -63.5t-54 -176.5v-657h-232v662q0 115 -48 175t-134 60q-88 0 -142.5 -65.5t-54.5 -176.5v-655h-231z" />
<glyph unicode="n" horiz-adv-x="1114" d="M131 0v1085h231v-159q115 180 297 180q156 0 245 -102.5t89 -276.5v-727h-231v662q0 113 -51.5 174t-143.5 61t-148.5 -64.5t-56.5 -175.5v-657h-231z" />
<glyph unicode="o" d="M82 530v19q0 240 142.5 398.5t359.5 158.5q215 0 356 -156.5t141 -398.5v-19q0 -240 -142 -397.5t-359 -157.5q-215 0 -356.5 157t-141.5 396zM313 537q0 -154 77 -255.5t194 -101.5q119 0 192.5 100.5t73.5 254.5v12q0 154 -77 254t-193 100q-121 0 -194 -99.5 t-73 -252.5v-12z" />
<glyph unicode="p" horiz-adv-x="1187" d="M131 -309v1394h231v-174q125 195 318 195q174 0 298 -144.5t124 -404.5v-29q0 -260 -123 -404t-299 -144q-193 0 -318 184v-473h-231zM358 532q0 -156 75 -252t183.5 -96t180 94.5t71.5 253.5v19q0 160 -72.5 255t-179.5 95q-109 0 -183.5 -96t-74.5 -252v-21z" />
<glyph unicode="q" horiz-adv-x="1187" d="M86 528v27q0 262 123 406.5t299 144.5q188 0 317 -184v163h232v-1394h-232v483q-124 -194 -315 -194h-2q-174 0 -298 144t-124 404zM319 535q0 -160 73 -255.5t179 -95.5q109 0 183.5 96.5t74.5 251.5v21q0 156 -74.5 252t-183 96t-180.5 -95t-72 -255v-16z" />
<glyph unicode="r" horiz-adv-x="737" d="M131 0v1085h231v-213q93 231 305 231q10 0 21 -1v-252h-10q-145 0 -230.5 -95.5t-85.5 -275.5v-479h-231z" />
<glyph unicode="s" horiz-adv-x="888" d="M41 131l109 166q156 -127 299 -127q70 0 110.5 34t40.5 85v2q0 37 -30.5 67.5t-65.5 48t-117 52.5q-147 63 -222 131.5t-75 189.5v4q0 143 101.5 230.5t257.5 87.5q190 0 352 -117l-99 -170q-143 96 -258 96q-63 0 -100 -30.5t-37 -75.5v-4q0 -35 32 -64.5t64.5 -47 t116.5 -54.5q147 -66 221 -136.5t74 -187.5v-2q0 -156 -104.5 -242.5t-266.5 -86.5q-221 0 -403 151z" />
<glyph unicode="t" horiz-adv-x="729" d="M57 887v198h119v293h232v-293h243v-198h-243v-578q0 -119 116 -119q66 0 125 31v-190q-88 -47 -192 -47q-281 0 -281 278v625h-119z" />
<glyph unicode="u" horiz-adv-x="1114" d="M121 358v727h231v-661q0 -113 50.5 -174.5t142.5 -61.5t148.5 64.5t56.5 175.5v657h233v-1085h-233v158q-115 -178 -295 -178q-158 0 -246 101t-88 277z" />
<glyph unicode="v" horiz-adv-x="1064" d="M47 1085h244l244 -790l245 790h240l-379 -1093h-215z" />
<glyph unicode="w" horiz-adv-x="1548" d="M55 1085h238l184 -733l201 735h196l201 -735l187 733h233l-305 -1093h-213l-203 725l-205 -725h-211z" />
<glyph unicode="x" horiz-adv-x="1040" d="M51 0l336 555l-324 530h250l207 -364l211 364h244l-326 -530l340 -555h-250l-221 387l-223 -387h-244z" />
<glyph unicode="y" horiz-adv-x="1067" d="M45 1085h246l252 -788l235 788h240l-369 -1101q-55 -164 -127.5 -231.5t-193.5 -67.5q-115 0 -219 57l67 178q66 -37 125 -37q47 0 77 25.5t54 89.5z" />
<glyph unicode="z" horiz-adv-x="974" d="M84 0v160l528 733h-510v192h793v-159l-528 -733h526v-193h-809z" />
<glyph unicode="{" horiz-adv-x="880" d="M88 498v180h49q113 0 164 51t51 158q0 31 -11 103.5t-11 101.5q0 154 96 246t334 126l37 -157q-150 -31 -202 -84.5t-52 -157.5q0 -35 12 -104.5t12 -104.5q0 -209 -219 -268q219 -57 219 -269q0 -35 -12 -104.5t-12 -103.5q0 -104 52 -156.5t202 -85.5l-37 -158 q-238 35 -334 127t-96 248q0 29 11 101.5t11 103.5q0 106 -51 156.5t-164 50.5h-49z" />
<glyph unicode="|" horiz-adv-x="620" d="M217 -244v1860h186v-1860h-186z" />
<glyph unicode="}" horiz-adv-x="880" d="M84 -131q150 33 202 85t52 157q0 35 -12.5 104.5t-12.5 103.5q0 213 219 269q-219 57 -219 268q0 35 12.5 104.5t12.5 104.5q0 104 -52.5 157.5t-201.5 84.5l37 157q238 -35 334 -127t96 -245q0 -29 -11.5 -101.5t-11.5 -103.5q0 -106 52.5 -157.5t164.5 -51.5h48v-180 h-48q-115 0 -166 -50.5t-51 -156.5q0 -31 11.5 -103.5t11.5 -101.5q0 -156 -96 -248t-334 -127z" />
<glyph unicode="~" horiz-adv-x="921" d="M109 522q55 238 208 238q66 0 156 -45q82 -39 113 -39q68 0 102 100l125 -39q-55 -239 -207 -239q-68 0 -157 47q-82 39 -113 39q-37 0 -56.5 -22.5t-41.5 -78.5z" />
<glyph unicode="&#xa1;" horiz-adv-x="565" d="M145 0v72l74 917h127l74 -917v-72h-275zM152 1161v273h262v-273h-262z" />
<glyph unicode="&#xa2;" horiz-adv-x="1015" d="M90 715v16q0 238 134 393.5t339 163.5l23 156h168l-25 -174q117 -33 213 -129l-127 -168q-61 61 -121 86l-94 -690q113 2 221 108l125 -151q-154 -164 -368 -164l-25 -174h-166l29 200q-147 53 -236.5 193.5t-89.5 333.5zM322 721q0 -219 129 -311l92 665 q-100 -16 -160.5 -109.5t-60.5 -236.5v-8z" />
<glyph unicode="&#xa3;" horiz-adv-x="1134" d="M106 0v152l144 47v381h-144v202h144v209q0 231 119 348q113 113 301 113q242 0 387 -190l-168 -154q-94 121 -211 121q-78 0 -127 -49q-61 -59 -62 -195v-203h420v-202h-420v-371h562v-209h-945z" />
<glyph unicode="&#xa5;" horiz-adv-x="1220" d="M33 1434h266l313 -609l316 609h260l-404 -723h273v-174h-332v-150h332v-174h-332v-213h-229v213h-332v174h332v150h-332v174h270z" />
<glyph unicode="&#xa7;" horiz-adv-x="1148" d="M94 721v4q0 88 56.5 149.5t154.5 90.5q-104 74 -104 194v4q0 133 101 212t269 79q240 0 400 -154l-117 -145q-131 113 -279 113q-72 0 -111.5 -27t-39.5 -72v-4q0 -45 51 -78.5t195 -74.5q209 -61 297 -127t88 -172v-4q0 -88 -56.5 -149.5t-154.5 -90.5q104 -76 104 -195 v-4q0 -131 -100 -210.5t-270 -79.5q-238 0 -402 153l119 146q131 -113 278 -113q74 0 113 26.5t39 71.5v4q0 45 -52 78t-194 76q-207 59 -296 125.5t-89 173.5zM307 752q0 -47 48 -81t161 -69q117 -39 178.5 -39t104.5 33t43 82v4q0 47 -48.5 81t-160.5 68 q-117 39 -178.5 39t-104.5 -32.5t-43 -81.5v-4z" />
<glyph unicode="&#xa8;" horiz-adv-x="1024" d="M219 1210v228h230v-228h-230zM575 1210v228h230v-228h-230z" />
<glyph unicode="&#xa9;" horiz-adv-x="1511" d="M90 705v22q0 307 192.5 519t475 212t473 -211t190.5 -518v-22q0 -307 -192 -519.5t-475 -212.5q-281 0 -472.5 211t-191.5 519zM168 702q0 -279 166 -466t420 -187q256 0 424 189.5t168 468.5v24q0 276 -167 464.5t-421 188.5q-256 0 -423 -189t-167 -468v-25zM426 717 v12q0 176 98.5 287.5t249.5 111.5q143 0 248 -98l-86 -108q-78 74 -162 73q-88 0 -145.5 -72.5t-57.5 -191.5v-10q0 -121 57.5 -193.5t147.5 -72.5q82 0 166 77l82 -98q-104 -112 -256 -112q-150 0 -246 109.5t-96 285.5z" />
<glyph unicode="&#xaa;" horiz-adv-x="712" d="M98 594v108h498v-108h-498zM104 1008v6q0 94 58.5 143t156.5 49q63 0 132 -24v22q0 117 -125 117q-66 0 -144 -37l-41 107q102 49 205 49q115 0 176 -62q59 -59 60 -174v-368h-131v69q-60 -80 -162 -80q-78 0 -131.5 49.5t-53.5 133.5zM236 1014q0 -41 25.5 -63.5 t66.5 -22.5q53 0 89 30.5t36 79.5v56q-47 20 -107 20q-111 0 -110 -92v-8z" />
<glyph unicode="&#xab;" horiz-adv-x="1126" d="M80 532v17l330 446l163 -86l-239 -366l241 -367l-165 -90zM541 532v17l331 446l164 -86l-241 -366l241 -367l-164 -90z" />
<glyph unicode="&#xad;" horiz-adv-x="778" d="M104 512v229h570v-229h-570z" />
<glyph unicode="&#xae;" horiz-adv-x="739" d="M43 1090v12q0 150 94 253t232 103q141 0 235 -102.5t94 -253.5v-10q0 -150 -95 -253.5t-234 -103.5q-137 0 -231.5 102.5t-94.5 252.5zM86 1090q0 -133 80 -224.5t203 -91.5t204.5 92t81.5 226v10q0 133 -80.5 224t-205.5 91q-121 0 -202 -91t-81 -224v-12zM238 913v379 h145q66 0 104.5 -31.5t38.5 -91.5v-2q0 -82 -73 -112l84 -142h-95l-73 125h-50v-125h-81zM319 1106h60q63 0 63 57q0 55 -63 56h-60v-113z" />
<glyph unicode="&#xaf;" horiz-adv-x="1024" d="M203 1225v166h618v-166h-618z" />
<glyph unicode="&#xb0;" horiz-adv-x="839" d="M115 1106v10q0 139 90 234.5t215 95.5t215 -95.5t90 -234.5v-10q0 -139 -90 -234.5t-215 -95.5t-215 95.5t-90 234.5zM256 1108q0 -86 46 -142.5t118 -56.5q70 0 116 56.5t46 142.5v6q0 86 -46.5 142.5t-115.5 56.5q-72 0 -118 -56.5t-46 -142.5v-6z" />
<glyph unicode="&#xb1;" horiz-adv-x="1134" d="M121 723v209h342l-2 340h213v-340h340v-209h-340v-340h-213l2 340h-342zM123 18v201h891v-201h-891z" />
<glyph unicode="&#xb2;" horiz-adv-x="722" d="M96 887v121l252 245q68 66 94.5 105t26.5 82q0 47 -31.5 74.5t-79.5 27.5q-84 0 -170 -102l-92 88q115 147 273 147q111 0 180 -60.5t69 -160.5q0 -70 -32.5 -126t-112.5 -132l-186 -180h336v-129h-527z" />
<glyph unicode="&#xb3;" horiz-adv-x="722" d="M78 979l78 106q94 -86 192 -86q53 0 90 32t37 83q0 55 -46 84t-126 29h-59l-19 92l205 209h-309v131h487v-111l-213 -213q100 -12 161.5 -66.5t61.5 -150.5q0 -111 -74.5 -179.5t-195.5 -68.5q-158 0 -270 109z" />
<glyph unicode="&#xb4;" horiz-adv-x="1024" d="M334 1206l198 322l205 -96l-233 -226h-170z" />
<glyph unicode="&#xb6;" horiz-adv-x="1013" d="M68 961v4q0 223 144 346t380 123h268v-1434h-237v494h-27q-233 4 -380.5 124.5t-147.5 342.5z" />
<glyph unicode="&#xb7;" horiz-adv-x="516" d="M127 489v275h262v-275h-262z" />
<glyph unicode="&#xb8;" horiz-adv-x="1024" d="M289 -227l176 262h166l-139 -346z" />
<glyph unicode="&#xb9;" horiz-adv-x="587" d="M86 1581l211 86h111v-780h-146v629l-147 -62z" />
<glyph unicode="&#xba;" horiz-adv-x="712" d="M86 1126v13q0 133 77 219t195 86q117 0 194 -86t77 -217v-13q0 -131 -78 -218t-195 -87q-119 0 -194.5 86t-75.5 217zM96 594v108h520v-108h-520zM221 1128q0 -80 38 -133t99.5 -53t98.5 52.5t37 131.5v11q0 80 -38 133t-99.5 53t-98.5 -52t-37 -132v-11z" />
<glyph unicode="&#xbb;" horiz-adv-x="1126" d="M90 907l164 88l332 -446v-17l-332 -446l-162 86l240 367zM553 172l242 367l-242 368l164 88l332 -446v-17l-332 -446z" />
<glyph unicode="&#xbc;" horiz-adv-x="1492" d="M86 1356l211 88h111v-782h-146v628l-147 -61zM229 0l451 745l403 689h136l-453 -746l-401 -688h-136zM834 289l331 491h160v-504h92v-116h-92v-164h-133v164h-344zM961 276h235v342h-4z" />
<glyph unicode="&#xbd;" horiz-adv-x="1492" d="M86 1356l211 88h111v-782h-146v628l-147 -61zM203 0l450 745l404 689h135l-453 -746l-401 -688h-135zM872 0v121l252 246q68 66 94.5 104.5t26.5 81.5q0 47 -31.5 74.5t-78.5 27.5q-84 0 -170 -102l-93 88q115 147 273 147q111 0 180.5 -60t69.5 -161q0 -70 -33 -126 t-113 -132l-186 -180h336v-129h-527z" />
<glyph unicode="&#xbe;" horiz-adv-x="1626" d="M78 754l78 106q94 -86 192 -86q53 0 90 32t37 83q0 111 -172 115h-59l-19 90l205 209h-309v131h487v-111l-213 -213q100 -12 161.5 -66.5t61.5 -150.5q0 -111 -74.5 -179.5t-195.5 -68.5q-154 0 -270 109zM356 0l451 745l403 689h136l-453 -746l-401 -688h-136zM971 289 l332 491h159v-504h92v-116h-92v-164h-133v164h-344zM1098 276h235v342h-4z" />
<glyph unicode="&#xbf;" horiz-adv-x="968" d="M72 385v4q0 319 362 406l23 194h155l35 -340l-10 -10q-330 -31 -330 -242v-4q0 -86 58.5 -139t154.5 -53q152 0 279 135l137 -160q-182 -192 -424 -192q-199 0 -319.5 109.5t-120.5 291.5zM403 1161v273h263v-273h-263z" />
<glyph unicode="&#xc0;" horiz-adv-x="1380" d="M49 0l526 1442h230l526 -1442h-248l-118 338h-557l-119 -338h-240zM369 1741l209 96l208 -285h-178zM481 549h410l-205 575z" />
<glyph unicode="&#xc1;" horiz-adv-x="1380" d="M49 0l526 1442h230l526 -1442h-248l-118 338h-557l-119 -338h-240zM481 549h410l-205 575zM594 1552l209 285l209 -96l-240 -189h-178z" />
<glyph unicode="&#xc2;" horiz-adv-x="1380" d="M49 0l526 1442h230l526 -1442h-248l-118 338h-557l-119 -338h-240zM362 1548l220 262h213l219 -262h-191l-137 113l-137 -113h-187zM481 549h410l-205 575z" />
<glyph unicode="&#xc3;" horiz-adv-x="1380" d="M49 0l526 1442h230l526 -1442h-248l-118 338h-557l-119 -338h-240zM344 1577q31 121 78 178t125 57q59 0 166 -45q76 -33 106 -32q35 0 56.5 21.5t39.5 70.5l134 -39q-31 -119 -78 -176.5t-125 -57.5q-55 0 -164 43q-76 33 -109 33q-35 0 -56 -21.5t-40 -70.5zM481 549 h410l-205 575z" />
<glyph unicode="&#xc4;" horiz-adv-x="1380" d="M49 0l526 1442h230l526 -1442h-248l-118 338h-557l-119 -338h-240zM381 1556v220h235v-220h-235zM481 549h410l-205 575zM760 1556v220h233v-220h-233z" />
<glyph unicode="&#xc5;" horiz-adv-x="1380" d="M49 0l496 1364q-78 57 -78 154q0 86 65.5 143t157.5 57t157.5 -57t65.5 -143q0 -96 -77 -154l495 -1364h-248l-118 338h-557l-119 -338h-240zM481 549h410l-205 575zM571 1517.5q0 -47.5 34 -78t85 -30.5t85 30.5t34 78t-34 78t-85 30.5t-85 -30.5t-34 -78z" />
<glyph unicode="&#xc6;" horiz-adv-x="1832" d="M18 0l676 1434h1035v-215h-637v-390h561v-215h-561v-399h645v-215h-881v338h-438l-160 -338h-240zM514 549h342v670h-35z" />
<glyph unicode="&#xc7;" horiz-adv-x="1263" d="M102 709v14q0 324 180.5 527.5t460.5 203.5q256 0 451 -178l-143 -182q-150 139 -308 139q-170 0 -282.5 -141.5t-112.5 -368.5v-8q0 -229 111.5 -371.5t283.5 -142.5q162 0 318 149l139 -168q-182 -188 -432 -200l-117 -293l-202 84l147 221q-223 47 -358.5 238.5 t-135.5 476.5z" />
<glyph unicode="&#xc8;" d="M156 0v1434h903v-215h-668v-390h592v-215h-592v-399h678v-215h-913zM289 1726l209 97l209 -285h-179z" />
<glyph unicode="&#xc9;" d="M156 0v1434h903v-215h-668v-390h592v-215h-592v-399h678v-215h-913zM514 1538l209 285l209 -97l-240 -188h-178z" />
<glyph unicode="&#xca;" d="M156 0v1434h903v-215h-668v-390h592v-215h-592v-399h678v-215h-913zM285 1540l219 262h213l219 -262h-191l-137 113l-137 -113h-186z" />
<glyph unicode="&#xcb;" d="M156 0v1434h903v-215h-668v-390h592v-215h-592v-399h678v-215h-913zM303 1542v219h236v-219h-236zM682 1542v219h233v-219h-233z" />
<glyph unicode="&#xcc;" horiz-adv-x="571" d="M-35 1726l209 97l209 -285h-178zM168 0v1434h238v-1434h-238z" />
<glyph unicode="&#xcd;" horiz-adv-x="571" d="M168 0v1434h238v-1434h-238zM193 1538l208 285l209 -97l-239 -188h-178z" />
<glyph unicode="&#xce;" horiz-adv-x="571" d="M-39 1540l219 262h213l219 -262h-190l-137 113l-138 -113h-186zM168 0v1434h238v-1434h-238z" />
<glyph unicode="&#xcf;" horiz-adv-x="571" d="M-18 1542v219h235v-219h-235zM168 0v1434h238v-1434h-238zM360 1542v219h234v-219h-234z" />
<glyph unicode="&#xd0;" horiz-adv-x="1423" d="M70 614v213h133v607h438q305 0 492.5 -196t187.5 -511v-16q0 -315 -187.5 -513t-492.5 -198h-438v614h-133zM440 215h201q197 0 315.5 133t118.5 361v12q0 229 -118.5 363.5t-315.5 134.5h-201v-392h289v-213h-289v-399z" />
<glyph unicode="&#xd1;" horiz-adv-x="1394" d="M156 0v1434h221l631 -957v957h231v-1434h-201l-649 985v-985h-233zM352 1561q31 121 78 178t125 57q59 0 166 -45q76 -33 106 -33q35 0 56.5 21.5t40.5 70.5l133 -38q-31 -119 -78 -176.5t-125 -57.5q-55 0 -164 43q-76 33 -108 33q-35 0 -56.5 -21.5t-40.5 -70.5z" />
<glyph unicode="&#xd2;" horiz-adv-x="1474" d="M102 705v20q0 319 178.5 525t458.5 206q279 0 456 -203.5t177 -523.5v-20q0 -319 -178 -525.5t-459 -206.5q-279 0 -456 204t-177 524zM348 711q0 -229 110.5 -371.5t280.5 -142.5t278.5 141t108.5 371v14q0 229 -109.5 371.5t-281.5 142.5q-170 0 -278.5 -141.5 t-108.5 -370.5v-14zM414 1741l209 96l208 -285h-178z" />
<glyph unicode="&#xd3;" horiz-adv-x="1474" d="M102 705v20q0 319 178.5 525t458.5 206q279 0 456 -203.5t177 -523.5v-20q0 -319 -178 -525.5t-459 -206.5q-279 0 -456 204t-177 524zM348 711q0 -229 110.5 -371.5t280.5 -142.5t278.5 141t108.5 371v14q0 229 -109.5 371.5t-281.5 142.5q-170 0 -278.5 -141.5 t-108.5 -370.5v-14zM641 1552l209 285l209 -96l-240 -189h-178z" />
<glyph unicode="&#xd4;" horiz-adv-x="1474" d="M102 705v20q0 319 178.5 525t458.5 206q279 0 456 -203.5t177 -523.5v-20q0 -319 -178 -525.5t-459 -206.5q-279 0 -456 204t-177 524zM348 711q0 -229 110.5 -371.5t280.5 -142.5t278.5 141t108.5 371v14q0 229 -109.5 371.5t-281.5 142.5q-170 0 -278.5 -141.5 t-108.5 -370.5v-14zM410 1554l219 263h213l219 -263h-191l-137 113l-137 -113h-186z" />
<glyph unicode="&#xd5;" horiz-adv-x="1474" d="M102 705v20q0 319 178.5 525t458.5 206q279 0 456 -203.5t177 -523.5v-20q0 -319 -178 -525.5t-459 -206.5q-279 0 -456 204t-177 524zM348 711q0 -229 110.5 -371.5t280.5 -142.5t278.5 141t108.5 371v14q0 229 -109.5 371.5t-281.5 142.5q-170 0 -278.5 -141.5 t-108.5 -370.5v-14zM391 1577q31 121 78 178t125 57q59 0 166 -45q76 -33 106 -32q35 0 56.5 21.5t40.5 70.5l133 -39q-31 -119 -78 -176.5t-125 -57.5q-57 0 -164 43q-76 33 -108 33q-35 0 -56.5 -21.5t-40.5 -70.5z" />
<glyph unicode="&#xd6;" horiz-adv-x="1474" d="M102 705v20q0 319 178.5 525t458.5 206q279 0 456 -203.5t177 -523.5v-20q0 -319 -178 -525.5t-459 -206.5q-279 0 -456 204t-177 524zM348 711q0 -229 110.5 -371.5t280.5 -142.5t278.5 141t108.5 371v14q0 229 -109.5 371.5t-281.5 142.5q-170 0 -278.5 -141.5 t-108.5 -370.5v-14zM430 1556v220h236v-220h-236zM809 1556v220h233v-220h-233z" />
<glyph unicode="&#xd7;" horiz-adv-x="1134" d="M127 418l301 301l-301 301l154 147l288 -301l289 301l150 -143l-299 -301l299 -301l-154 -148l-287 301l-288 -301z" />
<glyph unicode="&#xd8;" horiz-adv-x="1474" d="M92 -10l164 221q-154 199 -154 494v20q0 319 178.5 525t458.5 206q201 0 355 -113l77 101h211l-163 -221q154 -203 153 -494v-20q0 -319 -178 -525.5t-459 -206.5q-203 0 -354 111l-76 -98h-213zM344 711q0 -172 64 -299l555 747q-100 84 -228 84q-174 0 -282.5 -142.5 t-108.5 -373.5v-16zM512 272q98 -82 227 -82q174 0 282.5 142.5t108.5 374.5v16q0 166 -63 299z" />
<glyph unicode="&#xd9;" horiz-adv-x="1341" d="M137 547v887h238v-885q0 -172 78.5 -262t218.5 -90q137 0 216 88t79 256v893h235v-879q0 -283 -142 -430.5t-392 -147.5q-246 0 -388.5 147.5t-142.5 422.5zM348 1724l209 97l209 -285h-178z" />
<glyph unicode="&#xda;" horiz-adv-x="1341" d="M137 547v887h238v-885q0 -172 78.5 -262t218.5 -90q137 0 216 88t79 256v893h235v-879q0 -283 -142 -430.5t-392 -147.5q-246 0 -388.5 147.5t-142.5 422.5zM573 1536l209 285l209 -97l-239 -188h-179z" />
<glyph unicode="&#xdb;" horiz-adv-x="1341" d="M137 547v887h238v-885q0 -172 78.5 -262t218.5 -90q137 0 216 88t79 256v893h235v-879q0 -283 -142 -430.5t-392 -147.5q-246 0 -388.5 147.5t-142.5 422.5zM342 1538l219 262h213l219 -262h-190l-137 113l-138 -113h-186z" />
<glyph unicode="&#xdc;" horiz-adv-x="1341" d="M137 547v887h238v-885q0 -172 78.5 -262t218.5 -90q137 0 216 88t79 256v893h235v-879q0 -283 -142 -430.5t-392 -147.5q-246 0 -388.5 147.5t-142.5 422.5zM362 1540v219h236v-219h-236zM741 1540v219h234v-219h-234z" />
<glyph unicode="&#xdd;" horiz-adv-x="1255" d="M27 1434h272l332 -621l334 621h264l-481 -861v-573h-238v571zM530 1536l209 285l209 -97l-239 -188h-179z" />
<glyph unicode="&#xde;" horiz-adv-x="1198" d="M156 0v1434h237v-222h221q236 0 376 -128t140 -347v-4q0 -231 -149.5 -360t-380.5 -129h-207v-244h-237zM393 459h207q135 0 212 73.5t77 194.5v2q0 129 -76 198.5t-213 69.5h-207v-538z" />
<glyph unicode="&#xdf;" horiz-adv-x="1122" d="M131 0v1032q0 211 118 335t320 124q184 0 292 -104.5t108 -264.5v-8q0 -227 -211 -348q281 -100 280 -356v-9q0 -193 -133.5 -301t-369.5 -104v182q272 16 272 230v4q0 98 -72.5 159.5t-199.5 79.5v162q205 98 204 281v4q0 88 -49 140t-131 52q-90 0 -143.5 -66.5 t-53.5 -183.5v-1040h-231z" />
<glyph unicode="&#xe0;" horiz-adv-x="1048" d="M70 311v11q0 170 103 259t282 89q121 0 250 -43v45q0 109 -60.5 165t-173.5 56q-119 0 -262 -66l-66 185q176 86 359 86q213 0 319 -111q109 -109 109 -313v-674h-228v133q-106 -153 -301 -153q-141 0 -236 89t-95 242zM215 1432l207 96l196 -322h-169zM295 326 q0 -80 49 -125t127 -47q100 -2 168 58t68 153v108q-92 39 -201 39q-100 0 -155.5 -48t-55.5 -134v-4z" />
<glyph unicode="&#xe1;" horiz-adv-x="1048" d="M70 311v11q0 170 103 259t282 89q121 0 250 -43v45q0 109 -60.5 165t-173.5 56q-119 0 -262 -66l-66 185q176 86 359 86q213 0 319 -111q109 -109 109 -313v-674h-228v133q-106 -153 -301 -153q-141 0 -236 89t-95 242zM295 326q0 -80 49 -125t127 -47q100 -2 168 58 t68 153v108q-92 39 -201 39q-100 0 -155.5 -48t-55.5 -134v-4zM430 1206l199 322l205 -96l-234 -226h-170z" />
<glyph unicode="&#xe2;" horiz-adv-x="1048" d="M70 311v11q0 170 103 259t282 89q121 0 250 -43v45q0 109 -60.5 165t-173.5 56q-119 0 -262 -66l-66 185q176 86 359 86q213 0 319 -111q109 -109 109 -313v-674h-228v133q-106 -153 -301 -153q-141 0 -236 89t-95 242zM211 1206l211 293h205l211 -293h-176l-140 137 l-139 -137h-172zM295 326q0 -80 49 -125t127 -47q100 -2 168 58t68 153v108q-92 39 -201 39q-100 0 -155.5 -48t-55.5 -134v-4z" />
<glyph unicode="&#xe3;" horiz-adv-x="1048" d="M70 311v11q0 170 103 259t282 89q121 0 250 -43v45q0 109 -60.5 165t-173.5 56q-119 0 -262 -66l-66 185q176 86 359 86q213 0 319 -111q109 -109 109 -313v-674h-228v133q-106 -153 -301 -153q-141 0 -236 89t-95 242zM186 1229q33 125 78 181t123 56q61 0 156 -45 q78 -37 110 -37q35 0 55.5 21.5t39.5 75.5l131 -37q-33 -125 -78 -181.5t-123 -56.5q-57 0 -156 43q-78 37 -110 37q-35 0 -54.5 -21.5t-40.5 -72.5zM295 326q0 -80 49 -125t127 -47q100 -2 168 58t68 153v108q-92 39 -201 39q-100 0 -155.5 -48t-55.5 -134v-4z" />
<glyph unicode="&#xe4;" horiz-adv-x="1048" d="M70 311v11q0 170 103 259t282 89q121 0 250 -43v45q0 109 -60.5 165t-173.5 56q-119 0 -262 -66l-66 185q176 86 359 86q213 0 319 -111q109 -109 109 -313v-674h-228v133q-106 -153 -301 -153q-141 0 -236 89t-95 242zM231 1210v228h230v-228h-230zM295 326 q0 -80 49 -125t127 -47q100 -2 168 58t68 153v108q-92 39 -201 39q-100 0 -155.5 -48t-55.5 -134v-4zM588 1210v228h229v-228h-229z" />
<glyph unicode="&#xe5;" horiz-adv-x="1048" d="M70 311v11q0 170 103 259t282 89q121 0 250 -43v45q0 109 -60.5 165t-173.5 56q-119 0 -262 -66l-66 185q176 86 359 86q213 0 319 -111q109 -109 109 -313v-674h-228v133q-106 -153 -301 -153q-141 0 -236 89t-95 242zM295 326q0 -80 49 -125t127 -47q100 -2 168 58 t68 153v108q-92 39 -201 39q-100 0 -155.5 -48t-55.5 -134v-4zM307 1413q0 88 63.5 150.5t153.5 62.5t153.5 -61.5t63.5 -151.5q0 -88 -63.5 -150.5t-153.5 -62.5t-153.5 62.5t-63.5 150.5zM403 1413q0 -53 35 -89t86 -36t86 36t35 89t-35 89t-86 36t-86 -36t-35 -89z" />
<glyph unicode="&#xe6;" horiz-adv-x="1685" d="M70 315v7q0 170 103 259t280 89q117 0 245 -43v45q0 106 -59 163.5t-170 57.5q-121 0 -260 -68l-66 189q178 84 355 84q246 0 338 -164q123 172 325 172q209 0 328 -160t119 -411q0 -14 -4 -80h-680q16 -135 91 -208t185 -73q139 0 248 115l123 -144q-158 -168 -381 -168 q-246 0 -379 195q-170 -192 -387 -192q-154 0 -254 91t-100 244zM295 326q0 -78 50 -124t128 -46q150 0 264 151q-27 84 -32 168q-100 37 -201 37q-98 0 -153.5 -48t-55.5 -132v-6zM922 614h458q-8 133 -67.5 215t-157.5 82q-96 0 -158.5 -80t-74.5 -217z" />
<glyph unicode="&#xe7;" horiz-adv-x="985" d="M82 528v21q0 242 140 399.5t356 157.5q201 0 348 -148l-129 -170q-104 109 -219 109t-189 -98.5t-74 -251.5v-10q0 -158 75 -255.5t194 -97.5q111 0 221 111l125 -154q-135 -150 -320 -161l-116 -291l-203 84l149 223q-162 43 -260 186.5t-98 345.5z" />
<glyph unicode="&#xe8;" horiz-adv-x="1073" d="M82 530v17q0 244 131 401.5t332 157.5q215 0 332.5 -159t117.5 -412q0 -47 -2 -80h-680q14 -133 90 -207t185 -74q131 0 250 115l120 -144q-157 -168 -380 -168q-213 0 -354.5 152t-141.5 401zM231 1432l207 96l197 -322h-170zM311 614h459q-10 133 -68.5 215t-156.5 82 q-96 0 -159 -80t-75 -217z" />
<glyph unicode="&#xe9;" horiz-adv-x="1073" d="M82 530v17q0 244 131 401.5t332 157.5q215 0 332.5 -159t117.5 -412q0 -47 -2 -80h-680q14 -133 90 -207t185 -74q131 0 250 115l120 -144q-157 -168 -380 -168q-213 0 -354.5 152t-141.5 401zM311 614h459q-10 133 -68.5 215t-156.5 82q-96 0 -159 -80t-75 -217z M446 1206l199 322l205 -96l-234 -226h-170z" />
<glyph unicode="&#xea;" horiz-adv-x="1073" d="M82 530v17q0 244 131 401.5t332 157.5q215 0 332.5 -159t117.5 -412q0 -47 -2 -80h-680q14 -133 90 -207t185 -74q131 0 250 115l120 -144q-157 -168 -380 -168q-213 0 -354.5 152t-141.5 401zM227 1206l211 293h205l211 -293h-176l-139 137l-140 -137h-172zM311 614h459 q-10 133 -68.5 215t-156.5 82q-96 0 -159 -80t-75 -217z" />
<glyph unicode="&#xeb;" horiz-adv-x="1073" d="M82 530v17q0 244 131 401.5t332 157.5q215 0 332.5 -159t117.5 -412q0 -47 -2 -80h-680q14 -133 90 -207t185 -74q131 0 250 115l120 -144q-157 -168 -380 -168q-213 0 -354.5 152t-141.5 401zM248 1210v228h229v-228h-229zM311 614h459q-10 133 -68.5 215t-156.5 82 q-96 0 -159 -80t-75 -217zM604 1210v228h230v-228h-230z" />
<glyph unicode="&#xec;" horiz-adv-x="518" d="M-51 1432l207 96l196 -322h-170zM143 0v1085h232v-1085h-232z" />
<glyph unicode="&#xed;" horiz-adv-x="518" d="M143 0v1085h232v-1085h-232zM166 1206l199 322l204 -96l-233 -226h-170z" />
<glyph unicode="&#xee;" horiz-adv-x="518" d="M-53 1206l211 293h204l211 -293h-176l-139 137l-139 -137h-172zM143 0v1085h232v-1085h-232z" />
<glyph unicode="&#xef;" horiz-adv-x="518" d="M-33 1210v228h230v-228h-230zM143 0v1085h232v-1085h-232zM324 1210v228h229v-228h-229z" />
<glyph unicode="&#xf0;" d="M82 539v20q0 229 125 376.5t299 147.5q129 0 248 -94q-61 119 -176 242l-216 -72l-51 133l156 51q-74 70 -154 136h299q45 -41 66 -64l205 70l49 -133l-146 -49q291 -340 291 -705v-18q0 -270 -137 -436.5t-365 -166.5q-211 0 -352 159t-141 403zM313 535 q0 -152 76 -253.5t193 -101.5q121 0 193.5 98.5t72.5 253.5v13q0 154 -77 252t-195.5 98t-190.5 -98.5t-72 -251.5v-10z" />
<glyph unicode="&#xf1;" horiz-adv-x="1114" d="M131 0v1085h231v-159q115 180 297 180q156 0 245 -102.5t89 -276.5v-727h-231v662q0 113 -51.5 174t-143.5 61t-148.5 -64.5t-56.5 -175.5v-657h-231zM223 1229q33 125 78 181t123 56q61 0 156 -45q78 -37 110 -37q35 0 55.5 21.5t38.5 75.5l131 -37 q-33 -125 -77.5 -181.5t-122.5 -56.5q-57 0 -156 43q-78 37 -110 37q-35 0 -54.5 -21.5t-40.5 -72.5z" />
<glyph unicode="&#xf2;" d="M82 530v19q0 240 142.5 398.5t359.5 158.5q215 0 356 -156.5t141 -398.5v-19q0 -240 -142 -397.5t-359 -157.5q-215 0 -356.5 157t-141.5 396zM272 1432l207 96l197 -322h-170zM313 537q0 -154 77 -255.5t194 -101.5q119 0 192.5 100.5t73.5 254.5v12q0 154 -77 254 t-193 100q-121 0 -194 -99.5t-73 -252.5v-12z" />
<glyph unicode="&#xf3;" d="M82 530v19q0 240 142.5 398.5t359.5 158.5q215 0 356 -156.5t141 -398.5v-19q0 -240 -142 -397.5t-359 -157.5q-215 0 -356.5 157t-141.5 396zM313 537q0 -154 77 -255.5t194 -101.5q119 0 192.5 100.5t73.5 254.5v12q0 154 -77 254t-193 100q-121 0 -194 -99.5 t-73 -252.5v-12zM487 1206l199 322l205 -96l-234 -226h-170z" />
<glyph unicode="&#xf4;" d="M82 530v19q0 240 142.5 398.5t359.5 158.5q215 0 356 -156.5t141 -398.5v-19q0 -240 -142 -397.5t-359 -157.5q-215 0 -356.5 157t-141.5 396zM268 1206l211 293h205l211 -293h-176l-139 137l-140 -137h-172zM313 537q0 -154 77 -255.5t194 -101.5q119 0 192.5 100.5 t73.5 254.5v12q0 154 -77 254t-193 100q-121 0 -194 -99.5t-73 -252.5v-12z" />
<glyph unicode="&#xf5;" d="M82 530v19q0 240 142.5 398.5t359.5 158.5q215 0 356 -156.5t141 -398.5v-19q0 -240 -142 -397.5t-359 -157.5q-215 0 -356.5 157t-141.5 396zM242 1229q33 125 78 181t122 56q61 0 156 -45q78 -37 111 -37q35 0 55 21.5t39 75.5l131 -37q-33 -125 -78 -181.5t-123 -56.5 q-57 0 -155 43q-78 37 -111 37q-35 0 -54.5 -21.5t-39.5 -72.5zM313 537q0 -154 77 -255.5t194 -101.5q119 0 192.5 100.5t73.5 254.5v12q0 154 -77 254t-193 100q-121 0 -194 -99.5t-73 -252.5v-12z" />
<glyph unicode="&#xf6;" d="M82 530v19q0 240 142.5 398.5t359.5 158.5q215 0 356 -156.5t141 -398.5v-19q0 -240 -142 -397.5t-359 -157.5q-215 0 -356.5 157t-141.5 396zM289 1210v228h229v-228h-229zM313 537q0 -154 77 -255.5t194 -101.5q119 0 192.5 100.5t73.5 254.5v12q0 154 -77 254 t-193 100q-121 0 -194 -99.5t-73 -252.5v-12zM645 1210v228h229v-228h-229z" />
<glyph unicode="&#xf7;" horiz-adv-x="1134" d="M113 618v205h909v-205h-909zM442 205v246h250v-246h-250zM442 991v246h250v-246h-250z" />
<glyph unicode="&#xf8;" d="M57 -12l140 178q-115 154 -115 364v19q0 240 143.5 398.5t358.5 158.5q147 0 268 -82l59 72h195l-139 -181q115 -154 114 -364v-19q0 -240 -143 -397.5t-358 -157.5q-152 0 -271 80l-57 -69h-195zM305 537q0 -102 35 -185l389 502q-70 53 -149 53q-123 0 -199 -101 t-76 -257v-12zM434 225q62 -49 150 -49q123 0 197.5 101.5t74.5 257.5v10q0 102 -35 184z" />
<glyph unicode="&#xf9;" horiz-adv-x="1114" d="M121 358v727h231v-661q0 -113 50.5 -174.5t142.5 -61.5t148.5 64.5t56.5 175.5v657h233v-1085h-233v158q-115 -178 -295 -178q-158 0 -246 101t-88 277zM242 1432l207 96l196 -322h-170z" />
<glyph unicode="&#xfa;" horiz-adv-x="1114" d="M121 358v727h231v-661q0 -113 50.5 -174.5t142.5 -61.5t148.5 64.5t56.5 175.5v657h233v-1085h-233v158q-115 -178 -295 -178q-158 0 -246 101t-88 277zM457 1206l198 322l205 -96l-233 -226h-170z" />
<glyph unicode="&#xfb;" horiz-adv-x="1114" d="M121 358v727h231v-661q0 -113 50.5 -174.5t142.5 -61.5t148.5 64.5t56.5 175.5v657h233v-1085h-233v158q-115 -178 -295 -178q-158 0 -246 101t-88 277zM238 1206l211 293h204l211 -293h-176l-139 137l-139 -137h-172z" />
<glyph unicode="&#xfc;" horiz-adv-x="1114" d="M121 358v727h231v-661q0 -113 50.5 -174.5t142.5 -61.5t148.5 64.5t56.5 175.5v657h233v-1085h-233v158q-115 -178 -295 -178q-158 0 -246 101t-88 277zM258 1210v228h229v-228h-229zM614 1210v228h230v-228h-230z" />
<glyph unicode="&#xfd;" horiz-adv-x="1067" d="M45 1085h246l252 -788l235 788h240l-369 -1101q-55 -164 -127.5 -231.5t-193.5 -67.5q-115 0 -219 57l67 178q66 -37 125 -37q47 0 77 25.5t54 89.5zM440 1206l199 322l205 -96l-234 -226h-170z" />
<glyph unicode="&#xfe;" horiz-adv-x="1187" d="M131 -309v1788h231v-568q125 195 318 195q174 0 298 -144.5t124 -404.5v-29q0 -260 -123 -404t-299 -144q-193 0 -318 184v-473h-231zM358 532q0 -156 74.5 -252t183.5 -96q106 0 179 95.5t73 252.5v19q0 158 -72.5 254t-179.5 96q-109 0 -183.5 -96t-74.5 -252v-21z" />
<glyph unicode="&#xff;" horiz-adv-x="1067" d="M45 1085h246l252 -788l235 788h240l-369 -1101q-55 -164 -127.5 -231.5t-193.5 -67.5q-115 0 -219 57l67 178q66 -37 125 -37q47 0 77 25.5t54 89.5zM242 1210v228h229v-228h-229zM598 1210v228h229v-228h-229z" />
<glyph unicode="&#x152;" horiz-adv-x="1916" d="M102 707v16q0 315 187.5 513t492.5 198h1030v-215h-634v-390h561v-215h-561v-399h645v-215h-1041q-305 0 -492.5 195.5t-187.5 511.5zM348 713q0 -229 118.5 -363.5t315.5 -134.5h158v1004h-158q-197 0 -315.5 -133.5t-118.5 -360.5v-12z" />
<glyph unicode="&#x153;" horiz-adv-x="1837" d="M82 530v19q0 240 142.5 398.5t353.5 158.5q242 0 372 -211q125 211 357 211q213 0 331.5 -160t118.5 -411q0 -47 -2 -80h-680q14 -135 89 -208t186 -73q139 0 249 115l123 -144q-158 -168 -381 -168q-258 0 -393 216q-61 -100 -158.5 -158t-218.5 -58q-207 0 -348 157 t-141 396zM313 537q0 -154 75 -255.5t190 -101.5q119 0 190.5 100.5t71.5 254.5v12q0 154 -74 254t-191 100q-119 0 -190.5 -99.5t-71.5 -252.5v-12zM1073 614h459q-10 135 -68.5 216t-158.5 81q-94 0 -157 -80t-75 -217z" />
<glyph unicode="&#x178;" horiz-adv-x="1255" d="M27 1434h272l332 -621l334 621h264l-481 -861v-573h-238v571zM319 1540v219h236v-219h-236zM698 1540v219h234v-219h-234z" />
<glyph unicode="&#x2c6;" horiz-adv-x="1024" d="M199 1206l211 293h204l211 -293h-176l-139 137l-139 -137h-172z" />
<glyph unicode="&#x2dc;" horiz-adv-x="1024" d="M166 1229q33 125 78 181t123 56q61 0 155 -45q78 -37 111 -37q35 0 55.5 21.5t38.5 75.5l131 -37q-33 -125 -78 -181.5t-123 -56.5q-57 0 -155 43q-78 37 -111 37q-35 0 -54.5 -21.5t-39.5 -72.5z" />
<glyph unicode="&#x2000;" horiz-adv-x="918" />
<glyph unicode="&#x2001;" horiz-adv-x="1837" />
<glyph unicode="&#x2002;" horiz-adv-x="918" />
<glyph unicode="&#x2003;" horiz-adv-x="1837" />
<glyph unicode="&#x2004;" horiz-adv-x="612" />
<glyph unicode="&#x2005;" horiz-adv-x="459" />
<glyph unicode="&#x2006;" horiz-adv-x="306" />
<glyph unicode="&#x2007;" horiz-adv-x="306" />
<glyph unicode="&#x2008;" horiz-adv-x="229" />
<glyph unicode="&#x2009;" horiz-adv-x="367" />
<glyph unicode="&#x200a;" horiz-adv-x="102" />
<glyph unicode="&#x2010;" horiz-adv-x="778" d="M104 512v229h570v-229h-570z" />
<glyph unicode="&#x2011;" horiz-adv-x="778" d="M104 512v229h570v-229h-570z" />
<glyph unicode="&#x2012;" horiz-adv-x="778" d="M104 512v229h570v-229h-570z" />
<glyph unicode="&#x2013;" horiz-adv-x="1026" d="M104 516v221h818v-221h-818z" />
<glyph unicode="&#x2014;" horiz-adv-x="1683" d="M104 516v221h1475v-221h-1475z" />
<glyph unicode="&#x2018;" horiz-adv-x="509" d="M115 872v230q0 160 74.5 241.5t224.5 98.5l24 -99q-182 -39 -166 -198h105v-273h-262z" />
<glyph unicode="&#x2019;" horiz-adv-x="509" d="M72 965q182 39 166 196h-105v273h262v-230q0 -160 -74.5 -242t-224.5 -98z" />
<glyph unicode="&#x201a;" horiz-adv-x="520" d="M63 -197q186 35 175 197h-107v272h262v-229q0 -160 -74.5 -242t-228.5 -98z" />
<glyph unicode="&#x201c;" horiz-adv-x="948" d="M115 872v230q0 160 74.5 241.5t224.5 98.5l24 -99q-182 -39 -166 -198h105v-273h-262zM553 872v230q0 160 74.5 241.5t226.5 98.5l25 -99q-184 -39 -168 -198h104v-273h-262z" />
<glyph unicode="&#x201d;" horiz-adv-x="948" d="M72 965q182 39 166 196h-105v273h262v-230q0 -160 -74.5 -242t-224.5 -98zM510 965q180 39 168 196h-107v273h263v-230q0 -160 -74.5 -242t-224.5 -98z" />
<glyph unicode="&#x201e;" horiz-adv-x="962" d="M63 -197q186 35 175 197h-107v272h262v-229q0 -160 -74.5 -242t-228.5 -98zM506 -197q186 35 174 197h-105v272h261v-229q0 -160 -75 -242t-231 -98z" />
<glyph unicode="&#x2022;" horiz-adv-x="913" d="M190 715v14q0 121 77 201t190 80q111 0 188.5 -80t77.5 -201v-14q0 -121 -77 -201t-189.5 -80t-189.5 80t-77 201z" />
<glyph unicode="&#x2026;" horiz-adv-x="1538" d="M127 0v268h258v-268h-258zM641 0v268h256v-268h-256zM1153 0v268h258v-268h-258z" />
<glyph unicode="&#x202f;" horiz-adv-x="367" />
<glyph unicode="&#x2039;" horiz-adv-x="665" d="M80 532v17l330 446l163 -86l-239 -366l241 -367l-165 -90z" />
<glyph unicode="&#x203a;" horiz-adv-x="665" d="M90 907l164 88l332 -446v-17l-332 -446l-162 86l240 367z" />
<glyph unicode="&#x205f;" horiz-adv-x="459" />
<glyph unicode="&#x20ac;" horiz-adv-x="1261" d="M84 467v168h143q-2 23 -2 72v16q0 57 2 86h-143v168h170q55 221 193.5 350t332.5 129q137 0 232.5 -53.5t177.5 -155.5l-162 -151q-106 143 -250 143q-96 0 -169.5 -68.5t-110.5 -193.5h383v-168h-414q-2 -27 -2 -84v-14q0 -51 2 -76h414v-168h-385q37 -133 112.5 -202.5 t177.5 -69.5q139 0 252 151l154 -143q-170 -225 -410 -226q-203 0 -342 130.5t-190 359.5h-166z" />
<glyph unicode="&#x2122;" horiz-adv-x="1247" d="M45 1325v109h442v-109h-161v-526h-119v526h-162zM604 799v635h125l158 -283l157 283h123v-635h-112v444l-164 -297h-10l-164 297v-444h-113z" />
<glyph unicode="&#x25fc;" horiz-adv-x="1085" d="M0 0v1085h1085v-1085h-1085z" />
</font>
</defs>
</svg>
